<svg xmlns="http://www.w3.org/2000/svg" width="135" height="42" viewBox="0 0 135 42">
    <g fill="none" fill-rule="evenodd">
        <rect width="135" height="42" fill="#000" fill-rule="nonzero" rx="4"/>
        <g fill="#FFF" fill-rule="nonzero">
            <path d="M40.661 16.918c.539-.006 1.01-.123 1.416-.35.405-.229.717-.556.936-.982.218-.426.327-.922.327-1.488v-.383c-.003-.552-.113-1.041-.332-1.467a2.342 2.342 0 0 0-.93-.985c-.4-.231-.862-.347-1.384-.347H39v6.002h1.661zm-.037-.648h-.833v-4.702h.924c.588.005 1.042.197 1.362.575.32.377.48.907.48 1.588v.35c0 .701-.17 1.241-.509 1.62-.34.38-.814.57-1.424.57zm5.678.73c.4 0 .756-.096 1.065-.289.31-.192.547-.46.713-.805.166-.345.25-.735.25-1.169v-.053c0-.698-.188-1.258-.563-1.678-.375-.42-.866-.63-1.474-.63-.393 0-.742.094-1.049.284-.306.19-.545.459-.717.808a2.634 2.634 0 0 0-.257 1.178v.054c0 .693.187 1.249.562 1.67.375.42.865.63 1.47.63zm0-.622c-.385 0-.692-.15-.922-.45-.23-.3-.344-.696-.344-1.19 0-.559.116-.987.346-1.287.231-.3.535-.45.911-.45.385 0 .693.153.926.456.232.304.348.7.348 1.19 0 .546-.114.972-.342 1.275a1.095 1.095 0 0 1-.923.456zm4.552.54l1.055-3.38 1.084 3.38h.618l1.299-4.46h-.763l-.857 3.409-1.06-3.41h-.614l-1.038 3.34-.878-3.34h-.759l1.295 4.46h.618zm5.649 0V13.74c.104-.215.25-.388.437-.52a1.1 1.1 0 0 1 .65-.197c.306 0 .53.076.675.23.144.154.218.392.22.713v2.952h.763V13.97c-.008-1.064-.484-1.596-1.426-1.596-.55 0-.995.215-1.336.643l-.025-.56h-.72v4.46h.762zm4.779 0v-6.331h-.763v6.33h.763zm3.105.082c.402 0 .757-.096 1.066-.289.309-.192.547-.46.713-.805.166-.345.25-.735.25-1.169v-.053c0-.698-.188-1.258-.563-1.678-.375-.42-.867-.63-1.474-.63-.393 0-.742.094-1.049.284-.306.19-.545.459-.717.808a2.634 2.634 0 0 0-.258 1.178v.054c0 .693.188 1.249.563 1.67.375.42.865.63 1.47.63zm0-.622c-.384 0-.691-.15-.92-.45-.23-.3-.345-.696-.345-1.19 0-.559.115-.987.346-1.287.231-.3.535-.45.911-.45.385 0 .693.153.925.456.233.304.349.7.349 1.19 0 .546-.114.972-.342 1.275a1.095 1.095 0 0 1-.924.456zm4.417.622c.492 0 .915-.184 1.27-.552.027.225.062.382.106.47h.8v-.066c-.104-.242-.157-.568-.157-.977v-2.053c-.01-.45-.162-.804-.453-1.061-.291-.257-.694-.386-1.208-.386-.324 0-.621.06-.892.182-.27.12-.485.285-.643.492a1.052 1.052 0 0 0-.237.645h.767c0-.195.092-.361.276-.498.184-.138.412-.206.684-.206.31 0 .545.079.705.237.16.158.239.37.239.636v.35h-.742c-.64 0-1.137.13-1.49.386-.353.257-.53.618-.53 1.082 0 .382.141.697.423.946.281.249.642.373 1.082.373zm.111-.664c-.25 0-.455-.067-.614-.202-.16-.134-.24-.321-.24-.56 0-.547.468-.82 1.402-.82h.598v.915a1.122 1.122 0 0 1-.466.482 1.34 1.34 0 0 1-.68.185zM73.64 17c.545 0 .97-.187 1.274-.56l.037.478h.7v-6.331h-.762v2.324c-.305-.357-.718-.536-1.24-.536-.525 0-.95.209-1.274.625-.324.416-.486.966-.486 1.65v.058c0 .682.163 1.234.488 1.657.326.423.747.635 1.263.635zm.19-.647c-.368 0-.657-.143-.865-.429-.21-.286-.314-.681-.314-1.187 0-.566.105-.993.314-1.282.208-.288.5-.432.873-.432.473 0 .823.21 1.051.63v2.049c-.222.434-.575.65-1.059.65zm6.343.565v-3.87h.952v-.59h-.952v-.47c0-.27.068-.476.202-.62.135-.145.326-.217.573-.217.146 0 .283.013.412.037l.042-.618a2.001 2.001 0 0 0-.524-.07c-.467 0-.828.13-1.084.392-.256.26-.383.63-.383 1.108v.458h-.705v.59h.705v3.87h.762zm3.679.082c.401 0 .756-.096 1.065-.289.31-.192.547-.46.713-.805.167-.345.25-.735.25-1.169v-.053c0-.698-.188-1.258-.563-1.678-.375-.42-.866-.63-1.473-.63-.393 0-.743.094-1.05.284-.306.19-.545.459-.717.808a2.634 2.634 0 0 0-.257 1.178v.054c0 .693.187 1.249.562 1.67.375.42.865.63 1.47.63zm0-.622c-.385 0-.692-.15-.921-.45-.23-.3-.345-.696-.345-1.19 0-.559.116-.987.347-1.287.23-.3.534-.45.91-.45.385 0 .694.153.926.456.232.304.348.7.348 1.19 0 .546-.114.972-.342 1.275a1.095 1.095 0 0 1-.923.456zm3.802.54v-3.166c.179-.426.518-.639 1.018-.639.135 0 .26.01.375.029v-.709a.779.779 0 0 0-.338-.058c-.459 0-.813.2-1.063.598l-.013-.515h-.742v4.46h.763zM40.702 30.871l.764-2.178h3.65l.77 2.178h1.71l-3.567-9.357H42.56L39 30.871h1.702zm3.955-3.49h-2.731L43.29 23.5l1.366 3.882zm5.181 3.49v-4.948c.31-.57.783-.855 1.418-.855.436 0 .75.106.942.318.192.212.288.539.288.98v4.505h1.572v-4.595c-.025-1.658-.768-2.487-2.226-2.487-.842 0-1.521.31-2.039.932l-.045-.803h-1.483v6.953h1.573zm8.366.129c.785 0 1.413-.283 1.884-.848l.077.72h1.424V21h-1.573v3.56c-.457-.514-1.057-.77-1.8-.77-.84 0-1.512.324-2.012.973s-.75 1.51-.75 2.58c0 1.127.253 2.018.76 2.674.507.655 1.17.983 1.99.983zm.401-1.272c-.505 0-.894-.199-1.168-.595-.274-.396-.411-.948-.411-1.655 0-.805.138-1.408.414-1.809.276-.4.669-.6 1.178-.6.643 0 1.11.278 1.398.835v2.969c-.297.57-.768.855-1.41.855zm6.282 1.143v-4.755c.25-.549.736-.823 1.456-.823.22 0 .434.017.64.051l.007-1.465a1.482 1.482 0 0 0-.556-.09c-.673 0-1.2.302-1.58.906l-.038-.777h-1.502v6.953h1.573zm5.912.129c.648 0 1.218-.148 1.712-.443a2.929 2.929 0 0 0 1.14-1.254c.265-.54.398-1.152.398-1.838l-.007-.366c-.047-.998-.366-1.8-.955-2.404-.589-.604-1.356-.906-2.3-.906-.64 0-1.204.147-1.696.44a2.965 2.965 0 0 0-1.146 1.26c-.272.546-.408 1.16-.408 1.841v.077c0 1.089.297 1.96.89 2.613s1.384.98 2.372.98zm0-1.247c-.53 0-.945-.202-1.242-.607-.298-.405-.447-.965-.447-1.68 0-.806.151-1.411.453-1.816.302-.405.71-.608 1.223-.608.523 0 .936.206 1.24.617.304.412.456.969.456 1.671 0 .793-.148 1.395-.443 1.806-.296.412-.709.617-1.24.617zm5.557-6.819c.285 0 .505-.078.66-.234a.8.8 0 0 0 .233-.588.82.82 0 0 0-.233-.598c-.155-.158-.375-.238-.66-.238-.285 0-.504.08-.657.238a.826.826 0 0 0-.23.598c0 .235.077.431.23.588.153.156.372.234.657.234zm.783 7.937v-6.953h-1.573v6.953h1.573zm4.256.129c.785 0 1.413-.283 1.883-.848l.078.72h1.424V21h-1.573v3.56c-.457-.514-1.057-.77-1.8-.77-.84 0-1.512.324-2.012.973s-.751 1.51-.751 2.58c0 1.127.253 2.018.76 2.674.507.655 1.17.983 1.99.983zm.401-1.272c-.505 0-.894-.199-1.168-.595-.274-.396-.411-.948-.411-1.655 0-.805.138-1.408.414-1.809.276-.4.669-.6 1.178-.6.643 0 1.109.278 1.398.835v2.969c-.298.57-.768.855-1.41.855zm9.113 1.143l.764-2.178h3.65l.77 2.178h1.71l-3.567-9.357h-1.47l-3.56 9.357h1.703zm3.955-3.49h-2.731l1.365-3.881 1.366 3.882zm5.731 3.49v-3.476h1.949c1.091 0 1.94-.255 2.547-.765.606-.51.909-1.223.909-2.14 0-.896-.31-1.616-.929-2.16-.62-.544-1.455-.816-2.508-.816h-3.605v9.357h1.637zm1.968-4.781h-1.968v-3.265h2.013c.544.009.971.164 1.282.466.31.302.466.706.466 1.212 0 .514-.153.907-.46 1.179-.306.272-.75.408-1.333.408zm6.592 4.781v-2.917l1.068-1.125 2.835 4.042H115l-3.702-5.212 3.501-4.145h-1.98l-2.758 3.278-.906 1.112v-4.39h-1.637v9.357h1.637z"/>
        </g>
        <path d="M10 9h24v24H10z"/>
        <path fill="#95CF00" d="M31.069 16.587c-.792 0-1.432.624-1.432 1.393v5.962c0 .77.64 1.393 1.432 1.393.79 0 1.431-.624 1.431-1.393V17.98c0-.769-.64-1.393-1.431-1.393zm-18.136 0c-.792 0-1.433.624-1.433 1.393v5.962c0 .77.64 1.393 1.433 1.393.79 0 1.43-.624 1.43-1.393V17.98c0-.769-.64-1.393-1.43-1.393zm2.489 0h-.103v10.22c0 .811.677 1.472 1.512 1.472h1.09a1.309 1.309 0 0 0-.057.386v2.942c0 .77.642 1.393 1.432 1.393.79 0 1.433-.623 1.433-1.393v-2.942a1.36 1.36 0 0 0-.058-.387h2.659a1.36 1.36 0 0 0-.057.387v2.942c0 .77.641 1.393 1.431 1.393.792 0 1.434-.624 1.434-1.393v-2.942a1.31 1.31 0 0 0-.06-.387h1.092c.836 0 1.511-.66 1.511-1.471v-10.22h-13.26zm9.865-5.578l.267-.392.267-.387.594-.869a.227.227 0 0 0-.067-.322.24.24 0 0 0-.329.065l-.908 1.323-.272.397A8.037 8.037 0 0 0 22 10.316a8.043 8.043 0 0 0-2.839.508l-.271-.397-.268-.391-.638-.932a.244.244 0 0 0-.332-.065.23.23 0 0 0-.067.322l.594.87.267.386.268.392c-2.025.919-3.395 2.659-3.395 4.65H28.68c0-1.991-1.37-3.731-3.394-4.65zm-6.15 2.791a.707.707 0 0 1-.717-.697c0-.385.32-.695.717-.695.395 0 .716.31.716.695 0 .386-.32.697-.716.697zm5.727 0a.707.707 0 0 1-.717-.697c0-.385.32-.695.717-.695.395 0 .716.31.716.695 0 .386-.32.697-.716.697z"/>
    </g>
</svg>
