<svg width="42" height="42" viewBox="0 0 42 42" fill="none" xmlns="http://www.w3.org/2000/svg">
<rect x="2" y="2" width="38" height="38" rx="2" fill="url(#paint0_linear)"/>
<path fill-rule="evenodd" clip-rule="evenodd" d="M2 4C2 2.89543 2.89543 2 4 2H38C39.1046 2 40 2.89543 40 4V9H2V4Z" fill="#5A81EA"/>
<path fill-rule="evenodd" clip-rule="evenodd" d="M22.0715 12.1941C21.6714 12.0869 21.2601 12.3244 21.1529 12.7245L18.6941 21.9008C18.5869 22.3009 18.8243 22.7121 19.2244 22.8193C19.6245 22.9265 20.0358 22.6891 20.143 22.289L22.6018 13.1127C22.709 12.7126 22.4716 12.3013 22.0715 12.1941ZM17.5303 14.5304C17.8232 14.2375 17.8232 13.7626 17.5303 13.4697C17.2374 13.1768 16.7626 13.1768 16.4697 13.4697L12.9697 16.9697C12.6768 17.2626 12.6768 17.7375 12.9697 18.0304L16.4697 21.5304C16.7626 21.8232 17.2374 21.8232 17.5303 21.5304C17.8232 21.2375 17.8232 20.7626 17.5303 20.4697L14.5607 17.5L17.5303 14.5304ZM23.9697 20.4697C23.6768 20.7626 23.6768 21.2375 23.9697 21.5304C24.2626 21.8232 24.7374 21.8232 25.0303 21.5304L28.5303 18.0304C28.8232 17.7375 28.8232 17.2626 28.5303 16.9697L25.0303 13.4697C24.7374 13.1768 24.2626 13.1768 23.9697 13.4697C23.6768 13.7626 23.6768 14.2375 23.9697 14.5304L26.9393 17.5L23.9697 20.4697Z" fill="#5A81EA"/>
<path fill-rule="evenodd" clip-rule="evenodd" d="M5.75 6.75C6.44036 6.75 7 6.19036 7 5.5C7 4.80964 6.44036 4.25 5.75 4.25C5.05964 4.25 4.5 4.80964 4.5 5.5C4.5 6.19036 5.05964 6.75 5.75 6.75Z" fill="#CCDAFF"/>
<path opacity="0.5" fill-rule="evenodd" clip-rule="evenodd" d="M9.75 6.75C10.4404 6.75 11 6.19036 11 5.5C11 4.80964 10.4404 4.25 9.75 4.25C9.05964 4.25 8.5 4.80964 8.5 5.5C8.5 6.19036 9.05964 6.75 9.75 6.75Z" fill="#CCDAFF"/>
<path opacity="0.2" fill-rule="evenodd" clip-rule="evenodd" d="M13.75 6.75C14.4404 6.75 15 6.19036 15 5.5C15 4.80964 14.4404 4.25 13.75 4.25C13.0596 4.25 12.5 4.80964 12.5 5.5C12.5 6.19036 13.0596 6.75 13.75 6.75Z" fill="#CCDAFF"/>
<rect x="7" y="27" width="13" height="1.5" rx="0.75" fill="#5A81EA"/>
<rect x="7" y="34" width="11" height="1.5" rx="0.75" fill="#5A81EA"/>
<rect x="20" y="34" width="11" height="1.5" rx="0.75" fill="#5A81EA"/>
<rect x="7" y="30.5" width="8" height="1.5" rx="0.75" fill="#5A81EA"/>
<rect x="17" y="30.5" width="8" height="1.5" rx="0.75" fill="#5A81EA"/>
<rect x="27" y="30.5" width="8" height="1.5" rx="0.75" fill="#5A81EA"/>
<defs>
<linearGradient id="paint0_linear" x1="64.4609" y1="18.2695" x2="21" y2="-19.7305" gradientUnits="userSpaceOnUse">
<stop stop-color="#545B6B"/>
<stop offset="1" stop-color="#495060"/>
</linearGradient>
</defs>
</svg>
