<svg xmlns="http://www.w3.org/2000/svg" width="135" height="42" viewBox="0 0 135 42">
    <g fill="none" fill-rule="evenodd">
        <rect width="135" height="42" fill="#000" fill-rule="nonzero" rx="4"/>
        <path fill="#FFF" fill-rule="nonzero" d="M56.808 22.66c2.418 0 4.013 1.91 4.013 4.864 0 2.96-1.585 4.863-3.977 4.863a3.23 3.23 0 0 1-2.998-1.667H53.8v4.72h-1.956V22.759h1.893v1.585h.036a3.38 3.38 0 0 1 3.034-1.685zm10.488 0c2.418 0 4.012 1.91 4.012 4.864 0 2.96-1.585 4.863-3.976 4.863a3.23 3.23 0 0 1-2.998-1.667h-.046v4.72h-1.956V22.759h1.894v1.585h.036a3.38 3.38 0 0 1 3.034-1.685zM81.338 19c2.762 0 4.655 1.549 4.719 3.804h-1.975c-.118-1.304-1.196-2.092-2.772-2.092-1.576 0-2.654.797-2.654 1.956 0 .924.689 1.468 2.373 1.884l1.44.354c2.682.634 3.796 1.711 3.796 3.623 0 2.445-1.948 3.976-5.045 3.976-2.899 0-4.856-1.495-4.982-3.859h2.002c.145 1.296 1.404 2.147 3.125 2.147 1.648 0 2.834-.85 2.834-2.02 0-1.014-.715-1.621-2.409-2.038l-1.694-.408c-2.4-.58-3.514-1.702-3.514-3.523 0-2.255 1.965-3.804 4.756-3.804zm16.53 3.642c2.762 0 4.52 1.884 4.52 4.882 0 3.006-1.749 4.882-4.52 4.882-2.772 0-4.52-1.876-4.52-4.882 0-2.998 1.766-4.882 4.52-4.882zm15.838 0c2.636 0 4.294 1.81 4.294 4.7v.67h-6.73v.118a2.482 2.482 0 0 0 2.563 2.7 2.156 2.156 0 0 0 2.2-1.341h1.858c-.263 1.73-1.948 2.917-4.103 2.917-2.772 0-4.493-1.857-4.493-4.837 0-2.989 1.73-4.927 4.41-4.927zm-23.22-2.138v2.255h1.812v1.549h-1.812v5.253c0 .816.363 1.196 1.16 1.196.215-.004.43-.019.643-.045v1.54a5.371 5.371 0 0 1-1.086.09c-1.93 0-2.682-.725-2.682-2.573v-5.461h-1.385v-1.55h1.385v-2.254h1.965zm-44.575-1.286l4.719 13.07h-2.146l-1.196-3.533h-4.982l-1.196 3.533H39l4.719-13.07h2.192zm62.292 3.441c.225 0 .45.024.67.073v1.83a2.734 2.734 0 0 0-.879-.119 1.97 1.97 0 0 0-2.038 2.193v5.652H104v-9.53h1.866v1.623h.045a2.273 2.273 0 0 1 2.292-1.722zm-10.336 1.594c-1.585 0-2.526 1.223-2.526 3.27 0 2.066.941 3.27 2.526 3.27s2.528-1.204 2.528-3.27c0-2.056-.943-3.27-2.528-3.27zm-41.575.073c-1.494 0-2.5 1.295-2.5 3.198 0 1.92 1.006 3.205 2.5 3.205 1.521 0 2.518-1.259 2.518-3.205 0-1.93-.997-3.198-2.518-3.198zm10.488 0c-1.495 0-2.5 1.295-2.5 3.198 0 1.92 1.005 3.205 2.5 3.205 1.521 0 2.518-1.259 2.518-3.205 0-1.93-.997-3.198-2.518-3.198zm-21.955-2.934h-.055l-1.948 5.733h3.95l-1.947-5.733zm68.88 2.834a2.412 2.412 0 0 0-2.426 2.419h4.764a2.292 2.292 0 0 0-2.337-2.419zM106.966 11.692c1.269 0 2.034.866 2.034 2.298v.314h-3.22v.05a1.205 1.205 0 0 0 1.215 1.306c.44.053.869-.165 1.085-.553h.866a1.85 1.85 0 0 1-1.976 1.32 2.07 2.07 0 0 1-2.106-2.354 2.103 2.103 0 0 1 2.102-2.381zm-58.593.324a2.16 2.16 0 0 1 1.01 2.04 2.16 2.16 0 1 1-4.299 0 2.16 2.16 0 0 1 3.289-2.04zm19.779 0a2.16 2.16 0 0 1 1.011 2.04 2.16 2.16 0 1 1-4.3 0 2.16 2.16 0 0 1 3.289-2.04zm18.235 0a2.16 2.16 0 0 1 1.011 2.04 2.16 2.16 0 1 1-4.3 0 2.16 2.16 0 0 1 3.289-2.04zm-14.238-.324c1.143 0 1.787.569 1.787 1.532v3.114h-.866v-.64H73a1.534 1.534 0 0 1-1.37.715 1.377 1.377 0 0 1-1.52-1.364c0-.82.611-1.294 1.696-1.36l1.235-.072v-.393c0-.482-.319-.754-.934-.754-.502 0-.85.185-.95.507h-.87c.091-.783.828-1.285 1.862-1.285zM79.376 10v6.338h-.862v-.72h-.071c-.292.51-.844.817-1.432.795-1.16 0-1.892-.912-1.892-2.356 0-1.44.74-2.353 1.892-2.353a1.502 1.502 0 0 1 1.398.8h.067V10h.9zm18.184.645V11.8h.988v.758h-.988v2.344c0 .478.197.687.645.687.115 0 .23-.007.343-.02v.748a2.952 2.952 0 0 1-.49.046c-1 0-1.398-.352-1.398-1.23v-2.575h-.724V11.8h.724v-1.155h.9zm-54.246.48c.55.582.811 1.38.71 2.174 0 1.93-1.043 3.04-2.842 3.04H39v-6.041h2.182a2.672 2.672 0 0 1 2.132.828zm7.632.655l.817 3.478h.067l.937-3.478h.863l.937 3.478h.071l.813-3.478h.9l-1.252 4.558h-.933l-.942-3.357h-.071l-.939 3.357h-.924l-1.257-4.558h.913zm9.952.38c.307.33.447.781.381 1.227v2.951h-.9v-2.725c0-.733-.318-1.097-.983-1.097a1.046 1.046 0 0 0-1.089 1.155v2.667h-.9V11.78h.867v.724h.067c.234-.533.78-.86 1.36-.812.45-.034.89.138 1.197.468zM63.612 10v6.338h-.9V10h.9zm28.483 2.16c.307.33.448.781.382 1.227v2.951h-.9v-2.725c0-.733-.318-1.097-.984-1.097a1.046 1.046 0 0 0-1.088 1.155v2.667h-.9V11.78h.866v.724h.067c.234-.533.78-.86 1.36-.812.45-.034.89.138 1.197.468zM100.67 10v2.512h.07c.246-.538.802-.864 1.39-.816a1.502 1.502 0 0 1 1.57 1.699v2.943h-.9v-2.721c0-.728-.339-1.097-.975-1.097a1.065 1.065 0 0 0-1.147 1.156v2.662h-.9V10h.892zM73.04 14.278l-1.113.072c-.628.042-.913.255-.913.657 0 .41.356.65.845.65a1.075 1.075 0 0 0 1.18-.997v-.382zm12.209-1.787c-.782 0-1.222.578-1.222 1.566 0 .996.44 1.57 1.222 1.57.779 0 1.223-.578 1.223-1.57 0-.988-.444-1.566-1.223-1.566zm-18.236 0c-.782 0-1.222.578-1.222 1.566 0 .996.44 1.57 1.222 1.57.78 0 1.223-.578 1.223-1.57 0-.988-.444-1.566-1.223-1.566zm-19.779 0c-.782 0-1.221.578-1.221 1.566 0 .996.44 1.57 1.221 1.57.78 0 1.223-.578 1.223-1.57 0-.988-.443-1.566-1.223-1.566zm30.031.021c-.757 0-1.218.586-1.218 1.545 0 .967.456 1.549 1.218 1.549.759 0 1.227-.59 1.227-1.545 0-.95-.473-1.549-1.227-1.549zm-36.189-1.36h-1.139v4.332h1.14a1.9 1.9 0 0 0 1.991-2.173 1.904 1.904 0 0 0-1.992-2.16zm65.884 1.305a1.166 1.166 0 0 0-1.18 1.181h2.302a1.1 1.1 0 0 0-1.122-1.18z"/>
        <path fill="#D8D8D8" fill-opacity="0" fill-rule="nonzero" d="M10 9h24v24H10z"/>
        <path fill="#FFF" d="M26.215 14.79l.292.019c1.76.055 3.39.936 4.399 2.378a5.454 5.454 0 0 0-2.597 4.576 5.27 5.27 0 0 0 3.217 4.849 12.082 12.082 0 0 1-1.674 3.408c-.985 1.475-2.019 2.915-3.66 2.942-1.593.037-2.129-.938-3.957-.938-1.845 0-2.416.911-3.945.975-1.562.057-2.756-1.574-3.778-3.035-2.041-2.983-3.631-8.407-1.5-12.097a5.858 5.858 0 0 1 4.93-3.007c1.564-.032 3.016 1.056 3.977 1.056.943 0 2.737-1.301 4.588-1.107zM26.526 9a5.37 5.37 0 0 1-1.228 3.847 4.518 4.518 0 0 1-3.567 1.687 5.11 5.11 0 0 1 1.26-3.705A5.464 5.464 0 0 1 26.526 9z"/>
    </g>
</svg>
