<svg xmlns="http://www.w3.org/2000/svg" width="54" height="42" viewBox="0 0 54 42">
    <g fill="none" fill-rule="evenodd">
        <rect width="54" height="42" fill="#000" fill-rule="nonzero" rx="4"/>
        <path fill="#FFF" d="M26.254 21.746V30H18v-8.254h8.254zm3.742 5.258v1.492H36V30h-7.496v-2.996h1.492zM24.75 23.25h-5.246v5.246h5.246V23.25zm5.246-1.504v2.25H31.5v-2.25H36v5.258h-1.504V23.25h-1.492v2.25h-4.5v-3.754h1.492zm-6.75 3.008v2.25h-2.25v-2.25h2.25zM26.254 12v8.254H18V12h8.254zM36 12v8.254h-8.254V12H36zm-11.25 1.504h-5.246v5.246h5.246v-5.246zm9.746 0H29.25v5.246h5.246v-5.246zm-11.25 1.492v2.25h-2.25v-2.25h2.25zm9.758 0v2.25h-2.25v-2.25h2.25z"/>
    </g>
</svg>
