<svg width="42" height="42" viewBox="0 0 42 42" fill="none" xmlns="http://www.w3.org/2000/svg">
<g clip-path="url(#clip0)">
<path d="M34.1284 18.8693H32.4363H32.436H28.3558H28.3555H21H13.6449H13.6446H9.5643H9.56404H7.87163C6.53383 18.8693 5.44922 19.9538 5.44922 21.2917V39.5776C5.44922 40.9155 6.53383 42 7.87163 42H20.9998H34.1283C35.466 42 36.5506 40.9155 36.5506 39.5776V21.2917C36.5506 19.9538 35.4661 18.8693 34.1284 18.8693Z" fill="#313847"/>
<path d="M28.3555 11.436V17.3956H28.3558H32.436V11.436C32.436 5.13031 27.3057 0 21 0V4.08047C25.056 4.08047 28.3555 7.37994 28.3555 11.436Z" fill="#5A81EA"/>
<path d="M13.6444 17.3956V11.436C13.6444 7.37985 16.944 4.08047 20.9999 4.08047V0C14.6942 0 9.56396 5.13031 9.56396 11.436V17.3956H9.56422H13.6444Z" fill="#5A81EA"/>
<path d="M34.1284 17.3956H32.4363H32.436H28.3558H28.3555H21V40.5263H34.1285C35.4662 40.5263 36.5508 39.4418 36.5508 38.1039V19.8181C36.5506 18.4802 35.4661 17.3956 34.1284 17.3956Z" fill="#495060"/>
<path d="M13.6448 17.3956H13.6444H9.5643H9.56404H7.87163C6.53383 17.3956 5.44922 18.4801 5.44922 19.818V38.1038C5.44922 39.4417 6.53383 40.5263 7.87163 40.5263H20.9998V17.3956H13.6448Z" fill="#495060"/>
<path d="M23.7689 25.4307C23.7689 23.9015 22.5293 22.6617 21 22.6617C19.4707 22.6617 18.231 23.9014 18.231 25.4307C18.231 26.4138 18.7466 27.2719 19.5189 27.7633L18.6931 31.698H23.3067L22.481 27.7633C23.2533 27.2718 23.7689 26.4138 23.7689 25.4307Z" fill="#313847"/>
</g>
<defs>
<clipPath id="clip0">
<rect width="42" height="42" fill="white"/>
</clipPath>
</defs>
</svg>
