<svg width="96" height="96" viewBox="0 0 96 96" fill="none" xmlns="http://www.w3.org/2000/svg">
<path d="M28 54H36L48 66L60 54H68C76.8366 54 84 61.1634 84 70V84H12V70C12 61.1634 19.1634 54 28 54Z" fill="url(#paint0_linear)"/>
<path d="M74 9L78 13L82 9L78 5L74 9Z" fill="#474D57"/>
<path d="M5 41L8 44L11 41L8 38L5 41Z" fill="#474D57"/>
<path d="M85 53H88V50H85V53Z" fill="#474D57"/>
<circle cx="48.0001" cy="47" r="4" fill="url(#paint1_linear)"/>
<path d="M36 54L48 66L60 54V84H36V54Z" fill="#474D57"/>
<path d="M33.0001 24C33.0001 15.7157 39.7159 9 48.0001 9C56.2844 9 63.0001 15.7157 63.0001 24V26H67.0001V24C67.0001 13.5066 58.4935 5 48.0001 5C37.5067 5 29.0001 13.5066 29.0001 24V26H33.0001V24Z" fill="url(#paint2_linear)"/>
<path d="M71 35.8571C71 38.6975 68.6122 41 65.6667 41H63V25.5H65.6667C68.6122 25.5 71 27.8025 71 30.6429V35.8571Z" fill="url(#paint3_linear)"/>
<path d="M25 35.8571C25 38.6975 27.3878 41 30.3333 41H33V25.5H30.3333C27.3878 25.5 25 27.8025 25 30.6429V35.8571Z" fill="url(#paint4_linear)"/>
<defs>
<linearGradient id="paint0_linear" x1="48" y1="84" x2="48" y2="54" gradientUnits="userSpaceOnUse">
<stop stop-color="#76808F"/>
<stop offset="1" stop-color="#929AA5"/>
</linearGradient>
<linearGradient id="paint1_linear" x1="48.0001" y1="43" x2="48.0001" y2="51" gradientUnits="userSpaceOnUse">
<stop stop-color="#F0B90B"/>
<stop offset="1" stop-color="#F8D33A"/>
</linearGradient>
<linearGradient id="paint2_linear" x1="48.0001" y1="5" x2="48.0001" y2="26" gradientUnits="userSpaceOnUse">
<stop stop-color="#929AA5"/>
<stop offset="1" stop-color="#76808F"/>
</linearGradient>
<linearGradient id="paint3_linear" x1="67" y1="41" x2="67" y2="25.5" gradientUnits="userSpaceOnUse">
<stop stop-color="#F0B90B"/>
<stop offset="1" stop-color="#F8D33A"/>
</linearGradient>
<linearGradient id="paint4_linear" x1="29" y1="41" x2="29" y2="25.5" gradientUnits="userSpaceOnUse">
<stop stop-color="#F0B90B"/>
<stop offset="1" stop-color="#F8D33A"/>
</linearGradient>
</defs>
</svg>
