<svg id="iconwallet" width="16" height="16" viewBox="0 0 1024 1024" fill="#848E9C" xmlns="http://www.w3.org/2000/svg">
	<path d="M75.09333333 245.0014811c0 38.83614777 24.27259221 72.81777778 53.39970333 87.38133333L75.09333333 312.96474112v466.03377778-533.9970378z m97.09037 97.09037113h776.72296334H172.18370333z m0 0h-9.70903666 9.70903666z"></path><path d="M900.3614811 99.36592555H172.18370333c-82.52681443 0-145.63555555 63.10874112-145.63555556 145.63555555v533.9970378c0 82.52681443 63.10874112 145.63555555 145.63555556 145.63555555h825.2681489v-631.08740778H172.18370333c-29.12711111 0-48.54518557-19.41807445-48.54518443-48.54518557s19.41807445-48.54518557 48.54518443-48.54518443h728.17777777v-97.09037112z m-728.17777777 728.17777778c-29.12711111 0-48.54518557-19.41807445-48.54518443-48.54518443V380.928c14.56355555 4.8545189 33.98163001 9.70903666 48.54518443 9.70903666h728.17777777v436.90666667H172.18370333z"></path>
	<path d="M803.27111111 560.54518557h-97.09036999v97.09036998h97.09036999v-97.09036998z"></path>
</svg>