<svg height="489pt" viewBox="-29 0 489 489.08914" width="489pt" xmlns="http://www.w3.org/2000/svg"><path d="m64.046875 321.089844v24h24v80h-24v24c0 17.671875 14.324219 32 32 32h84l12-24h48l12 24h84c17.671875 0 32-14.328125 32-32v-24h-24v-80h24v-24c0-17.671875-14.328125-32-32-32h-84l-12 24h-48l-12-24h-84c-17.675781 0-32 14.328125-32 32zm192 16 24 20 24-20-24 20 24 20-24-20-24 20 24-20zm-40 72c44.183594 0 80 17.910156 80 40 0-22.089844-35.816406-40-80-40s-80 17.910156-80 40c0-22.089844 35.816406-40 80-40zm-88-72 24 20 24-20-24 20 24 20-24-20-24 20 24-20zm0 0" fill="#71d2f6"/><path d="m320.046875 217.089844c0 13.253906-10.746094 24-24 24-13.257813 0-24-10.746094-24-24s10.742187-24 24-24c13.253906 0 24 10.746094 24 24zm0 0" fill="#71d2f6"/><path d="m368.046875 217.089844h24l-16 56 48-72h-16v-48zm0 0" fill="#71d2f6"/><path d="m296.046875 81.089844h24l-16 56 48-72h-16v-48zm0 0" fill="#71d2f6"/><path d="m244.125 50.425781-15.488281 4.03125-12.078125-46.457031-22.609375 72.007812 23.234375-6.039062-1.394532 58.222656zm0 0" fill="#71d2f6"/><path d="m24.046875 201.089844h-16l48 72-16-56h24l-40-64zm0 0" fill="#71d2f6"/><path d="m96.046875 17.089844v48h-16l48 72-16-56h24zm0 0" fill="#71d2f6"/><g fill="#006d95"><path d="m336.046875 281.089844h-112v-16c0-.667969-.082031-1.332032-.25-1.976563-2.394531-7.417969-7.601563-13.601562-14.503906-17.222656-1.445313-.976563-2.910157-1.9375-4.253907-3.015625-7.4375-6.976562-12.0625-16.433594-12.992187-26.585938-1.410156-12.394531 3.421875-24.683593 12.894531-32.800781 8.105469-5.171875 17.730469-7.425781 27.289063-6.398437 15.351562-1.351563 30.59375 3.601562 42.214843 13.726562.519532.503906.96875 1.074219 1.457032 1.601563-11.910156 9.878906-14.984375 26.890625-7.289063 40.316406 7.699219 13.421875 23.9375 19.359375 38.476563 14.070313 14.542968-5.289063 23.167968-20.273438 20.441406-35.503907-2.722656-15.234375-16.011719-26.292969-31.484375-26.210937-1.660156.035156-3.3125.207031-4.945313.503906-1.664062-2.195312-3.480468-4.265625-5.441406-6.199219-14.636718-13.179687-34.03125-19.792969-53.671875-18.304687-13.011719-1.109375-26.007812 2.300781-36.796875 9.65625-13.933594 11.519531-21.109375 29.289062-19.089844 47.253906 1.347657 14.402344 8.125 27.75 18.953126 37.335938 1.6875 1.34375 3.503906 2.585937 5.328124 3.800781 4.144532 2.785156 6.671876 4.59375 7.671876 7.152343v14.800782h-112.007813c-22.082031.027344-39.976563 17.917968-40 40v128c.023437 22.078125 17.917969 39.972656 40 40h240c22.078125-.027344 39.972656-17.921875 40-40v-128c-.027344-22.082032-17.921875-39.972656-40-40zm-24-64c0 8.835937-7.164063 16-16 16s-16-7.164063-16-16c0-8.835938 7.164063-16 16-16s16 7.164062 16 16zm48 200h-8v-64h8zm-120.945313-120-4 8h-38.113281l-4-8zm-167.054687 56h8v64h-8zm120.941406 120 4-8h38.113281l4 8zm143.058594 0h-79.058594l-9.742187-19.578125c-1.363282-2.722657-4.152344-4.4375-7.199219-4.421875h-48c-3.035156-.003906-5.804687 1.710937-7.160156 4.421875l-9.785157 19.578125h-79.054687c-13.257813 0-24-10.746094-24-24v-16h16c4.417969 0 8-3.582032 8-8v-80c0-4.417969-3.582031-8-8-8h-16v-16c0-13.253906 10.742187-24 24-24h79.054687l9.785157 19.574218c1.355469 2.714844 4.125 4.425782 7.160156 4.425782h48c3.046875.015625 5.835937-1.699219 7.199219-4.425782l9.742187-19.574218h79.058594c13.253906 0 24 10.746094 24 24v16h-16c-4.417969 0-8 3.582031-8 8v80c0 4.417968 3.582031 8 8 8h16v16c0 13.253906-10.746094 24-24 24zm0 0"/><path d="m216.046875 401.089844c-49.34375 0-88 21.085937-88 48 0 4.417968 3.582031 8 8 8s8-3.582032 8-8c0-15.136719 29.597656-32 72-32 42.398437 0 72 16.863281 72 32 0 4.417968 3.582031 8 8 8s8-3.582032 8-8c0-26.914063-38.65625-48-88-48zm0 0"/><path d="m310.191406 331.96875c-2.828125-3.390625-7.871094-3.851562-11.265625-1.023438l-18.878906 15.742188-18.882813-15.726562c-2.183593-1.910157-5.234374-2.488282-7.96875-1.507813-2.730468.980469-4.71875 3.363281-5.191406 6.230469-.472656 2.863281.648438 5.761718 2.921875 7.566406l16.625 13.839844-16.625 13.855468c-2.273437 1.804688-3.394531 4.699219-2.921875 7.566407.472656 2.863281 2.460938 5.25 5.191406 6.230469 2.734376.980468 5.785157.402343 7.96875-1.507813l18.882813-15.746094 18.878906 15.730469c3.402344 2.699219 8.335938 2.191406 11.117188-1.148438 2.78125-3.335937 2.390625-8.28125-.878907-11.140624l-16.621093-13.839844 16.621093-13.855469c3.394532-2.828125 3.851563-7.871094 1.027344-11.265625zm0 0"/><path d="m133.164062 383.234375 18.882813-15.746094 18.878906 15.730469c3.402344 2.699219 8.335938 2.191406 11.117188-1.148438 2.78125-3.335937 2.390625-8.28125-.878907-11.140624l-16.621093-13.839844 16.621093-13.855469c3.269532-2.859375 3.660157-7.808594.878907-11.144531-2.78125-3.335938-7.714844-3.84375-11.117188-1.144532l-18.878906 15.742188-18.882813-15.726562c-2.183593-1.910157-5.234374-2.488282-7.96875-1.507813-2.730468.980469-4.71875 3.363281-5.191406 6.230469-.472656 2.863281.648438 5.761718 2.921875 7.566406l16.625 13.839844-16.625 13.855468c-2.273437 1.804688-3.394531 4.699219-2.921875 7.566407.472656 2.863281 2.460938 5.25 5.191406 6.230469 2.734376.980468 5.785157.402343 7.96875-1.507813zm0 0"/><path d="m431.101562 197.3125c-1.394531-2.601562-4.105468-4.222656-7.054687-4.222656h-8v-40c0-3.570313-2.363281-6.707032-5.796875-7.691406-3.429688-.984376-7.097656.425781-8.988281 3.449218l-40 64c-1.542969 2.46875-1.621094 5.574219-.214844 8.121094 1.410156 2.542969 4.089844 4.121094 7 4.121094h13.390625l-13.078125 45.800781c-1.082031 3.785156.757813 7.796875 4.332031 9.453125 3.574219 1.652344 7.820313.460938 10.011719-2.816406l48-72c1.636719-2.453125 1.792969-5.613282.398437-8.214844zm-33.289062 28.695312 1.921875-6.71875c.691406-2.414062.207031-5.011718-1.304687-7.015624-1.507813-2.003907-3.875-3.183594-6.382813-3.183594h-9.601563l17.601563-28.105469v20.105469c0 4.417968 3.582031 8 8 8h1.046875zm0 0"/><path d="m296.046875 89.089844h13.390625l-13.078125 45.800781c-1.082031 3.785156.757813 7.796875 4.332031 9.453125 3.574219 1.652344 7.820313.460938 10.011719-2.816406l48-72c1.636719-2.453125 1.789063-5.609375.398437-8.210938-1.394531-2.601562-4.105468-4.226562-7.054687-4.226562h-8v-40c0-3.570313-2.363281-6.707032-5.796875-7.691406-3.429688-.984376-7.097656.425781-8.988281 3.449218l-40 64c-1.542969 2.46875-1.621094 5.574219-.214844 8.121094 1.410156 2.542969 4.089844 4.121094 7 4.121094zm32-44.105469v20.105469c0 4.417968 3.582031 8 8 8h1.046875l-11.28125 16.917968 1.921875-6.71875c.691406-2.414062.207031-5.011718-1.304687-7.015624-1.507813-2.003907-3.875-3.183594-6.382813-3.183594h-9.601563zm0 0"/><path d="m195.964844 87.753906 12.96875-3.375-1.144532 47.621094c-.09375 3.941406 2.695313 7.363281 6.578126 8.066406.46875.082032.945312.125 1.421874.125 3.410157 0 6.445313-2.160156 7.5625-5.382812l28.335938-81.71875c.96875-2.792969.320312-5.894532-1.691406-8.0625-2.007813-2.167969-5.050782-3.054688-7.910156-2.296875l-7.734376 2.007812-10.050781-38.753906c-.898437-3.453125-3.976562-5.8945312-7.542969-5.984375-3.558593-.0585938-6.738281 2.214844-7.832031 5.601562l-22.609375 72c-.871094 2.773438-.171875 5.808594 1.835938 7.914063 2.003906 2.109375 4.996094 2.964844 7.8125 2.230469zm19.871094-50.746094 5.058593 19.457032c.53125 2.054687 1.859375 3.816406 3.691407 4.890625 1.828124 1.078125 4.011718 1.378906 6.066406.84375l1.015625-.269531-6.652344 19.199218.167969-6.984375c.050781-2.152343-.769532-4.238281-2.277344-5.78125-1.503906-1.542969-3.570312-2.410156-5.722656-2.410156-.679688 0-1.355469.085937-2.011719.257813l-9.261719 2.398437zm0 0"/><path d="m59.40625 280.351562c3.578125-1.65625 5.414062-5.671874 4.328125-9.460937l-13.082031-45.800781h13.394531c2.90625 0 5.585937-1.578125 6.996094-4.121094 1.410156-2.546875 1.328125-5.652344-.214844-8.121094l-40-64c-1.890625-3.023437-5.558594-4.433594-8.988281-3.449218-3.429688.984374-5.792969 4.121093-5.792969 7.691406v40h-8c-2.953125 0-5.664063 1.625-7.054687 4.226562-1.394532 2.601563-1.242188 5.757813.398437 8.210938l48 72c2.1875 3.28125 6.4375 4.480468 10.015625 2.824218zm-19.359375-71.261718c-2.511719 0-4.875 1.179687-6.386719 3.183594-1.511718 2.003906-1.992187 4.601562-1.300781 7.015624l1.917969 6.71875-11.28125-16.917968h1.050781c4.417969 0 8-3.582032 8-8v-20.105469l17.597656 28.105469zm0 0"/><path d="m121.390625 141.527344c2.1875 3.277344 6.4375 4.46875 10.011719 2.816406 3.574218-1.65625 5.410156-5.667969 4.332031-9.453125l-13.082031-45.800781h13.394531c2.90625 0 5.585937-1.578125 6.996094-4.121094 1.410156-2.546875 1.328125-5.652344-.214844-8.121094l-40-64c-1.890625-3.023437-5.558594-4.433594-8.988281-3.449218-3.429688.984374-5.792969 4.121093-5.792969 7.691406v40h-8c-2.953125 0-5.664063 1.625-7.054687 4.226562-1.394532 2.601563-1.242188 5.757813.398437 8.210938zm-25.34375-68.4375c4.417969 0 8-3.582032 8-8v-20.105469l17.597656 28.105469h-9.597656c-2.511719 0-4.875 1.179687-6.386719 3.183594-1.511718 2.003906-1.992187 4.601562-1.300781 7.015624l1.917969 6.71875-11.28125-16.917968zm0 0"/></g></svg>