<svg width="20" height="20" viewBox="0 0 20 20" fill="none" xmlns="http://www.w3.org/2000/svg">
<path fill-rule="evenodd" clip-rule="evenodd" d="M0 10C0 4.48 4.48 0 10 0C15.52 0 20 4.48 20 10C20 15.52 15.52 20 10 20C4.48 20 0 15.52 0 10ZM2 10C2 14.41 5.59 18 10 18C14.41 18 18 14.41 18 10C18 5.59 14.41 2 10 2C5.59 2 2 5.59 2 10ZM14.59 13.1799L11.41 9.99991L14.59 6.81991L13.18 5.40991L10 8.58991L6.82003 5.40991L5.41003 6.81991L8.59003 9.99991L5.41003 13.1799L6.82003 14.5899L10 11.4099L13.18 14.5899L14.59 13.1799Z" fill="#F23051"/>
</svg>
