<svg width="301" height="284" viewBox="0 0 301 284" fill="none" xmlns="http://www.w3.org/2000/svg">
<path fill-rule="evenodd" clip-rule="evenodd" d="M81.9195 235.058C82.8164 233.247 83.0157 230.706 82.3181 228.829C81.2052 225.873 78.2155 225.092 75.3254 225.092C74.3454 225.092 71.5217 227.235 70.7577 227.849C68.0669 229.992 65.4924 232.467 63.0507 234.892C60.8084 237.117 58.6159 239.41 56.4401 241.702C54.9286 243.313 53.4171 244.957 51.8558 246.519C50.2944 248.08 48.7829 249.724 47.2548 251.335C45.0125 253.694 42.7536 256.053 40.4448 258.345C37.8537 260.936 35.1297 263.544 32.2728 265.836C30.4956 267.248 27.5058 269.523 25.1472 269.523C18.5531 269.523 13.2878 266.533 13.2878 259.291C13.2878 256.7 15.2976 253.694 16.8091 251.701C19.0016 248.794 21.5595 246.07 24.1008 243.496C26.3431 241.237 28.6353 239.028 30.944 236.852C32.5884 235.307 34.2826 233.779 35.8771 232.184C39.8469 228.198 43.8166 224.228 47.803 220.259C51.0087 217.036 57.7024 212.502 57.7024 207.469C57.7024 205.825 57.3204 204.28 56.058 203.15C54.3306 201.606 51.4405 201.257 49.1982 201.24C48.5338 201.523 47.1884 202.602 46.7067 203.001C44.9461 204.396 43.2519 205.924 41.6075 207.452C36.99 211.704 32.5054 216.156 28.0705 220.607C24.0842 224.594 20.1145 228.63 16.1779 232.666C13.537 235.357 10.9126 238.097 8.23845 240.755C3.53788 245.422 0 251.717 0 258.478C0 264.474 1.89352 270.204 5.78021 274.788C9.20182 278.825 13.9522 281.681 19.1677 282.645C26.1604 283.924 32.0735 282.894 37.8869 278.758C41.5411 276.167 44.6637 272.795 47.7864 269.623L81.9195 235.058Z" fill="#153540"/>
<path fill-rule="evenodd" clip-rule="evenodd" d="M81.089 167.456C79.5277 169.798 77.5511 171.858 75.4749 173.768C72.8007 176.209 69.8774 178.402 67.253 180.877C65.5755 182.455 63.4826 184.647 63.0175 186.989C62.4196 190.112 64.9775 193.135 67.0537 195.161C71.6214 199.629 76.1061 204.213 80.6405 208.731C83.7133 211.804 90.4735 220.292 95.0744 220.292C97.7154 220.292 102.898 214.86 104.642 213.05C106.253 211.372 107.831 209.645 109.459 207.984C110.721 206.672 112.199 205.177 113.711 204.164L114.691 203.516L115.737 204.064C117.93 205.227 119.84 206.622 121.932 207.901C125.055 209.794 128.377 211.505 131.682 213.083C134.888 214.595 138.276 216.089 141.648 217.202C155.684 221.82 170.051 224.311 184.867 223.614C199.965 222.883 214.25 218.896 228.003 212.718C249.612 203.001 272.949 178.684 281.719 156.676C282.433 154.916 283.13 153.155 283.811 151.394C285.771 146.262 287.349 141.262 288.429 135.864C289.193 131.994 290.007 127.991 290.389 124.071C292.432 103.558 289.376 84.6562 280.838 65.9536C272.218 47.0848 258.382 30.7906 241.158 19.197C222.92 6.939 201.776 0.527618 179.801 0.527618C142.811 0.527618 108.728 18.4828 87.6333 48.8123C76.322 65.0566 69.4289 84.025 67.9174 103.791C67.1368 114.039 67.8344 124.354 69.9272 134.419C72.1862 145.232 76.0396 155.646 81.2053 165.413L81.7534 166.459L81.089 167.456ZM183.09 210.293C163.573 210.293 145.219 206.904 128.443 196.49C118.876 190.544 110.688 182.87 103.263 174.415C100.356 171.11 97.7652 167.207 95.4897 163.453C93.1643 159.633 90.9718 155.597 89.1447 151.511C87.1017 146.959 85.4906 141.777 84.2282 136.927C83.0323 132.426 81.9361 127.476 81.6205 122.825C81.2385 117.461 80.9561 112.062 81.2053 106.664C81.471 100.917 82.3513 95.3529 83.5971 89.7388C89.7261 61.8509 112.166 34.0794 138.459 22.7847C150.319 17.6855 162.959 14.5795 175.864 13.9982C188.006 13.45 200.115 15.1442 211.609 19.1306C225.395 23.9308 237.736 31.8371 248.051 42.1517C261.438 55.5724 270.208 69.9897 274.709 88.5429C279.725 109.255 277.932 130.416 270.025 150.165C264.494 164.001 256.023 175.777 244.679 185.378C242.37 187.321 240.31 189.314 237.869 191.108C222.156 202.635 202.739 210.293 183.09 210.293ZM80.5907 186.275C83.2483 184.448 85.5404 182.106 88.198 180.312L89.3607 179.531L90.4901 180.362C90.8057 180.594 91.1379 180.943 91.4037 181.209C91.8687 181.691 92.3338 182.156 92.7823 182.637C94.0779 183.983 95.3568 185.345 96.6358 186.707C97.8815 188.052 99.1272 189.397 100.373 190.759C100.821 191.241 101.253 191.739 101.702 192.238C101.951 192.537 102.266 192.869 102.482 193.201L103.363 194.513L94.4599 203.964L78.664 187.604L80.5907 186.275Z" fill="#153540"/>
<rect x="31" y="162.632" width="13.6213" height="13.6213" transform="rotate(-45 31 162.632)" fill="#153540"/>
<path d="M266.816 15.1841L273 9L279.184 15.1841L273 21.3683L266.816 15.1841Z" fill="#153540"/>
<rect x="288" y="60.1841" width="8.7457" height="8.7457" transform="rotate(-45 288 60.1841)" fill="#153540"/>
<rect x="160" y="237.184" width="8.7457" height="8.7457" transform="rotate(-45 160 237.184)" fill="#153540"/>
<rect x="63" y="17.1841" width="8.7457" height="8.7457" transform="rotate(-45 63 17.1841)" fill="#153540"/>
<rect x="50" y="45.1841" width="8.7457" height="8.7457" transform="rotate(-45 50 45.1841)" fill="#153540"/>
<path fill-rule="evenodd" clip-rule="evenodd" d="M114.026 129.37H248.765C256.621 129.37 256.106 120.101 248.765 120.101H114.026C111.9 120.101 111.103 119.935 109.874 121.015C106.22 124.27 107.449 129.37 114.026 129.37Z" fill="#ffc45f"/>
<path fill-rule="evenodd" clip-rule="evenodd" d="M177.459 109.803H248.333C256.638 109.803 256.157 100.552 248.765 100.552H177.459C174.37 100.552 171.845 101.731 171.779 105.053C171.696 108.558 174.27 109.803 177.459 109.803Z" fill="#ffc45f"/>
<path fill-rule="evenodd" clip-rule="evenodd" d="M110.239 101.1C109.143 102.063 107.614 103.591 107.947 105.8C108.196 107.511 109.525 108.973 111.235 109.521C112.963 110.086 151.315 110.252 153.673 109.239C157.859 107.428 156.696 101.665 152.876 100.734C150.85 100.236 111.119 100.319 110.239 101.1Z" fill="#ffc45f"/>
<path fill-rule="evenodd" clip-rule="evenodd" d="M152.843 76.5007C147.595 79.2081 150.368 85.0714 155.451 85.2873C162.244 85.5697 203.769 85.6029 205.696 84.6893C208.918 83.1945 210.23 76.3346 203.204 76.019C196.876 75.7201 154.139 75.8197 152.843 76.5007Z" fill="#ffc45f"/>
<path fill-rule="evenodd" clip-rule="evenodd" d="M152.843 145.049C147.595 147.773 150.368 153.637 155.451 153.853C162.244 154.135 203.769 154.168 205.696 153.255C208.918 151.743 210.23 144.9 203.204 144.568C196.876 144.285 154.139 144.368 152.843 145.049Z" fill="#ffc45f"/>
</svg>
