<svg width="247" height="298" viewBox="0 0 247 298" fill="none" xmlns="http://www.w3.org/2000/svg">
<path fill-rule="evenodd" clip-rule="evenodd" d="M116.037 0H118.405C128.945 0.552962 136.773 9.29667 146.018 16.7962C148.541 18.8353 149.612 20.1313 152.913 21.5309C158.339 23.8292 174.496 23.4145 182.721 25.4535C188.683 26.9223 192.951 30.4129 196.148 34.7156C203.785 45.0837 200.07 63.1067 203.733 72.5071C205.652 77.4492 220.685 92.6556 223.07 97.9606C226.975 106.704 226.249 116.433 219.942 124.036L204.857 142.681C200.191 151.2 203.008 171.47 197.478 180.68C194.973 184.862 190.134 189.32 185.14 191.031C180.734 192.552 171.333 193.709 165.717 193.709C166.91 195.973 167.653 198.479 168.811 201.071C177.779 221.046 186.488 244.547 195.387 264.661C196.649 267.478 200.865 275.893 193.21 277.656C189.65 278.468 167.082 270.018 162.227 269.897C161.553 272.8 154.243 284.81 152.325 288.508C151.721 289.666 151.219 290.841 150.563 291.981C149.232 294.314 148.074 297.13 145.206 297.735C145.05 297.77 144.895 297.804 144.739 297.822H142.13C139.815 297.355 138.622 295.575 137.845 293.692L121.359 254.276C119.839 249.299 126.785 243.666 130.846 252.997C131.935 255.537 143.426 282.218 143.599 284.447C144.981 283.445 149.457 275.098 150.39 273.198C157.319 259.218 159.065 259.063 171.731 262.726C174.807 263.607 183.274 266.355 186.073 266.407L158.062 199.014C157.458 197.528 156.818 196.612 156.403 194.867C152.187 195.213 149.664 197.511 147.089 199.515C145.638 200.656 144.912 201.416 143.271 202.678C141.975 203.697 140.938 204.475 139.711 205.512L129.429 213.841C127.667 215.448 112.771 252.41 110.698 257.352L98.7399 286.123C98.0141 287.903 95.6468 294.072 94.61 295.368C93.5904 296.681 92.1389 297.545 90.6356 297.822H88.5274C87.3005 297.597 86.1427 296.923 85.1923 295.748L70.9017 269.897L54.8658 274.234C51.3407 275.237 42.7525 278.364 39.5903 277.414C37.3093 276.723 35.132 274.338 35.5122 271.228C35.7887 268.929 58.7711 215.361 61.7606 207.827C62.7974 205.201 63.6096 203.507 64.6636 200.846C65.735 198.133 66.7372 196.543 67.4112 193.709C62.0025 193.709 51.2889 192.448 47.6255 190.806C34.1298 184.758 32.8165 174.615 31.9007 161.154C30.8293 145.187 30.8466 145.204 23.0705 135.666C18.4741 130.032 10.9227 122.032 9.00459 115.984C7.01738 109.694 8.15786 101.434 10.8536 97.0102C12.3051 94.6256 14.0158 92.4656 15.8129 90.3401C17.6619 88.1455 19.0097 86.4348 20.7896 84.2575C24.0555 80.2658 28.4965 76.1877 30.1381 70.9346C32.7992 62.381 30.069 42.6299 38.1733 33.5924C41.8885 29.4452 45.9839 26.2657 52.343 25.0734C58.7366 23.881 66.0633 23.881 72.8889 22.9306C77.4854 22.3085 78.9024 22.8097 82.3066 20.7188C94.0052 13.5821 100.952 0.673922 116.037 0ZM88.9248 284.447C88.3719 282.062 81.8227 271.003 80.0256 267.754C79.248 266.355 79.0925 265.715 78.1421 264.402C72.9581 257.248 63.2985 262.328 53.3106 265.128C51.4617 265.646 48.4204 266.337 47.038 266.994C47.4527 265.249 48.0921 264.333 48.7141 262.847C49.3881 261.188 49.8719 259.823 50.5458 258.285C51.8418 255.382 53.0342 252.444 54.3647 249.299C56.9913 243.027 59.3068 237.514 61.9161 231.276C64.5772 224.952 66.8409 219.508 69.4848 213.236C70.8672 209.953 72.0077 207.24 73.2173 204.181C74.1504 201.831 76.5005 197.321 76.7078 194.867C82.0646 194.988 91.4304 203.369 95.7504 207.24C102.317 213.08 107.484 217.556 117.437 217.556L91.1712 280.282C90.5146 281.941 90.3072 283.445 88.9248 284.447ZM115.104 9.31395C120.962 9.31395 122.154 9.12387 127.079 13.0292C128.427 14.1005 128.963 14.7226 130.224 15.7076C134.579 19.0945 143.806 27.3025 147.47 29.2897C152.844 32.1755 161.363 32.1236 168.206 32.9876C175.17 33.8689 182.583 32.9531 187.663 38.5518C195.249 46.8981 189.771 66.2517 196.718 78.9353C203.008 90.4265 224.383 103.179 213.168 117.85C211.285 120.321 209.557 122.187 207.673 124.555C196.269 138.949 193.832 137.152 192.467 159.391C192 167.115 191.931 174.235 187.11 179.039C182.324 183.825 175.55 183.86 168.016 184.378C143.426 186.037 145.88 189.234 126.25 204.838C111.406 216.64 98.93 195.178 87.0067 188.646C71.5757 180.196 46.5541 190.478 42.2341 171.764C40.748 165.318 41.3183 146.742 37.3612 139.398C34.7864 134.629 24.7122 123.656 20.8587 118.679C9.10827 103.508 27.788 93.0531 36.117 79.8166C40.5061 72.8527 40.8863 59.4088 41.854 48.3323C43.0463 34.7847 53.1551 33.7307 63.9033 33.1431C67.3766 32.9531 71.351 32.21 74.9625 32.0027C86.1946 31.346 90.8948 25.7818 99.5348 18.7489C104.632 14.6016 109.488 9.31395 115.104 9.31395Z" fill="#153540"/>
<path fill-rule="evenodd" clip-rule="evenodd" d="M104.044 43.6322C104.044 57.3871 123.415 37.9125 154.329 61.9836C185.14 85.9856 184.207 134.266 151.167 157.646C120.737 179.194 79.0229 167.53 62.9351 135.355C48.4199 106.324 61.0689 69.2412 88.3368 55.8319C93.7282 53.188 94.7477 52.9807 94.7477 48.868C94.7477 47.693 93.1579 45.3775 90.6696 45.3775C86.8853 45.3775 84.3278 47.572 81.563 49.0581C62.6759 59.2879 47.625 84.0848 47.625 105.875C47.625 118.438 49.0247 127.89 54.2087 138.258C56.5415 142.906 60.8097 150.077 64.3348 153.723C65.147 154.553 65.579 154.916 66.3739 155.762L67.7563 157.3C88.2677 177.812 117.73 183.514 144.946 171.764C163.885 163.59 179.299 145.066 183.982 124.727C186.384 114.308 186.799 104.354 184.345 94.2282C182.167 85.2598 179.368 78.054 174.322 70.5026C169.121 62.7266 167.825 62.3465 162.365 56.8514C150.199 44.5826 131.883 39.5541 113.946 39.5541C111.095 39.5541 104.044 39.675 104.044 43.6322Z" fill="#153540"/>
<path fill-rule="evenodd" clip-rule="evenodd" d="M101.729 136.702C98.6361 136.702 96.6489 133.661 94.8863 131.899L83.2569 120.269C81.7708 118.783 77.8828 115.725 77.8828 113.426C77.8828 110.16 79.8873 108.778 82.5311 108.778C88.0953 108.778 96.1478 123.898 101.729 123.898C104.961 123.898 110.508 117.159 113.791 113.858L141.594 86.3484C144.636 84.8451 148.264 86.7286 148.264 90.1673C148.264 93.4332 141.024 99.4294 137.637 102.816L108.555 131.899C106.81 133.661 104.805 136.702 101.729 136.702ZM101.729 112.856C94.4025 107.948 93.1583 99.464 81.3733 99.464C73.6492 99.464 61.3803 111.318 73.9429 123.76L90.238 140.038C102.801 152.652 110.196 143.062 118.456 134.802L146.364 106.894C151.841 101.417 163.471 93.0012 154.191 81.3199C150.908 77.2073 147.297 76.7753 142.441 76.7753C136.6 76.7753 133.749 81.1126 130.656 84.2057L111.475 103.404C108.935 105.927 104.287 111.128 101.729 112.856Z" fill="#ffc45f"/>
<rect y="61.6317" width="13.6213" height="13.6213" transform="rotate(-45 0 61.6317)" fill="#153540"/>
<rect x="234" y="162.184" width="8.7457" height="8.7457" transform="rotate(-45 234 162.184)" fill="#153540"/>
<rect x="213" y="143.184" width="8.7457" height="8.7457" transform="rotate(-45 213 143.184)" fill="#153540"/>
<rect x="204" y="190.184" width="8.7457" height="8.7457" transform="rotate(-45 204 190.184)" fill="#153540"/>
<rect x="13" y="165.184" width="8.7457" height="8.7457" transform="rotate(-45 13 165.184)" fill="#153540"/>
</svg>
