<svg width="299" height="299" viewBox="0 0 299 299" fill="none" xmlns="http://www.w3.org/2000/svg">
<path fill-rule="evenodd" clip-rule="evenodd" d="M8.8361 285.317C8.38682 283.416 9.25082 281.308 10.7023 280.236C12.5513 278.871 14.3139 279.148 16.7504 279.148H214.607C218.823 279.148 224.007 278.56 224.802 283.036C225.874 289.084 220.309 289.256 216.905 289.256H19.0486C14.4348 289.256 9.90747 289.758 8.8361 285.317ZM211.289 258.705L213.017 225.856C213.916 226.219 213.363 225.787 214.054 227.066C215.626 230.055 217.614 235.325 218.495 238.453C219.566 242.376 221.398 249.046 221.173 253.245C221.225 253.331 221.294 253.366 221.312 253.504C221.398 254.143 221.588 253.469 221.726 257.046C221.83 259.31 222.21 269.713 221.433 270.456C220.448 271.095 212.015 271.043 210.581 270.525C210.252 269.333 210.615 260.209 210.788 259.656C210.995 258.947 211.065 259.034 211.289 258.705ZM32.216 270.179C31.3175 268.641 31.4557 262.714 31.3866 260.347C31.2656 256.805 30.799 253.452 26.9456 253.418C18.9622 253.314 24.5091 267.086 22.9539 270.162C22.3664 270.819 13.087 270.508 12.3094 270.439C11.1343 259.034 12.6723 245.071 16.5257 234.461C17.2688 232.457 19.5497 226.167 20.8457 225.614C21.0013 229.208 20.6729 238.038 22.3837 240.25C23.3341 241.46 30.8509 245.106 29.9178 234.064C29.071 223.938 29.2784 213.345 28.2589 203.219C27.8096 198.795 26.9974 192.385 29.5722 189.015C32.6653 184.989 36.0176 185.3 42.394 185.3H188.981C194.493 185.3 199.573 184.505 203.064 187.753C206.589 191.054 205.794 195.149 205.552 201.025L203.841 231.731C203.461 240.596 202.977 254.264 202.234 262.887C201.474 271.873 204.394 270.473 193.577 270.473H144.934C139.37 270.473 134.116 270.197 128.829 270.197C123.679 270.197 118.461 270.473 113.052 270.473C110.235 270.49 107.989 270.197 105.155 270.197C102.304 270.197 99.9538 270.49 97.2754 270.49L32.216 270.179ZM95.6856 176.47C95.9448 174.413 96.7916 172.944 96.9125 169.972C96.9989 167.467 96.8088 164.944 96.9816 162.438C99.4527 162.49 105.656 166.084 116.992 166.084C128.725 166.084 132.319 163.129 136.726 162.352C136.968 164.961 136.778 167.674 136.812 170.301C136.864 173.135 137.849 174.413 137.97 176.539L95.6856 176.47ZM137.849 132.82C139.197 132.267 147.491 132.44 149.548 132.544C153.453 132.751 154.144 137.037 151.362 138.54C149.91 139.335 141.944 139.093 139.646 139.024C135.119 138.885 134.203 134.306 137.849 132.82ZM166.102 132.025C166.257 130.695 167.139 128.466 167.467 127.1C169.281 119.687 166.413 121.381 174.189 121.139C176.435 121.07 177.662 120.396 179.269 120.188C180.323 127.394 176.142 132.129 169.575 132.129L166.102 132.025ZM73.6017 98.934C80.0299 98.0873 83.7451 95.2361 83.7278 88.134C83.7278 83.3647 83.0712 71.355 84.4709 67.7608C86.2853 63.0433 91.8668 59.812 98.6924 61.4536C105 62.9915 109.285 64.4085 116.664 64.4603C123.835 64.4949 128.57 63.1643 134.842 61.5573C141.357 59.8638 146.921 62.5768 149.116 67.4843C153.539 77.3339 143.24 98.0873 159.967 98.6921C160.866 103.738 160.209 123.143 158.412 126.876C157.22 126.789 157.652 126.789 156.65 126.046C152.52 122.971 147.923 123.886 142.307 123.869C135.603 123.869 132.077 124.37 128.863 129.226C125.857 133.771 126.513 139.456 129.572 143.24C133.391 147.975 136.795 147.353 143.828 147.716C143.188 149.409 135.499 153.211 133.132 154.196C129.053 155.889 123.973 157.168 118.962 157.289C100.109 157.755 83.2613 147.526 76.5393 130.557C73.0833 121.813 73.1352 109.527 73.6017 98.934ZM168.953 112.378C168.659 109.959 168.867 106.434 168.867 103.893C168.867 94.5276 167.622 96.7049 172.444 94.6313C176.695 92.7996 177.61 89.6546 179.235 88.8079C179.546 94.061 179.39 100.489 179.39 105.863C179.39 112.568 175.312 112.637 168.953 112.378ZM54.5073 89.0325C55.7687 89.3954 54.7319 88.6178 55.8378 90.1212C59.1038 94.6313 60.8318 94.061 64.7371 95.9964L64.7025 112.343C52.0017 113.397 54.2481 108.818 54.1962 91.3999L54.5073 89.0325ZM62.2487 59.2072C62.2487 40.1818 76.4702 25.2173 95.6338 25.2173H140.994C145.418 25.2173 148.891 27.8266 150.463 30.9543C152.71 35.4644 150.204 38.0909 154.421 42.1518C158.447 46.0052 161.868 43.7242 166.067 45.9534C169.385 47.7159 171.511 51.0855 171.511 55.5784V81.8786C171.511 85.8184 169.886 86.3887 166.672 87.4946C165.134 88.013 160.434 90.0002 158.827 89.6719L158.81 73.9816C158.81 63.5963 154.317 56.3387 145.193 53.3147C140.303 51.7076 136.035 52.2779 130.989 53.5393C104.861 60.0539 102.978 48.9255 88.2898 53.4529C80.22 55.924 74.9323 63.1125 74.9496 72.9966L74.8805 89.7065C72.9969 89.9311 68.9016 88.0476 66.8452 87.3737C63.7694 86.3541 62.2487 85.6975 62.2487 81.8786V59.2072ZM160.434 35.8273C159.795 33.961 160.123 31.5245 159.103 28.9671C156.771 23.1437 152.589 19.1002 146.437 17.2858C141.374 15.7997 121.899 16.56 115.022 16.56C94.908 16.56 79.235 14.1408 64.3569 30.2458C50.4983 45.2449 54.0753 59.8811 53.5569 76.3317C53.4878 78.2325 53.3322 77.956 52.0362 78.7163C47.5089 81.3602 45.5562 86.0604 45.5735 92.4021C45.5735 102.546 43.4653 113.035 51.6561 118.651C56.5809 122.037 59.0347 120.5 65.1863 121.225C65.7393 123.247 65.9121 125.493 66.4305 127.567C69.4545 139.801 77.3342 150.843 88.0824 157.427C88.4107 163.129 89.2575 173.774 85.1103 176.193C83.7624 176.971 46.7485 176.539 42.0656 176.539C34.0304 176.539 29.7795 176.867 24.9757 181.152C17.718 187.633 18.8758 196.67 19.7398 207.124C20.1027 211.323 18.5648 212.032 16.6467 214.866C4.06681 233.528 3.27193 250.532 3.47929 272.512C3.51385 275.363 3.77305 274.534 2.37336 276.521C-2.24041 283.036 -0.253205 293.663 9.4409 297.257C13.1734 298.64 25.2867 297.983 30.2288 297.983H203.755C209.267 297.983 219.895 298.726 224.422 297.153C229.278 295.46 233.494 291.054 233.667 284.66C233.771 281.169 232.734 278.439 231.196 276.279C229.831 274.378 230.142 274.534 230.159 271.855C230.315 249.27 230.073 234.738 216.922 214.641C214.745 211.306 213.657 211.686 213.968 206.762C214.192 203.444 214.417 199.936 214.572 196.584C214.918 189.015 212.43 184.522 208.542 180.962C203.738 176.573 198.554 176.539 191.279 176.539C186.544 176.539 149.772 177.092 148.355 176.055C147.474 175.398 146.454 173.688 146.092 172.668C145.193 170.111 145.297 159.863 145.677 157.462C149.167 155.042 151.794 153.107 154.749 150.187C157.03 147.906 160.659 143.603 161.816 140.873C170.474 140.873 176.193 141.512 181.879 136.57C187.46 131.732 188.099 127.463 188.099 118.357C188.099 110.252 188.099 102.148 188.099 94.0438C188.099 89.6201 188.22 86.9935 186.302 83.5548C183.987 79.4075 180.565 78.3707 180.22 77.6104C179.77 69.2987 181.377 54.4724 178.837 47.9751C174.085 35.7754 162.369 36.5357 160.434 35.8273Z" fill="#153540"/>
<path fill-rule="evenodd" clip-rule="evenodd" d="M113.555 202.355H122V217.812H103.966V239.627H107.372V248.355H94V210.09H112.285V202.392L113.555 202.355Z" fill="#ffc45f"/>
<path fill-rule="evenodd" clip-rule="evenodd" d="M127.321 210.355H133.432C133.432 210.355 140 211.216 140 217.328C140 223.441 139.938 223.871 139.938 223.871C139.938 223.871 139.506 228.507 137.457 229.245C135.407 229.983 139.753 230.352 139.877 232.209C140 234.066 139.877 241.962 139.877 241.962C139.877 241.962 139.444 246.844 132.938 246.844C126.432 246.844 121.901 246.844 121.901 246.844V255.355H112.79V240.179H130.272V229.799H111V223.871H130.025V217.771H127.481L127.321 210.355Z" fill="#ffc45f"/>
<path fill-rule="evenodd" clip-rule="evenodd" d="M219.463 90.5532C219.117 83.8831 220.724 73.3595 217.873 68.4001C213.017 60.0193 207.038 64.4603 202.252 60.3822C199.625 58.1358 199.193 55.8375 199.193 51.6385C199.211 46.61 198.969 18.5818 199.297 16.1798C200.455 7.38428 210.512 8.92221 215.592 8.92221H262.922C268.659 8.92221 281.792 7.83356 285.507 10.3046C292.747 15.0912 286.734 24.8199 290.674 28.8115C293.214 31.4036 297.448 29.641 297.949 26.617C298.225 24.9408 298.139 16.7501 297.914 15.0393C297.102 8.97405 293.076 3.79003 287.667 1.59547C281.844 -0.771902 272.322 0.195781 265.22 0.195781C249.444 0.195781 233.667 0.195781 217.89 0.195781C209.855 0.195781 203.375 -0.737342 197.638 3.44443C192.16 7.40156 190.501 12.1017 190.501 20.4134C190.519 28.3104 190.501 36.1901 190.501 44.0871C190.501 52.6926 189.136 64.8059 200.645 69.5752C205.742 71.7006 208.403 70.5083 209.855 72.1672C211.376 73.8952 210.667 80.4098 210.667 83.1919C210.667 87.1317 210.667 91.0889 210.667 95.0287C210.65 106.157 220.033 105.103 223.195 101.63C225.165 99.4351 239.525 73.9989 241.097 72.219C242.929 70.1627 248.58 71.0786 251.742 71.0786C259.414 71.0786 281.844 71.7698 286.648 70.1109C292.229 68.1582 296.307 63.4926 297.741 57.5483C298.208 55.5438 298.156 48.3726 298.018 46.0398C297.81 42.3591 293.681 40.4583 290.916 42.8429C286.596 46.61 292.886 56.8052 285.265 61.1598C282.293 62.8532 278.958 62.3348 274.759 62.3348C267.881 62.3348 243.171 61.8337 239.75 62.9742C234.168 64.8405 232.025 70.1973 228.777 75.6578C227.947 77.0747 220.88 89.5682 219.463 90.5532Z" fill="#ffc45f"/>
<path fill-rule="evenodd" clip-rule="evenodd" d="M213.985 42.3764C212.499 42.6874 211.721 42.9639 210.944 44.018C210.062 45.2103 209.889 46.8001 210.408 48.2343C211.479 51.2583 214.313 50.8436 217.562 50.8436C224.906 50.8263 272.305 51.2065 275.104 50.7745C277.748 50.3425 279.303 47.353 278.077 44.6919C276.902 42.1345 274.31 42.169 271.13 42.1863C263.993 42.2036 216.663 41.7889 213.985 42.3764Z" fill="#ffc45f"/>
<path fill-rule="evenodd" clip-rule="evenodd" d="M236.95 30.4013H273.117C280.547 30.4013 280.236 21.7094 273.117 21.7094H236.95C234.012 21.7094 231.766 23.1437 231.714 26.0122C231.662 29.1226 233.977 30.4013 236.95 30.4013Z" fill="#ffc45f"/>
<path fill-rule="evenodd" clip-rule="evenodd" d="M215.264 30.4014H218.219C225.373 30.4014 225.131 21.7095 218.219 21.7095C215.039 21.7095 210.218 21.2256 210.132 25.9949C210.08 29.1745 212.292 30.4014 215.264 30.4014Z" fill="#ffc45f"/>
<rect x="9" y="47.6317" width="13.6213" height="13.6213" transform="rotate(-45 9 47.6317)" fill="#153540"/>
<rect x="210.724" y="143.276" width="8.7457" height="8.7457" transform="rotate(-45 210.724 143.276)" fill="#153540"/>
<rect x="228" y="172.184" width="8.7457" height="8.7457" transform="rotate(-45 228 172.184)" fill="#153540"/>
</svg>
