<svg width="162" height="150" viewBox="0 0 162 150" fill="none" xmlns="http://www.w3.org/2000/svg">
<rect width="21.8503" height="138.907" rx="10.9252" transform="matrix(0.774306 0.632811 -0.784495 0.620135 110.406 25.1312)" fill="#F3F3F3"/>
<rect width="21.8503" height="138.907" rx="10.9252" transform="matrix(0.774306 0.632811 -0.784495 0.620135 142.247 25.1312)" fill="#F3F3F3"/>
<rect width="21.8503" height="138.907" rx="10.9252" transform="matrix(0.774306 0.632811 -0.784495 0.620135 144.255 50.0319)" fill="#F3F3F3"/>
<rect width="21.8503" height="138.907" rx="10.9252" transform="matrix(0.774306 0.632811 -0.784495 0.620135 108.972 0)" fill="#F3F3F3"/>
<path fill-rule="evenodd" clip-rule="evenodd" d="M74.2188 88.4461C74.2188 89.3182 74.3066 89.9199 74.8745 90.481C75.172 90.7785 75.9967 91.299 76.5714 91.299H97.2177C100.118 91.299 100.814 86.0935 96.5485 86.0935H77.2407C76.3483 86.0935 75.6858 86.2693 75.1787 86.7155C74.7528 87.0873 74.2188 87.7363 74.2188 88.4461Z" fill="#ffc45f"/>
<path fill-rule="evenodd" clip-rule="evenodd" d="M74.2188 102.886C74.2188 104.604 75.0706 105.739 76.7404 105.739H97.0555C100.328 105.739 100.774 100.534 96.3794 100.534H77.4097C75.8413 100.534 74.2188 101.419 74.2188 102.886Z" fill="#ffc45f"/>
<path fill-rule="evenodd" clip-rule="evenodd" d="M62.3003 87.7769C60.9752 86.8913 61.489 86.2626 59.2783 86.2626C57.9127 86.2626 57.0947 87.4862 57.0947 89.1155C57.0947 90.2377 58.5009 91.2788 59.1499 91.9278C60.6575 93.4354 60.7116 93.983 62.6383 93.983C63.7876 93.983 65.7751 91.6033 66.8771 90.5014C68.1683 89.2034 70.3587 87.4727 70.3587 86.0936C70.3587 84.7956 69.3311 83.4097 67.837 83.4097C66.3092 83.4097 65.667 84.4913 64.8625 85.2958C64.1459 86.0057 63.0439 87.2766 62.3003 87.7769Z" fill="#ffc45f"/>
<path fill-rule="evenodd" clip-rule="evenodd" d="M62.3003 102.21C61.3876 101.602 61.1983 100.703 59.6096 100.703C57.6896 100.703 57.0947 102.014 57.0947 103.556C57.0947 104.712 60.8062 108.423 61.9622 108.423C63.6726 108.423 63.6388 108.18 64.9436 106.868L68.8038 103.008C69.446 102.366 70.3587 101.724 70.3587 100.534C70.3587 99.1074 69.2027 97.85 67.837 97.85C65.7346 97.85 64.2405 100.912 62.3003 102.21Z" fill="#ffc45f"/>
<path d="M70.7437 29.1363H85.211C89.1997 29.1363 92.803 31.036 95.3922 34.1052C96.0142 34.8421 96.5753 35.6466 97.0688 36.5052H104.086C106.31 36.5052 108.325 37.4111 109.785 38.8713C111.245 40.3316 112.158 42.3529 112.158 44.5704V110.85C112.158 113.067 111.245 115.082 109.785 116.549C108.325 118.009 106.31 118.915 104.086 118.915H53.072C50.8478 118.915 48.8332 118.009 47.3729 116.549C45.9059 115.082 45 113.067 45 110.85V44.5704C45 42.3529 45.9059 40.3316 47.3729 38.8713C48.8332 37.4111 50.8478 36.5052 53.072 36.5052H58.8859C59.3794 35.6466 59.9473 34.8421 60.5693 34.1052C63.1518 31.036 66.7551 29.1363 70.7437 29.1363ZM98.8468 40.8859C99.2322 42.3732 99.4417 43.9416 99.4417 45.5641C99.4417 46.1185 99.435 45.3681 99.4282 45.7196L99.4012 48.0723H56.5536L56.5265 45.7129C56.5198 45.3478 56.513 46.1455 56.513 45.5641C56.513 44.043 56.6955 42.5625 57.0403 41.1563H53.072C52.1323 41.1563 51.2804 41.5417 50.6585 42.1569C50.0365 42.7788 49.6512 43.6307 49.6512 44.5704V110.85C49.6512 111.783 50.0365 112.634 50.6585 113.256C51.2804 113.878 52.1323 114.264 53.072 114.264H104.086C105.026 114.264 105.878 113.878 106.5 113.256C107.122 112.634 107.507 111.783 107.507 110.85V44.5704C107.507 43.6307 107.122 42.7788 106.5 42.1569C105.878 41.5417 105.026 41.1563 104.086 41.1563L98.8468 40.8859ZM85.211 33.7807H70.7437C68.1883 33.7807 65.8356 35.0517 64.105 37.1001C62.692 38.7767 61.6983 40.967 61.3264 43.4211H94.6283C94.2565 40.967 93.2627 38.7767 91.8498 37.1001C90.1191 35.0517 87.7665 33.7807 85.211 33.7807Z" fill="#153540"/>
<ellipse cx="78.4016" cy="51.7176" rx="24.6199" ry="25.7176" fill="#ffc45f"/>
<ellipse cx="78.4016" cy="51.7175" rx="15.5246" ry="15.9951" fill="#97FBEE"/>
<path fill-rule="evenodd" clip-rule="evenodd" d="M77.0396 43.5632H79.4991V48.2003H74.2471V54.7444H75.2389V57.3628H71.3447V45.8836H76.6699V43.5743L77.0396 43.5632Z" fill="white"/>
<path fill-rule="evenodd" clip-rule="evenodd" d="M81.305 46.0723H83.1555C83.1555 46.0723 85.1444 46.3303 85.1444 48.1621C85.1444 49.9939 85.1257 50.1229 85.1257 50.1229C85.1257 50.1229 84.9949 51.5124 84.3743 51.7335C83.7537 51.9547 85.0696 52.0652 85.107 52.6218C85.1444 53.1783 85.107 55.5446 85.107 55.5446C85.107 55.5446 84.9762 57.0078 83.006 57.0078C81.0358 57.0078 79.6638 57.0078 79.6638 57.0078V59.5583H76.9049V55.0101H82.1985V51.8994H76.3628V50.1229H82.1237V48.2948H81.3536L81.305 46.0723Z" fill="white"/>
</svg>
