<svg width="284" height="285" viewBox="0 0 284 285" fill="none" xmlns="http://www.w3.org/2000/svg">
<path fill-rule="evenodd" clip-rule="evenodd" d="M154.122 54.2663H208.657C209.821 54.2663 210.77 55.2147 210.77 56.3787V95.3295C210.77 96.5366 211.179 97.5929 211.999 98.4766C214.046 100.697 218.25 101.193 220.384 98.8431C221.548 97.5498 222.108 95.8469 222.108 94.144V49.2007C222.108 45.5147 219.521 42.9281 215.835 42.9281H154.726C152.16 42.9281 149.401 45.8381 149.186 48.2954C148.927 51.0114 151.255 54.2663 154.122 54.2663Z" fill="white"/>
<path fill-rule="evenodd" clip-rule="evenodd" d="M215.922 284.048C219.284 283.962 224.458 281.267 227.368 279.737C229.89 278.401 232.412 276.978 234.977 275.685C240.969 272.688 246.961 269.692 252.954 266.696C258.946 263.7 264.939 260.703 270.931 257.707C273.216 256.565 275.587 255.595 277.872 254.431C279.467 253.612 281.235 252.577 282.356 251.133C283.39 249.796 283.735 248.287 283.735 246.628V172.304C283.735 170.688 283.412 169.179 282.42 167.864C281.343 166.441 279.597 165.407 278.045 164.609C275.717 163.402 273.281 162.389 270.931 161.225C264.939 158.229 258.946 155.232 252.954 152.236C247.026 149.261 241.12 146.179 235.192 143.204C231.355 141.286 227.497 139.367 223.617 137.557C222.216 136.889 220.815 136.242 219.392 135.638C218.875 135.423 217.991 135.013 217.409 134.884C214.154 134.949 209.218 137.492 206.394 138.979C203.829 140.316 201.307 141.76 198.72 143.053L154.359 165.213C151.32 166.721 149.552 167.325 149.552 171.119V247.813C149.552 251.37 151.018 252.081 153.949 253.525C157.873 255.444 161.774 257.449 165.654 259.41C171.991 262.622 178.329 265.834 184.688 269.024C191.521 272.451 198.354 275.879 205.23 279.198C207.666 280.384 210.102 281.548 212.559 282.647C213.335 283.013 214.132 283.358 214.93 283.682C215.21 283.789 215.598 283.962 215.922 284.048ZM172.724 168.446C174.298 168.079 176.453 166.937 177.898 166.204C179.557 165.342 181.174 164.458 182.834 163.617C186.434 161.828 190.033 160.018 193.633 158.229C197.168 156.439 200.703 154.607 204.26 152.818C206.674 151.589 209.11 150.382 211.567 149.218C212.602 148.723 215.21 147.408 216.353 147.408C216.676 147.408 216.978 147.472 217.28 147.623L249.44 163.402C251.186 164.264 252.868 165.213 254.592 166.096C255.627 166.614 256.661 167.131 257.718 167.605C258.407 167.907 259.227 168.273 259.981 168.446C260.951 168.661 261.619 169.502 261.619 170.515V171.701C261.619 172.714 260.951 173.555 259.981 173.77C259.313 173.943 258.192 174.481 257.567 174.762C255.907 175.516 254.269 176.314 252.631 177.133C248.061 179.396 243.534 181.724 239.007 184.052C234.244 186.488 229.502 188.924 224.716 191.295C223.035 192.114 221.354 192.954 219.651 193.709C218.788 194.097 217.301 194.808 216.353 194.808C215.232 194.808 212.667 193.515 211.632 193.041C209.218 191.898 206.825 190.691 204.454 189.506C200.962 187.76 197.513 185.949 194.021 184.203C190.486 182.435 186.994 180.603 183.459 178.814C181.153 177.672 178.846 176.508 176.518 175.408C175.677 175.02 174.837 174.611 173.975 174.244C173.608 174.093 173.091 173.856 172.724 173.77C171.754 173.555 171.086 172.714 171.086 171.701V170.515C171.086 169.502 171.754 168.661 172.724 168.446ZM163.951 181.789L209.498 204.573C210.231 204.939 210.684 205.651 210.684 206.47V265.791C210.684 266.545 210.317 267.213 209.67 267.601C209.024 268.011 208.291 268.032 207.601 267.687L162.054 244.925C161.321 244.558 160.89 243.847 160.89 243.028V183.686C160.89 182.931 161.257 182.285 161.903 181.897C162.529 181.487 163.283 181.465 163.951 181.789ZM222.022 265.791V206.47C222.022 205.651 222.453 204.939 223.207 204.573L268.625 182.155C269.315 181.832 270.047 181.875 270.694 182.263C271.319 182.651 271.686 183.298 271.686 184.052L271.815 243.028C271.815 243.847 271.362 244.558 270.629 244.925L225.083 267.687C224.414 268.032 223.66 268.011 223.013 267.601C222.388 267.213 222.022 266.567 222.022 265.791Z" fill="white"/>
<path fill-rule="evenodd" clip-rule="evenodd" d="M66.3694 149.779C69.7321 149.693 74.9054 146.977 77.8154 145.446C80.359 144.11 82.8594 142.687 85.4245 141.415C91.4169 138.419 97.4094 135.423 103.402 132.427C109.394 129.43 115.387 126.434 121.379 123.438C123.664 122.295 126.057 121.325 128.32 120.161C129.915 119.342 131.683 118.308 132.804 116.863C133.838 115.527 134.205 114.018 134.205 112.337V38.035C134.205 36.3968 133.881 34.9094 132.89 33.5946C131.79 32.1719 130.066 31.1372 128.492 30.3181C126.164 29.1326 123.729 28.1195 121.379 26.9555C115.387 23.9592 109.394 20.963 103.402 17.9668C97.474 14.9921 91.5894 11.9097 85.6401 8.93505C81.8032 7.01661 77.9447 5.09817 74.0647 3.26595C72.6636 2.61928 71.2625 1.95106 69.8399 1.34751C69.3441 1.13195 68.4388 0.743952 67.8783 0.593063C64.6019 0.65773 59.6657 3.20128 56.8419 4.68861C54.2768 6.04661 51.7548 7.46927 49.1681 8.7626L4.82843 30.9432C1.78911 32.4521 0 33.0557 0 36.8279V113.544C0 117.079 1.46577 117.812 4.39732 119.235C8.32043 121.153 12.222 123.179 16.1235 125.141C22.4608 128.353 28.7982 131.564 35.1355 134.755C41.9686 138.182 48.8017 141.609 55.6994 144.929C58.1137 146.114 60.5494 147.278 63.0068 148.378C63.8043 148.723 64.5803 149.089 65.3779 149.412C65.6581 149.52 66.0461 149.693 66.3694 149.779ZM23.1722 34.1765C24.7457 33.8101 26.9013 32.6677 28.3671 31.9132C30.0053 31.0726 31.6435 30.1672 33.2817 29.3481C36.8815 27.5375 40.4813 25.7483 44.081 23.9592C47.6377 22.1701 51.1512 20.3164 54.7079 18.5488C57.1221 17.3201 59.5579 16.113 62.0152 14.949C63.0714 14.4533 65.6796 13.1384 66.8005 13.1384C67.1454 13.1384 67.4256 13.203 67.7274 13.3539L99.8882 29.1326C101.634 29.9948 103.337 30.9432 105.062 31.827C106.075 32.3443 107.109 32.8617 108.166 33.3359C108.855 33.6377 109.696 34.0041 110.429 34.1765C111.399 34.3921 112.067 35.2328 112.067 36.2243V37.4314C112.067 38.423 111.399 39.2637 110.429 39.5008C109.761 39.6516 108.661 40.1905 108.015 40.4923C106.355 41.2468 104.717 42.0443 103.078 42.8634C98.5087 45.1052 93.982 47.4547 89.4554 49.7612C84.7132 52.197 79.9494 54.6543 75.1641 57.0254C73.5043 57.8445 71.8014 58.6852 70.0985 59.4396C69.2363 59.8276 67.749 60.5389 66.8005 60.5389C65.6796 60.5389 63.1145 59.2456 62.0799 58.7498C59.6657 57.6289 57.2946 56.4218 54.9019 55.2363C51.4315 53.4687 47.961 51.6581 44.469 49.9121C40.9555 48.1445 37.4419 46.3123 33.9068 44.5448C31.6219 43.3808 29.3155 42.2383 26.9875 41.139C26.1253 40.7294 25.2846 40.3414 24.4224 39.975C24.0775 39.8241 23.5386 39.587 23.1722 39.5008C22.2022 39.2637 21.534 38.423 21.534 37.4314V36.2243C21.534 35.2328 22.2022 34.3921 23.1722 34.1765ZM14.4206 47.5194L59.9674 70.3036C60.7003 70.67 61.1314 71.3814 61.1314 72.2005V131.521C61.1314 132.276 60.765 132.922 60.1183 133.332C59.4932 133.72 58.7388 133.763 58.0706 133.418L12.5238 110.634C11.7909 110.268 11.3382 109.578 11.3382 108.737V49.4163C11.3382 48.6619 11.7046 48.0152 12.3513 47.6056C12.998 47.2176 13.7309 47.1745 14.4206 47.5194ZM72.4696 131.521V72.2005C72.4696 71.3598 72.9223 70.6485 73.6552 70.282L119.094 47.8859C119.762 47.5625 120.495 47.5841 121.142 47.9936C121.789 48.3816 122.134 49.0283 122.155 49.7827L122.263 108.737C122.263 109.578 121.832 110.268 121.077 110.656L75.5521 133.418C74.8623 133.763 74.1294 133.72 73.4827 133.332C72.8361 132.922 72.4696 132.276 72.4696 131.521Z" fill="#ffc45f"/>
<path fill-rule="evenodd" clip-rule="evenodd" d="M109.545 211.772H55.0097C53.8457 211.772 52.8972 210.824 52.8972 209.66V170.688C52.8972 169.502 52.4661 168.446 51.6686 167.562C49.6208 165.342 45.4175 164.824 43.2619 167.196C42.0979 168.467 41.5375 170.192 41.5375 171.895V216.838C41.5375 220.524 44.1457 223.111 47.8101 223.111H108.942C111.507 223.111 114.266 220.201 114.481 217.743C114.718 215.027 112.412 211.772 109.545 211.772Z" fill="white"/>
</svg>
