<svg width="264" height="265" viewBox="0 0 264 265" fill="none" xmlns="http://www.w3.org/2000/svg">
<path fill-rule="evenodd" clip-rule="evenodd" d="M101.97 172.753L43.7996 129.633L41.7205 39.5146L220.918 38.475L223.525 126.778L160.405 173.793L101.97 172.753Z" fill="#ffc45f"/>
<path fill-rule="evenodd" clip-rule="evenodd" d="M263.076 245.136C262.067 250.257 261.276 252.941 257.614 256.913C250.104 265.121 241.198 264.035 231.097 264.035H35.6844C33.1242 264.035 30.5485 264.128 27.9883 264.159C26.4212 264.175 24.8541 264.19 23.2869 264.128C21.937 264.082 20.556 264.02 19.2372 263.803C10.7498 262.484 2.92954 256.386 0.943457 247.821C0.726229 246.874 0.617615 245.85 0.524517 244.888C0.400387 243.554 0.338322 242.219 0.276257 240.885C0.152126 237.611 0.121094 234.306 0.121094 231.032C0.121094 225.834 0.245224 220.652 0.26074 215.469C0.26074 209.046 0.229708 202.622 0.229708 196.183C0.214191 183.661 0.198675 171.139 0.198675 158.618C0.198675 145.817 0.198675 133.016 0.245224 120.23C0.26074 115.886 0.276257 111.541 0.322806 107.197C0.338322 105.893 0.353838 104.59 0.384871 103.302C0.384871 102.728 0.384871 101.983 0.462452 101.425C0.943457 98.2127 6.7 94.4888 9.16709 92.5337C15.2029 87.7082 21.2077 82.8205 27.1505 77.8864C28.609 76.6761 30.083 75.5124 31.5416 74.3176C32.4105 73.6039 33.3104 72.9056 34.1638 72.1764C34.5673 71.835 35.0172 71.4161 35.281 70.9351C35.793 69.9731 35.6689 67.9249 35.6224 66.8698C35.5758 65.3027 35.4982 63.72 35.4517 62.1373C35.3741 59.6858 35.3431 57.2342 35.3431 54.7826C35.3431 51.7724 35.2965 48.7623 35.281 45.7521C35.25 43.6885 35.2345 41.6093 35.2965 39.5456C35.3741 37.4199 35.4827 34.3321 37.2826 32.8581C38.3687 31.9581 39.8428 31.7875 41.2082 31.7254C43.1633 31.6478 45.1959 31.7564 47.151 31.7564C58.0434 31.7564 68.9358 31.7564 79.8283 31.7564C80.6662 31.7564 81.504 31.7875 82.3574 31.8185C82.6988 31.8185 83.1332 31.834 83.4746 31.7564C84.0797 31.6013 84.9331 30.8565 85.3986 30.4686C86.9037 29.2273 88.4243 27.986 89.9604 26.7757C92.9551 24.3707 95.8721 21.8881 98.8823 19.4986C101.815 17.1401 104.701 14.704 107.602 12.33C109.433 10.8405 111.264 9.36643 113.126 7.90789C114.414 6.91485 115.811 5.8132 117.207 4.9598C125.043 0.196298 136.013 -0.501935 144.205 3.76504C145.167 4.26157 146.098 4.88222 146.998 5.48735C148.209 6.30972 149.388 7.17863 150.552 8.04754C153.391 10.1888 156.168 12.4076 158.915 14.6575C163.244 18.1642 167.495 21.7795 171.824 25.3017C173.298 26.4964 174.695 27.7998 176.2 28.9945C177.022 29.6462 179.722 31.7564 180.762 31.7719C194.307 32.0047 207.853 31.7719 221.383 31.7409C224.3 31.7409 227.124 32.2064 227.993 35.4338C228.148 35.9924 228.148 36.9389 228.18 37.5285C228.226 38.7853 228.242 40.0576 228.257 41.3145C228.304 44.9142 228.288 48.514 228.288 52.0983C228.273 57.4049 228.211 62.7269 228.211 68.0335C228.211 68.8248 228.164 69.6162 228.164 70.4075C228.18 70.5782 228.164 70.9816 228.242 71.1368C228.397 71.4471 229.933 72.5798 230.243 72.8281L261.757 98.523L261.803 98.5696C263.851 100.711 263.308 103.892 263.308 106.576V212.537C263.308 217.921 263.308 223.321 263.308 228.72C263.308 231.28 263.401 233.856 263.433 236.416C263.464 238.046 263.464 239.69 263.417 241.319C263.37 242.545 263.324 243.926 263.076 245.136ZM100.48 31.7099L163.089 31.7564C162.887 31.5702 162.67 31.384 162.468 31.2134C160.87 29.8479 159.241 28.498 157.611 27.1791C155.067 25.1155 152.507 23.0828 149.946 21.0347C144.159 16.3953 139.985 11.4611 131.901 11.4146C128.13 11.3835 124.919 12.4852 121.784 14.5334C118.898 16.3953 116.447 18.8003 113.778 20.9416C111.218 22.9897 108.627 25.0224 106.066 27.086C104.406 28.4204 102.746 29.7703 101.117 31.1668C100.899 31.3375 100.698 31.5237 100.48 31.7099ZM14.1789 101.952L31.0606 114.163C32.0381 114.862 33.0001 115.606 33.9776 116.32C34.2414 116.506 34.769 116.879 35.281 117.236L35.3276 84.7601C35.1258 84.8997 34.9396 85.0549 34.7379 85.2101C33.4501 86.2031 32.1933 87.2427 30.9209 88.2823C29.0124 89.8494 27.1039 91.4786 25.1644 93.0147C23.1628 94.6284 21.1922 96.2887 19.1751 97.9024C18.1665 98.6937 17.158 99.4695 16.1494 100.276C15.7925 100.571 14.8461 101.331 14.1789 101.952ZM228.273 84.7911L228.211 117.236C228.49 117.049 228.754 116.879 228.909 116.77C230.181 115.932 231.407 115.048 232.633 114.163C234.588 112.751 236.512 111.293 238.467 109.881C240.406 108.484 242.392 107.119 244.347 105.738C245.62 104.838 246.908 103.923 248.18 102.992C248.614 102.666 249.049 102.34 249.483 101.999C248.847 101.363 247.823 100.556 247.466 100.276C246.504 99.5006 245.496 98.7713 244.549 97.9955C241.601 95.5749 238.653 93.1389 235.705 90.7339C233.75 89.1357 231.795 87.553 229.824 86.0014C229.312 85.598 228.8 85.1945 228.273 84.7911ZM217.566 42.2765C217.442 42.261 217.349 42.261 217.256 42.2454C216.666 42.1989 216.061 42.1834 215.456 42.1679C213.811 42.1213 212.167 42.1058 210.506 42.1213C207.853 42.1213 205.2 42.1989 202.547 42.1989H54.5212C52.3024 42.1989 50.0991 42.1058 47.8802 42.0437C47.5389 42.0437 46.0959 41.9972 45.7235 42.1523C45.6304 42.4316 45.6769 43.285 45.6769 43.5178C45.739 44.8211 45.8011 46.109 45.8011 47.4279V121.596C45.8011 121.922 45.708 124.466 45.8321 124.699C45.9407 124.916 47.4303 125.925 47.663 126.08L105.291 167.384C106.082 167.943 108.813 170.131 109.666 170.348H150.458C151.296 170.348 152.119 170.379 152.941 170.394C153.267 170.394 153.67 170.41 153.981 170.332C154.57 170.162 155.734 169.262 156.23 168.889L199.242 138.043C202.438 135.747 205.65 133.45 208.831 131.138C211.794 128.997 214.898 127.026 217.737 124.715C217.815 123.194 217.815 121.627 217.83 120.106C217.877 116.879 217.892 113.651 217.908 110.424C217.939 101.471 217.923 92.5182 217.892 83.5498C217.861 74.1469 217.815 64.7285 217.737 55.3257C217.706 52.1138 217.675 48.9019 217.628 45.6901C217.613 44.7125 217.597 43.7505 217.566 42.773C217.566 42.6178 217.566 42.4472 217.566 42.2765ZM11.6497 246.688C12.1462 246.316 12.6272 245.943 13.1237 245.555C14.8616 244.205 16.5839 242.825 18.3062 241.444C23.2869 237.456 28.2366 233.437 33.1708 229.403C40.5565 223.398 47.8957 217.362 55.2815 211.358C57.7641 209.34 60.2777 207.339 62.7604 205.337C67.7411 201.334 72.7218 197.315 77.687 193.297C82.5747 189.324 87.4778 185.352 92.3189 181.318C94.0102 179.921 95.7014 178.51 97.3617 177.082C97.8272 176.694 98.2771 176.291 98.7271 175.887L54.3505 143.8C46.9027 138.415 39.4549 133.031 31.9916 127.678C26.9798 124.078 21.968 120.494 16.9252 116.941C15.1719 115.7 13.4341 114.474 11.6652 113.264C11.3859 113.077 11.1066 112.891 10.8428 112.705L10.7342 229.605C10.7342 233.127 10.0981 242.731 11.6497 246.688ZM252.835 112.55C252.013 113.093 251.19 113.651 250.383 114.226C247.901 115.963 245.434 117.717 242.982 119.486C239.243 122.17 235.534 124.901 231.81 127.585L166.347 174.553C165.866 174.91 165.152 175.313 164.594 175.779C165.028 176.182 165.556 176.648 165.82 176.865C166.952 177.858 168.131 178.804 169.311 179.751C171.157 181.225 173.05 182.637 174.866 184.142C193.33 199.441 212.151 214.337 230.678 229.558C234.308 232.537 237.908 235.547 241.539 238.511C243.944 240.497 246.38 242.468 248.816 244.407C249.685 245.09 250.57 245.773 251.454 246.44C251.578 246.533 251.733 246.657 251.904 246.781C252.912 244.562 252.959 241.025 252.959 238.914C252.944 236.789 252.835 234.663 252.835 232.537V180.154C252.835 176.042 252.85 171.931 252.866 167.819C252.897 160.355 252.912 152.892 252.928 145.429C252.944 137.764 252.959 130.099 252.928 122.434C252.912 119.765 252.897 117.081 252.866 114.412C252.85 113.791 252.85 113.17 252.835 112.55ZM243.246 253.314C242.563 252.662 241.648 251.933 241.306 251.638C240.205 250.769 239.072 249.947 237.986 249.062C235.845 247.293 233.688 245.524 231.516 243.787C214.153 229.884 197.147 215.531 179.753 201.66C178.155 200.387 176.588 199.084 175.005 197.781C172.305 195.577 169.621 193.374 166.921 191.171C164.082 188.859 161.242 186.531 158.372 184.235C157.379 183.428 156.37 182.621 155.362 181.846C154.989 181.551 154.477 181.116 154.058 180.852C153.903 180.837 153.732 180.837 153.593 180.821C153.158 180.806 152.724 180.79 152.305 180.775C150.939 180.728 149.574 180.728 148.209 180.713C144.329 180.682 140.466 180.697 136.587 180.713C130.908 180.728 125.229 180.79 119.55 180.79C117.223 180.79 114.864 180.713 112.537 180.775C111.435 180.79 110.209 180.852 109.154 181.24C107.758 181.783 106.284 183.133 105.166 184.095C102.187 186.687 99.2392 189.2 96.1359 191.652C78.7421 205.415 61.8604 219.798 44.5442 233.639L25.0868 249.481C24.0007 250.365 22.9145 251.234 21.8284 252.119C21.4715 252.398 20.8353 252.802 20.2923 253.251C21.7043 253.453 23.2248 253.515 24.5282 253.577C27.3211 253.717 30.1296 253.717 32.938 253.701C37.3757 253.67 41.8289 253.515 46.2821 253.515C55.7935 253.515 65.305 253.5 74.8165 253.5L238.746 253.515C240.003 253.515 241.834 253.67 243.246 253.314Z" fill="#153540"/>
<path fill-rule="evenodd" clip-rule="evenodd" d="M169.869 67.444C156.944 67.6922 148.689 65.6131 139.085 73.1385C136.401 75.2487 133.561 78.4916 131.482 81.719C130.442 83.3171 125.725 91.0598 124.856 91.6339C120.729 89.0116 115.624 67.4595 93.6532 67.4905H84.5296C81.535 67.506 79.2386 68.6698 79.3937 71.8506C79.7661 79.4226 93.2343 72.5178 102.792 77.7002C108.487 80.788 112.49 87.7393 116.121 93.5424C117.393 95.5595 118.852 97.468 119.86 99.5161C119.348 101.207 113.731 109.431 112.397 111.495C104.018 124.342 99.1615 123.597 85.7089 123.566C82.4349 123.551 79.7661 123.892 79.3627 126.933C78.9438 130.114 81.2247 131.65 84.2348 131.65C97.0202 131.635 104.096 132.814 113.436 123.427C116.664 120.184 119.534 115.498 121.97 111.634C122.467 110.859 122.762 110.424 123.227 109.679C124.251 108.019 123.863 108.205 124.856 107.616C127.355 109.447 131.497 120.432 140.187 126.871C149.31 133.621 157.379 131.185 169.823 131.666C169.636 133.326 163.802 137.64 162.297 139.89C159.908 143.489 164.609 148.873 169.155 144.405C171.902 141.705 174.4 139.176 177.1 136.46C178.558 135.002 184.16 130.254 184.237 127.756C184.315 125.149 179.644 121.317 177.239 118.943C174.509 116.243 171.995 113.729 169.311 110.983C164.733 106.343 160.032 111.433 162.189 115.157C163.508 117.422 169.652 121.984 169.807 123.535L155.16 123.566C147.495 123.566 142.778 119.175 139.457 114.629C138.34 113.108 129.775 100.152 129.806 99.5161L139.395 84.636C145.059 76.7693 149.745 75.6831 158.403 75.6676L169.854 75.6831C169.419 77.2658 163.492 82.1069 162.251 83.9378C159.97 87.3048 164.439 92.9217 169.093 88.422L181.01 76.49C186.844 70.6403 184.455 70.2369 177.146 62.8201C174.307 59.9186 171.964 57.5601 169.202 54.8758C164.532 50.345 160.141 55.543 162.111 59.0341C163.554 61.5943 169.295 65.6131 169.869 67.444Z" fill="#FEFEFE"/>
<path fill-rule="evenodd" clip-rule="evenodd" d="M12.4719 102.169L30.3777 115.126C31.1846 115.7 35.4981 119.051 36.4601 119.16L36.5067 82.5724C35.6067 82.712 26.5297 90.4236 24.435 92.0994C22.4799 93.6665 20.6335 95.2182 18.4302 96.9715C17.2975 97.887 12.9064 101.176 12.4719 102.169Z" fill="#F9FAFA"/>
</svg>
