<svg width="215" height="287" viewBox="0 0 215 287" fill="none" xmlns="http://www.w3.org/2000/svg">
<path fill-rule="evenodd" clip-rule="evenodd" d="M127.043 87.862C127.043 93.5095 130.643 95.4064 135.062 96.4411L116.998 114.763C109.54 109.676 93.589 88.4009 87.4242 88.4009C82.0353 88.4009 79.4486 92.3671 75.7842 96.0315C72.6155 99.2002 69.8564 101.959 66.6878 105.128C63.5191 108.297 60.7384 111.077 57.5913 114.224C53.6467 118.169 49.9607 120.087 49.9607 126.403C49.9607 130.262 54.0562 133.905 57.9793 133.905C64.9202 133.905 82.5526 111.12 86.8853 108.21C90.5497 110.668 93.4597 115.044 95.4644 116.768L107.902 129.486C118.917 140.544 121.805 133.409 136.549 118.794L147.392 107.672C147.392 120.281 163.45 118.104 163.45 109.288V87.862C163.45 82.9042 159.226 79.8434 155.949 79.8434H134.545C132.949 79.8434 130.233 81.266 129.328 82.1282C128.035 83.3785 127.043 85.4693 127.043 87.862Z" fill="#ffc45f"/>
<path fill-rule="evenodd" clip-rule="evenodd" d="M93.8479 176.735C93.8479 179.516 94.1281 181.434 95.9388 183.224C96.8872 184.172 99.517 185.832 101.349 185.832H167.18C176.427 185.832 178.647 169.234 165.046 169.234H103.483C100.638 169.234 98.5254 169.795 96.9088 171.217C95.5508 172.403 93.8479 174.472 93.8479 176.735Z" fill="#ffc45f"/>
<path fill-rule="evenodd" clip-rule="evenodd" d="M93.8479 222.778C93.8479 228.253 96.5639 231.874 101.888 231.874H166.662C177.095 231.874 178.518 215.277 164.507 215.277H104.022C99.0212 215.277 93.8479 218.1 93.8479 222.778Z" fill="#ffc45f"/>
<path fill-rule="evenodd" clip-rule="evenodd" d="M55.8453 174.601C51.6204 171.778 53.2586 169.773 46.21 169.773C41.8558 169.773 39.2476 173.674 39.2476 178.869C39.2476 182.448 43.7311 185.767 45.8004 187.836C50.6073 192.643 50.7798 194.389 56.9231 194.389C60.5875 194.389 66.9248 186.802 70.4384 183.288C74.5555 179.15 81.5395 173.631 81.5395 169.234C81.5395 165.095 78.263 160.677 73.4993 160.677C68.6277 160.677 66.5799 164.125 64.0148 166.691C61.73 168.954 58.2164 173.006 55.8453 174.601Z" fill="#ffc45f"/>
<path fill-rule="evenodd" clip-rule="evenodd" d="M55.8453 220.622C52.9353 218.682 52.3318 215.816 47.2662 215.816C41.1444 215.816 39.2476 219.997 39.2476 224.912C39.2476 228.598 51.0815 240.432 54.7675 240.432C60.2211 240.432 60.1133 239.656 64.2735 235.474L76.5817 223.166C78.6295 221.118 81.5395 219.07 81.5395 215.277C81.5395 210.728 77.8535 206.719 73.4993 206.719C66.7955 206.719 62.0317 216.484 55.8453 220.622Z" fill="#ffc45f"/>
<path d="M82.768 0.626846H128.897C141.615 0.626846 153.104 6.68394 161.359 16.4701C163.342 18.8197 165.132 21.3848 166.705 24.1224H189.08C196.172 24.1224 202.595 27.0108 207.251 31.6668C211.907 36.3228 214.817 42.7679 214.817 49.8381V261.168C214.817 268.239 211.907 274.662 207.251 279.34C202.595 283.996 196.172 286.884 189.08 286.884H26.4219C19.3301 286.884 12.9065 283.996 8.25055 279.34C3.57301 274.662 0.68457 268.239 0.68457 261.168V49.8381C0.68457 42.7679 3.57301 36.3228 8.25055 31.6668C12.9065 27.0108 19.3301 24.1224 26.4219 24.1224H44.9596C46.5331 21.3848 48.3438 18.8197 50.3269 16.4701C58.5611 6.68394 70.0502 0.626846 82.768 0.626846ZM172.374 38.0903C173.603 42.8325 174.271 47.8334 174.271 53.0067C174.271 54.7743 174.25 52.3816 174.228 53.5025L174.142 61.0038H37.5229L37.4367 53.481C37.4152 52.317 37.3936 54.8605 37.3936 53.0067C37.3936 48.1567 37.9756 43.4361 39.0749 38.9525H26.4219C23.4256 38.9525 20.7096 40.1812 18.7265 42.1428C16.7434 44.1259 15.5148 46.8419 15.5148 49.8381V261.168C15.5148 264.143 16.7434 266.859 18.7265 268.842C20.7096 270.825 23.4256 272.054 26.4219 272.054H189.08C192.076 272.054 194.792 270.825 196.775 268.842C198.758 266.859 199.987 264.143 199.987 261.168V49.8381C199.987 46.8419 198.758 44.1259 196.775 42.1428C194.792 40.1812 192.076 38.9525 189.08 38.9525L172.374 38.0903ZM128.897 15.4355H82.768C74.62 15.4355 67.1187 19.4879 61.6004 26.0192C57.0953 31.365 53.9267 38.349 52.7411 46.1736H158.924C157.738 38.349 154.569 31.365 150.064 26.0192C144.546 19.4879 137.045 15.4355 128.897 15.4355Z" fill="#FEFEFE"/>
</svg>
