<svg width="316" height="315" viewBox="0 0 316 315" fill="none" xmlns="http://www.w3.org/2000/svg">
<path fill-rule="evenodd" clip-rule="evenodd" d="M157.75 283.477C163.031 283.477 168.204 288.197 168.204 293.306C168.204 309.968 142.618 305.743 148.33 290.051C149.559 286.645 153.331 283.477 157.75 283.477ZM315.17 166.322V168.931C314.954 172.487 313.812 176.173 311.613 179.687C309.673 182.791 307.388 184.558 304.241 186.455C298.788 189.753 299.133 185.787 297.063 193.439L281.349 248.427C287.234 249.807 294.261 258.472 294.261 265.65V269.94C294.261 277.958 286.415 287.033 275.831 288.456C270.248 289.21 265.765 287.852 261.669 285.309C259.858 284.166 258.436 282.528 256.884 280.89C255.116 278.993 254.836 277.7 253.672 275.479C251.754 276.406 246.71 277.376 244.058 278.152L187.992 292.832C185.341 293.478 181.569 294.922 178.659 295.16C178.659 315.336 149.494 322.686 139.492 304.213C138.35 302.1 137.897 300.225 136.841 298.242C131.517 298.242 127.314 297.983 122.119 297.595L94.6785 295.526C91.1003 294.987 84.4181 294.534 80.883 294.534C78.2317 299.578 71.9806 304.385 64.2852 304.385C44.8853 304.385 38.1169 284.942 44.6051 273.647C47.1486 269.185 48.9162 270.241 47.2133 266.189C44.7991 260.391 42.4064 255.26 39.9491 249.397L28.8911 223.574C27.7487 220.879 26.1535 217.818 25.55 215.232C16.0656 215.232 13.1125 214.456 7.68048 210.317C-1.41595 203.376 -2.12728 187.727 5.99915 179.687C9.49114 176.216 12.5951 174.707 18.1565 173.414L29.236 91.6325C29.6671 87.5585 30.4647 84.4976 30.4647 79.9494C25.8949 78.7207 21.2389 69.4734 21.2389 63.3301C21.2389 48.931 35.4655 38.1317 49.4551 43.111C51.0717 43.6715 53.2057 45.2235 54.3266 45.6115C57.3659 46.7108 120.308 21.7711 131.926 19.0551C131.926 13.6662 135.03 8.75154 137.897 5.97088C140.549 3.40577 146.11 0 150.982 0C171.739 0 176.007 19.206 173.119 25.2199L211.251 42.4428C215.131 44.4259 219.463 46.1503 223.537 47.9826C230.78 51.1943 271.757 70.7236 273.352 70.7236C273.525 70.7236 287.579 63.1145 298.701 74.2587C308.509 84.0665 305.535 101.074 295.49 106.376C295.49 112.39 299.176 139.831 299.176 147.591C308.445 149.746 314.609 157.463 315.17 166.322ZM53.2057 283.477C53.2057 270.328 73.511 268.28 73.511 284.705C73.511 295.742 53.2057 297.25 53.2057 283.477ZM83.3403 276.708L109.66 263.559L131.431 279.661C133.177 280.847 137.682 283.951 138.695 285.33C138.134 286.451 138.221 286.085 138.07 287.788L98.6878 284.748C93.7085 284.36 89.613 284.102 84.569 284.102C84.569 281.429 84.3965 279.079 83.3403 276.708ZM273.352 277.937C261.841 277.937 259.212 262.352 269.019 258.235C284.712 251.661 289.26 277.937 273.352 277.937ZM252.443 265.025C249.878 265.09 218.235 273.733 214.678 274.617C208.211 276.234 201.831 278.152 195.752 279.661L176.805 284.705C173.27 279.424 174.003 281.407 182 268.366L207.931 226.656C209.742 223.897 211.66 221.03 213.083 218.293C215.023 219.586 216.165 221.16 218.364 222.862C220.433 224.458 221.878 226.139 223.688 227.993C224.615 228.898 225.197 229.588 226.189 230.407C227.417 231.442 227.676 231.42 228.926 232.584L244.597 247.673C247.141 250.195 252.508 254.053 254.901 257.653C253.737 259.873 252.702 261.878 252.443 265.025ZM88.255 248.427C90.6261 248.966 94.5492 252.329 97.179 254.269C98.9681 255.605 98.731 254.786 99.3345 257.028C94.7863 258.106 68.467 274.725 77.6281 263.02L88.255 248.427ZM199.568 218.918C199.05 221.095 196.916 223.897 195.623 226.031C194.114 228.467 192.907 230.407 191.312 232.8L165.747 274.251C159.022 271.039 150.421 273.389 145.442 276.708C142.532 274.165 122.852 259.421 120.847 258.882L199.568 218.918ZM35.3793 209.692C38.5911 209.951 54.1973 222.561 57.8617 225.32C61.7417 228.208 64.9966 230.515 68.855 233.403C70.8166 234.89 72.3255 236.011 74.1146 237.369C75.5803 238.447 78.749 240.43 79.6543 241.659L65.9235 260.52C63.8973 262.869 61.9573 262.158 57.5168 263.193L46.3726 236.83C44.562 232.498 35.4655 212.861 35.3793 209.692ZM95.0234 239.827L125.783 199.238C142.252 210.274 157.578 213.572 176.719 206.523C182.582 204.368 186.677 201.285 191.571 198.009C192.864 198.871 199.762 205.014 200.171 206.61C197.541 207.235 177.43 217.668 173.335 219.737L120.028 246.379C117.614 247.587 115.738 248.535 113.475 249.699C109.25 251.898 109.099 249.311 101.296 244.008C99.4638 242.737 97.0065 240.344 95.0234 239.827ZM23.0927 204.152C18.4798 204.152 15.3758 204.044 12.6167 199.259C6.92603 189.408 19.6007 178.631 28.4815 186.455C34.8404 192.06 30.9604 204.152 23.0927 204.152ZM87.0263 233.058C85.1941 232.562 55.7493 210.36 52.8608 208.205C48.9377 205.252 45.4457 202.471 41.5226 199.841C43.3764 196.004 42.1477 193.849 42.1477 189.387C47.084 188.244 52.8177 185.938 57.9048 184.235C64.5439 182.036 103.279 168.564 106.706 168.478C106.814 173.436 110.242 179.73 112.44 183.674L115.846 188.869C116.212 189.365 116.256 189.43 116.644 189.904C117.075 190.421 117.441 190.852 117.786 191.24C114.229 196.565 87.7161 230.472 87.0263 233.058ZM270.895 246.573C267.058 247.479 265.377 248.018 262.294 249.656C260.936 247.651 259.147 245.948 257.186 244.31L230.155 219.069C226.792 215.663 221.77 212.214 219.248 208.463L276.435 180.183C279.754 182.403 282.276 187.123 287.493 187.554C285.488 196.198 271.24 242.349 270.895 246.573ZM230.306 191.24C230.866 189.193 236.363 181.109 237.893 178.523L245.675 165.417L265.98 167.249C269.084 167.4 271.024 167.831 273.352 167.874C273.115 170.806 271.886 170.504 269.257 171.776C267.123 172.789 265.463 173.673 263.523 174.643C259.815 176.475 256.129 178.329 252.443 180.183C245.114 183.825 237.527 187.425 230.306 191.24ZM294.261 178.329C283.095 178.329 279.97 163.003 289.928 158.627C298.68 154.79 307.13 163.067 303.681 171.754C302.344 175.182 298.68 178.329 294.261 178.329ZM211.251 201.07C209.181 199.69 201.077 192.254 199.568 190.012C200.193 187.641 209.72 176.259 210.022 162.96C217.222 162.96 223.02 164.037 229.767 164.145C235.738 164.253 232.892 165.74 227.202 175.225C224.658 179.471 221.856 183.718 219.118 188.05L211.251 201.07ZM115.932 157.42C115.932 134.679 134.923 115.602 157.75 115.602C190.816 115.602 211.552 152.721 192.066 181.282C184.263 192.771 171.438 199.238 157.125 199.238C134.686 199.238 115.932 179.924 115.932 157.42ZM252.443 154.963C254.858 151.363 256.905 147.763 259.341 144.012C261.841 140.111 263.975 136.705 266.39 132.631C268.675 128.773 270.852 125.41 273.244 121.638L280.121 110.062C283.375 110.062 283.117 110.968 285.035 110.062C285.035 119.719 288.118 136.597 288.118 148.194C285.078 148.453 282.578 150.436 280.703 151.859C278.935 153.217 279.409 152.872 278.03 154.725C275.939 157.571 273.848 157.226 268.782 156.45C266.584 156.127 265.118 156.321 262.941 156.148C260.311 155.954 254.879 155.523 252.443 154.963ZM105.478 156.795L36.6942 179.838L90.7339 108.834L114.704 127.285C109.358 135.282 108.409 139.249 106.211 147.698C105.327 151.083 105.478 152.721 105.478 156.795ZM240.157 154.337L210.022 151.88C210.022 144.336 205.754 136.899 205.107 134.054C207.737 132.653 209.806 131.381 212.673 129.958C215.497 128.557 217.782 127.501 220.347 125.949L266.584 102.087L270.421 105.622L240.157 154.337ZM29.236 170.957C30.7449 164.447 34.0213 136.705 35.2715 127.803L40.9191 84.2389C47.3426 84.2389 49.4551 83.2043 54.4559 80.5529L78.4257 99.0045C80.0208 100.233 80.1286 100.923 82.1117 101.462C81.4434 104.329 69.2861 119.159 66.3115 123.168C64.9535 124.979 64.1559 125.82 62.7764 127.63C59.0257 132.609 31.0251 169.75 29.236 170.957ZM117.161 74.4096C124.619 74.5821 142.51 77.4921 150.982 77.4921L153.439 105.148C147.533 105.148 139.665 107.821 135.397 109.847C131.366 111.787 124.253 116.055 122.076 119.288C120.868 118.491 120.653 118.103 119.36 117.09L103.775 105.018C101.857 103.423 99.4423 101.548 97.4807 100.233C102.029 93.4647 112.44 81.4583 117.161 74.4096ZM283.807 99.608C278.525 99.608 273.352 94.8874 273.352 89.7787C273.352 73.0947 298.939 77.3627 293.226 93.0336C291.998 96.4393 288.225 99.608 283.807 99.608ZM162.061 78.7207L186.828 81.0056C191.42 81.5876 194.718 81.3936 199.309 82.0403C203.728 82.6654 207.737 82.6438 212.221 83.2689L249.964 86.7178C254.125 86.9549 258.436 87.9249 262.898 87.9249C262.057 89.7787 262.704 89.2183 262.898 91.6325C260.139 92.2576 220.088 113.964 215.131 116.421L198.943 124.828C192.541 115.279 176.374 106.182 163.893 105.148C163.893 101.182 163.635 95.7496 163.117 91.7834C162.708 88.7225 162.061 82.2558 162.061 78.7207ZM61.8279 71.3272C61.8279 68.1154 66.0959 69.8399 71.0321 70.1201C78.7921 70.5512 97.8472 73.181 104.249 73.181C101.964 77.5136 90.1734 90.9211 89.5052 93.4647C87.5868 92.9474 77.1754 84.4114 75.3432 83.0318L68.4455 77.6214C65.751 75.4012 61.8279 73.3534 61.8279 71.3272ZM32.3184 63.3301C32.3184 49.3406 52.6022 49.3406 52.6022 63.3301C52.6022 76.4358 32.3184 76.4358 32.3184 63.3301ZM143.61 39.9639C145.312 40.8692 146.39 41.3219 148.524 41.8177C148.524 50.3752 149.71 58.4585 150.378 66.4125C141.648 66.4125 134.039 64.5588 125.158 64.5588C127.4 60.3339 140.031 45.3097 143.61 39.9639ZM158.979 41.1926C160.681 40.3088 162.535 39.5975 164.26 38.4766C165.919 37.3773 167.321 36.0624 168.829 35.0493C171.028 35.5666 172.494 36.6013 174.348 37.5281C183.961 42.2704 199.029 48.2628 208.599 53.0912C221.834 59.7519 241.148 67.4472 254.082 74.0001C255.763 74.8407 258.436 75.6598 259.815 76.8669C256.345 76.8669 251.624 75.8538 248.132 75.6598C225.93 74.4312 196.787 70.4003 173.766 68.8483C170.187 68.6112 164.949 67.6412 161.436 67.6412C160.789 64.8174 160.25 58.1137 160.207 54.7294C160.164 50.8494 159.453 44.8786 158.979 41.1926ZM112.246 63.3301C110.608 62.5541 90.8848 61.153 87.091 60.8296C82.6721 60.4632 65.2768 59.1699 62.4315 57.8119V54.7294C68.2515 53.3714 74.7612 50.5261 80.3441 48.6723C86.315 46.6892 92.0703 44.3181 98.0196 42.3566C102.029 41.0201 130.547 30.3933 133.759 30.1346C134.858 32.1824 135.526 32.4195 134.104 34.7044L112.246 63.3301ZM142.381 22.1375C142.381 7.26421 162.665 7.43665 162.665 21.534C162.665 35.3079 142.381 33.3895 142.381 22.1375Z" fill="#FEFEFE"/>
<path fill-rule="evenodd" clip-rule="evenodd" d="M163.29 172.789H147.296V162.96H163.893C165.941 162.96 168.205 165.827 168.205 167.874C168.205 170.289 166.2 172.789 163.29 172.789ZM163.893 151.88H147.296V142.051H163.29C166.2 142.051 168.205 144.551 168.205 146.965C168.205 149.013 165.941 151.88 163.893 151.88ZM152.21 130.971C148.74 130.971 136.841 129.656 136.841 135.282V179.557C136.841 185.183 148.74 183.869 152.21 183.869C152.21 190.572 150.874 189.387 161.436 189.387C163.829 189.387 163.29 187.813 163.29 183.869C172.796 183.653 179.974 175.613 178.681 165.439C178.099 160.955 176.87 160.265 174.973 157.42C178.788 151.729 178.659 152.807 178.659 145.112C178.659 137.632 170.813 131.144 163.29 130.971V126.057H152.21V130.971Z" fill="#ffc45f"/>
</svg>
