<svg width="271" height="271" viewBox="0 0 271 271" fill="none" xmlns="http://www.w3.org/2000/svg">
<path fill-rule="evenodd" clip-rule="evenodd" d="M166.834 146.722C165.468 152.572 160.27 158.747 155.553 162.316C145.995 169.531 132.682 170.478 121.278 165.931C90.3075 153.549 96.7467 101.399 135.212 101.399C149.145 101.399 163.855 110.786 166.834 123.541C157.695 123.541 148.556 123.587 139.417 123.541C134.436 123.51 131.177 123.898 128.26 126.07C122.442 130.399 122.116 139.616 128.26 144.193C131.177 146.35 134.436 146.753 139.417 146.722C148.556 146.676 157.695 146.722 166.834 146.722ZM89.8885 135.131C89.8885 140.36 91.9367 148.32 93.5814 151.998C95.583 156.466 98.5466 161.463 101.867 164.783C109.486 172.355 117.151 178.236 129.021 179.787C142.458 181.541 153.211 177.367 161.108 171.579C168.029 166.49 177.726 154.992 178.424 146.722H201.606C196.004 170.788 184.46 188.073 160.813 197.616C105.467 219.943 48.9255 165.016 73.705 107.342C80.1908 92.2444 92.3246 80.1106 107.422 73.6248C132.357 62.9186 159.324 67.0925 179.852 84.1759L187.315 91.9961C195.617 102.516 198.378 109.669 201.606 123.541H178.424C177.804 116.139 169.084 104.999 163.219 100.266C159.945 97.613 155.631 94.9132 151.333 93.1909C133.815 86.1775 116.359 91.0186 103.729 103.649C95.8313 111.547 89.8885 123.044 89.8885 135.131ZM194.748 84.0208L222.817 55.688C224.26 54.245 225.299 52.4451 227.425 51.871C227.937 53.795 229.054 54.1209 230.357 55.7811C247.27 77.1936 258.52 102.951 258.52 130.911C257.914 130.228 258.489 130.926 257.852 129.996C253.027 122.827 249.489 123.541 239.543 123.541C230.761 123.541 221.979 123.541 213.196 123.541C211.102 114.526 210.978 111.112 206.168 101.585C199.604 88.5515 200.085 91.9806 194.748 84.0208ZM186.322 75.5799C184.957 74.6799 183.452 73.299 181.885 72.1198C180.054 70.7543 178.843 69.8233 176.935 68.6286C168.013 63.0427 157.54 58.6516 146.787 57.1621C125.297 54.1984 105.513 59.3809 88.8334 71.9025C76.2032 81.3985 65.8848 94.5253 60.5783 110.026C52.4943 133.595 56.3733 156.699 68.5071 176.529L75.7377 186.164C90.5712 204.536 119.401 217.771 146.275 213.116C163.637 210.122 178.362 202.938 190.403 190.85C195.57 185.668 201.156 178.732 204.6 171.843C206.602 167.824 208.154 164.643 209.814 160.206C211.49 155.784 212.095 151.455 213.196 146.722C219.45 146.722 247.069 147.513 251.739 145.745C255.82 144.193 257.185 140.872 258.52 139.352C258.52 154.077 253.803 174.62 247.286 187.654C232.856 216.468 216.517 232.791 187.734 247.206C181.062 250.542 173.133 253.04 165.887 254.855C132.45 263.234 95.0089 257.245 66.4124 238.175L47.8704 223L31.3766 202.612C30.3991 200.983 29.6388 199.958 28.5837 198.019C23.9133 189.423 22.5633 186.94 18.9791 177.584C9.43657 152.758 9.54518 117.97 18.8394 93.0512C21.6479 85.4793 24.2236 79.8469 28.2113 72.9266C33.7816 63.26 39.4296 55.7035 47.6066 47.5264C52.5253 42.6078 57.7853 37.9994 63.6505 34.0738L72.6654 28.3328C90.1213 18.5886 109.92 11.8235 130.464 11.8235C157.012 11.8235 171.256 14.8336 194.065 26.2226C198.766 28.581 202.568 31.2654 206.757 34.0738L218.472 42.9181C217.913 44.9663 212.715 49.4505 210.962 51.2193L186.322 75.5799ZM0.312988 130.383C0.312988 150.244 1.55429 162.176 8.14871 180.517C9.48312 184.209 11.314 188.709 12.9588 192.045C16.6516 199.555 20.4686 206.056 25.077 212.589C30.7715 220.657 40.3605 231.782 48.2583 237.88C49.7169 238.997 51.0513 240.177 52.6029 241.449L62.0678 248.323C80.796 260.286 105.994 270.03 130.464 270.03H139.96C166.508 270.03 198.254 257.4 217.246 241.93C224.213 236.267 232.545 229.098 237.96 222.069C247.27 209.998 249.861 207.251 257.294 192.402C263.485 180.02 270.11 158.158 270.11 139.879V130.383C270.11 103.835 257.48 72.0887 242.01 53.0968L230.714 39.6286C229.721 38.6356 229.721 38.8994 228.635 38.015C223.22 33.4997 219.077 29.4189 212.979 25.214C204.942 19.6592 201.761 17.6886 192.482 13.0492C178.083 5.84968 156.205 0.232788 139.96 0.232788C120.099 0.232788 108.167 1.47409 89.8265 8.06851C73.2395 14.0423 61.9592 21.5522 48.4911 32.0722L36.1401 43.9732C33.192 47.8368 30.2749 50.1332 25.2942 57.3482C15.6276 71.3595 8.59869 85.0293 4.42481 101.833C2.40769 109.917 0.312988 120.158 0.312988 130.383Z" fill="#153540"/>
<path fill-rule="evenodd" clip-rule="evenodd" d="M134.156 225.234C131.55 225.902 132.294 225.095 129.812 226.693C116.763 235.056 128.152 249.238 136.484 247.64C145.08 245.98 151.007 234.808 142.163 227.779C140.735 226.631 138.423 225.281 136.468 224.955C134.156 224.567 134.172 225.234 134.156 225.234Z" fill="#ffc45f"/>
<path fill-rule="evenodd" clip-rule="evenodd" d="M32.9904 124.068C30.8336 124.627 28.3045 124.673 25.5115 128.18C17.1948 138.623 29.4682 147.591 35.3178 146.458C46.7068 144.27 49.5152 129.328 37.366 124.425C33.7662 122.967 32.9904 124.068 32.9904 124.068Z" fill="#ffc45f"/>
<path fill-rule="evenodd" clip-rule="evenodd" d="M134.156 22.8865C132 23.4451 129.471 23.5072 126.678 27.0139C118.376 37.4408 130.65 46.4092 136.484 45.292C147.873 43.1042 150.697 28.1465 138.532 23.2434C138.067 23.0572 137.105 22.7158 136.468 22.6072C135.693 22.4831 136.236 22.4366 135.243 22.5452C131.969 22.8865 137.694 21.9866 134.156 22.8865Z" fill="#ffc45f"/>
<path fill-rule="evenodd" clip-rule="evenodd" d="M53.0061 61.3669C53.0061 67.8993 53.5802 74.5402 64.0692 74.5402C72.2929 74.5402 74.6203 69.4044 74.6203 62.4065C74.6203 52.2744 61.7418 50.6607 56.8231 54.6328C55.3335 55.8276 53.0061 58.9309 53.0061 61.3669Z" fill="#ffc45f"/>
<path fill-rule="evenodd" clip-rule="evenodd" d="M62.4864 217.337C69.4066 217.337 74.6201 215.49 74.6201 206.274C74.6201 202.984 73.6891 200.579 72.0754 198.795C69.3135 195.738 66.1482 195.723 62.4864 195.723C49.5458 195.723 49.3906 217.337 62.4864 217.337Z" fill="#ffc45f"/>
<path fill-rule="evenodd" clip-rule="evenodd" d="M195.803 205.218C195.803 211.642 197.432 217.042 205.997 217.632C208.681 217.818 211.645 216.964 213.538 215.552C219.62 211.022 220.039 195.723 206.354 195.723C203.064 195.723 200.659 196.653 198.875 198.267C197.354 199.648 195.803 202.379 195.803 205.218Z" fill="#ffc45f"/>
</svg>
