<svg width="96" height="92" viewBox="0 0 96 92" fill="none" xmlns="http://www.w3.org/2000/svg">
<path fill-rule="evenodd" clip-rule="evenodd" d="M36.7063 43.2887C38.6699 42.7156 39.5085 45.6875 37.6298 46.3138C35.6237 46.9878 34.4827 43.9362 36.7063 43.2887ZM8.82821 28.1423C9.93739 28.1901 11.2482 29.3682 11.6781 29.9202C14.6554 33.805 11.5561 38.2629 8.82821 38.5867V28.1423ZM44.0301 31.8732C45.9725 31.0877 47.1507 34.0491 45.2083 34.8399C43.2128 35.6518 42.0665 32.6693 44.0301 31.8732ZM8.85474 21.9436C11.6357 21.933 14.8305 24.2522 16.0034 25.6002C17.6539 27.5055 19.0178 30.0688 18.9966 33.4388C18.9754 36.6283 17.622 39.3986 15.9079 41.1818C14.2786 42.8801 11.2535 44.8384 8.82821 44.78L8.83882 41.5586C9.16786 41.3729 9.87901 41.2402 10.2505 41.1022C11.5773 40.6087 12.7077 39.8444 13.5674 38.8467C17.8184 33.927 15.4249 26.6298 8.83352 25.2393L8.85474 21.9436ZM36.6161 20.4099C38.6859 19.7147 39.5085 22.7768 37.6722 23.3925C35.5812 24.093 34.541 21.0998 36.6161 20.4099ZM8.86005 47.6458C9.99046 47.3327 10.9086 47.3274 12.1292 46.9082C14.9632 45.9317 17.3249 44.1273 19.0868 41.7125C21.5758 38.3054 22.547 33.5715 21.0717 28.8694C19.851 24.974 16.7305 21.8163 13.4188 20.3197C12.5113 19.9057 11.5242 19.5448 10.3513 19.3166C8.29219 18.9133 8.8229 19.4015 8.8229 16.8276C8.8229 14.8746 8.58939 10.5812 8.87067 8.86698L10.0648 8.84575C10.5795 10.2203 10.9988 12.2317 11.3862 13.7548C12.0018 16.212 12.1345 15.4265 14.7562 16.5676C17.2612 17.6555 16.4863 17.8413 19.0921 16.4614C19.9147 16.0315 22.409 14.5986 23.1414 14.4076L26.3894 17.7139C26.2036 18.2871 25.6039 19.2742 25.3332 19.7943C22.7752 24.7086 23.0565 23.2863 24.3302 26.2742C25.4022 28.8057 24.5319 28.673 27.2544 29.5434C28.3583 29.8937 31.1923 30.6207 31.9618 31.0612L31.9512 35.6731C30.4121 36.2728 28.7775 36.6867 27.1377 37.2121C24.4947 38.0559 25.3492 38.0453 24.2824 40.545C23.0087 43.5329 22.8495 42.0946 25.3969 47.0249C25.726 47.6618 26.1611 48.3092 26.4106 49.0681L23.1255 52.2683C22.4037 52.1197 19.6918 50.5541 18.7843 50.0818C16.1255 48.702 16.7517 49.36 14.1937 50.3843C11.4924 51.4616 11.9488 50.7346 11.1633 53.818C10.9245 54.7573 10.6857 55.5746 10.484 56.4132C10.1709 57.7399 10.4256 58.0106 8.82821 57.8195L8.86005 47.6458ZM86.3382 8.90413C86.5399 10.0876 86.3859 47.4495 86.3859 51.7005C86.3859 52.8733 86.5345 56.9916 86.3223 57.8195L13.0739 57.8567C13.042 57.395 13.732 55.0174 13.8912 54.3805C14.1937 53.1864 13.8593 53.4836 16.3961 52.4381C17.1763 52.1197 18.1687 52.9052 19.4848 53.5845C23.6562 55.7551 23.2953 56.1213 25.2908 54.1152C26.1134 53.2926 26.8935 52.539 27.5145 51.9074C28.1407 51.2653 29.3985 50.2569 29.5205 49.498C29.701 48.4154 28.3689 47.3115 28.2628 46.2076H32.9277C35.1779 51.3449 41.5411 49.2592 41.4827 44.727C41.4509 42.5351 39.8057 40.7997 37.7837 40.4707C36.5418 40.269 35.5016 40.614 34.6578 41.1712C33.607 41.8611 33.4955 42.3971 32.864 43.4214L26.6441 43.4161C26.1983 42.6307 26.4053 42.5723 26.7343 41.877C27.8966 39.4358 26.3204 40.407 30.4546 39.1014C35.889 37.3819 34.3765 38.1674 34.7586 34.8027L40.4372 34.7496C41.0263 35.9384 41.2067 36.3524 42.1567 36.9839C45.1552 38.9688 48.9179 36.8459 48.9604 33.4388C49.0028 29.7822 45.1711 27.8133 42.2045 29.692C41.3076 30.2651 40.9414 30.8595 40.4372 31.9528L34.7692 31.9634C34.6153 28.5244 35.3742 29.1294 30.5766 27.6488C26.591 26.4175 27.8063 27.1711 26.7927 24.9528C26.5061 24.3424 26.2567 24.0877 26.6176 23.3447L32.9277 23.2757C34.8117 28.1264 41.5729 26.7094 41.4827 21.7685C41.419 18.5949 37.7996 16.2173 34.6896 18.2446C33.6866 18.8974 33.5115 19.3113 32.9118 20.4948L28.1991 20.4895C28.3689 19.513 29.5789 18.441 29.5152 17.3371C29.4622 16.4243 26.0762 13.3939 25.3014 12.6191C24.6433 11.961 23.9375 10.7988 22.5152 11.5311C21.666 11.9663 17.2293 14.5296 16.6137 14.3598C16.2316 14.2537 15.5788 13.8663 15.0906 13.6911C14.2202 13.3727 14.1884 13.5691 13.9495 12.5607C13.7426 11.685 13.0633 9.55159 13.0951 8.83514C16.6774 8.8829 20.2968 8.84044 23.8897 8.84044C25.3704 8.84044 27.9709 9.29155 28.5493 8.03907C28.889 7.29608 28.4857 6.55309 27.9868 6.2612C27.3499 5.8897 26.2195 6.05422 25.4128 6.05422C20.4985 6.05422 13.9442 5.92155 9.17317 6.04892C7.51205 6.09668 6.38695 6.99889 6.10037 8.39465C5.87216 9.50914 6.0473 53.9082 6.03668 57.0288C6.03137 58.7854 6.53024 59.9742 7.995 60.4837C8.93435 60.8127 38.0862 60.6323 40.5009 60.6323C54.9627 60.6323 69.4192 60.6323 83.881 60.6323C85.7279 60.6323 87.2616 60.8976 88.3602 59.7354C89.4481 58.5837 89.1722 57.05 89.1722 55.1288V11.754C89.1722 9.91248 89.4481 8.22482 88.4398 7.05726C87.3518 5.79418 85.7703 6.05422 84.0031 6.05422H35.3053C34.4986 6.04892 33.5221 5.91624 32.9542 6.36204C32.4447 6.76007 32.2059 7.63574 32.6889 8.2832C33.4159 9.2544 36.1544 8.84044 37.5873 8.84044C40.4531 8.84044 85.3458 8.68123 86.3382 8.90413Z" fill="#153540"/>
<path fill-rule="evenodd" clip-rule="evenodd" d="M32.8102 82.6197C32.9163 82.0253 36.6154 72.6106 36.8436 72.2975L57.7535 72.2921C58.7088 72.2921 58.4169 72.2497 59.2978 74.5211C59.733 75.6568 62.291 81.9935 62.4025 82.6197C60.4495 82.7736 57.9817 82.6463 55.9756 82.6463L43.2864 82.641C40.8557 82.6622 40.9247 85.39 43.2864 85.4378C51.6822 85.597 60.3115 85.1565 68.7179 85.4431L68.6595 88.6433L26.4841 88.6274L26.5372 85.4431C29.6896 85.337 32.9163 85.5121 36.0687 85.4378C36.8117 85.4166 37.3955 85.2627 37.6609 84.6152C38.7594 81.9245 34.0308 82.7153 32.8102 82.6197ZM76.0152 72.2921C78.9022 72.3081 78.1964 70.371 77.8037 69.9517C77.0925 69.1928 74.6512 69.5059 73.4784 69.5059H6.0041C4.34829 69.5112 3.27095 69.0814 2.91538 67.7546C2.61818 66.6507 2.83046 59.847 2.83046 58.17V9.97636C2.83046 6.55329 2.01317 2.93386 5.36725 2.84364C8.52497 2.75342 11.8313 2.84364 15.0102 2.84364H87.3033C88.6938 2.84364 90.5725 2.53583 91.5596 3.43273C92.5945 4.37739 92.3822 5.70416 92.3822 7.43958V65.3982C92.3822 67.0594 92.5096 68.3384 91.2836 69.1185C89.596 70.2012 83.5459 68.8319 82.3677 69.8456C81.8636 70.2861 81.7627 71.1352 82.1608 71.6924C82.5482 72.2391 83.1214 72.2975 84.0023 72.2975C85.6104 72.2868 87.2184 72.2921 88.8265 72.2921C91.5118 72.2975 93.9372 71.719 94.919 68.6886C95.3701 67.3035 95.1525 61.2587 95.1525 59.311V6.29855C95.1525 4.59498 95.1101 3.59194 94.2928 2.35008C92.6529 -0.133634 90.3443 0.0574209 86.9212 0.0574209H9.80928C6.37029 0.0574209 3.66898 -0.446752 1.62045 1.53279C-0.470544 3.54948 0.0601649 6.28263 0.0601649 9.59425V57.7932C0.0601649 60.9084 -0.0778193 64.3527 0.065472 67.4309C0.192842 70.1269 2.32629 72.0586 4.86308 72.2709C7.69706 72.5097 11.5553 72.2921 14.5007 72.2921C16.2468 72.2921 32.4758 72.1913 33.7708 72.3399L29.7268 82.6516C28.6176 82.641 25.7199 82.5083 24.7912 82.6834C23.337 82.9541 23.6767 84.8805 23.6767 86.3294C23.6767 91.6418 22.8753 91.4295 28.1983 91.4295H67.009C72.0773 91.4295 71.5307 91.9602 71.536 86.202C71.536 84.716 71.8756 82.8798 70.3047 82.6675C69.1531 82.5136 66.749 82.6357 65.4594 82.6569L61.4897 72.324L76.0152 72.2921Z" fill="#153540"/>
<path fill-rule="evenodd" clip-rule="evenodd" d="M65.9942 20.8507H81.528C83.6827 20.8507 83.8419 18.0645 81.3423 18.0645H65.9942C63.6591 18.0645 63.5795 20.8507 65.9942 20.8507Z" fill="#ffc45f"/>
<path fill-rule="evenodd" clip-rule="evenodd" d="M65.9962 38.8736H81.2806C83.897 38.8736 83.6688 36.0874 81.4664 36.0874H66.0121C63.6186 36.0874 63.5974 38.8736 65.9962 38.8736Z" fill="#ffc45f"/>
<path fill-rule="evenodd" clip-rule="evenodd" d="M53.9487 26.858H65.6136C68.0549 26.858 67.9647 24.0718 65.6136 24.0718H53.9487C51.6083 24.0718 51.6083 26.858 53.9487 26.858Z" fill="#ffc45f"/>
<path fill-rule="evenodd" clip-rule="evenodd" d="M54.0743 44.8756H65.6119C68.0425 44.8756 67.9788 42.0894 65.6119 42.0894H53.9787C51.6012 42.0894 51.5375 44.8756 54.0743 44.8756Z" fill="#ffc45f"/>
<path fill-rule="evenodd" clip-rule="evenodd" d="M53.1091 12.1788C51.984 12.6034 51.9416 14.1 52.9287 14.6678C53.6982 15.1083 64.0364 14.8907 64.3601 14.7846C65.326 14.4555 65.7771 12.9642 64.6945 12.2955C63.925 11.8232 53.4222 12.0567 53.1091 12.1788Z" fill="#ffc45f"/>
<path fill-rule="evenodd" clip-rule="evenodd" d="M53.9488 32.8873H63.5865C65.8526 32.8873 66.0065 30.1011 63.5865 30.1011H53.9488C51.5606 30.1011 51.6668 32.8873 53.9488 32.8873Z" fill="#ffc45f"/>
<path fill-rule="evenodd" clip-rule="evenodd" d="M53.2591 18.1492C52.012 18.5313 51.3114 20.8717 54.3258 20.8558C55.4509 20.8505 59.1606 20.9991 59.9885 20.8027C61.2728 20.4896 61.8141 18.0483 58.8952 18.0643C57.7436 18.0696 54.0499 17.8997 53.2591 18.1492Z" fill="#ffc45f"/>
<path fill-rule="evenodd" clip-rule="evenodd" d="M53.9486 38.8736H59.2716C61.6492 38.8736 61.5749 36.0874 59.2716 36.0874H53.9486C51.6453 36.0874 51.5922 38.8736 53.9486 38.8736Z" fill="#ffc45f"/>
<path fill-rule="evenodd" clip-rule="evenodd" d="M72.4648 44.8756C74.1153 44.8756 76.1002 45.1994 76.1957 43.5807C76.3019 41.7285 73.9827 42.0894 72.3375 42.0894C70.0236 42.0894 69.9121 44.8756 72.4648 44.8756Z" fill="#ffc45f"/>
<path fill-rule="evenodd" clip-rule="evenodd" d="M72.3373 26.858H74.492C76.7793 26.858 76.9014 24.0718 74.3646 24.0718H72.3373C69.9969 24.0718 70.0022 26.858 72.3373 26.858Z" fill="#ffc45f"/>
<rect width="6.82392" height="6.82392" transform="matrix(0.707081 -0.707132 0.707081 0.707132 4.5332 78.5918)" fill="#153540"/>
<rect width="4.09339" height="4.09339" transform="matrix(0.707092 -0.707122 0.707092 0.707122 12.6406 86.0215)" fill="#153540"/>
<rect width="4.09339" height="4.09339" transform="matrix(0.707094 -0.70712 0.707094 0.70712 76.3262 78.2529)" fill="#153540"/>
<rect width="4.09339" height="4.09339" transform="matrix(0.707144 -0.70707 0.707144 0.70707 79.5098 86.2139)" fill="#153540"/>
<rect width="4.09339" height="4.09339" transform="matrix(0.707144 -0.70707 0.707144 0.70707 85.3477 80.376)" fill="#153540"/>
</svg>
