<svg width="268" height="274" viewBox="0 0 268 274" fill="none" xmlns="http://www.w3.org/2000/svg">
<path fill-rule="evenodd" clip-rule="evenodd" d="M244.061 199.477C242.864 199.477 241.743 199.159 240.789 198.449C237.911 196.28 237.742 191.289 236.976 188.018C233.929 175.269 224.732 161.754 213.796 154.519C210.88 152.594 207.983 150.631 204.767 149.192C202.319 148.107 199.739 147.005 197.178 146.238C195.757 145.808 194.43 145.546 192.972 145.303C191.233 145.023 189.626 144.724 187.906 144.219C185.738 143.602 183.924 142.406 183.326 140.107C183.102 139.228 183.083 138.368 183.083 137.452C183.083 136.331 183.401 135.265 184.13 134.387C185.85 132.33 189.046 132.33 191.476 132.629C194.561 132.985 197.776 133.957 200.711 134.947C203.496 135.901 206.263 137.004 208.973 138.2C210.581 138.91 212.376 139.695 213.89 140.555C222.825 145.733 229.405 151.042 235.798 159.211C237.013 160.763 238.079 162.333 239.163 163.959L239.201 164.015L243.668 171.885L243.706 171.96C244.715 174.166 245.743 176.372 246.584 178.652C247.556 181.269 248.248 183.999 248.94 186.709C249.201 187.775 249.463 188.822 249.669 189.906C250.136 192.317 250.417 195.327 248.846 197.402C247.687 198.935 245.911 199.477 244.061 199.477Z" fill="white"/>
<path fill-rule="evenodd" clip-rule="evenodd" d="M129.415 253.22L128.91 252.753C127.489 254.753 125.713 256.454 123.638 257.8C119.002 260.81 113.207 261.857 107.786 260.922C101.898 259.912 96.7759 256.678 93.4111 251.725C91.5792 249.033 90.4202 245.705 89.9528 242.509C89.8407 241.761 89.8033 241.051 89.7472 240.303C89.7285 240.06 89.6911 239.611 89.579 239.387C89.5416 239.294 89.4855 239.238 89.4107 239.181C89.2425 239.873 89.2238 240.976 89.2238 241.406C89.2238 245.257 91.6913 251.239 94.3458 253.968C99.9538 259.707 107.319 263.016 115.413 261.744C120.797 260.903 126.33 257.875 129.415 253.22Z" fill="white"/>
<path fill-rule="evenodd" clip-rule="evenodd" d="M139.938 14.2443H140.107C163.754 14.2443 196.822 25.1426 215.908 39.0878C217.142 39.9851 218.376 40.845 219.591 41.7236C223.535 44.5836 227.536 47.3316 230.994 50.7898C232.022 51.7806 232.938 52.8835 234.059 53.7621C238.995 57.7064 243.257 62.7162 247.164 67.6512C249.164 70.1748 251.22 72.5302 252.996 75.222C254.772 77.9139 256.697 80.4188 258.361 83.1854C259.109 84.4566 259.987 85.709 260.791 86.9615C262.025 88.9056 263.24 90.8871 264.305 92.9433C266.193 96.5512 268.904 102.533 266.586 106.459C265.614 108.122 263.969 109.02 262.118 109.431C261.819 109.506 261.501 109.543 261.202 109.562C259.819 109.618 258.51 109.15 257.277 108.608C255.837 107.973 254.454 107.281 252.996 106.702C247.762 104.627 242.266 103.972 236.658 103.972C228.582 103.972 217.46 109.207 212.506 115.618C211.59 116.815 210.674 118.03 209.739 119.208C206.655 123.04 200.841 122.684 197.925 118.871C195.215 115.319 192.411 112.459 188.728 109.898C173.4 99.243 152.145 103.356 140.649 117.656C139.546 119.021 139.546 121.806 139.602 123.47C139.658 125.32 139.864 127.171 139.864 129.022C139.864 133.957 139.864 138.892 139.864 143.808C140.032 143.714 140.181 143.602 140.331 143.49C142.163 142.275 144.257 141.172 146.201 140.163C149.136 138.649 152.145 137.247 155.211 135.994C159.791 134.125 170.539 129.994 174.727 134.274C175.848 135.433 176.278 136.929 176.278 138.518C176.278 139.695 175.942 140.798 175.232 141.752C173.773 143.677 171.156 144.35 168.894 144.761C167.567 145.004 166.109 145.154 164.819 145.528C148.407 150.126 134.592 160.688 126.853 175.998C118.703 192.149 118.796 210.711 125.694 227.274C128.666 234.377 133.171 240.696 138.817 245.93C147.21 253.706 157.884 258.903 169.1 260.978C180.596 263.09 192.504 261.894 203.178 257.108C209.422 254.304 215.852 250.36 220.712 245.5C223.236 242.957 225.498 240.453 227.536 237.499C228.601 235.947 229.648 234.471 230.62 232.844C233.686 227.629 235.48 222.526 236.976 216.693C237.462 214.805 237.91 212.805 238.583 210.973C239.144 209.403 239.967 207.833 241.462 206.954C242.247 206.487 243.126 206.3 244.06 206.3C245.762 206.3 247.388 206.805 248.528 208.15C251.183 211.31 249.463 217.179 248.509 220.787C245.257 232.919 238.845 244.266 229.947 253.145C224.002 259.052 217.366 263.427 209.889 267.165C205.01 269.614 199.103 271.465 193.775 272.586C190.224 273.353 186.485 273.876 182.84 273.876C164.688 273.876 153.36 270.511 138.611 260.922C134.667 266.922 127.9 270.829 121.058 272.605C112.87 274.755 103.804 274.175 96.1773 270.343C88.943 266.717 82.9424 260.641 79.8767 253.127C78.0821 248.696 76.6801 243.518 77.2596 238.695C77.6522 235.275 79.0542 232.115 81.7647 229.91C86.2511 226.283 93.2051 226.414 97.5045 230.283C98.0279 230.751 98.4953 231.255 98.9065 231.816C101.318 235.069 101.355 237.256 101.879 241.144C102.832 248.416 112.104 251.93 117.656 247.22C118.385 246.603 120.591 244.771 120.703 243.724C120.796 242.752 119.394 240.64 118.908 239.873C116.422 235.966 114.572 231.76 112.889 227.479C106.085 210.188 107.767 189.382 115.188 172.596C116.011 170.726 117.114 169.119 118.067 167.343L118.123 167.268L124.647 157.753L124.685 157.716C125.245 156.987 127.32 154.968 127.694 154.183V119.525C127.694 117.749 124.722 114.74 123.526 113.656C120.161 110.646 115.936 108.216 111.749 106.571C106.683 104.589 101.206 103.542 95.7474 103.879C89.4477 104.253 83.6715 106.403 78.5682 110.104C75.7829 112.104 73.6144 114.254 71.3899 116.815C69.8945 118.516 68.2681 120.572 66.1371 121.432C65.3333 121.768 64.4734 121.918 63.6135 121.918C62.7349 121.918 61.8937 121.768 61.0899 121.432C59.1832 120.666 57.7438 119.039 56.4352 117.506C54.8463 115.656 53.3695 113.936 51.4815 112.347C50.9768 111.917 50.4907 111.45 49.986 111.001C49.5187 110.59 49.014 110.253 48.4906 109.917C39.8542 104.533 30.8627 102.44 20.8992 104.851C17.7026 105.617 14.7864 106.776 11.7394 107.991C9.81401 108.739 6.95393 109.954 4.87897 109.281C2.14974 108.384 0 105.524 0 102.645C0 95.5043 10.487 81.4469 14.5621 75.2407L14.5995 75.166L23.5349 63.8004L23.6097 63.7443C24.6191 62.6788 25.6473 61.8189 26.5633 60.6412C29.5729 56.7343 33.3303 53.8929 36.8446 50.4907C40.2468 47.2194 44.135 44.4902 47.9671 41.7236C53.1826 37.9475 58.828 34.8444 64.3238 31.4983C67.2587 29.7037 70.2683 28.47 73.3901 27.0493C83.0359 22.7311 93.1677 19.1981 103.561 17.1418C111.487 15.5716 119.6 14.4126 127.694 14.263V7.14086C127.694 3.15918 129.395 0 133.788 0C135.116 0 136.387 0.373867 137.434 1.25245C139.789 3.21526 140.107 6.95393 140.125 9.8327C140.125 11.0104 140.069 12.2068 139.995 13.3844C139.976 13.6648 139.957 13.9639 139.938 14.2443Z" fill="white"/>
<path fill-rule="evenodd" clip-rule="evenodd" d="M139.864 26.6007V101.785C139.92 101.748 139.976 101.711 140.013 101.673C141.079 100.869 142.088 100.084 143.229 99.3739C155.323 91.747 171.549 89.429 185.046 94.6258C186.055 95.0184 187.065 95.4483 188.074 95.8782C189.102 96.3082 190.186 96.7942 191.14 97.3363C191.644 97.6167 206.393 104.346 206.879 104.645C207.235 104.346 207.571 104.029 207.908 103.729C209.029 102.701 210.132 101.729 211.347 100.832C215.553 97.7289 220.526 95.5978 225.442 93.9341C231.293 91.9339 236.695 91.2423 242.845 92.0461C245.556 92.4013 248.229 92.9995 250.884 93.635C250.51 92.9621 250.136 92.3265 249.837 91.8218C248.341 89.373 246.696 86.9802 245.014 84.6435C242.285 80.8301 239.443 77.1101 236.546 73.4088C235.929 72.605 235.237 71.876 234.508 71.1469C233.536 70.1749 232.639 69.2215 231.798 68.1186C230.527 66.4736 228.695 64.679 227.124 63.2957C222.507 59.2393 217.778 55.3324 212.824 51.7432C206.375 47.0699 199.664 42.9947 192.56 39.4056C188.093 37.1624 183.288 35.3305 178.596 33.6294C177.344 33.1807 176.092 32.7508 174.839 32.3395C174.54 32.19 173.979 32.0218 173.213 31.8348C172.484 31.6105 171.773 31.3862 171.044 31.1805C163.399 28.9373 149.715 28.2457 139.864 26.6007Z" fill="#ffc45f"/>
<path fill-rule="evenodd" clip-rule="evenodd" d="M45.2009 59.071C42.7333 61.2581 40.3219 63.5574 37.9665 65.8754C35.5177 68.3055 32.9006 70.9787 30.7883 73.7079C27.9095 77.4466 25.0307 81.1852 22.3015 85.0361C20.6752 87.298 19.0862 89.616 17.6469 91.99C17.3665 92.4386 17.03 93.0181 16.6935 93.6163C19.348 92.9994 22.0211 92.4013 24.7129 92.0461C30.8631 91.2423 36.2654 91.9339 42.1165 93.9341C46.958 95.5791 51.9118 97.6728 56.043 100.72C57.2581 101.617 58.3797 102.57 59.4826 103.58C61.894 105.786 77.0543 97.112 80.6808 95.4483C86.7188 92.663 92.3455 91.8031 98.9629 91.8031C106.777 91.8031 114.105 93.6537 120.946 97.4298C123.133 98.6448 125.171 100.009 127.209 101.486C127.358 101.617 127.526 101.729 127.695 101.841V26.582C99.692 26.2455 65.9318 40.6954 45.2009 59.071Z" fill="#ffc45f"/>
<path fill-rule="evenodd" clip-rule="evenodd" d="M192.486 224.563H169.306V210.412H192.486C201.234 210.412 200.991 224.563 192.486 224.563ZM185.401 196.878H169.306V182.728H186.036C194.336 182.728 194.131 196.878 185.401 196.878ZM172.521 169.194C163.586 169.194 155.791 167.567 155.791 176.933V231.012C155.791 240.172 167.904 238.097 172.521 238.097C173.026 244.135 179.157 247.463 183.98 243.107C185.42 241.817 185.849 240.434 186.036 238.097C195.645 238.097 198.935 237.779 204.655 233.517C215.123 225.722 215.628 208.693 202.786 200.112C210.469 185.606 200.318 169.511 186.036 169.194C185.831 159.623 173.325 159.604 172.521 169.194Z" fill="#ffc45f"/>
</svg>
