<svg width="188" height="205" viewBox="0 0 188 205" fill="none" xmlns="http://www.w3.org/2000/svg">
<path fill-rule="evenodd" clip-rule="evenodd" d="M119.236 141.3C119.236 132.635 126.888 124.638 137.472 124.638H176.509V158.48H134.864C130.531 158.48 126.306 155.462 124.043 153.156C121.327 150.397 119.236 146.582 119.236 141.3ZM108.825 139.21C108.825 148.478 110.549 156.001 117.447 161.821C120.616 164.516 121.672 165.292 125.66 167.167C132.902 170.594 150.513 169.409 159.847 169.409V193.874H39.0497C31.3975 193.874 24.9524 191.18 19.8653 186.524C11.2862 178.635 10.424 171.392 10.424 156.907C10.424 134.877 10.424 112.826 10.424 90.7959C11.7389 91.6797 11.8898 92.0461 13.528 92.8868C17.4295 94.913 22.5813 95.9908 27.6037 95.9908H159.847V114.227H134.347C127.88 114.227 121.629 117.848 117.016 121.901C113.653 124.854 108.825 133.088 108.825 139.21ZM133.829 56.4364H137.472V85.0621H122.362C128.656 75.6639 132.773 68.9386 133.829 56.4364ZM10.424 69.9733C10.424 61.2864 17.3649 54.3455 27.0864 54.3455H30.7293C30.7293 68.4213 36.0751 75.9442 42.1753 85.0621C31.4406 85.0621 19.93 87.5195 13.4418 78.9188C12.1916 77.2375 10.424 72.7108 10.424 69.9733ZM81.7512 11.6441C92.4643 11.6441 102.789 15.8043 110.269 22.702C116.197 28.1771 122.879 38.9765 122.879 50.1853C122.879 59.4326 122.62 64.1317 117.857 72.7324C116.52 75.125 109.709 84.5448 107.273 84.5448H57.2857C55.3457 84.5448 50.3017 78.2722 49.1593 76.5262C28.5953 45.3138 52.2848 11.6441 81.7512 11.6441ZM31.2466 43.9342C18.184 43.9342 9.92823 45.7018 3.22447 57.04C1.8018 59.4326 0.0126953 64.218 0.0126953 67.8824V168.374C0.0126953 183.161 11.976 197.819 26.2242 202.561C31.3113 204.243 37.6917 204.825 44.2662 204.825H160.903C166.313 204.825 170.258 203.467 170.258 198.056V169.409C175.453 169.409 187.438 171.349 187.438 163.158V120.995C187.438 112.33 178.729 114.227 170.258 114.227V90.7959C170.258 83.0144 156.872 85.0621 148.401 85.0621V52.2547C148.401 43.848 139.046 45.4862 133.29 45.4862C133.075 35.6138 124.474 20.6543 116.994 14.4032C90.1363 -8.07923 54.3973 -1.18146 37.7133 26.4311C34.5015 31.7338 32.7986 37.252 31.2466 43.9342Z" fill="#FEFEFE"/>
<path fill-rule="evenodd" clip-rule="evenodd" d="M91.1276 64.2396H77.5907V56.4365H92.1623C93.628 56.4365 95.2878 58.592 95.2878 60.0794C95.2878 62.6014 93.6496 64.2396 91.1276 64.2396ZM91.1276 45.4863H77.5907V37.6832H91.1276C93.3478 37.6832 95.2878 39.2783 95.2878 41.3261C95.2878 43.8481 93.6496 45.4863 91.1276 45.4863ZM77.0734 23.1117V26.7545C59.8721 26.7545 61.4456 25.0948 61.4456 35.075C61.4456 38.2005 65.5843 37.6832 67.1794 37.6832V64.2396L61.963 64.7569C61.4241 67.128 60.1092 75.1682 64.0539 75.1682H77.0734C77.0734 81.7211 76.4267 80.902 84.8765 80.902C86.2776 80.902 86.3207 80.6433 87.4847 80.3847C87.6787 78.0782 88.002 79.1129 88.002 75.1682C97.6589 75.1682 105.699 70.038 105.699 61.6314C105.699 58.4196 105.979 57.0831 104.686 54.324L102.574 51.22C105.742 45.2276 105.699 47.3832 105.699 39.7741C105.699 33.0488 98.3271 26.7545 90.6103 26.7545H88.002C88.002 19.8999 87.7434 21.0208 79.1427 21.0208C77.9356 21.0208 77.0734 21.883 77.0734 23.1117Z" fill="#ffc45f"/>
<path fill-rule="evenodd" clip-rule="evenodd" d="M130.704 141.301C130.704 150.203 144.758 152.143 144.758 140.783C144.758 136.515 138.205 131.859 133.139 136.451C132.105 137.377 130.704 139.662 130.704 141.301Z" fill="#FEFEFE"/>
</svg>
