<svg width="90" height="90" viewBox="0 0 90 90" fill="none" xmlns="http://www.w3.org/2000/svg">
<path fill-rule="evenodd" clip-rule="evenodd" d="M54.464 78.3277C56.9466 77.8964 59.0137 79.7899 59.3766 81.9885C59.7816 84.45 57.8408 86.6538 55.779 86.901C49.8881 87.6006 48.8151 79.3007 54.464 78.3277ZM20.2969 86.9378C5.52766 86.9536 -2.68802 69.6071 7.17921 58.1146C8.49939 56.5788 9.78277 55.2218 11.1608 53.6859L15.074 49.2941L25.5041 49.3098C25.9406 49.9357 26.8611 50.893 27.487 51.561L33.441 58.1882C36.9597 62.4591 38.7743 68.2448 36.9965 74.3408C34.8663 81.6466 28.3443 86.9326 20.2969 86.9378ZM39.6895 63.732C39.5843 63.2323 39.4055 62.7695 39.2267 62.3224C39.0636 61.9016 38.7743 61.3335 38.6849 60.8917L86.9375 60.9023L86.927 63.7478L39.6895 63.732ZM26.8137 38.1014C29.3594 38.1119 31.7894 40.6366 31.7631 42.6984C31.3213 43.0718 30.5744 43.44 30.1273 43.7082C29.5751 44.0449 29.0859 44.3394 28.5231 44.676C27.8972 45.0495 27.4186 45.3335 26.8505 45.6754C26.2667 46.0225 25.8354 46.4906 24.9939 46.3118L26.8137 38.1014ZM8.7729 42.7405C8.78342 39.4321 13.4277 37.4702 13.7907 38.2802L15.5264 46.3434C14.6112 46.4117 14.3166 46.033 13.6118 45.6123C12.9491 45.2125 12.5704 44.9969 12.0024 44.6497L8.7729 42.7405ZM16.1207 35.2348C17.341 34.4564 18.5244 33.3308 20.2917 33.3361C21.8065 33.3361 23.4422 34.4459 24.4206 35.2611C24.4311 35.8502 22.1378 46.0173 21.9853 46.275C21.838 46.417 18.7664 46.4328 18.5928 46.2802C18.4403 46.1382 17.9669 43.8923 17.909 43.6293L16.694 38.0435C16.5362 37.2809 16.1418 36.008 16.1207 35.2348ZM36.823 57.8201C36.3023 57.2467 35.6869 56.3316 34.8032 55.348L30.4745 50.5511C29.9959 49.9989 28.581 48.584 28.3969 48.1001L34.7401 44.2815C35.1504 39.5794 31.7526 35.7503 27.529 35.2506C27.5133 34.3039 27.9235 34.5458 27.1872 33.8252C26.9347 33.5833 26.4192 33.2624 26.1878 32.889L26.0248 10.0934C26.0248 9.83041 26.009 9.54638 26.0142 9.29392C26.0195 9.12035 26.0248 8.81002 26.1457 8.70483C26.4035 8.4734 52.4917 8.61541 55.0794 8.61541C64.3628 8.61541 73.9566 8.69431 83.2294 8.61541L83.9553 8.67853C84.2656 8.121 84.1025 38.2381 84.1025 45.6701C84.1025 48.0633 84.2235 56.2527 84.0815 57.9463C83.3872 58.204 44.5968 58.0041 38.1326 58.0357C37.7382 58.0357 37.0281 58.1777 36.823 57.8201ZM23.153 5.70153V2.99278C23.3002 2.64038 24.2628 2.79291 25.0517 2.79291H71.1373C72.6153 2.79291 86.6956 2.66142 86.9428 2.90336C87.1479 3.12953 87.1269 5.43329 86.9901 5.73309C86.5378 6.02763 72.8415 5.85406 71.0374 5.85406L23.2266 5.74361C23.2108 5.71205 23.174 5.71731 23.153 5.70153ZM20.3022 8.64171L23.1109 8.66275C23.2897 9.40437 23.1635 29.6543 23.1687 31.0218C22.8374 31.0008 22.1589 30.7115 21.6855 30.601C17.1937 29.5543 13.717 33.7411 12.9176 34.2302L13.049 35.2348C8.59933 35.9922 5.54343 39.3269 5.7959 44.3341L12.1654 48.1369C12.0076 48.463 10.7821 49.7885 10.4297 50.1724C5.98525 55.064 1.51449 59.0824 0.341576 65.757C-1.28368 74.9825 3.12397 82.3514 8.62563 86.1752C21.1069 94.8537 37.5067 87.2955 40.1734 73.5939C40.9624 69.5282 40.2996 67.9923 40.3943 66.6774C42.1984 66.6879 52.7757 66.4933 53.5278 66.7405C53.5436 66.7668 53.5489 66.7984 53.5541 66.8194C53.5594 66.8405 53.5752 66.8773 53.5804 66.8983C53.5857 66.9299 53.5909 66.9562 53.5962 66.9877C53.7066 67.6557 53.6015 75.377 53.5909 75.4927C52.0972 76.1659 51.0768 76.0292 49.3411 78.1857C45.7908 82.6091 48.773 89.8833 55.1794 89.8517C58.9769 89.8254 62.0433 86.7169 62.2905 83.3297C62.4483 81.1679 61.7751 79.3639 60.7178 78.091C59.9079 77.1074 58.9506 76.3658 57.7461 75.8924C57.3779 75.7504 56.7836 75.6295 56.5153 75.4611L56.5259 66.6827L89.8514 66.6616L89.8199 57.9778C88.9941 57.9147 87.737 58.1725 87.0638 57.8884L86.9691 57.4677C86.9638 57.373 86.9691 57.1731 86.9691 57.0679V8.99411C87.048 8.6049 87.0059 8.69431 87.474 8.67327L89.8462 8.67853L89.8356 0L20.2864 0.0210389L20.3022 8.64171Z" fill="#153540"/>
<path fill-rule="evenodd" clip-rule="evenodd" d="M60.8809 33.9253C62.1537 32.6472 63.3371 31.4901 64.589 30.2119C66.0354 28.734 65.6304 28.9601 67.0715 28.9654C68.8704 28.9654 77.5857 28.8549 78.0959 29.018C78.2958 30.9273 76.5338 34.1935 75.6186 35.3822C71.9894 40.116 65.4673 41.9937 59.7816 39.3744C59.1977 39.1061 57.4042 38.2014 57.178 37.6439L60.8809 33.9253ZM54.9795 35.6031C54.0748 34.2041 53.654 33.7149 53.0334 32.1475C51.8867 29.2757 51.9078 25.7885 53.0281 22.9115C53.8854 20.7182 54.3956 20.5393 54.9321 19.4663C55.4371 19.6189 56.6415 20.9969 57.0991 21.4493C58.0669 22.4065 62.9374 27.1981 63.0952 27.5347C62.8638 27.924 55.1688 35.5558 54.9795 35.6031ZM57.178 17.3256C57.441 16.8996 59.4081 15.8424 59.9236 15.6162C65.7514 13.0705 71.8842 14.9219 75.6712 19.7293C76.5127 20.8023 78.3536 24.3263 78.0801 26.0462C77.612 26.2146 68.6705 26.0988 66.8717 26.1094C65.9354 26.1146 65.9407 26.2461 65.4358 25.7044C64.2839 24.4736 57.3463 17.799 57.178 17.3256ZM49.3568 29.3178C50.0721 33.8201 51.7763 37.0022 54.9163 39.6899C57.9091 42.2462 61.9065 43.8136 66.9716 43.3665C75.0348 42.6669 82.0985 34.9457 81.0782 25.7938C79.7948 14.2908 67.2188 8.09484 57.42 13.6228C54.0432 15.5268 51.466 18.588 50.1773 22.2382C49.5356 24.037 48.9992 27.0772 49.3568 29.3178Z" fill="#ffc45f"/>
<path fill-rule="evenodd" clip-rule="evenodd" d="M18.7136 57.9462C17.1094 58.2092 15.9785 58.3933 14.7057 59.703C11.1817 63.3374 13.5117 69.4177 18.803 69.5597C20.7754 69.6123 22.5742 69.202 23.7787 70.4275C24.9043 71.5847 24.9043 73.4308 23.7208 74.5617C22.6268 75.6084 20.6807 75.44 18.8083 75.3717C17.1199 75.3086 16.0101 74.1199 15.9417 72.4841L13.0384 72.5104C13.0857 74.3145 13.7958 75.6399 14.7478 76.5867C15.8891 77.7333 16.8359 78.0068 18.7294 78.2961C18.8819 78.3487 18.9345 78.1856 18.9345 78.8641L18.924 81.0364L21.6433 81.0785L21.638 78.9641C21.638 78.9272 21.6327 78.5748 21.6327 78.5643C21.7432 78.0594 21.6117 78.4276 21.8168 78.2593C24.8885 78.3118 27.5447 75.5978 27.5289 72.4262C27.5131 69.2546 24.9464 66.7457 21.7853 66.6826C19.8076 66.6458 17.9878 67.035 16.7885 65.8305C15.6945 64.7418 15.6104 62.8904 16.757 61.749C17.9246 60.5971 19.6866 60.8601 21.6853 60.8864C22.6216 60.9022 23.3053 61.2441 23.7682 61.7227C25.5723 63.5636 22.9634 64.037 27.4763 63.7582C27.7498 62.3644 26.5769 60.4078 25.8195 59.6714C25.0042 58.8667 23.521 57.9462 21.8273 57.9778C21.638 57.799 21.7011 58.2881 21.638 57.6622L21.659 55.1533L18.9029 55.1796C18.9345 55.6793 18.924 56.1737 18.924 56.6681C18.924 56.9048 18.9345 57.1362 18.9345 57.3677C18.9345 58.0514 18.8609 57.8936 18.7136 57.9462Z" fill="#ffc45f"/>
<path fill-rule="evenodd" clip-rule="evenodd" d="M31.9103 17.3042C31.763 17.0728 31.8208 16.773 31.8208 16.4364C31.8314 14.6218 31.5526 14.4167 32.4836 14.4167C34.0983 14.4219 42.6401 14.3535 43.4764 14.4587C43.6184 14.9847 43.6499 16.9045 43.4659 17.3831C42.1089 17.5199 35.5079 17.4094 33.1779 17.4094C32.6256 17.4147 32.1838 17.4989 31.9103 17.3042ZM28.9753 20.2812L46.3271 20.2918L46.3587 11.6027L29.0016 11.5764L28.9753 20.2812Z" fill="#153540"/>
<path fill-rule="evenodd" clip-rule="evenodd" d="M64.6784 49.4098C65.4463 49.0731 66.2721 49.4466 66.5772 50.2145C66.8822 50.9982 66.3983 51.8082 65.825 52.0396C64.0367 52.776 62.8796 50.1987 64.6784 49.4098ZM60.9335 51.5189C61.3543 53.5702 63.4424 55.5689 66.0144 55.0061C68.1919 54.5327 69.9118 52.5761 69.5016 49.9568C69.1807 47.9265 67.0558 45.9594 64.4575 46.4433C62.3799 46.822 60.4075 48.9311 60.9335 51.5189Z" fill="#153540"/>
<path fill-rule="evenodd" clip-rule="evenodd" d="M76.2236 49.457C77.9488 48.5523 79.1007 51.2242 77.4596 52.0132C75.8397 52.7916 74.3827 50.4248 76.2236 49.457ZM72.505 51.3189C72.8574 53.4754 74.8666 55.4583 77.4491 55.0375C79.6056 54.6799 81.3887 52.8284 81.1204 50.125C80.9048 47.9422 78.6483 46.0539 76.2026 46.4063C74.0777 46.7061 72.1 48.8311 72.505 51.3189Z" fill="#153540"/>
<path fill-rule="evenodd" clip-rule="evenodd" d="M53.0334 49.4519C54.827 48.6261 55.8684 51.2297 54.2957 52.0081C52.5653 52.8654 51.224 50.2882 53.0334 49.4519ZM49.3358 51.5189C49.7198 53.5913 51.871 55.5268 54.4272 55.0009C56.61 54.5485 58.2878 52.5656 57.9039 49.9463C57.5988 47.8687 55.3424 45.9699 52.8388 46.4328C50.7875 46.8115 48.8519 48.8891 49.3358 51.5189Z" fill="#153540"/>
<path fill-rule="evenodd" clip-rule="evenodd" d="M28.9753 26.0618L46.3377 26.0723L46.3587 23.1952L29.0016 23.1689L28.9753 26.0618Z" fill="#153540"/>
<path fill-rule="evenodd" clip-rule="evenodd" d="M29.0176 31.8896L40.5679 31.837V29.0494C40.0051 28.8653 30.2851 28.9337 28.9702 28.9915L29.0176 31.8896Z" fill="#153540"/>
<path fill-rule="evenodd" clip-rule="evenodd" d="M37.7329 55.0851L46.3588 55.0588L46.343 52.1765L37.696 52.187L37.7329 55.0851Z" fill="#153540"/>
<path fill-rule="evenodd" clip-rule="evenodd" d="M26.1878 32.889L26.1826 8.76792L83.9974 8.77318L84.0026 57.8937C76.1446 57.8674 68.2866 57.8884 60.4338 57.8884C58.9085 57.8884 37.7171 58.0252 36.823 57.82C37.0281 58.1777 37.7382 58.0357 38.1326 58.0357C44.5968 58.0041 83.3872 58.204 84.0815 57.9463C84.2235 56.2526 84.1026 48.0633 84.1026 45.6701C84.1026 38.2381 84.2656 8.12097 83.9553 8.6785L83.2294 8.61538C73.9566 8.69428 64.3628 8.61538 55.0794 8.61538C52.4917 8.61538 26.4035 8.47337 26.1457 8.7048C26.0248 8.80999 26.0195 9.12032 26.0143 9.29389C26.009 9.54635 26.0248 9.83038 26.0248 10.0934L26.1878 32.889Z" fill="#153540"/>
<path fill-rule="evenodd" clip-rule="evenodd" d="M37.7803 37.5963L46.2169 37.57C46.3904 37.0598 46.301 35.4556 46.2747 34.8245L37.8118 34.8455L37.7803 37.5963Z" fill="#153540"/>
<path fill-rule="evenodd" clip-rule="evenodd" d="M37.7749 40.6523L37.8222 43.3979L46.2904 43.4137L46.2378 40.6734L37.7749 40.6523Z" fill="#153540"/>
<path fill-rule="evenodd" clip-rule="evenodd" d="M37.8066 49.1257L46.1695 49.1678L46.1643 46.5169L37.7803 46.4958L37.8066 49.1257Z" fill="#153540"/>
<path fill-rule="evenodd" clip-rule="evenodd" d="M23.1531 2.99286L86.8798 2.94553L86.9113 5.72792L23.1531 5.70162C23.1741 5.7174 23.2109 5.71214 23.2267 5.74369L71.0375 5.85415C72.8416 5.85415 86.5379 6.02772 86.9902 5.73317C87.127 5.43337 87.148 3.12962 86.9429 2.90345C86.6957 2.6615 72.6154 2.79299 71.1375 2.79299H25.0518C24.2629 2.79299 23.3003 2.64046 23.1531 2.99286Z" fill="#153540"/>
<path fill-rule="evenodd" clip-rule="evenodd" d="M43.5605 29.0022V31.8004L46.2535 31.7898L46.2851 29.0548C45.5014 29.0811 44.2653 29.16 43.5605 29.0022Z" fill="#153540"/>
<path fill-rule="evenodd" clip-rule="evenodd" d="M31.9946 14.5905L43.3924 14.6168L43.3976 17.294L31.9578 17.2993L31.9946 14.5905ZM31.9104 17.3045C32.1839 17.4991 32.6257 17.415 33.178 17.4097C35.5081 17.4097 42.109 17.5202 43.466 17.3834C43.6501 16.9048 43.6185 14.985 43.4765 14.459C42.6402 14.3538 34.0985 14.4222 32.4837 14.4169C31.5528 14.4169 31.8315 14.6221 31.821 16.4367C31.821 16.7733 31.7631 17.0731 31.9104 17.3045Z" fill="#153540"/>
<path fill-rule="evenodd" clip-rule="evenodd" d="M37.7801 46.4959L46.1641 46.5169L46.1694 49.1678L37.8064 49.1258L37.7801 46.4959ZM37.6802 46.4065C37.6486 46.822 37.554 49.0469 37.738 49.231C37.9221 49.4098 45.838 49.3204 46.3219 49.2888C46.4429 48.7365 46.4587 46.8588 46.3061 46.4223L45.7696 46.3434C44.3232 46.3066 38.1062 46.296 37.6802 46.4065Z" fill="#153540"/>
<path fill-rule="evenodd" clip-rule="evenodd" d="M37.775 40.6524L46.2378 40.6734L46.2904 43.4137L37.8223 43.3979L37.775 40.6524ZM37.775 40.6524C37.6224 40.7523 37.6803 40.6155 37.6277 40.9048L37.6645 43.4663C38.1905 43.6346 45.5751 43.6294 46.3746 43.5031C46.4587 42.9193 46.4956 41.0731 46.343 40.5261H38.0379C37.4436 40.5314 37.8802 40.4998 37.775 40.6524Z" fill="#153540"/>
<path fill-rule="evenodd" clip-rule="evenodd" d="M37.7802 37.5962L37.8118 34.8454L46.2747 34.8244C46.301 35.4555 46.3904 37.0597 46.2168 37.5699L37.7802 37.5962ZM37.7802 37.5962C37.9065 37.7593 37.4331 37.7277 38.0379 37.733L46.343 37.7119C46.4903 37.186 46.4535 35.3398 46.3851 34.7507C45.5804 34.6245 38.201 34.614 37.6592 34.7875C37.6119 35.2714 37.6329 35.7659 37.6329 36.255C37.6329 36.518 37.6277 36.7862 37.6277 37.0545C37.6277 37.7645 37.6855 37.5699 37.7802 37.5962Z" fill="#153540"/>
<path fill-rule="evenodd" clip-rule="evenodd" d="M43.5607 29.0022C44.2655 29.16 45.5015 29.0811 46.2852 29.0548L46.2537 31.7899L43.5607 31.8004V29.0022ZM43.5607 29.0022C43.4134 29.1863 43.4503 28.613 43.4187 29.3178L43.4766 31.9424L46.3694 31.9056C46.4588 31.3481 46.4904 29.4598 46.3484 28.9549C46.0117 28.9233 43.8973 28.8602 43.5607 29.0022Z" fill="#153540"/>
<path fill-rule="evenodd" clip-rule="evenodd" d="M21.8169 78.2593C21.6118 78.4276 21.7433 78.0594 21.6329 78.5643C21.6329 78.5749 21.6381 78.9273 21.6381 78.9641L21.6434 81.0785L18.9241 81.0364L18.9346 78.8641C18.9346 78.1856 18.882 78.3487 18.7295 78.2961C18.8452 79.1324 18.6033 80.4789 18.8452 81.2047C19.3238 81.2573 19.813 81.231 20.2969 81.231L21.4803 81.2258C22.1746 81.1258 21.6171 79.4795 21.8169 78.2593Z" fill="#153540"/>
<path fill-rule="evenodd" clip-rule="evenodd" d="M18.7136 57.9463C18.8609 57.8937 18.9345 58.0515 18.9345 57.3678C18.9345 57.1364 18.924 56.9049 18.924 56.6682C18.924 56.1738 18.9345 55.6794 18.903 55.1797L21.6591 55.1534L21.638 57.6623C21.7011 58.2882 21.638 57.7991 21.8274 57.9779L21.759 55.1008C21.2278 54.9483 19.3606 54.9799 18.7978 55.0798L18.7136 57.9463Z" fill="#153540"/>
</svg>
