<svg width="272" height="290" viewBox="0 0 272 290" fill="none" xmlns="http://www.w3.org/2000/svg">
<path fill-rule="evenodd" clip-rule="evenodd" d="M263.056 188.297C263.859 196.566 263.252 207.676 263.252 216.259C263.252 243.652 264.486 241.222 231.351 241.301C199.431 241.36 196.825 206.5 214.265 194.41C224.278 187.454 237.896 189.962 252.298 189.649C256.844 189.551 259.881 187.983 263.056 188.297ZM69.4591 213.359C78.9038 210.047 83.1363 225.997 73.4564 228.407C63.7766 230.818 58.9171 217.062 69.4591 213.359ZM114.88 182.83C124.305 180.243 127.244 193.881 119.171 196.468C109.237 199.642 103.534 185.965 114.88 182.83ZM254.552 179.793C254.395 174.463 253.396 166.762 255.081 162.099C259.764 162.236 263.487 166.351 263.271 171.504C263.075 176.383 259.431 180.341 254.552 179.793ZM195.219 139.349C196.59 129.806 194.866 131.923 201.411 127.455C210.601 121.185 221.652 108.624 225.551 97.5337C237.093 98.1215 246.087 112.308 246.087 126.064L246.008 151.341C242.893 151.38 239.581 147.5 236.603 145.482C222.808 136.135 208.857 141.211 195.219 139.349ZM119.641 131.158C129.576 129.689 143.351 128.454 143.821 139.643L119.014 139.408L119.641 131.158ZM119.132 116.58C119.132 111.544 117.917 112.191 121.346 111.211C121.405 111.191 128.283 111.152 128.871 111.172C140.216 111.446 140.961 121.772 127.91 122.008C119.837 122.145 119.132 123.693 119.132 116.58ZM58.2705 136.096C39.9297 131.002 45.3183 96.2404 64.9327 96.6323C63.9921 106.018 57.036 108.017 58.2705 136.096ZM85.1545 139.369C78.1004 127.69 87.5059 107.684 93.0708 100.767C111.882 77.3706 146.506 81.074 160.947 100.59C170 112.837 171.96 120.773 169.628 139.663L152.482 139.349C151.601 128.533 149.641 128.376 144.252 123.105C146.428 114.836 145.722 109.682 140.177 105.234C135.631 101.609 137.159 103.393 136.14 96.7695C135.513 92.6154 133.887 92.0863 129.223 93.2424C128.028 95.4566 127.989 99.6891 127.303 102.295C119.269 101.002 127.754 94.9668 120.895 92.9681C114.723 91.1654 115.762 98.0235 114.919 101.57C110.569 103.432 104.965 100.414 103.456 105.587C101.849 111.054 106.689 110.623 110.687 111.975L110.51 139.094C105.709 140.29 90.3276 140.074 85.1545 139.369ZM68.0679 139.29C59.3678 125.887 74.3186 68.5138 126.931 68.4354C162.436 68.3766 194.004 100.728 186.558 139.486L178.249 139.31C187.792 81.0544 119.916 54.9346 86.8789 94.5749C77.0423 106.41 73.8287 120.479 75.7294 139.663L68.0679 139.29ZM178.563 80.8585C176.212 81.1132 173.351 77.9389 170.549 74.8037C168.335 72.3543 169.726 74.3334 168.903 72.3152C175.526 71.551 180.052 74.8233 178.563 80.8585ZM154.226 52.8183C155.108 52.3676 166.63 52.2893 168.237 52.642C173.155 53.7589 172.489 57.3251 171.528 61.5968C168.295 63.086 165.474 63.184 161.065 63.2428C153.207 63.3407 153.776 64.3793 154.226 52.8183ZM197.981 119.127C196.61 120.46 199.784 120.146 196.022 120.401L194.944 118.657C195.081 105.136 195.473 113.112 202.312 103.686C210.071 93.0073 214.813 83.6214 214.657 69.1016C214.421 50.3102 206.231 51.6622 205.369 59.6177C205.036 62.6941 208.328 71.0023 204.075 83.5822C201.352 91.616 196.551 98.3567 191.535 102.099C182.541 88.3045 185.225 90.6755 187.028 84.5815C189.536 76.1165 184.912 68.6901 179.602 66.6523C181.914 49.1933 180.758 51.4663 171.626 43.8047C171.489 36.9661 172.9 32.8512 164.611 33.6938C160.653 40.8851 165.846 41.1202 161.104 43.4912C157.028 41.7472 160.693 45.7054 158.576 34.5951C156.088 33.439 154.54 33.2823 151.013 34.4972L150.327 43.256L139.883 44.0986C138.884 46.7439 138.531 48.0764 139.256 51.3095L145.683 53.1906L145.134 60.6758C143.821 61.1853 124.618 59.6961 120.425 59.4414C120.151 38.4357 162.632 5.94753 195.767 41.081C199.51 45.0392 198.589 48.8798 205.839 46.548C208.661 37.8479 194.474 27.5802 187.616 23.6025C172.097 14.6476 152.933 14.5692 136.552 23.6808C118.681 33.6154 115.801 46.9203 110.373 61.2049L102.359 62.7921C105.082 20.918 158.224 -5.71139 194.846 19.2132C208.7 28.6383 221.887 43.8635 222.965 68.1219C223.945 90.4404 210.561 111.74 197.981 119.127ZM121.836 280.196C119.485 275.455 120.092 214.475 121.15 205.815C126.97 200.798 133.612 199.407 132.594 187.827C131.026 169.839 102.222 168.251 100.341 187.827C99.0081 201.641 111.333 203.914 112.313 205.991L112.47 261.836C112.47 264.991 112.45 268.165 112.489 271.34C112.607 280.432 112.489 278.413 111.216 279.589C109.001 281.333 102.182 280.902 99.4 279.765C97.9499 275.455 98.8709 255.487 98.8905 249.452C98.9297 241.81 97.754 241.477 93.9722 237.813C91.0134 234.913 88.5248 232.757 86.0951 229.544C87.212 219.217 90.4843 215.808 81.8822 208.127C67.2645 195.057 48.0616 213.711 57.8982 230.23C63.6394 239.851 69.7922 237.245 80.7849 235.932C89.485 247.983 90.4255 235.638 90.4451 266.578C90.4451 268.812 90.5039 271.065 90.5039 273.299C90.5431 280.667 91.9735 281.764 68.0287 280.471C61.3468 280.118 55.9975 277.198 52.6076 273.475C44.2798 264.344 46.9055 247.081 46.9055 232.405C46.9055 215.259 46.0433 151.478 47.1798 139.996C53.2542 143.719 57.0948 148.206 68.0287 148.657C90.5039 149.597 133.358 148.676 157.303 148.676C177.172 148.676 197.296 148.363 217.145 148.657C235.584 148.931 246.773 161.236 245.95 180.381C230.783 182.301 222.142 177.52 209.582 186.886C190.261 201.288 189.869 229.544 209.444 243.868C222.142 253.136 229.686 248.884 245.734 250.53C247.086 260.974 240.855 265.167 242.364 271.712C252.769 274.749 254.003 260.229 254.61 250.902C260.117 248.825 269.992 246.376 271.442 235.285L271.482 168.761C269.855 156.396 258 154.711 254.708 152.223C252.867 134.078 259.47 114.542 243.285 98.0235C239.326 93.9674 234.8 92.6938 229.509 89.0491C231.038 67.9455 233.82 61.0285 225.14 41.1202C208.641 3.32182 154.638 -16.4689 115.017 20.1734C106.807 27.7566 97.7932 40.4148 94.756 55.9731C90.935 75.6267 96.3824 65.4962 84.8802 74.5294C75.4551 81.9362 73.4956 86.9525 69.7922 87.6579C56.4285 90.1464 42.3987 92.2431 38.6952 113.797C37.1277 122.87 38.2446 209.616 38.2446 226.703C38.2446 243.28 35.5013 266.265 44.8284 277.453C56.4677 291.424 66.6178 289.386 88.9559 289.386H201.92C210.796 289.386 220.751 290.347 228.608 287.545C244.95 281.705 237.563 274.592 231.253 276.807C219.379 280.98 220.672 280.51 206.682 280.51C189.595 280.49 130.34 281.686 121.836 280.196Z" fill="#153540"/>
<path fill-rule="evenodd" clip-rule="evenodd" d="M43.3189 12.7665C49.746 8.00499 51.4116 8.53405 55.6637 15.0591C58.211 18.9585 62.2867 22.9166 60.6603 28.5404C53.4691 32.185 53.7238 28.9714 49.6285 24.8957C46.3169 21.5842 42.8879 19.0173 43.3189 12.7665ZM44.2399 1.40154C34.9128 5.59483 30.21 14.8044 38.5378 24.5626C41.1243 27.5998 44.2007 32.2634 46.6109 34.5756C50.0791 37.9067 55.0366 39.4743 60.386 37.7499C70.5557 34.458 71.4375 23.3673 66.2645 14.8632C61.9928 7.82864 56.5062 -4.085 44.2399 1.40154Z" fill="#ffc45f"/>
<path fill-rule="evenodd" clip-rule="evenodd" d="M16.6908 53.2691C14.0259 43.2169 20.0415 40.9635 28.0754 45.5095C35.1687 49.5264 41.0863 49.9771 35.7761 58.6576C30.5247 59.4806 20.7273 55.2285 16.6908 53.2691ZM18.1212 36.6527C7.59877 39.6115 4.71833 52.5636 10.1069 59.657C13.3596 63.9286 28.9179 70.5909 36.5011 68.9253C45.7499 66.9266 50.6486 53.0339 42.7323 46.019C37.8728 41.6885 24.803 34.7716 18.1212 36.6527Z" fill="#ffc45f"/>
<path fill-rule="evenodd" clip-rule="evenodd" d="M10.0282 98.4939C6.01126 86.737 10.5377 88.089 23.4506 88.089C40.5373 88.089 29.5642 102.236 10.0282 98.4939ZM8.36264 80.3099C4.36529 81.7795 1.17134 84.4444 0.426737 89.0296C-3.00235 109.761 14.9073 109.604 30.0345 105.176C45.1813 100.747 42.9671 79.3693 24.4304 79.1342C19.179 79.0754 12.8498 78.6443 8.36264 80.3099Z" fill="#ffc45f"/>
<path fill-rule="evenodd" clip-rule="evenodd" d="M225.472 208.342C234.682 203.385 240.834 219.237 231.272 222.901C222.298 226.35 216.752 213.025 225.472 208.342ZM225.198 199.113C202.644 206.109 212.931 237.186 232.722 231.817C254.551 225.88 243.871 193.333 225.198 199.113Z" fill="#153540"/>
<path fill-rule="evenodd" clip-rule="evenodd" d="M197.981 119.127L194.944 118.657L196.022 120.401C199.784 120.146 196.609 120.46 197.981 119.127Z" fill="#153540"/>
</svg>
