<svg width="280" height="280" viewBox="0 0 280 280" fill="none" xmlns="http://www.w3.org/2000/svg">
<path fill-rule="evenodd" clip-rule="evenodd" d="M42.4354 214.249H70.2905V269.959H42.4354V214.249ZM33.1371 209.609V269.959H23.8587V185.819C28.9143 184.629 29.6082 182.964 33.1371 180.585C39.0849 184.57 38.8271 186.393 48.8193 186.393C54.5687 186.393 58.4149 182.309 60.9923 180.585C66.94 184.57 66.6822 186.393 76.6744 186.393C78.8552 186.393 81.8092 185.283 83.4548 184.47C86.0123 183.202 86.9044 181.893 88.8672 180.585C94.7951 184.57 94.5373 186.393 104.529 186.393C110.279 186.393 114.145 182.309 116.722 180.585C122.65 184.57 122.392 186.393 132.385 186.393C138.134 186.393 142 182.309 144.577 180.585C148.106 182.964 148.8 184.629 153.856 185.819V269.959H79.5689V209.609C79.5689 206.794 77.745 204.97 74.9297 204.97H37.7962C34.9809 204.97 33.1371 206.794 33.1371 209.609ZM149.217 166.072V149.24H167.793V166.072C167.793 180.585 149.217 180.585 149.217 166.072ZM121.362 166.072V149.24H139.918V166.072C139.918 180.585 121.362 180.585 121.362 166.072ZM93.5064 166.072V149.24H112.063V166.072C112.063 180.585 93.5064 180.585 93.5064 166.072ZM65.6513 166.072V149.24H84.2082V166.072C84.2082 180.585 65.6513 180.585 65.6513 166.072ZM37.7962 166.072V149.24H56.353V166.072C56.353 180.585 37.7962 180.585 37.7962 166.072ZM9.92125 166.072V149.24H28.4979V166.072C28.4979 180.585 9.92125 180.585 9.92125 166.072ZM26.7533 107.467H37.7962C37.7962 114.446 36.3687 121.385 42.4354 121.385H135.279C141.346 121.385 139.918 114.446 139.918 107.467H150.961C151.655 110.441 153.023 112.86 154.272 115.755L164.879 139.962H12.8356C13.3709 137.662 15.3535 133.935 16.3051 131.833C17.5343 129.097 18.5851 126.46 19.8143 123.724C21.4796 119.997 25.9602 110.917 26.7533 107.467ZM47.0746 93.5299H130.64V112.107H47.0746V93.5299ZM37.7962 88.8907V98.1691C17.1775 98.1691 22.1141 95.0961 13.4304 114.446L5.46047 132.587C4.15197 135.62 0.642822 141.825 0.642822 145.176V169.561C0.642822 176.441 6.76896 183.995 14.5803 185.819L14.5605 271.129C14.5208 275.827 14.6001 279.237 19.2195 279.237H158.495C164.978 279.237 163.134 269.661 163.134 259.511V185.819C167.218 184.867 170.113 182.924 172.571 180.148C174.475 178.007 177.072 173.348 177.072 169.561V145.176C177.072 141.766 168.923 125.33 167.119 120.889C165.494 116.885 158.118 98.1691 155.026 98.1691H139.918C139.918 91.2103 141.346 84.2515 135.279 84.2515H42.4354C39.6201 84.2515 37.7962 86.0754 37.7962 88.8907Z" fill="#FEFEFE"/>
<path fill-rule="evenodd" clip-rule="evenodd" d="M158.495 58.7159C158.495 70.0364 159.427 77.2331 164.284 87.1658C173.701 106.337 194.38 121.385 215.375 121.385H221.184C251.577 121.385 279.214 93.748 279.214 63.3552C279.214 52.0347 278.282 44.8379 273.425 34.9053C267.1 22.0186 257.861 12.7996 244.975 6.47522C205.859 -12.7161 158.495 17.0621 158.495 58.7159Z" fill="#ffc45f"/>
<path fill-rule="evenodd" clip-rule="evenodd" d="M172.433 214.249C172.433 219.641 177.587 218.888 181.136 218.888C205.561 218.888 230.066 206.219 245.986 190.299C264.067 172.238 274.575 149.002 274.575 121.385C274.575 118.59 272.731 116.746 269.935 116.746C263.611 116.746 265.851 123.923 263.968 135.164C260.736 154.296 252.727 170.216 239.305 183.638C226.854 196.088 209.13 205.763 190.91 208.36C179.709 209.946 172.433 208.103 172.433 214.249Z" fill="#FEFEFE"/>
<path fill-rule="evenodd" clip-rule="evenodd" d="M98.1456 223.527H135.279V242.104H98.1456V223.527ZM88.8672 218.888V246.743C88.8672 249.558 90.6912 251.382 93.5064 251.382H139.918C142.734 251.382 144.577 249.558 144.577 246.743V218.888C144.577 216.073 142.734 214.249 139.918 214.249H93.5064C90.6912 214.249 88.8672 216.073 88.8672 218.888Z" fill="#FEFEFE"/>
<path fill-rule="evenodd" clip-rule="evenodd" d="M69.7156 70.314C69.7156 74.9928 77.0313 78.502 79.9457 69.5408C81.9481 63.3551 83.2169 61.0752 85.9529 55.8015C87.2812 53.2837 88.2923 51.7373 89.8387 49.2392L98.8594 37.9584C109.823 27.1138 110.041 27.4706 121.818 20.2937C124.098 18.9257 125.941 18.2715 128.519 17.1216C130.719 16.1303 133.733 14.9606 136.112 14.2667C141.504 12.6806 147.115 11.4118 152.845 10.6981C159.011 9.9447 167.793 11.5902 167.793 5.32531C167.793 -0.206057 162.321 0.686099 158.495 0.686099C136.885 0.686099 117.654 9.80592 101.377 22.4745C90.83 30.6824 80.6991 43.4105 75.2668 55.5636C74.0178 58.3591 69.7156 67.3599 69.7156 70.314Z" fill="#FEFEFE"/>
<path fill-rule="evenodd" clip-rule="evenodd" d="M212.849 18H226.172V42.683H197.722V77.5168H203.095V91.4542H182V30.3514H210.846V18.0595L212.849 18Z" fill="white"/>
<path fill-rule="evenodd" clip-rule="evenodd" d="M235.074 30.4902H244.887C244.887 30.4902 255.435 31.878 255.435 41.7313C255.435 51.5847 255.335 52.2786 255.335 52.2786C255.335 52.2786 254.641 59.7529 251.35 60.9425C248.059 62.132 255.038 62.7268 255.236 65.7204C255.435 68.7141 255.236 81.4422 255.236 81.4422C255.236 81.4422 254.542 89.313 244.094 89.313C233.646 89.313 226.37 89.313 226.37 89.313V103.032H211.739V78.5675H239.812V61.8346H208.864V52.2786H239.415V42.4451H235.331L235.074 30.4902Z" fill="white"/>
</svg>
