<svg width="148" height="270" viewBox="0 0 148 270" fill="none" xmlns="http://www.w3.org/2000/svg">
<path fill-rule="evenodd" clip-rule="evenodd" d="M42.6747 151.687H101.559C105.624 151.687 108.914 154.992 108.914 159.057V195.862C108.914 199.912 105.624 203.217 101.559 203.217H42.6747C38.6094 203.217 35.3044 199.912 35.3044 195.862V159.057C35.3044 154.992 38.6094 151.687 42.6747 151.687Z" fill="#ffc45f"/>
<path d="M42.6747 148.584H101.559C104.445 148.584 107.067 149.763 108.96 151.656C110.853 153.549 112.017 156.171 112.017 159.057V195.862C112.017 198.748 110.853 201.355 108.96 203.248C107.067 205.141 104.445 206.32 101.559 206.32H42.6747C39.7886 206.32 37.1664 205.141 35.2734 203.248C33.3804 201.355 32.2012 198.748 32.2012 195.862V159.057C32.2012 156.171 33.3804 153.549 35.2734 151.656C37.1664 149.763 39.7886 148.584 42.6747 148.584ZM101.559 154.791H42.6747C41.4954 154.791 40.4248 155.272 39.6645 156.047C38.8887 156.808 38.4077 157.878 38.4077 159.057V195.862C38.4077 197.026 38.8887 198.096 39.6645 198.872C40.4248 199.633 41.4954 200.114 42.6747 200.114H101.559C102.738 200.114 103.793 199.633 104.569 198.872C105.329 198.096 105.81 197.026 105.81 195.862V159.057C105.81 157.878 105.329 156.808 104.569 156.047C103.793 155.272 102.738 154.791 101.559 154.791Z" fill="#153540"/>
<path d="M45.7778 151.687C45.7778 153.41 44.3813 154.791 42.6745 154.791C40.9522 154.791 39.5713 153.41 39.5713 151.687V122.253C39.5713 113.269 43.2176 105.123 49.0983 99.2422C54.9945 93.346 63.125 89.6997 72.1089 89.6997C81.0929 89.6997 89.2389 93.346 95.1196 99.2422C101.016 105.123 104.662 113.269 104.662 122.253C104.662 123.96 103.266 125.356 101.559 125.356H86.8339C85.1271 125.356 83.7306 123.96 83.7306 122.253C83.7306 119.041 82.4273 116.139 80.3326 114.045C78.2224 111.935 75.3208 110.631 72.1089 110.631C68.9126 110.631 65.9955 111.935 63.9008 114.045C61.7906 116.139 60.5028 119.041 60.5028 122.253V151.687C60.5028 153.41 59.1063 154.791 57.3995 154.791C55.6772 154.791 54.2962 153.41 54.2962 151.687V122.253C54.2962 117.334 56.2823 112.881 59.5097 109.654C62.7371 106.426 67.1903 104.425 72.1089 104.425C77.0276 104.425 81.4963 106.426 84.7237 109.654C87.2528 112.183 89.0217 115.472 89.6734 119.15H98.2694C97.5557 113.114 94.8093 107.714 90.744 103.633C85.965 98.8543 79.3861 95.9062 72.1089 95.9062C64.8473 95.9062 58.2529 98.8543 53.4894 103.633C48.7259 108.397 45.7778 114.976 45.7778 122.253V151.687Z" fill="#153540"/>
<path d="M108.914 136.388C107.207 136.388 105.81 135.007 105.81 133.285C105.81 131.578 107.207 130.182 108.914 130.182H123.639C125.345 130.182 126.742 131.578 126.742 133.285C126.742 135.007 125.345 136.388 123.639 136.388H108.914Z" fill="#153540"/>
<path d="M114.794 124.441C113.584 125.651 111.613 125.651 110.403 124.441C109.193 123.23 109.193 121.275 110.403 120.05L121.435 109.017C122.661 107.807 124.616 107.807 125.826 109.017C127.037 110.228 127.037 112.198 125.826 113.409L114.794 124.441Z" fill="#153540"/>
<path d="M110.403 146.52C109.193 145.31 109.193 143.355 110.403 142.145C111.613 140.919 113.584 140.919 114.794 142.145L125.826 153.177C127.037 154.387 127.037 156.358 125.826 157.568C124.616 158.778 122.661 158.778 121.435 157.568L110.403 146.52Z" fill="#153540"/>
<path fill-rule="evenodd" clip-rule="evenodd" d="M75.8796 27.3552C79.3707 27.3552 82.1947 24.5313 82.1947 21.0401C82.1947 17.5644 79.3707 14.725 75.8796 14.725C72.4039 14.725 69.5644 17.5644 69.5644 21.0401C69.5644 24.5313 72.4039 27.3552 75.8796 27.3552ZM69.5644 12.6303C70.7281 12.6303 71.6746 13.5768 71.6746 14.7405C71.6746 15.8887 70.7281 16.8352 69.5644 16.8352C68.4007 16.8352 67.4697 15.8887 67.4697 14.7405C68.2611 13.1423 69.8903 12.1337 71.6746 12.1337C74.2659 12.1337 76.3761 14.244 76.3761 16.8352C76.3761 17.5644 76.2054 18.2937 75.8796 18.9454L69.5644 12.6303Z" fill="#153540"/>
<path d="M92.7303 25.245C95.0526 25.245 96.9352 23.3624 96.9352 21.0401C96.9352 18.7177 95.0526 16.8351 92.7303 16.8351C90.408 16.8351 88.5254 18.7177 88.5254 21.0401C88.5254 23.3624 90.408 25.245 92.7303 25.245Z" fill="#153540"/>
<path d="M59.0445 25.245C61.3668 25.245 63.2494 23.3624 63.2494 21.0401C63.2494 18.7177 61.3668 16.8351 59.0445 16.8351C56.7222 16.8351 54.8396 18.7177 54.8396 21.0401C54.8396 23.3624 56.7222 25.245 59.0445 25.245Z" fill="#153540"/>
<path fill-rule="evenodd" clip-rule="evenodd" d="M25.3587 269.44H126.401C138.022 269.44 147.456 260.006 147.456 248.385V21.0401C147.456 9.41839 138.022 0 126.401 0H25.3587C13.737 0 4.31858 9.41839 4.31858 21.0401V37.8908C1.99113 37.8908 0.0981445 39.7683 0.0981445 42.0957V58.9309C0.0981445 61.2583 1.99113 63.1513 4.31858 63.1513V71.5611C1.99113 71.5611 0.0981445 73.4541 0.0981445 75.7816V92.6167C0.0981445 94.9442 1.99113 96.8216 4.31858 96.8216V248.385C4.31858 260.006 13.737 269.44 25.3587 269.44ZM25.3587 8.42535H126.401C126.463 8.42535 126.525 8.40983 126.587 8.40983C132.747 8.40983 138.007 12.863 139.031 18.9454H126.401C120.892 19.0075 115.71 21.5676 112.296 25.8967C109.628 29.3723 105.531 31.467 101.14 31.5756H50.6192C46.2436 31.467 42.1318 29.3723 39.463 25.8967C36.0494 21.5676 30.8669 19.0075 25.3587 18.9454H12.9456C13.9697 12.8785 19.2142 8.42535 25.3587 8.40983V8.42535ZM126.401 261.015H25.3587C18.3918 261.015 12.7284 255.367 12.7284 248.385V23.1503H25.3587C29.7498 23.2589 33.8461 25.3536 36.5149 28.8293C39.9285 33.1583 45.1109 35.7185 50.6192 35.7806H101.14C106.649 35.7185 111.831 33.1583 115.245 28.8293C117.913 25.3536 122.025 23.2589 126.401 23.1503H139.031V248.385C139.031 255.367 133.383 261.015 126.401 261.015Z" fill="#153540"/>
</svg>
