<svg width="273" height="281" viewBox="0 0 273 281" fill="none" xmlns="http://www.w3.org/2000/svg">
<path fill-rule="evenodd" clip-rule="evenodd" d="M88 94.0208C70.8 110.021 64.8333 154.687 64 175.021L72 180.021L95.5 188.521L131.5 195.021C140.833 196.354 160.8 200.421 166 206.021C171.2 211.621 172.167 221.354 172 225.521H188.5C201.667 218.687 229.3 203.821 234.5 199.021C239.7 194.221 241.667 167.354 242 154.521L217 97.0208L188.5 66.0208H159.5C150.5 66.1874 130.6 66.4208 123 66.0208C116.376 65.6721 112.426 69.6993 103.352 78.9499C99.4132 82.9659 94.5084 87.9664 88 94.0208ZM143.221 89H158V116.555H126.44V155.441H132.4V171H109V102.788H141V89.0664L143.221 89ZM179.223 103H168.265L168.553 116.349H173.113V127.329H139V137.999H173.556V156.683H142.21V184H158.547V168.681H178.338C190.004 168.681 190.779 159.893 190.779 159.893C190.779 159.893 191 145.681 190.779 142.338C190.667 140.655 188.637 139.651 187.117 138.899C185.618 138.158 184.615 137.662 186.44 137.003C190.115 135.674 190.889 127.329 190.889 127.329C190.889 127.329 191 126.554 191 115.552C191 104.55 179.223 103 179.223 103Z" fill="#ffc45f"/>
<path fill-rule="evenodd" clip-rule="evenodd" d="M181.361 45.4413C184.573 48.3953 186.199 52.9949 186.199 57.2772C186.199 57.9117 186.139 58.4668 185.862 59.0616C185.842 59.1012 185.842 59.121 185.822 59.1409L193.693 65.3463L193.733 65.386C194.982 66.4764 196.33 67.428 197.579 68.5581C199.403 70.2433 201.306 72.4439 201.306 75.0609C201.306 78.4313 198.233 80.8103 195.021 80.8103C191.631 80.8103 187.884 76.6668 185.485 74.5256C183.721 72.9594 181.48 71.0759 179.379 69.7873C179.101 69.9459 178.844 70.1045 178.566 70.2631C177.515 70.8777 176.524 71.3535 175.394 71.75C173.391 72.4439 171.726 72.9594 169.664 73.3757L169.565 73.3955L150.235 75.4574L131.301 73.5541L131.202 73.5343C129.696 73.2369 128.189 72.7809 126.722 72.3448C125.532 71.9879 124.362 71.6112 123.173 71.294C122.757 71.1751 121.924 70.9173 121.408 70.8777C120.318 71.3931 118.316 73.0982 117.523 73.7722C115.203 75.735 112.983 77.8167 110.802 79.9182C107.312 83.2489 103.942 86.6788 100.532 90.0888C81.083 109.538 66.4516 136.54 66.4516 164.594C66.4516 165.843 66.5508 167.013 66.7094 168.242C66.8283 169.233 66.9076 170.165 66.9671 171.136C72.895 172.683 78.3074 175.002 83.7595 177.897C88.6168 180.474 93.3154 183.408 98.2917 185.708C101.622 187.215 104.993 188.385 108.581 189.039C120.655 191.18 132.947 191.933 145.12 193.341C157.333 194.768 167.662 195.76 174.581 207.298C175.751 209.281 176.861 211.283 177.555 213.504C178.407 216.26 178.606 219.352 178.645 222.326C181.302 221.295 183.859 219.749 186.437 218.658L223.154 202.56C225.037 201.707 225.355 201.688 226.425 199.923C237.448 181.624 238.261 160.411 232.611 140.208C231.52 136.283 230.152 132.575 228.487 128.868C227.357 126.37 226.128 123.892 224.899 121.433C221.964 115.545 218.574 110.351 214.768 105.037C214.113 104.125 213.32 103.233 212.607 102.381C211.397 100.914 210.168 99.4663 208.959 97.9992C207.591 96.3735 206.243 94.7478 204.954 93.0626C204.22 92.0912 202.753 90.3267 202.753 89.0975C202.753 86.3219 203.645 83.2291 206.441 82.0792C208.463 81.2663 210.644 81.8809 212.389 83.0507L212.607 83.1894L221.528 93.6376L221.568 93.6971C222.638 95.1443 223.709 96.5718 224.799 97.9992C244.526 124.288 256.144 162.056 243.356 193.738C243.455 193.678 243.555 193.638 243.654 193.579C244.566 193.163 245.478 192.786 246.429 192.469C249.482 191.477 252.774 191.22 255.965 191.22C264.748 191.22 272.5 200.3 272.5 208.825C272.5 213.107 271.985 217.39 269.487 220.998C267.187 224.269 263.479 226.609 260.149 228.73L243.634 239.178C241.413 240.586 239.252 242.053 236.992 243.401C225.791 250.082 215.164 257.656 203.943 264.277C197.083 268.342 190.937 273.417 183.542 276.589C177.971 278.988 171.468 280.911 165.342 280.911H99.5605C95.8928 280.911 91.4518 279.761 87.9427 278.77C83.0259 277.362 78.1488 275.677 73.351 273.913C69.1281 272.366 64.925 270.741 60.7418 269.095C57.4309 267.787 54.12 266.478 50.7893 265.229C49.4808 264.753 48.1922 264.198 46.8638 263.742C45.7734 271.752 39.4887 276.054 31.0429 276.054C30.1706 276.054 29.2784 276.074 28.3863 276.094C24.5004 276.173 20.5353 276.371 16.6693 276.054C13.0808 275.776 9.3536 275.023 6.37975 272.882C1.70088 269.511 0.491516 263.901 0.491516 258.449V172.147C0.491516 163.543 3.54467 154.007 13.7946 154.007H33.759C40.698 154.007 47.0423 160.351 47.0423 167.29V168.043C49.4808 168.123 52.0185 168.301 54.4372 168.678C54.3976 162.453 54.3183 156.207 55.2898 150.022C58.6998 128.273 69.029 108.467 82.7483 91.4568L82.788 91.4171L92.7405 80.3544C93.5534 79.3036 94.4059 78.2727 95.3377 77.321C96.2893 76.3694 97.3599 75.5367 98.4107 74.6842C100.294 73.1775 101.722 71.2147 103.605 69.708L109.434 64.8308C109.791 64.5136 110.187 64.1964 110.564 63.8792C105.488 64.4541 100.354 65.8023 95.9324 68.0228C91.8682 70.045 88.7159 72.4439 86.2178 76.2703C82.5699 81.8413 74.3819 80.5526 74.3819 73.455C74.3819 69.9062 78.922 65.7032 81.3011 63.3043C88.3194 56.1868 99.3623 52.5785 109.156 51.6071C110.108 51.5278 111.079 51.4088 112.071 51.3097C110.286 49.803 108.125 48.4746 106.381 47.86C105.29 47.4635 104.16 47.2256 103.01 47.1067C101.503 46.948 99.9769 46.9679 98.4701 47.0075C96.666 47.067 94.8817 47.1463 93.0974 47.1265C88.1211 47.0868 83.6405 46.2343 78.9616 44.4897C75.0956 43.0226 69.1677 40.0685 68.9695 35.2509C68.8307 32.3365 71.2296 29.4221 74.2035 29.4221C77.2963 29.4221 78.803 30.6513 81.3804 31.9796C84.3741 33.526 87.566 34.2001 90.8967 34.4975C92.3836 34.6363 93.8706 34.6958 95.3773 34.7354C103.803 34.9535 111 34.8544 117.959 40.3461C113.201 32.8321 108.363 22.4038 108.363 14.1167C108.363 9.37834 111.971 2.43935 117.344 2.43935C119.862 2.43935 121.428 2.99447 123.688 3.88662C124.858 4.32279 125.79 4.60035 127.059 4.60035C127.435 4.60035 127.792 4.52105 128.169 4.38227C129.24 3.96593 130.429 3.05394 131.46 2.45917C133.324 1.38859 135.148 0.833466 137.309 0.833466C140.501 0.833466 143.395 1.32911 146.29 2.65743C147.162 3.05394 147.975 3.50994 148.827 3.9461C149.303 4.18401 149.858 4.46157 150.394 4.5607C150.513 4.58052 150.651 4.60035 150.79 4.60035C152.376 4.60035 153.486 4.14436 154.835 3.37116C157.571 1.84458 159.355 0.833466 162.646 0.833466C165.759 0.833466 168.693 1.40841 171.528 2.67726C172.42 3.07377 173.272 3.52976 174.125 4.00558C174.383 4.16418 174.898 4.48139 175.215 4.60035C176.841 4.58052 178.209 4.22366 179.716 3.64872C181.183 3.0936 182.63 2.43935 184.236 2.43935C190.124 2.43935 194.288 7.97072 194.288 13.5814C194.288 23.8908 189.728 31.7219 184.613 40.247C183.562 41.9916 182.412 43.6966 181.361 45.4413ZM181.52 16.2579C181.52 16.2579 181.52 16.2777 181.5 16.2777C179.676 16.8526 178.07 17.1698 176.147 17.1698C173.292 17.1698 170.953 16.238 168.514 14.9295C167.384 14.3149 165.382 13.0857 164.113 13.0263C162.904 12.9668 160.941 14.196 159.89 14.7908C157.511 16.1191 155.231 17.1698 152.416 17.1698C149.164 17.1698 146.27 16.5751 143.395 15.0485C142.523 14.5925 141.71 14.077 140.877 13.6012C140.421 13.3237 139.846 13.0064 139.331 12.9073C139.192 12.8677 139.053 12.8478 138.915 12.8478C137.765 12.8478 135.723 14.1762 134.712 14.7511C132.273 16.1389 129.914 17.1698 127.059 17.1698C125.75 17.1698 124.442 17.0905 123.173 16.7932C122.439 16.6346 121.805 16.3966 121.131 16.1389C122.083 22.8995 126.444 30.4332 129.715 35.8655C130.548 37.2533 131.361 38.6411 132.174 40.0289C132.332 40.3064 132.669 40.9409 132.907 41.2581C133.006 41.2779 133.106 41.2977 133.185 41.2977C133.562 41.3572 133.918 41.4167 134.295 41.496C135.326 41.7141 136.377 41.8925 137.408 42.0908C142.106 42.9234 146.805 43.5777 151.583 43.4191C156.163 43.2803 160.723 42.4278 165.203 41.5356C166.234 41.3374 167.285 41.1788 168.316 40.9805C168.732 40.9012 169.268 40.8021 169.625 40.6038C170.596 40.0884 172.579 36.4999 173.154 35.5483C176.445 30.0367 180.588 22.9788 181.52 16.2579ZM152.951 62.8483C157.511 62.8483 161.734 62.0751 166.195 61.3415C166.908 61.2226 167.622 61.1036 168.336 60.9648C169.763 60.6873 172.123 60.152 173.094 58.9624C173.491 58.4668 173.629 57.8918 173.629 57.2772C173.629 56.3851 173.57 54.5809 172.777 53.9465C172.023 53.3518 170.279 53.4311 169.406 53.5104C166.889 53.669 164.272 54.1844 161.774 54.5611C153.189 55.8498 145.338 56.1273 136.714 54.6008C134.513 54.2043 132.233 53.6491 130.013 53.3518C129.378 53.2724 127.872 53.094 127.297 53.4905C126.365 54.1051 126.325 57.416 126.325 58.3478C126.325 58.4073 126.345 58.4668 126.345 58.5263C126.642 59.5374 129.14 60.4494 130.013 60.7071C132.808 61.5992 136.02 62.0156 138.934 62.313C143.593 62.769 148.272 62.8483 152.951 62.8483ZM34.4728 262.85V216.379C34.4728 215.605 34.4331 214.812 34.3935 214.019C34.3736 212.83 34.3736 211.64 34.4529 210.47C34.6314 207.972 35.2261 204.899 37.4268 203.393C38.2595 202.818 39.2111 202.54 40.2222 202.54C42.1651 202.54 44.1675 202.917 45.4959 204.443C47.3595 206.585 47.0423 210.47 47.0423 213.147V250.697C49.0447 251.549 51.166 252.204 53.1882 252.997C55.5277 253.909 57.8869 254.741 60.2462 255.614C66.6895 258.012 73.0338 260.649 79.4969 262.989C83.8388 264.575 88.2401 266.042 92.7207 267.172C96.4677 268.104 100.532 268.877 104.398 268.877H160.505C167.82 268.877 174.125 267.489 180.667 264.218C184.216 262.434 187.567 260.273 190.878 258.072C194.704 255.554 198.491 252.997 202.436 250.657L258.384 215.11C259.038 214.594 259.514 213.94 259.851 213.167C261.616 209.241 259.118 203.254 254.34 203.254C253.15 203.254 251.287 203.868 250.157 204.245C248.035 204.959 245.934 205.831 243.872 206.723C240.581 208.151 237.369 209.717 234.098 211.145L183.562 233.429C181.897 234.182 180.231 234.935 178.546 235.649C177.178 236.244 173.788 237.77 172.361 237.77H127.059C123.332 237.77 120.219 234.777 120.477 231.01C120.576 229.345 121.369 227.877 122.657 226.846C124.204 225.617 126.206 225.201 128.129 225.201H166.096C166.155 218.084 166.234 213.286 159.038 208.746C155.548 206.545 150.176 206.287 146.151 205.871C145.219 205.772 144.287 205.673 143.356 205.554C137.666 204.78 131.936 204.245 126.226 203.67C122.757 203.313 119.287 202.957 115.818 202.54C112.903 202.183 109.949 201.807 107.055 201.291C99.2037 199.903 92.9388 197.009 86.0592 193.163C80.4882 190.05 75.2344 186.898 69.2272 184.638C62.0305 181.921 54.695 180.772 47.0819 180.613C47.1216 182.06 47.2009 183.507 47.2207 184.955C47.2207 188.087 47.1414 193.301 44.0684 195.106C43.3943 195.502 42.6211 195.7 41.8479 195.7C39.7464 195.7 37.6251 195.264 36.1778 193.619C34.8693 192.112 34.5521 190.09 34.4529 188.147C34.334 185.906 34.4728 183.587 34.4728 181.327C34.4728 179.245 34.5521 177.183 34.5719 175.101C34.6115 172.445 34.6512 169.312 34.1952 166.596C31.598 165.823 27.0976 165.843 24.7978 165.882C22.0222 165.902 19.2665 166.021 16.4909 166.021C15.6384 166.021 14.1911 166.12 13.5368 166.775C13.1403 167.171 13.061 167.825 13.061 168.38V261.68C13.061 263.108 13.4575 263.484 14.8651 263.484H32.6686C33.5211 263.484 33.9771 263.227 34.4728 262.85Z" fill="#FEFEFE"/>
</svg>
