<svg width="184" height="273" viewBox="0 0 184 273" fill="none" xmlns="http://www.w3.org/2000/svg">
<path fill-rule="evenodd" clip-rule="evenodd" d="M88.4022 272.026C67.989 272.026 43.0521 260.903 28.7704 246.453C7.49734 224.937 -3.83083 194.187 2.35667 164.109C3.12309 160.445 3.88952 156.763 5.02982 153.192C6.11403 149.734 7.53472 146.35 8.91803 143.004C11.4042 137.022 15.5729 130.312 19.5732 125.19C20.9939 123.395 22.4707 121.694 24.0597 120.049C24.4335 119.675 25.3495 118.815 25.5925 118.348C25.8355 117.843 25.7981 116.217 25.7794 115.656C25.7421 112.31 25.6299 108.964 25.6299 105.599C25.6299 96.084 25.2186 86.5691 25.1999 77.0729C25.1813 69.0721 25.5177 61.034 27.2375 53.2015C29.705 42.0789 34.7149 32.807 41.8557 23.9838C43.9868 21.3106 46.23 18.8431 48.9405 16.7494C50.3799 15.6278 51.595 14.4689 53.1278 13.422C68.6059 2.99114 77.504 0.635773 96.216 0.635773C114.666 0.635773 129.92 10.1881 142.333 23.0865C145.118 25.9653 147.604 29.76 149.642 33.1996C151.829 36.8448 153.679 40.5835 155.044 44.6212C156.259 48.2477 157.306 51.8929 157.941 55.669C158.988 61.7817 159.007 68.1562 159.007 74.3437C159.007 85.2793 159.007 96.2149 159.007 107.169C159.007 109.45 158.876 111.712 158.82 114.011C158.783 115.095 158.745 116.404 159.063 117.451C159.362 118.441 159.979 119.282 160.652 120.049L160.671 120.086L167.961 129.078L167.998 129.115C169.251 130.816 170.242 132.611 171.326 134.424C174.504 139.733 177.439 145.883 179.214 151.79C182.037 161.23 184 170.708 184 180.597C184 203.702 174.317 228.078 157.904 244.397C154.128 248.154 150.221 251.688 145.884 254.809C141.435 258.006 136.706 260.642 131.827 263.09C116.928 270.586 104.946 272.026 88.4022 272.026ZM37.6123 107.524C39.0704 106.478 40.5098 105.412 41.9679 104.384C43.7064 103.188 45.8935 101.729 48.0245 100.813C48.0245 91.4668 48.0245 82.1201 48.0245 72.7921C48.0245 62.9407 48.3984 55.6503 52.997 46.7336C56.4926 39.9666 61.465 34.4521 67.7086 30.1339C82.3455 20.0208 102.347 20.0208 117.04 29.9843C123.359 34.2838 128.256 39.8731 131.677 46.7336C133.135 49.6871 134.444 52.6594 135.248 55.8746C136.631 61.2583 136.594 67.2402 136.594 72.7921C136.594 82.1388 136.594 91.4855 136.594 100.832C139.061 101.935 142.052 103.973 143.884 105.206L143.921 105.225L147.511 107.786C147.492 95.9345 147.473 84.1016 147.511 72.25C147.529 58.7347 144.314 45.3503 136.407 34.2277C129.752 24.8997 120.387 18.058 109.47 14.5997C99.9547 11.5901 89.6546 11.3284 79.9715 13.7211C69.335 16.3569 59.8761 22.0023 52.1745 29.7787C45.987 36.0223 41.0519 45.9298 39.033 54.4726C38.6592 56.0429 38.4535 57.744 38.2853 59.3703C38.0423 61.6696 37.9114 64.0062 37.7993 66.3242C37.5189 72.0631 37.4628 77.8206 37.4441 83.5595C37.4254 88.9245 37.4628 94.2895 37.5189 99.6732C37.5563 102.29 37.5936 104.907 37.6123 107.524ZM59.5022 95.5793C60.4743 95.1681 61.465 94.7381 62.381 94.3829C63.054 94.1212 63.7456 93.8782 64.4373 93.6539C82.7194 87.7281 102.366 87.672 120.611 93.7848L120.63 93.8034L125.116 95.4485C125.116 88.2328 125.116 81.0359 125.116 73.8203C125.116 60.0433 123.321 49.6684 112.031 40.6956C104.404 34.6203 98.2349 34.5081 88.9256 34.5081C78.1021 34.5081 66.6992 44.453 62.5867 54.0614C61.1099 57.5196 60.4182 61.6509 59.9883 65.3709C59.4649 70.0816 59.334 74.8671 59.3153 79.6152C59.2779 84.9428 59.4462 90.2517 59.5022 95.5793ZM57.0721 109.095L47.7067 114.609C46.7908 115.207 45.9496 115.88 45.0336 116.497C42.3978 118.31 39.6873 120.778 37.3693 122.984C35.07 125.171 32.5277 127.657 30.5836 130.181C18.1899 146.145 12.638 161.829 12.638 182.167C12.638 197.066 18.489 215.049 27.4058 226.956C43.5007 248.454 66.0636 260.548 93.0942 260.548C114.573 260.548 134.743 251.688 149.586 236.228C160.316 225.049 167.699 210.973 170.634 195.757C173.831 179.12 171.532 162.371 164.596 146.967C162.652 142.612 160.334 138.742 157.549 134.891C151.174 126.068 142.576 117.226 132.948 112.011C121.302 105.73 110.217 101.187 96.7394 101.187C89.9537 101.187 82.9998 101.262 76.3076 102.477C69.5032 103.711 63.297 106.122 57.0721 109.095Z" fill="#FEFEFE"/>
<path fill-rule="evenodd" clip-rule="evenodd" d="M52.8099 195.178C52.8099 209.085 56.8103 218.731 65.1849 227.087C85.1868 247.089 119.826 242.808 133.546 215.497C141.398 199.907 138.369 179.924 125.602 167.194C121.788 163.38 119.115 161.305 114.255 158.763C88.0842 145.061 52.8099 164.782 52.8099 195.178Z" fill="#ffc45f"/>
<path fill-rule="evenodd" clip-rule="evenodd" d="M90.3088 122.778V144.145C90.3088 149.154 97.0945 148.126 97.0945 144.668V123.825C97.0945 118.385 90.3088 119.694 90.3088 122.778Z" fill="#ffc45f"/>
<path fill-rule="evenodd" clip-rule="evenodd" d="M106.74 132.162V147.266C106.74 151.211 113.507 151.286 113.507 147.79V131.115C113.507 127.825 106.74 127.022 106.74 132.162Z" fill="#ffc45f"/>
<path fill-rule="evenodd" clip-rule="evenodd" d="M74.6997 131.115V146.743C74.6997 151.753 81.4667 151.659 81.4667 146.743V132.162C81.4667 127.022 74.6997 127.825 74.6997 131.115Z" fill="#ffc45f"/>
<path fill-rule="evenodd" clip-rule="evenodd" d="M120.013 140.499V149.865C120.013 157.604 127.303 156.688 127.303 151.435C127.303 139.154 128.817 135.284 123.135 135.284C120.985 135.284 120.013 138.144 120.013 140.499Z" fill="#ffc45f"/>
<path fill-rule="evenodd" clip-rule="evenodd" d="M62.194 138.929V151.435C62.194 157.043 69.4844 156.725 69.4844 150.912C69.4844 140.985 70.9425 135.284 64.7923 135.284C63.1099 135.284 62.194 137.172 62.194 138.929Z" fill="#ffc45f"/>
<path fill-rule="evenodd" clip-rule="evenodd" d="M92.9258 167.661H101.562V183.662H83.1118V206.225H86.6075V215.254H72.924V175.662H91.636V167.698L92.9258 167.661Z" fill="white"/>
<path fill-rule="evenodd" clip-rule="evenodd" d="M107.339 175.755H113.694C113.694 175.755 120.536 176.652 120.536 183.046C120.536 189.42 120.461 189.887 120.461 189.887C120.461 189.887 120.013 194.71 117.882 195.495C115.751 196.262 120.274 196.654 120.405 198.58C120.536 200.524 120.405 208.786 120.405 208.786C120.405 208.786 119.957 213.871 113.171 213.871C106.404 213.871 101.693 213.871 101.693 213.871V222.769H92.2156V206.917H110.404V196.075H90.3463V189.887H110.143V183.494H107.507L107.339 175.755Z" fill="white"/>
</svg>
