<svg width="304" height="279" viewBox="0 0 304 279" fill="none" xmlns="http://www.w3.org/2000/svg">
<path fill-rule="evenodd" clip-rule="evenodd" d="M51.036 9.20472V41.1241C51.036 46.933 55.2589 51.1757 61.0876 51.1757H91.8175C100.58 51.1757 104.565 41.5999 99.946 35.9496L95.961 32.262C103.554 30.4777 119.97 19.8511 146.774 19.8511C168.682 19.8511 187.437 22.1311 205.696 31.2707C215.926 36.3858 224.491 40.906 233.214 48.0829C239.063 52.8807 238.924 54.1298 244.892 54.1298C247.469 54.1298 249.531 53.1583 250.939 51.8696C252.723 50.2439 253.774 47.4881 253.774 44.6729C253.774 39.1217 249.749 36.7823 246.537 34.1653C202.286 -1.9175 139.855 -10.5813 87.6739 15.1128L70.5445 24.5696C70.5445 18.1659 73.3201 0.342633 61.0876 0.342633C55.4373 0.342633 51.036 4.86289 51.036 9.20472Z" fill="#FEFEFE"/>
<path fill-rule="evenodd" clip-rule="evenodd" d="M51.6307 233.215C51.6307 238.667 55.5166 241.403 58.6292 243.941C85.5129 265.809 118.106 278.14 154.467 278.14C185.454 278.14 215.133 266.899 233.67 254.488C233.67 259.009 233.294 267.375 234.087 270.626C236.783 281.63 253.179 280.123 253.179 268.089V237.359C253.179 231.53 248.936 227.307 243.127 227.307H212.397C200.185 227.307 199.63 243.326 208.254 245.626L197.687 251.019C193.92 252.367 190.252 253.537 185.91 254.607C145.406 264.679 103.673 255.916 71.6349 229.746C68.3636 227.089 60.9488 219.892 54.4063 227.129C53.4349 228.18 51.6307 231.609 51.6307 233.215Z" fill="#FEFEFE"/>
<path fill-rule="evenodd" clip-rule="evenodd" d="M188.587 202.485C193.028 199.472 196.279 200.186 196.22 189.48C196.2 181.47 197.746 178.219 202.029 174.392C206.727 170.17 211.822 170.744 218.9 170.764C225.978 170.764 233.076 170.764 240.173 170.764C261.288 170.764 284.424 165.669 284.503 188.29C284.523 191.601 284.147 195.031 285.812 197.628L291.522 202.208C291.621 202.267 291.819 202.386 291.958 202.485C300.027 202.485 302.684 199.036 303.417 193.742V182.838C302.961 174.135 297.925 166.561 293.227 161.843C287.993 156.609 281.093 152.663 272.013 151.732L208.868 151.672C197.132 152.564 186.227 160.217 181.053 170.546C176.671 179.289 170.981 202.485 188.587 202.485Z" fill="#FEFEFE"/>
<path fill-rule="evenodd" clip-rule="evenodd" d="M12.257 202.485L13.1095 201.95C13.2483 201.891 13.4069 201.792 13.5457 201.712L15.8653 200.384C16.3411 200.027 17.9866 198.263 18.3831 197.608C20.0683 194.991 19.6916 191.641 19.6916 188.29C19.7709 165.649 43.0463 170.764 64.0417 170.764C74.2718 170.764 95.7232 168.544 102.186 174.373C106.37 178.159 108.015 181.569 107.975 189.48C107.916 200.106 111.029 199.373 115.608 202.485C126.552 202.485 128.693 194.853 126.949 183.294C125.759 175.344 123.816 169.852 118.88 164.182C115.965 160.871 118.087 162.338 112.853 158.393C111.445 157.322 109.7 156.311 108.114 155.439C105.14 153.793 99.6685 152.128 95.8818 151.712L32.7369 151.672C23.7559 152.366 16.2816 156.529 11.2855 161.545C5.85328 166.997 1.43215 174.154 0.817555 182.402L0.797729 182.719V194.337C1.68989 199.254 4.56461 202.485 12.257 202.485Z" fill="#ffc45f"/>
<path fill-rule="evenodd" clip-rule="evenodd" d="M227.921 109.681C225.621 92.889 250.443 89.5583 252.802 105.815C253.853 113.151 248.619 119.178 242.394 120.13C234.919 121.26 228.773 115.907 227.921 109.681ZM208.849 104.963V109.681C208.849 124.808 223.262 139.241 238.389 139.241C244.931 139.241 248.678 139.123 254.765 136.089C258.254 134.345 260.475 132.223 263.072 129.626C282.005 110.811 269.733 75.9975 239.578 75.9975C227.544 75.9975 216.918 84.0864 212.179 92.9286C210.792 95.5456 208.849 101.216 208.849 104.963Z" fill="#FEFEFE"/>
<path fill-rule="evenodd" clip-rule="evenodd" d="M75.8578 111.446C74.2718 116.858 67.9077 121.914 60.4334 119.852C54.6047 118.246 49.5293 111.684 51.7894 103.972C56.3493 88.4877 80.6755 95.0897 75.8578 111.446ZM32.1223 106.727C32.1223 125.066 46.8726 139.242 61.0877 139.242H65.8062C80.9332 139.242 95.3663 124.808 95.3663 109.681C95.3663 95.3474 90.172 85.4544 77.0474 78.9317C57.2217 69.0784 32.1223 84.6019 32.1223 106.727Z" fill="#ffc45f"/>
</svg>
