<svg width="224" height="275" viewBox="0 0 224 275" fill="none" xmlns="http://www.w3.org/2000/svg">
<path fill-rule="evenodd" clip-rule="evenodd" d="M66.4189 218.282C66.4189 176.989 115.433 156.09 145.043 185.588C164.615 205.066 162.783 237.331 138.594 255.22C134.164 258.492 128.331 260.997 122.705 262.305C112.012 264.773 103.955 263.614 93.9542 259.651C91.1875 258.548 88.8135 257.164 86.7011 255.669C82.7942 252.921 80.5884 251.164 77.7096 247.593C70.8679 239.144 66.4189 230.302 66.4189 218.282ZM108.871 0.953369H117.097C128.07 1.32724 138.93 3.1218 148.987 6.5053C152.296 7.6082 156.128 7.98207 156.128 12.1694C156.128 22.2638 145.585 16.7679 142.239 15.9081C137.36 14.6182 129.995 12.7115 124.088 12.7115L128.668 20.4132C130.238 23.0302 131.64 25.1052 132.986 27.8344C134.425 30.7132 135.622 32.5451 137.08 35.48C141.604 44.565 143.921 50.6216 147.249 60.5665C148.539 64.3799 151.754 75.3716 151.847 79.4468C153.792 78.0448 155.773 74.0257 164.839 69.4832C179.121 62.3423 193.534 63.95 206.32 72.5115C204.881 66.324 196.001 52.4349 190.973 46.7521C189.346 44.9201 185.496 41.817 185.496 38.8635C185.496 35.2183 188.113 32.9938 191.365 32.9938C194.637 32.9938 202.544 43.3873 204.619 46.453C208.133 51.6311 211.704 57.0334 214.321 62.9031C219.63 74.8108 223.948 88.9991 223.948 106.16C223.948 107.674 212.769 131.713 210.601 136.592L199.927 160.632C199.048 162.576 198.057 164.745 197.31 166.576C189.851 184.952 178.448 207.496 170.765 225.984C168.092 232.452 163.063 244.004 159.437 249.369C154.745 256.361 148.838 262.025 141.678 266.324C133.64 271.166 124.798 273.82 115.863 274.362H109.114C99.9734 273.82 90.8885 271.054 82.6634 266.137C78.5321 263.67 78.0274 262.81 75.0365 260.398C62.6989 250.454 55.4645 229.517 48.2676 213.478L34.9206 183.569C34.042 181.625 33.0512 179.456 32.3222 177.624C29.5182 170.764 0.730408 108.496 0.730408 105.617C0.730408 83.1854 8.74986 61.4824 20.7136 45.4996C22.7699 42.7704 24.4149 40.5646 26.7702 38.2092C28.1723 36.8259 28.4153 36.0969 29.7051 34.7323L40.1734 25.4417C42.7531 23.3854 45.0897 21.7591 47.9498 19.871C53.1653 16.3754 59.1658 13.0106 65.1851 10.4122C78.4013 4.71073 93.5803 1.45809 108.871 0.953369ZM110.741 76.2502C126.425 76.2502 136.313 83.8958 140.856 97.3924C142.893 103.468 142.108 104.963 140.874 110.646L131.696 149.547C130.874 153.416 128.967 159.062 128.892 162.763C123.191 162.763 118.256 159.099 104.011 161.361C101.095 161.828 98.7957 162.763 95.7861 162.763C95.73 160.109 93.599 152.725 92.9073 149.622L83.8037 110.646C82.5699 104.963 81.7848 103.468 83.8224 97.3924C87.7293 85.7838 97.7302 76.2502 110.741 76.2502ZM168.41 204.935C166.634 203.645 167.849 204.599 166.073 199.271C165.176 196.579 164.709 195.383 163.606 193.196C158.857 183.793 153.156 176.708 144.464 170.689C142.706 169.474 140.912 168.558 139.043 167.567L152.988 107.281C154.035 102.197 152.838 96.3456 159.007 88.2139C172.971 69.7823 200.375 73.5397 209.722 92.6069C215.311 103.991 211.928 106.739 207.404 116.833L187.813 160.8C186.804 162.95 185.813 165.212 185.028 167.1L171.064 198.523C170.017 200.879 169.083 202.038 168.41 204.935ZM11.9464 104.552C11.9464 89.9711 25.5365 76.2502 40.2482 76.2502C51.109 76.2502 58.7172 79.5215 65.4281 87.9149C71.6904 95.71 70.4379 102.552 73.1485 113.3L85.6356 167.567C74.4757 173.474 66.8675 181.699 61.2595 192.841L57.6704 202.075C57.0348 204.617 57.9134 203.739 56.2684 204.935C55.6515 202.318 52.268 195.701 50.9968 192.579C50.0996 190.373 49.221 188.41 48.2489 186.261L11.9464 104.552ZM85.1122 75.1847C85.3365 64.9407 98.3471 38.4522 103.824 29.2925C106.591 24.6565 109.357 20.3571 112.33 15.9081C114.835 17.74 126.668 38.6392 128.518 42.9947C130.705 48.1354 132.911 52.6779 134.837 58.0242C136.052 61.4264 139.566 71.1656 139.566 75.1847C133.36 71.8946 128.032 65.0155 112.33 65.0155C96.646 65.0155 91.4679 71.8199 85.1122 75.1847ZM72.8307 79.4468C71.4474 78.456 71.7091 77.97 70.2884 76.6428C67.3161 73.8948 63.97 71.5395 60.194 69.6701C45.5945 62.3984 31.3688 63.8004 18.3582 72.5115C21.4426 59.2579 38.1171 40.5085 49.4827 32.0778C62.3811 22.4694 77.2049 16.3754 93.3373 13.4592C95.3375 13.104 99.9547 12.7302 101.132 12.1694L92.4026 26.9371C84.7383 40.9758 78.906 53.5004 74.9617 69.315C74.2701 72.0442 73.0737 76.5306 72.8307 79.4468Z" fill="white"/>
<path fill-rule="evenodd" clip-rule="evenodd" d="M121.956 235.387H102.721V223.629H121.956C129.209 223.629 129.004 235.387 121.956 235.387ZM116.068 212.413H102.721V200.673H116.61C123.489 200.673 123.321 212.413 116.068 212.413ZM105.394 189.457C97.9728 189.457 91.5049 188.111 91.5049 195.869V240.714C91.5049 248.323 101.562 246.584 105.394 246.584C105.805 251.613 110.909 254.36 114.89 250.753C116.087 249.687 116.442 248.547 116.61 246.584C124.573 246.584 127.303 246.322 132.032 242.789C140.725 236.321 141.136 222.208 130.499 215.086C136.855 203.047 128.443 189.719 116.61 189.457C116.442 181.512 106.067 181.494 105.394 189.457Z" fill="#ffc45f"/>
<path fill-rule="evenodd" clip-rule="evenodd" d="M165.737 24.993C165.737 25.909 166.914 28.0213 167.456 28.6195C170.634 32.1712 176.953 29.9841 176.953 24.4509C176.953 17.6839 165.737 17.6091 165.737 24.993Z" fill="white"/>
</svg>
