<svg width="278" height="279" viewBox="0 0 278 279" fill="none" xmlns="http://www.w3.org/2000/svg">
<path fill-rule="evenodd" clip-rule="evenodd" d="M73 134.879C73 148.186 73.1974 156.062 79.4746 168.653C86.0281 181.781 97.3388 193.456 110.663 199.662C136.147 211.517 165.519 206.544 185.515 186.395C192.168 179.712 194.082 176.888 198.425 168.176C210.92 143.193 204.998 112.065 185.811 92.7313C182.91 89.8074 181.094 87.8582 177.777 85.4912C168.835 79.1263 155.373 73 143.411 73C128.152 73 124.935 73.0199 110.248 79.3252C103.655 82.1496 97.3191 87.4007 92.2855 92.4528C87.2519 97.5249 82.396 103.472 79.4351 110.135C76.5926 116.48 73 126.107 73 134.879ZM155.452 108.385H165.203C165.203 108.385 175.705 109.777 175.705 119.663C175.705 129.548 175.606 130.245 175.606 130.245C175.606 130.245 174.915 137.743 171.638 138.937C168.381 140.13 175.31 140.727 175.507 143.73C175.705 146.714 175.507 159.503 175.507 159.503C175.507 159.503 174.817 167.38 164.414 167.38C154.011 167.38 146.786 167.38 146.786 167.38V181.164H132.219V156.599H160.15V139.832H129.337V130.245H159.755V120.359H155.689L155.452 108.385ZM133.304 95.8541H146.589V120.618H118.243V155.545H123.592V169.528H102.59V108.226H131.33V95.8939L133.304 95.8541Z" fill="#FEFEFE"/>
<path fill-rule="evenodd" clip-rule="evenodd" d="M52.0213 217.918C52.5816 211.258 55.8635 203.384 45.7376 203.384C40.3545 203.384 40.6546 214.177 40.1143 219.133C39.7341 222.796 39.7941 225.303 39.2938 228.947C37.9531 238.937 41.1549 239.622 49.84 238.702L69.6516 236.86C78.5568 235.744 76.0954 225.793 70.2119 225.323C68.5109 225.186 62.5675 226.146 60.5863 226.302C64.8888 219.995 84 205.637 84 201.151C84 196.783 82.1789 195 77.7163 195C73.1136 195 56.3238 215.098 52.0213 217.918Z" fill="#ffc45f"/>
<path fill-rule="evenodd" clip-rule="evenodd" d="M194 200.041C194 204.455 195.922 205.004 198.985 208.005C202.849 211.791 215.762 223.913 217.424 226.345C215.442 226.188 209.496 225.227 207.774 225.364C205.071 225.58 202.569 227.816 202.569 231.386C202.569 238.173 211.177 236.957 217.664 237.859C221.588 238.408 234.481 240.115 237.183 237.879C240.407 235.231 238.465 226.208 237.944 219.676C237.744 217.185 236.963 207.573 235.702 205.631C232.979 201.434 225.412 203.356 224.991 208.515C224.851 210.182 225.832 216.008 225.992 217.95C223.49 216.302 211.418 203.945 207.554 200.178C204.41 197.099 203.69 195 199.125 195C196.302 195 194 197.275 194 200.041Z" fill="#ffc45f"/>
<path fill-rule="evenodd" clip-rule="evenodd" d="M46.8376 75.435C50.4636 75.435 52.7275 72.9936 53.028 70.1919C53.2083 68.4509 52.1465 62.5675 51.9862 60.5863C58.437 64.9088 73.1217 84 77.7094 84C82.1769 84 84 82.1789 84 77.7363C84 74.6545 80.7746 72.4933 79.0116 70.7322C75.1451 66.89 62.2234 54.5027 60.5606 52.0213C67.3721 52.6016 75.4256 55.8836 75.4256 45.7376C75.4256 44.7971 74.1635 43.0961 73.4823 42.5357C71.3788 40.8147 63.0248 40.5146 59.3386 40.1343C55.5722 39.7341 53.0079 39.7941 49.3017 39.2938C39.0645 37.9531 38.3633 41.1549 39.3049 49.84L41.148 69.7116C41.4685 73.0336 43.2916 75.435 46.8376 75.435Z" fill="#ffc45f"/>
<path fill-rule="evenodd" clip-rule="evenodd" d="M202.58 46.8996C202.58 50.5216 205.085 52.8229 207.792 53.043C209.516 53.1631 215.469 52.2025 217.454 52.0224C213.124 58.466 194 73.134 194 77.7366C194 82.179 195.824 84 200.294 84C203.362 84 205.526 80.7782 207.291 79.0173C211.139 75.1551 223.548 62.2481 226.034 60.5871C225.673 64.8895 222.165 75.4353 231.185 75.4353C234.734 75.4353 236.297 73.054 236.758 70.1724C237.3 66.7505 237.5 62.8484 237.881 59.8667C238.342 56.2648 238.322 53.4232 238.703 49.8412C239.685 40.8963 238.683 37.9947 228.72 39.2955L208.313 41.1965C204.985 41.5167 202.58 43.3377 202.58 46.8996Z" fill="#ffc45f"/>
<path fill-rule="evenodd" clip-rule="evenodd" d="M0 138.935C0 144.487 4.5721 145.614 11.1917 151.482L20.5347 159.109C24.7092 162.646 30.6331 161.243 30.6331 154.722C30.6331 150.217 24.5502 148.735 22.125 145.139C29.1223 145.139 36.1196 145.139 43.1169 145.139C47.9474 145.139 59 146.997 59 139.488C59 132.059 48.2655 133.857 43.6735 133.857C36.4973 133.857 29.3012 133.857 22.125 133.857C22.8009 132.849 25.6435 130.538 26.8959 129.589C29.8777 127.297 30.6331 127.139 30.6331 123.148C30.6331 118.939 25.2658 115.857 20.5347 119.868L4.96968 132.593C2.94205 134.233 0 135.675 0 138.935Z" fill="#ffc45f"/>
<path fill-rule="evenodd" clip-rule="evenodd" d="M247.367 123.088C247.367 129.781 252.694 129.088 255.875 133.82C248.878 133.82 241.88 133.82 234.883 133.82C230.053 133.82 219 131.959 219 139.462C219 142.056 221.564 144.571 223.652 145.006L255.875 145.125C255.199 146.115 252.356 148.432 251.104 149.402C248.122 151.679 247.367 151.837 247.367 155.856C247.367 160.074 252.734 163.142 257.465 159.123L273.03 146.372C276.37 143.66 278 143.462 278 138.908C278 135.087 271.361 131.503 266.808 127.464C264.661 125.563 262.693 124.257 260.566 122.376C256.75 118.97 256.074 118 252.476 118C249.673 118 247.367 120.297 247.367 123.088Z" fill="#ffc45f"/>
<path fill-rule="evenodd" clip-rule="evenodd" d="M118 24.4498C118 28.8735 119.821 30.7067 124.214 30.7067C128.746 30.7067 130.211 24.6092 133.832 22.1782C133.832 29.1923 133.832 36.2064 133.832 43.2206C133.832 46.07 133.516 51.4103 133.852 53.9809C134.743 60.5367 143.747 60.6363 145.014 54.479L145.113 22.1782C149.842 25.3664 149.17 30.7067 155.859 30.7067C160.074 30.7067 163.141 25.3266 159.124 20.5841L146.379 4.98162C143.668 1.63397 143.47 0 138.898 0C135.336 0 130.844 7.09383 127.48 11.2385C125.718 13.4105 124.234 15.4032 122.374 17.4755C120.395 19.7272 118 22.0786 118 24.4498Z" fill="#ffc45f"/>
<path fill-rule="evenodd" clip-rule="evenodd" d="M133.23 256.822C128.398 253.634 129.085 248.293 122.252 248.293C117.946 248.293 114.812 253.673 118.916 258.416L131.936 274.018C134.705 277.366 134.907 279 139.557 279C142.893 279 144.369 276.051 146.047 274.018L159.066 258.416C162.685 254.231 161.249 248.293 154.558 248.293C149.948 248.293 148.452 254.391 144.753 256.822C144.753 249.828 144.753 242.813 144.753 235.799C144.753 232.93 145.076 227.59 144.733 225.019C143.823 218.463 134.624 218.364 133.331 224.521L133.23 256.822Z" fill="#ffc45f"/>
</svg>
