<svg width="130" height="98" viewBox="0 0 130 98" fill="none" xmlns="http://www.w3.org/2000/svg">
<path fill-rule="evenodd" clip-rule="evenodd" d="M14.0319 66.5023V74.1976H3.39123V56.0951L14.0319 55.8669C14.0319 57.0982 13.8939 59.7145 15.8416 59.7145C18.1874 59.7145 17.6514 57.0822 17.6514 54.5083H22.6294V75.7844H17.6514V66.0512C17.6514 63.7002 14.0319 63.1164 14.0319 66.5023ZM115.875 21.0153V36.634C115.641 43.3369 114.75 49.5833 111.767 57.6448C106.28 72.494 96.3024 82.8004 83.1567 90.8141C79.3303 93.1492 75.7586 96.6731 70.823 93.6799C66.0042 90.7557 60.1823 87.2052 55.9685 83.6389C55.4909 83.2355 55.2786 82.9224 54.801 82.5403C53.9306 81.8451 53.1133 81.2135 52.5083 80.3113C51.8555 80.4865 51.8661 80.6351 51.0754 80.9164C49.4143 81.5107 42.6849 81.2135 40.509 81.2135C32.2246 81.2135 28.239 77.7958 25.7977 77.5941C25.0494 80.4016 16.7492 79.4091 15.8416 78.9527C15.6134 78.836 15.3109 78.5972 15.0615 78.3743C14.759 78.0877 14.9394 78.1567 14.483 77.8223C11.5429 77.8223 8.59748 77.8117 5.65735 77.8223C3.41776 77.8276 0 77.5092 0 74.654V55.6387C0 54.2642 1.28431 53.0011 2.40942 52.619C3.61412 52.2103 11.2404 52.4863 13.1403 52.4863C14.7112 52.4863 14.2601 52.5394 15.1146 51.7433C16.6112 50.3422 19.8963 50.8889 23.3087 50.8889C24.2162 50.8889 24.4338 51.3559 25.3466 51.5682C25.8827 51.2073 26.7636 49.992 27.22 49.371C30.0965 45.4756 32.3891 45.6349 34.1723 44.7751C34.1723 43.512 33.7955 41.957 33.7265 40.6993C33.3656 34.0654 33.493 28.1798 33.493 21.4664C33.493 18.367 35.4089 16.7219 37.6007 15.8409C49.2922 11.1441 45.3862 2 52.9594 2H96.8649C98.1439 2 99.5078 2.75361 100.214 3.41168C101.254 4.37757 101.567 4.78091 102.14 6.23505C103.451 9.59444 105.505 12.1471 108.493 14.1373C110.807 15.6764 115.875 16.6582 115.875 21.0153ZM37.3406 58.3559C37.3406 61.1952 40.6523 60.3939 45.7152 60.3939C47.3763 60.3939 49.0375 60.3992 50.6986 60.3939C52.6463 60.3832 54.1694 60.2187 54.2596 62.0019C54.3817 64.5493 50.0193 63.7904 45.9434 63.7904C44.208 63.7904 42.4726 63.7957 40.7372 63.7851C38.4392 63.7692 37.3406 63.7639 37.3406 65.823C37.3406 66.3696 37.8873 66.9056 38.3012 67.1285C38.8797 67.4417 39.4263 67.4257 40.2755 67.4204L49.34 67.4098C51.8396 67.3886 52.5083 67.3621 52.5083 69.4477C52.5083 71.5493 46.973 70.8064 44.813 70.8064C43.3005 70.8064 41.788 70.8117 40.2808 70.7957C35.913 70.7586 37.5158 73.4493 37.9403 73.8314C38.7417 74.5532 42.9131 74.1976 44.1337 74.1976C46.7554 74.1976 51.1497 73.5554 51.1497 76.0073C51.1497 76.4106 50.81 76.9838 50.55 77.2226C50.0033 77.7268 50.0564 77.5994 49.1277 77.61C44.7706 77.6684 46.9412 77.8648 41.8676 77.5941C38.004 77.3818 36.9161 78.0718 31.8425 76.0763C30.0752 75.3811 28.0745 74.3993 26.2541 73.9747V55.1876C29.8895 53.2664 30.5635 48.7554 34.8516 48.3998C35.2019 49.1269 35.1382 49.8911 35.5999 50.8199C37.139 53.8821 39.3945 53.3779 42.7751 53.3779C44.8873 53.3779 46.9995 53.3779 49.1118 53.3779C52.1527 53.3779 54.318 52.9109 54.318 55.1876C54.318 57.0716 52.7524 56.7797 50.9215 56.7744L40.9601 56.7691C40.1534 56.7638 37.3406 56.5674 37.3406 58.3559ZM40.0579 24.6347C40.0579 35.9335 39.49 38.794 42.0958 49.9814C40.6682 49.9814 40.0101 49.8487 38.9275 49.7585C37.7174 44.5575 37.9881 45.9427 37.277 40.5454L36.8895 30.0639C36.8895 18.6961 36.1943 20.6173 41.045 18.1495C44.5636 16.361 47.854 13.0706 49.6425 9.55198C50.7994 7.28055 50.6667 5.39653 54.0898 5.39653H95.5063C99.3964 5.39653 98.2023 7.87494 101.323 12.0251C103 14.2488 103.276 14.5831 105.462 16.2654C113.444 22.3951 112.484 14.6202 112.484 33.2322C112.484 44.1701 110.196 54.6834 105.086 63.8594C104.55 64.8253 104.035 65.6107 103.472 66.5448C102.331 68.4394 101.27 69.9042 99.9695 71.6449C97.8573 74.4736 96.4297 75.8799 93.9779 78.3318C93.5851 78.7245 93.3569 78.9633 92.9642 79.3508C92.4335 79.8762 92.2637 79.9239 91.7276 80.3803C90.9263 81.0543 90.385 81.5744 89.5252 82.2484C88.6177 82.9596 87.9808 83.4107 87.068 84.0953L76.7192 90.7185C73.5986 92.5229 69.9686 88.8717 65.5584 86.2659C63.685 85.1567 62.199 84.0051 60.4901 82.7367L55.9579 78.8997C54.8328 77.7693 54.5144 78.0771 54.5409 76.0126C54.5887 72.7965 53.3787 74.2453 54.318 72.839C55.2414 73.4599 55.6979 74.1657 56.4196 75.0361C57.1255 75.8905 57.9056 76.3045 58.6751 77.0793C60.9731 79.3932 71.9588 87.5502 74.4584 87.5502C76.8519 87.5502 78.8845 85.6662 81.3205 84.228C83.5229 82.9277 85.4388 81.4736 87.4608 79.9558C95.034 74.2825 101.785 64.7828 105.176 56.2543C106.975 51.7221 109.087 44.8653 109.087 38.8949C109.087 37.3823 108.127 37.308 107.049 37.308C105.34 37.308 105.404 42.0685 104.884 44.8759C103.233 53.7759 99.4282 61.5614 94.0522 68.4447C92.2159 70.801 89.0316 74.171 86.7178 76.0444C84.5419 77.8011 76.2946 83.9308 74.4584 83.9308C74.0179 83.9308 66.9329 79.3136 66.1157 78.6927L62.1831 75.6146C61.7373 75.2165 61.5091 74.8822 61.0421 74.4948C59.9064 73.5395 57.3271 71.0239 56.5629 69.9148L55.4484 66.2794C57.0989 65.8389 57.7092 63.334 57.7092 61.7525C57.7092 60.3408 56.6637 59.2316 56.7274 58.6266C56.8123 57.7881 57.9374 57.5493 57.9374 54.9594C57.9374 52.6986 56.0693 50.6129 54.1853 50.114C52.5561 49.6789 47.7425 49.9814 45.7152 49.9814C45.5613 48.1345 43.6773 43.4802 43.6773 37.308V24.6347C43.6773 23.9076 44.7493 23.4619 45.3331 23.1222C49.1171 20.9198 52.5932 17.3481 54.8116 13.5854C55.1512 13.0122 55.5758 11.9614 56.3559 11.9614H92.7944C94.0522 11.9614 93.9566 12.5611 94.4714 13.4474C96.573 17.0774 100.288 20.8879 103.891 23.0373C104.274 23.2655 104.465 23.3451 104.9 23.6158C105.293 23.8652 105.807 23.8705 105.929 25.3034C105.956 25.6537 105.924 26.2905 105.919 26.6673C105.887 30.6423 105.303 32.7811 107.729 32.7811C108.785 32.7811 109.315 32.2557 109.315 31.1996C109.315 17.6188 109.57 24.6825 100.882 16.0903C96.4456 11.7014 97.5867 8.33666 91.8869 8.33666H57.4863C52.8055 8.33666 52.5826 10.8257 51.3142 12.577C50.9905 13.0281 50.7623 13.3625 50.4704 13.7711C46.9783 18.6377 42.5522 20.3837 41.3475 21.6256C40.6417 22.3527 40.0579 23.2973 40.0579 24.6347Z" fill="#153540"/>
<path fill-rule="evenodd" clip-rule="evenodd" d="M74.0066 56.095C70.3182 56.095 69.1984 54.1101 66.03 50.9418C64.8413 49.7583 60.2029 45.7302 60.2029 44.3239C60.2029 43.4164 60.1126 42.9653 60.707 42.3443C61.4288 41.5854 62.0073 41.6066 62.9148 41.6066C64.1885 41.6066 64.9315 42.8963 65.6851 43.5915L70.557 48.2299C74.2295 51.9024 73.9482 50.2731 77.902 45.7302L86.1757 35.6733C88.548 32.9614 89.1159 31.1994 91.4351 31.1994C93.0749 31.1994 94.614 33.3913 93.0803 35.3337C92.6504 35.875 92.2683 36.3102 91.8543 36.825C91.0583 37.8333 90.3046 38.64 89.4927 39.6696C85.8149 44.3186 80.9376 49.7477 77.5358 54.1897C76.814 55.1291 75.551 56.095 74.0066 56.095ZM73.3273 45.9107L68.6305 41.5536C67.0119 40.057 65.7541 37.9872 62.6919 37.9872C59.359 37.9872 56.5781 40.593 56.5781 44.0957C56.5781 46.8766 58.0429 47.938 59.4652 49.3603L65.5736 55.4687C69.2408 59.1572 73.0832 61.4604 78.3584 58.1807C79.9983 57.1617 85.3213 50.2041 86.9771 48.2405C88.9248 45.9266 90.7133 43.7719 92.6185 41.4368C95.4366 37.9713 98.4563 35.6202 96.7846 31.2791C96.0788 29.464 93.7755 27.5747 91.2069 27.5747C87.8262 27.5747 86.2819 29.9417 84.5146 32.2025L74.2826 44.5998C73.6722 45.2898 73.7731 45.0616 73.3273 45.9107Z" fill="#ffc45f"/>
<rect width="9.24275" height="9.24275" transform="matrix(0.707103 -0.70711 0.707103 0.70711 3.03906 8.53564)" fill="#153540"/>
<rect width="5.18467" height="5.18467" transform="matrix(-0.707121 0.707092 0.707121 0.707092 3.66602 20.9375)" fill="#153540"/>
<rect width="5.18467" height="5.18467" transform="matrix(-0.707121 0.707092 0.707121 0.707092 24.666 5)" fill="#153540"/>
<rect width="5.18467" height="5.18467" transform="matrix(-0.707121 0.707092 0.707121 0.707092 125.666 86)" fill="#153540"/>
<rect width="5.18467" height="5.18467" transform="matrix(-0.707121 0.707092 0.707121 0.707092 112.666 79)" fill="#153540"/>
<rect width="5.18467" height="5.18467" transform="matrix(-0.707121 0.707092 0.707121 0.707092 17.666 90)" fill="#153540"/>
<rect width="5.18467" height="5.18467" transform="matrix(-0.707121 0.707092 0.707121 0.707092 121.666 71)" fill="#153540"/>
<rect width="5.18467" height="5.18467" transform="matrix(-0.707121 0.707092 0.707121 0.707092 116.666 0)" fill="#153540"/>
</svg>
