<svg width="283" height="281" viewBox="0 0 283 281" fill="none" xmlns="http://www.w3.org/2000/svg">
<path fill-rule="evenodd" clip-rule="evenodd" d="M28.0527 262.288H73.1166V271.309H28.0527V262.288ZM98.4736 226.226H91.158V217.225H109.18C108.545 219.961 108.03 222.022 106.126 223.747C104.302 225.393 101.725 226.226 98.4736 226.226ZM235.529 237.645L214.969 217.363L248.772 183.263L269.332 203.545L235.529 237.645ZM89.9089 199.203L134.537 199.183C147.205 199.183 152.776 203.406 159.973 209.255C162.927 211.634 164.87 213.577 168.22 215.639C173.197 218.672 172.285 214.965 172.285 229.616C172.285 248.47 150.417 244.267 137.352 244.267C120.837 244.267 104.302 244.267 87.7678 244.267C88.4815 241.253 89.334 238.26 90.0279 235.246C100.099 235.246 109.1 236.674 115.286 227.276C121.333 218.077 117.268 208.204 110.31 208.204H90.583L89.9089 199.203ZM10.0312 177.216C10.0312 164.389 18.2192 149.421 28.0527 142.839L28.1717 206.955C29.6388 215.916 41.4747 220.813 49.3059 214.251C51.7841 212.189 52.1013 210.801 53.5882 207.827C56.1656 202.673 57.8706 198.489 59.8135 192.641C61.9745 186.138 66.1181 166.649 68.4972 164.687C71.2529 162.446 74.6828 162.902 76.9627 165.48C78.4497 167.165 78.0135 168.116 78.3109 170.912L81.2451 208.521C83.4854 223.49 81.2451 235.722 76.1102 248.926C75.4163 250.73 75.0595 253.268 73.1166 253.268H28.0527C26.2486 253.268 26.1495 251.781 25.5349 250.155C19.6466 234.414 19.8449 238.299 16.4547 218.097C15.4039 211.792 10.0312 182.51 10.0312 177.216ZM199.327 118.612C199.327 116.252 202.043 113.536 204.402 113.536C207.812 113.536 225.378 132.549 228.768 135.939C242.19 149.361 244.411 151.84 244.411 173.826C244.411 175.868 219.173 199.897 215.822 203.267C204.402 214.687 210.33 212.704 192.011 212.704C166.734 212.704 167.17 194.425 142.685 190.48C137.986 189.707 132.812 191.154 131.939 186.574C131.265 183.124 135.865 180.666 138.482 179.457C147.622 175.214 155.651 176.166 164.235 180.765C167.289 182.411 170.6 186.772 173.97 189.052L180.294 182.411L125.1 131.439C121.769 128.168 115.385 123.469 119.766 119.623C124.624 115.36 129.085 121.546 133.823 126.086C135.29 127.494 136.043 127.751 137.51 129.159L178.49 166.511L184.815 159.869C183.189 158.759 163.284 139.924 163.284 136.653C163.284 134.294 165.98 131.578 168.339 131.578C171.67 131.578 190.465 151.522 191.436 152.989L198.336 146.368C196.71 145.238 176.805 126.403 176.805 123.132C176.805 120.773 179.521 118.057 181.861 118.057C185.052 118.057 191.615 125.828 193.835 128.049C196.69 130.904 203.074 136.633 204.977 139.468L211.857 132.827C209.279 131.062 207.297 128.544 205.116 126.363C203.451 124.698 199.327 121.308 199.327 118.612ZM109.754 117.938C109.338 123.251 107.534 128.306 114.671 134.532L132.693 150.888C134.794 152.652 136.281 154.694 138.343 156.499L147.166 164.568C148.851 165.856 149.188 165.955 150.318 167.641C138.244 167.641 119.529 174.143 123.276 190.163H89.4728C85.4878 173.073 93.4577 163.001 77.0222 154.714L76.3085 154.318C76.2292 154.278 76.0508 154.199 75.9516 154.119H68.6161L67.5257 154.714C61.241 157.847 59.0601 159.492 56.9983 167.859L55.2734 174.024C55.2536 174.104 55.1743 174.282 55.095 174.401V46.5056H154.263V131.578C149.168 128.168 150.08 127.652 146.69 125.055C144.886 123.667 144.39 123.132 142.844 121.566L140.266 119.068C140.187 118.988 140.048 118.889 139.969 118.81L139.057 117.977C134.477 115.459 132.633 109.631 124.366 109.095C114.037 108.441 111.42 116.213 109.754 117.938ZM82.1373 13.813V10.4426H127.221C127.221 13.4363 127.756 18.8884 122.701 18.8884H86.6575C83.7431 18.8884 82.1373 16.5489 82.1373 13.813ZM181.305 81.9936C177.439 81.8944 175.576 81.4186 172.285 80.3282L172.324 109.075C172.344 112.684 172.721 111.97 171.056 114.012C169.212 116.252 167.784 118.631 167.784 122.557C165.088 122.557 165.445 122.934 163.284 123.132L163.264 73.5478C162.848 71.6842 162.134 71.1291 161.361 69.2655C160.726 67.7191 160.449 66.4304 160.072 64.9038C159.299 61.8705 158.546 58.857 157.812 55.9029C156.285 49.7768 154.085 43.6308 154.422 36.9099H46.0743V191.868C46.0743 195.535 46.8277 205.389 42.6246 207.629C34.0599 212.189 37.0734 188.834 37.0734 181.717L37.0536 26.204C37.014 18.591 39.968 12.2468 47.4224 10.6409C51.685 9.72889 67.6248 10.4426 73.1166 10.4426C73.1166 16.8463 73.1166 23.7258 81.2253 27.1359C86.3007 29.2572 123.058 29.2572 128.133 27.1359C130.69 26.0653 133.407 23.5672 134.656 21.2476C136.539 17.7385 136.222 15.4982 136.222 10.4426C143.359 10.4426 150.516 10.4823 157.653 10.4228C163.839 10.3831 169.906 12.6234 171.155 19.1263L180.75 18.8884C180.592 11.8106 172.602 4.27682 166.892 2.31408C159.22 -0.342567 147.047 0.8668 137.352 0.8668C126.666 0.8668 51.9427 -0.0848334 45.083 1.54087C37.5096 3.34501 31.6214 9.19359 29.0044 16.4696C26.9822 22.12 28.0527 67.7191 28.0527 77.4931V123.687C28.0924 131.141 28.6475 129 23.1161 134.532C20.4397 137.208 18.1994 139.468 15.5229 142.145C12.4697 145.198 10.8242 147.141 8.42529 150.828C5.05492 156.062 0.990655 165.955 0.990655 174.381C0.97083 188.537 6.34359 213.973 8.72268 228.644C10.2096 237.685 13.2826 244.782 16.2168 252.158C18.2588 257.213 19.0717 257.312 19.032 264.549C19.0122 269.802 19.032 275.056 19.032 280.31H82.1373C82.1373 277.297 81.82 260.782 82.395 258.581C82.851 256.757 83.9414 255.171 84.3974 253.268C105.809 253.268 127.221 253.268 148.633 253.268C162.094 253.268 167.249 254.12 174.406 246.943C182.059 239.271 181.305 235.504 181.305 221.15L201.587 221.705C208.11 221.646 205.969 221.309 214.414 229.755L235.39 250.453L282.298 203.842C279.819 200.214 259.696 181.459 254.641 175.987C250.438 171.447 258.626 159.096 246.195 141.074C243.281 136.851 226.825 121.03 222.008 116.213C218.181 112.386 214.018 106.756 208.447 104.991C201.448 102.751 193.24 107.172 192.011 112.426C188.125 111.375 188.641 109.036 181.305 109.036V81.9936Z" fill="#FEFEFE"/>
<path fill-rule="evenodd" clip-rule="evenodd" d="M244.411 54.9513H253.411L253.431 63.9522H244.411V54.9513ZM181.305 54.9513H235.39V63.9522H234.26H181.305V54.9513ZM181.305 36.9297H253.411L253.431 45.9306H181.305V36.9297ZM154.422 36.9099C154.085 43.6308 156.285 49.7768 157.812 55.9029C158.545 58.857 159.299 61.8705 160.072 64.9038C160.449 66.4304 160.726 67.719 161.361 69.2654C162.134 71.1291 162.848 71.6842 163.264 73.5478C164.691 74.5787 165.247 76.0062 167.209 77.4931C168.756 78.6827 170.005 79.7334 172.285 80.3282C175.576 81.4186 177.439 81.8944 181.305 81.9935H190.326C190.326 86.7517 190.405 90.8755 195.738 94.0277C207.118 100.749 218.3 83.1038 224.169 82.0332C232.257 80.5661 256.227 84.7493 265.247 79.1585C274.169 73.6073 274.744 65.4193 277.083 56.0814C279.482 46.5055 283.428 36.672 277.103 27.8892C269.728 17.6393 262.115 18.8883 251.171 18.8883C227.697 18.8883 204.224 18.928 180.75 18.8883L171.155 19.1262C165.068 20.6132 164.176 21.089 160.032 25.2127C157.435 27.8099 154.223 32.1121 154.422 36.9099Z" fill="#ffc45f"/>
<path fill-rule="evenodd" clip-rule="evenodd" d="M68.616 154.119H75.9515H100.179V127.057H64.1156V154.119H68.616Z" fill="#ffc45f"/>
<path fill-rule="evenodd" clip-rule="evenodd" d="M64.1156 81.9935H100.179V54.9513H64.1156V81.9935Z" fill="#ffc45f"/>
<path fill-rule="evenodd" clip-rule="evenodd" d="M109.179 81.9935H145.242V54.9513H109.179V81.9935Z" fill="#ffc45f"/>
<path fill-rule="evenodd" clip-rule="evenodd" d="M64.1156 118.057H100.179V91.0143H64.1156V118.057Z" fill="#ffc45f"/>
<path fill-rule="evenodd" clip-rule="evenodd" d="M109.754 117.938C111.42 116.213 114.037 108.441 124.366 109.095C132.633 109.631 134.477 115.459 139.057 117.977L145.242 118.057V91.0143H109.179L109.754 117.938Z" fill="#ffc45f"/>
<path fill-rule="evenodd" clip-rule="evenodd" d="M181.305 45.9306H253.431L253.411 36.9297H181.305V45.9306Z" fill="#FEFEFE"/>
<path fill-rule="evenodd" clip-rule="evenodd" d="M136.222 221.15V217.225H145.242V221.15C145.242 223.668 142.962 226.226 140.742 226.226C138.501 226.226 136.222 223.668 136.222 221.15ZM127.221 216.095V222.855C127.221 229.754 133.129 235.246 141.872 235.246C148.057 235.246 154.263 229.041 154.263 222.855V216.095C154.263 212.566 149.881 208.204 146.372 208.204H135.111C131.582 208.204 127.221 212.566 127.221 216.095Z" fill="#FEFEFE"/>
<path fill-rule="evenodd" clip-rule="evenodd" d="M181.305 63.9522H234.26H235.39V54.9513H181.305V63.9522Z" fill="#FEFEFE"/>
<path fill-rule="evenodd" clip-rule="evenodd" d="M244.41 63.9522H253.431L253.411 54.9513H244.41V63.9522Z" fill="#FEFEFE"/>
</svg>
