<svg width="104" height="213" viewBox="0 0 104 213" fill="none" xmlns="http://www.w3.org/2000/svg">
<path fill-rule="evenodd" clip-rule="evenodd" d="M53.8147 142.111C37.1562 142.111 25.4752 136.094 15.9394 123.273C12.8892 119.184 10.4759 113.134 9.2693 108.09C5.5488 92.571 11.1966 76.851 20.5146 67.6336C38.5137 49.8188 65.8141 49.7853 83.5451 67.4325C89.1761 73.0132 93.1145 80.471 95.0083 88.3142C98.4439 102.66 93.9189 118.665 83.7462 128.77C76.0874 136.396 65.7638 142.111 53.8147 142.111ZM0.873047 97.1462C0.873047 102.878 1.07415 105.71 2.46515 111.106C2.95116 113 3.35338 114.09 3.9567 115.916C4.59354 117.776 5.21362 118.782 5.85047 120.324C7.3085 123.877 10.7273 128.871 13.3752 131.72C16.9282 135.524 15.3696 134.418 19.7101 137.971C25.7099 142.865 33.2514 146.702 40.8935 148.311C49.1557 150.071 55.1051 150.121 63.317 148.261C69.4341 146.87 75.9868 144.289 80.9475 140.686C82.2379 139.748 83.3943 138.926 84.5507 137.971C88.003 135.156 91.3548 131.67 93.9022 127.999C106.22 110.168 106.874 85.7501 94.0362 68.6894L89.6454 63.4271C69.3 41.808 36.4691 41.5901 16.3081 61.7512C6.9398 71.1362 0.873047 82.8172 0.873047 97.1462Z" fill="#153540"/>
<path fill-rule="evenodd" clip-rule="evenodd" d="M47.9322 71.9406C34.2234 75.1416 33.1843 95.487 46.3066 100.464C50.9656 102.241 53.2448 101.168 55.6581 102.459C63.0656 106.414 60.6355 117.324 51.7198 117.324C48.5188 117.324 46.2396 115.212 45.1167 113C43.3738 109.632 45.3011 105.978 40.3739 105.978C33.3854 105.978 37.6422 121.648 47.9322 124.044C47.9322 127.865 47.9825 131.184 51.7198 131.184C55.876 131.184 55.4905 126.776 55.4905 124.044C61.1886 123.91 67.2553 117.29 67.2553 108.911C67.2553 100.565 60.602 95.4367 53.647 94.3809C50.7477 93.9284 48.1501 94.5317 45.7368 90.9621C39.1003 81.1748 54.552 73.3819 59.1608 82.9848C60.954 86.7556 58.8088 90.0068 64.3225 90.0068C68.8307 90.0068 67.8252 81.2083 63.5851 76.4656C60.0825 72.5272 58.658 73.0467 55.4905 71.5217C55.4905 67.9185 55.2056 64.8013 51.7198 64.8013C47.9825 64.8013 47.9322 68.1196 47.9322 71.9406Z" fill="#ffc45f"/>
<path fill-rule="evenodd" clip-rule="evenodd" d="M48.3516 4.72036V36.6462C48.3516 42.1767 55.9099 42.1767 55.9099 36.6462V4.72036C55.9099 2.0054 54.5189 0.463577 52.9268 0.0948792H51.3514C49.7593 0.463577 48.3516 2.0054 48.3516 4.72036Z" fill="#ffc45f"/>
<path fill-rule="evenodd" clip-rule="evenodd" d="M74.8303 22.3675C74.8303 26.2891 74.1264 37.5344 75.7521 39.512C77.8804 42.0929 82.3886 40.7186 82.3886 36.6462V22.3675C82.3886 16.0829 74.8303 16.0829 74.8303 22.3675Z" fill="#ffc45f"/>
<path fill-rule="evenodd" clip-rule="evenodd" d="M21.8887 22.3675V36.6462C21.8887 42.1767 29.447 42.1767 29.447 36.6462V22.3675C29.447 16.0829 21.8887 16.0829 21.8887 22.3675Z" fill="#ffc45f"/>
<path fill-rule="evenodd" clip-rule="evenodd" d="M48.3516 207.99V176.064C48.3516 170.534 55.9099 170.534 55.9099 176.064V207.99C55.9099 210.688 54.5189 212.23 52.9268 212.616H51.3514C49.7593 212.23 48.3516 210.688 48.3516 207.99Z" fill="#ffc45f"/>
<path fill-rule="evenodd" clip-rule="evenodd" d="M74.8303 190.343C74.8303 186.405 74.1264 175.159 75.7521 173.198C77.8804 170.618 82.3886 171.992 82.3886 176.064V190.343C82.3886 196.627 74.8303 196.627 74.8303 190.343Z" fill="#ffc45f"/>
<path fill-rule="evenodd" clip-rule="evenodd" d="M21.8887 190.343V176.064C21.8887 170.534 29.447 170.534 29.447 176.064V190.343C29.447 196.628 21.8887 196.628 21.8887 190.343Z" fill="#ffc45f"/>
</svg>
