<svg width="83" height="91" viewBox="0 0 83 91" fill="none" xmlns="http://www.w3.org/2000/svg">
<path fill-rule="evenodd" clip-rule="evenodd" d="M35.0726 29.2926H38.9567V30.8369H35.0726C34.9522 30.8369 34.9155 30.8735 34.9155 30.9939V33.2867H38.9567V34.8833H34.9155V37.1709C34.9155 37.2913 34.9522 37.3279 35.0726 37.3279H38.9567V38.8722H35.0726C35.0726 39.9976 36.1771 41.5419 36.9466 42.3219C37.6376 43.0181 38.5327 43.4787 39.4697 43.7876C39.8466 43.9132 40.1712 43.9446 40.5533 44.0336V47.3367H34.9155V48.8234C34.9155 48.949 34.9522 48.9857 35.0726 48.9857H47.6307C47.7563 48.9857 47.793 48.949 47.793 48.8234V47.3367H42.1499V44.0336C42.5373 43.9446 42.8619 43.9132 43.2388 43.7876C44.8929 43.2379 46.0132 42.3428 46.9292 40.83C47.1543 40.4688 47.6307 39.4113 47.6307 38.8722H43.7465V37.3279H47.6307C47.7563 37.3279 47.793 37.2913 47.793 37.1709V34.8833H43.7465V33.2867H47.793V30.9939C47.793 30.8735 47.7563 30.8369 47.6307 30.8369H43.7465V29.2926H47.6307C47.6307 28.6854 47.102 27.6227 46.8507 27.1987C45.0709 24.2149 41.1501 23.147 38.004 25.0368C37.156 25.5498 36.3708 26.3297 35.8525 27.1987C35.6013 27.6227 35.0726 28.6854 35.0726 29.2926Z" fill="#ffc45f"/>
<path fill-rule="evenodd" clip-rule="evenodd" d="M41.3857 14.8553C39.6007 14.8605 38.2554 15.0123 36.7321 15.7818C35.9416 16.1797 34.434 17.08 33.9629 17.7867L35.6432 19.4985C36.8211 18.6609 37.2241 18.0014 39.2761 17.5093C41.3543 17.012 43.4063 17.436 45.1652 18.5876L46.2488 19.4409L47.9606 17.7606C46.9555 16.2896 43.6105 14.8448 41.3857 14.8553Z" fill="#ffc45f"/>
<path fill-rule="evenodd" clip-rule="evenodd" d="M41.0768 19.7029C40.077 19.7029 39.5954 19.8233 38.7945 20.1688C38.3809 20.3468 37.491 20.9383 37.2869 21.2472L38.9672 22.9589C39.14 22.9066 40.5062 21.6502 42.1395 22.4407C42.8147 22.7705 42.5687 22.828 42.9456 22.9275L44.6574 21.2472C44.092 20.4305 42.3646 19.6977 41.0768 19.7029Z" fill="#ffc45f"/>
<path fill-rule="evenodd" clip-rule="evenodd" d="M28.4035 67.742C28.4035 68.7732 28.838 69.5061 29.8116 69.5061C30.7329 69.5061 31.2355 68.2131 31.5757 67.564H45.1599C44.7411 68.3544 44.2804 68.9355 43.6941 69.6317C42.1918 71.4167 39.632 73.029 37.2868 73.8038C35.1301 74.5262 33.8528 74.6413 31.0365 74.6099C28.7071 74.589 29.0578 76.1175 26.8121 77.6199L14.2488 64.9623C14.6989 64.643 16.6881 62.7218 16.9656 62.3031C17.6461 61.2823 17.2901 58.6911 17.2901 57.1573L17.2797 29.9838C17.2901 26.2148 22.4149 26.2515 22.8965 29.6802C23.0955 31.1355 22.8023 42.8089 22.9227 45.7037C23.0222 48.0384 25.5034 46.7664 28.3721 51.017C34.0727 59.4554 28.4035 67.543 28.4035 67.742ZM28.0475 0.533203H31.8479C32.5756 0.653602 32.9891 0.98339 32.9891 1.7686C32.9891 5.48526 25.7547 0.203415 25.7547 6.53221H58.2101C58.2101 3.77874 57.3359 3.16104 54.3311 3.17674L39.1452 3.19245C36.7162 3.15057 37.559 0.533203 38.6321 0.533203H56.2732C58.3933 0.533203 61.0368 2.86789 61.0368 5.64754V15.8814C63.1988 15.9286 65.4445 18.279 65.4445 20.4671C65.4445 23.6812 65.1827 22.7075 64.0311 24.8747C64.4027 25.5814 64.7482 25.8641 65.0937 26.6388C66.0255 28.6961 65.5125 31.3553 63.8583 32.4598C64.5807 33.5434 65.6434 34.7213 65.591 36.5011C65.5282 38.6735 64.5284 39.4011 63.8583 40.4009C65.7899 41.6939 66.371 45.3949 64.1724 47.7714C63.4448 48.5514 62.3612 49.2843 61.0368 49.3942C61.0368 51.9854 61.0368 54.5714 61.0368 57.1573C61.0368 61.2456 61.7121 64.376 58.7492 66.5118C57.8646 67.1504 57.2364 67.2918 55.8492 67.4959C54.0118 67.7734 50.3789 67.564 48.3321 67.564C46.8036 70.464 44.6259 72.9453 41.8201 74.6309C39.7629 75.8715 36.8 77.1278 34.2193 77.2639C31.7432 77.3896 33.6539 77.5885 31.1831 77.2221L28.7542 79.7347C29.351 80.8602 29.9896 82.2526 29.9896 83.9696C29.9896 86.5347 27.9742 89.1939 25.9327 90.1466C24.9538 90.5968 23.9854 90.8114 23.064 90.8481H22.4464C18.96 90.7067 16.3008 88.1574 16.7353 86.9587C17.332 85.3307 18.6616 85.9798 19.5358 86.8383C22.6662 89.9058 27.1681 87.2989 27.1681 83.9696C27.1681 81.0068 25.3045 79.9022 23.42 78.0177L12.1339 66.7212C9.47991 64.0515 4.58544 65.8889 4.58544 69.8568C4.58544 72.6312 6.8259 74.1283 9.21818 76.5154C10.15 77.4524 14.4634 81.3156 14.4634 82.3835C14.4634 83.242 13.4007 83.9906 12.5527 83.6084C12.0188 83.3676 11.1969 82.3783 10.7153 81.8967C9.50085 80.677 8.40679 79.5882 7.1871 78.3685C5.0618 76.2432 1.76392 73.898 1.76392 69.8568C1.76392 66.3548 4.86288 62.8004 8.46961 62.8004C11.2178 62.8004 9.93534 62.8108 12.1706 63.3291C12.5684 62.7375 13.0919 62.3083 13.6311 61.7901C14.411 61.031 14.4896 61.2666 14.4739 59.8113L14.4634 30.6957C14.4477 28.1883 15.1073 26.8639 16.7091 25.5343C17.0755 25.2307 17.1017 25.215 17.5728 24.9846C19.3997 24.1052 21.1586 24.1157 22.9332 25.0527C22.9332 20.1163 22.9332 15.1748 22.9332 10.2332C22.9332 7.76761 22.6714 5.1293 23.5456 3.44372C24.3309 1.93088 25.8594 0.533203 28.0475 0.533203ZM33.5178 58.7434H58.2101C58.2101 63.9101 58.6812 64.7425 53.6244 64.7425H32.8111C33.0362 63.7793 33.2718 63.0307 33.4498 61.8529C33.5754 61.0101 33.7167 59.1936 33.5178 58.7434ZM55.5665 44.2799C55.5665 41.2542 58.409 41.8091 60.6808 41.8091C63.4553 41.8091 63.717 46.7507 60.1521 46.7507C58.4351 46.7507 55.5665 46.9601 55.5665 44.2799ZM55.5665 36.6947C55.5665 33.4806 58.2624 34.0512 60.6808 34.0512C63.4081 34.0512 63.7484 38.9876 60.1521 38.9876C58.7754 38.9876 55.5665 39.2545 55.5665 36.6947ZM55.5665 28.9316C55.5665 25.8588 58.1734 26.2881 60.3301 26.2881C63.8531 26.2881 63.2982 31.2297 60.5081 31.2297H57.8593C56.7757 31.2297 55.5665 30.0152 55.5665 28.9316ZM55.5665 20.9958C55.5665 18.0591 58.8906 18.525 60.5081 18.525C63.4396 18.525 63.6751 23.4666 60.3301 23.4666C58.4351 23.4666 55.5665 23.8854 55.5665 20.9958ZM52.745 20.9958C52.745 22.9745 53.8338 23.9325 54.3311 24.8747C53.4831 26.4765 51.9545 27.9266 53.2685 30.879C53.6192 31.6589 53.8286 32.0044 54.5091 32.4598C53.3313 34.2187 52.0017 35.7891 53.2685 38.6368C53.6192 39.422 53.8286 39.7675 54.5091 40.223C53.9595 41.0396 52.745 42.165 52.745 44.1019C52.745 46.8972 54.8127 49.3942 58.2101 49.3942V55.9219H33.6906C33.031 55.9219 33.099 55.0948 32.9158 54.4091C32.4866 52.8334 31.5286 50.7134 30.623 49.4675C29.843 48.3996 29.2515 47.8761 28.3564 46.9705C26.8069 45.3949 25.7547 45.5519 25.7547 44.8086V9.17575H58.2101V15.7035C55.0902 15.7715 52.745 18.3418 52.745 20.9958Z" fill="#153540"/>
<path fill-rule="evenodd" clip-rule="evenodd" d="M73.9146 65.4495C73.9146 67.177 76.7361 67.177 76.7361 65.4495C76.7361 63.6435 73.9146 63.5022 73.9146 65.4495Z" fill="#153540"/>
<path fill-rule="evenodd" clip-rule="evenodd" d="M63.8584 76.2062C63.8584 77.9912 66.6799 77.9912 66.6799 76.2062C66.6799 74.5363 63.8584 74.2693 63.8584 76.2062Z" fill="#153540"/>
<path fill-rule="evenodd" clip-rule="evenodd" d="M0 43.929C0 45.5308 2.50744 45.96 2.72206 44.0284C2.91575 42.2957 0 41.8455 0 43.929Z" fill="#153540"/>
<path fill-rule="evenodd" clip-rule="evenodd" d="M2.64893 58.3928C2.64893 60.2302 5.37622 60.2092 5.42333 58.3718C5.47045 56.5868 2.64893 56.6339 2.64893 58.3928Z" fill="#153540"/>
<path fill-rule="evenodd" clip-rule="evenodd" d="M69.5017 70.9142C69.5017 74.4529 73.5272 71.8669 71.7526 70.2546C70.847 69.4275 69.5017 70.1395 69.5017 70.9142Z" fill="#153540"/>
<path fill-rule="evenodd" clip-rule="evenodd" d="M5.99902 22.7598C5.99902 24.6652 8.63733 24.5763 8.77343 22.9116C8.92524 21.0166 5.99902 21.1004 5.99902 22.7598Z" fill="#153540"/>
<path fill-rule="evenodd" clip-rule="evenodd" d="M79.3794 51.6872C79.3794 52.3887 80.1803 53.1006 80.9655 53.1006C81.5518 53.1006 82.2009 52.2787 82.2009 51.6872C82.2009 49.9597 79.3794 49.9597 79.3794 51.6872Z" fill="#153540"/>
<path fill-rule="evenodd" clip-rule="evenodd" d="M77.6155 29.6385C77.6155 32.5647 81.5258 30.8791 80.0496 28.9737C79.2225 27.9006 77.6155 28.8219 77.6155 29.6385Z" fill="#153540"/>
<path fill-rule="evenodd" clip-rule="evenodd" d="M5.47014 29.4651C5.47014 28.7061 4.92572 28.0518 4.23474 28.0518C3.02552 28.0518 2.21413 29.3186 3.03599 30.3079C3.84213 31.2868 5.47014 30.5854 5.47014 29.4651Z" fill="#153540"/>
<path fill-rule="evenodd" clip-rule="evenodd" d="M64.5649 11.997C64.5649 14.3841 67.2085 13.6303 67.2085 12.531C67.2085 9.7461 64.5649 10.9187 64.5649 11.997Z" fill="#153540"/>
<path fill-rule="evenodd" clip-rule="evenodd" d="M58.9168 81.3263C60.8379 81.3263 60.7542 78.6775 58.9168 78.6775C57.1631 78.6775 57.1003 81.3263 58.9168 81.3263Z" fill="#153540"/>
<path fill-rule="evenodd" clip-rule="evenodd" d="M35.9888 83.7915C35.9888 85.6499 38.6323 85.6917 38.6323 83.7915C38.6323 81.9751 35.9888 82.0379 35.9888 83.7915Z" fill="#153540"/>
<path fill-rule="evenodd" clip-rule="evenodd" d="M0.706787 36.5166C0.706787 38.375 3.35556 38.4168 3.35556 36.5166C3.35556 34.7002 0.706787 34.763 0.706787 36.5166Z" fill="#153540"/>
<path fill-rule="evenodd" clip-rule="evenodd" d="M79.5576 36.8726C79.5576 37.7259 80.1125 38.2807 80.9658 38.2807C82.8503 38.2807 82.6618 35.6372 80.9658 35.6372C80.212 35.6372 79.5576 36.1816 79.5576 36.8726Z" fill="#153540"/>
<path fill-rule="evenodd" clip-rule="evenodd" d="M10.5847 16.588C10.5847 17.991 10.7679 18.1742 12.1708 18.1742C13.5737 18.1742 13.6156 15.5254 11.9981 15.5254C11.3542 15.5254 10.5847 16.0122 10.5847 16.588Z" fill="#153540"/>
<path fill-rule="evenodd" clip-rule="evenodd" d="M0.706787 51.3362C0.706787 52.2837 1.56005 52.6763 2.08876 52.6501C3.91044 52.5559 3.66965 49.9229 2.12017 49.9229C1.2669 49.9229 0.706787 50.483 0.706787 51.3362Z" fill="#153540"/>
<path fill-rule="evenodd" clip-rule="evenodd" d="M78.5003 60.1568C80.7355 60.1568 80.4581 57.5081 78.673 57.5081C76.5582 57.5081 77.3539 60.1568 78.5003 60.1568Z" fill="#153540"/>
<path fill-rule="evenodd" clip-rule="evenodd" d="M81.4994 45.6932C83.3525 45.6932 83.3944 43.0444 81.4994 43.0444C79.6463 43.0444 79.8505 45.6932 81.4994 45.6932Z" fill="#153540"/>
<path fill-rule="evenodd" clip-rule="evenodd" d="M70.0303 16.9386C70.0303 19.378 72.679 18.8703 72.679 17.2894C72.679 15.2635 70.0303 15.7451 70.0303 16.9386Z" fill="#153540"/>
<path fill-rule="evenodd" clip-rule="evenodd" d="M50.6252 82.5561C50.6252 83.4094 51.1854 83.9695 52.0386 83.9695C53.6405 83.9695 54.1325 81.3259 51.6879 81.3259C51.1854 81.3259 50.6252 82.0588 50.6252 82.5561Z" fill="#153540"/>
<path fill-rule="evenodd" clip-rule="evenodd" d="M74.4434 23.1103C74.4434 24.9373 77.0869 25.199 77.0869 22.9376C77.0869 21.7179 74.4434 21.2311 74.4434 23.1103Z" fill="#153540"/>
<path fill-rule="evenodd" clip-rule="evenodd" d="M16.0547 11.8243C16.0547 14.0282 18.6982 13.4 18.6982 11.9971C18.6982 10.6622 17.2116 10.1754 16.4002 10.9344C16.1384 11.1805 16.0547 11.3166 16.0547 11.8243Z" fill="#153540"/>
<path fill-rule="evenodd" clip-rule="evenodd" d="M43.396 83.6186C43.396 85.7334 46.0395 85.8224 46.0395 83.6186C46.0395 82.2105 43.396 82.2105 43.396 83.6186Z" fill="#153540"/>
</svg>
