<svg width="289" height="296" viewBox="0 0 289 296" fill="none" xmlns="http://www.w3.org/2000/svg">
<path fill-rule="evenodd" clip-rule="evenodd" d="M200.945 149.021C235.118 140.576 274.955 169.674 279.598 207.884C284.419 247.603 258.593 281.482 222.323 286.42C157.17 295.257 119.705 223.756 157.248 174.631C169.574 158.505 182.036 153.704 200.945 149.021ZM195.556 56.6511C159.345 61.2363 150.331 53.7707 155.132 17.2656C158.992 18.069 194.694 54.9072 195.556 56.6511ZM152.271 0.649179C135.087 0.178904 25.5909 -0.97719 17.4003 1.74649C-4.01684 8.89859 0.52916 29.336 0.52916 52.9281C0.52916 57.1018 -1.05802 66.7425 1.68525 69.4857C7.62248 75.4622 8.54344 65.4884 8.50425 61.7066C8.21033 39.1922 3.35081 11.5439 23.9842 9.74117C34.3694 8.83981 111.357 9.68239 125.74 9.68239C147.059 9.68239 146.06 7.78169 146.275 14.973C146.628 26.6515 143.904 44.3652 149.313 53.5944C161.599 74.5804 188.149 62.0005 202.924 66.8796L202.571 138.146C199.436 140.909 198.437 139.459 189.678 142.065C145.374 155.272 139.535 192.6 134.969 198.988L127.17 198.949C125.858 194.599 127.66 190.288 124.466 188.72C119.705 186.408 118.098 190.111 117.726 193.619C117.079 199.713 118.803 199.184 111.279 199.086C99.4634 198.929 100.326 199.987 99.3654 193.658C99.0127 191.444 99.0519 190.484 98.4052 188.622L92.4876 188.642C90.6065 193.736 92.6836 195.833 90.1558 198.086C87.7849 200.124 77.38 199.439 74.4212 198.674L73.3239 194.559C72.9124 192.13 73.4611 186.702 65.7995 189.014C64.0751 192.345 65.1137 196.088 63.5657 198.694C60.2346 199.497 54.023 199.419 50.0061 199.164C43.9905 198.792 47.1648 195.951 45.4405 189.367C41.7566 187.819 41.8742 187.858 38.112 189.308C37.9161 190.425 37.5634 197.989 36.466 198.733C32.3119 199.595 24.9247 197.322 24.6504 203.338C24.376 209.432 31.195 208.178 36.4856 208.139H133.891C133.617 217.897 133.97 223.893 134.891 233.357C111.945 234.905 84.2186 233.573 60.744 233.573C29.0788 233.573 8.34749 240.098 8.42587 212.058L8.28871 83.0454C7.15221 78.1075 0.744703 76.8338 0.450781 85.8278C-0.607339 118.218 0.52916 161.934 0.52916 196.499C0.52916 214.174 -4.17359 242.684 27.7268 242.743C42.7168 242.763 130.306 241.842 137.379 243.213C141.102 248.994 143.023 255.774 147 261.593C158.463 278.347 174.609 289.34 196.164 294.101C218.012 298.921 242.858 292.142 259.671 278.993C310.402 239.334 294.784 143.593 212.486 138.832C209.527 130.857 212.819 78.3818 211.742 63.5681C211.115 55.0836 162.088 14.15 152.271 0.649179Z" fill="#153540"/>
<path fill-rule="evenodd" clip-rule="evenodd" d="M245.916 258.556C236.491 253.383 233.67 269.059 206.217 266.453C163.422 262.377 144.023 204.572 185.329 176.552C207.922 161.248 242.115 169.713 255.165 196.107C268.705 223.52 250.952 246.348 250.521 247.681C249.189 251.835 251.932 254.715 256.066 253.207C259.339 252.011 264.159 241.724 265.844 236.669C270.782 221.796 269.371 206.277 263.121 192.992C257.399 180.843 249.091 172.378 237.157 166.578C178.804 138.205 123.919 212.528 172.769 260.065C188.19 275.074 211.547 279.131 232.494 271.293C242.154 267.687 246.955 265.159 245.916 258.556Z" fill="#153540"/>
<path fill-rule="evenodd" clip-rule="evenodd" d="M117.982 103.796C111.653 105.991 91.9601 147.297 85.0039 155.448C78.1262 153.058 72.6004 139.439 63.6652 139.008C60.3537 141.046 56.5327 148.218 54.4752 151.431L48.0089 161.424C45.8339 164.54 48.1853 162.541 45.2265 164.423C41.5035 162.835 38.3683 158.74 35.4683 155.82C32.529 152.842 29.4331 147.238 23.8877 150.06C20.1647 156.683 29.6682 161.307 32.7838 164.325C35.7622 167.185 41.9541 175.18 46.2062 176.571C53.9266 173.789 59.2956 156.369 65.6051 150.863C70.6605 153.567 76.8721 162.169 81.5944 166.029C88.8249 171.967 93.2925 160.014 96.3885 154.527C99.8176 148.433 116.689 118.59 119.922 115.906C138.537 127.604 124.86 142.888 162.991 103.757C165.617 101.072 181.842 86.298 181.724 83.0453C181.567 78.8912 177.021 78.6168 173.925 80.6547L153.841 100.445C150.607 103.973 150.392 104.482 147.139 107.304C140.849 112.829 137.871 120.373 132.561 116.063C128.681 112.927 123.057 104.345 117.982 103.796Z" fill="#153540"/>
<path fill-rule="evenodd" clip-rule="evenodd" d="M71.4042 70.0147C72.5799 81.2817 66.3684 80.6743 56.8649 80.6939C42.3451 80.7331 46.7344 81.8304 46.2445 66.5072C50.9865 65.841 55.9635 66.0761 60.7839 66.0957C68.4062 66.1153 66.9366 66.1349 71.4042 70.0147ZM46.5384 46.4813C52.652 45.5212 65.1535 43.9144 64.742 51.9091C64.3697 58.9632 52.652 57.4936 46.3229 56.6314L46.5384 46.4813ZM41.9728 37.0562L31.2937 37.5265C28.5112 46.0502 32.6653 44.2671 37.5248 47.1084L37.5836 80.3999C32.0187 81.2621 29.7653 80.6939 30.745 87.8264C34.468 90.2365 37.0154 89.7859 42.4431 89.8054C42.8938 94.5866 42.2472 96.1346 43.8735 99.74C53.9453 101.856 49.6736 96.6048 52.025 90.1386L55.1797 89.7271L56.1203 99.74L62.9197 99.9556C64.7028 95.6447 63.9582 95.096 64.4873 89.8642C82.3382 88.1595 85.7476 65.8214 72.1097 59.1788C74.559 42.8759 73.5205 46.2854 64.4481 37.4089C64.0366 32.3927 64.6244 31.3149 63.0569 27.4548C60.0197 26.6122 59.3142 26.475 56.4142 27.3764L54.925 37.115L52.4365 36.9582C50.7317 34.215 52.025 31.5893 50.3202 27.5331L45.0688 26.4946C41.4242 31.3737 43.658 31.746 41.9728 37.0562Z" fill="#ffc45f"/>
<path fill-rule="evenodd" clip-rule="evenodd" d="M200.397 212.998C200.318 233.102 213.408 230.947 218.306 226.969C224.734 221.757 221.481 220.033 222.794 213.096C223.891 207.374 230.651 209.197 225.459 201.633C219.247 200.261 220.932 202.123 217.523 204.847C214.956 206.884 210.175 206.297 205.923 206.179C203.983 204.004 200.064 200.379 198.32 198.635C196.537 196.872 192.618 190.503 188.953 194.657C185.25 198.87 196.439 209.118 200.397 212.998Z" fill="#ffc45f"/>
<path fill-rule="evenodd" clip-rule="evenodd" d="M212.076 262.495C217.406 260.065 216.113 252.776 214.976 247.838C211.136 245.937 207.902 245.153 206.903 251.776C206.021 257.674 207.079 261.711 212.076 262.495Z" fill="#ffc45f"/>
<path fill-rule="evenodd" clip-rule="evenodd" d="M174.257 222.678L179.685 222.384C182.742 217.877 183.212 213.566 175.218 213.586C170.652 213.586 166.655 213.135 166.615 217.857C166.557 222.325 170.221 222.678 174.257 222.678Z" fill="#ffc45f"/>
<path fill-rule="evenodd" clip-rule="evenodd" d="M211.115 187.956C218.072 185.84 216.367 176.669 214.055 172.378L209.176 172.025C205.119 177.453 205.668 185.409 211.115 187.956Z" fill="#ffc45f"/>
<path fill-rule="evenodd" clip-rule="evenodd" d="M241.448 220.601C244.584 222.599 258.751 226.656 255.478 215.153C253.832 214.272 239.567 209.059 241.448 220.601Z" fill="#ffc45f"/>
</svg>
