<svg width="259" height="307" viewBox="0 0 259 307" fill="none" xmlns="http://www.w3.org/2000/svg">
<path fill-rule="evenodd" clip-rule="evenodd" d="M12.0904 129.167C12.0904 114.639 35.1333 114.703 35.1333 129.167C35.1333 140.635 22.1784 144.536 15.4962 137.854C13.4484 135.785 12.0904 133.155 12.0904 129.167ZM232.625 0.78241H236.72C239.738 1.01952 242.627 1.83863 245.084 3.19663C272.697 18.5226 251.098 59.8014 222.666 44.5401L184.384 82.5425C191.389 95.756 186.388 109.573 174.899 115.285C158.711 123.347 142.178 112.117 140.561 96.726C139.85 89.9145 142.393 91.5096 139.871 90.3025C139.85 90.2809 136.746 89.4402 136.423 89.354L113.617 83.0814C111.849 89.6773 98.7867 97.6098 85.9396 93.1909C82.9865 92.1778 81.9734 90.7767 79.5807 90.2162C77.9641 91.294 76.6276 92.5227 74.9678 93.816L53.2399 111.06C51.4077 112.505 46.6223 117.074 44.4668 117.656C44.6608 119.92 52.6148 133.974 40.2419 146.347C33.7537 152.835 23.1484 155.228 13.9226 150.96C-1.27401 143.889 -4.48578 124.834 6.65842 113.324C14.5909 105.111 27.287 103.796 35.6937 109.422C37.569 108.431 38.7546 107.353 40.4575 105.952C44.0572 103.042 70.1394 81.5078 72.4458 80.8827C65.2679 65.9016 76.5845 47.4285 93.8505 47.4285C107.064 47.4285 117.454 58.1847 117.454 71.5707L145.972 79.7834C149.334 74.7825 156.232 71.0103 162.44 71.0103C172.614 71.0103 169.553 72.1312 176.3 73.8987L214.022 36.4352C212.406 33.3743 210.724 29.0417 210.724 24.3641C210.724 17.0568 213.872 11.4308 217.644 7.68017L219.066 6.36529C222.731 3.02418 227.667 1.17041 232.625 0.78241ZM152.568 94.0531C152.568 79.5247 175.611 79.5894 175.611 94.0531C175.611 97.9331 174.425 100.326 172.485 102.438C166.04 109.444 152.568 105.822 152.568 94.0531ZM82.3398 71.5707C82.3398 55.4687 105.383 55.4687 105.383 71.5707C105.383 85.9482 82.3398 85.9482 82.3398 71.5707ZM222.796 23.8253C222.796 9.31839 245.838 9.31839 245.838 23.8253C245.838 35.2928 232.884 39.1728 226.201 32.4906C224.154 30.4428 222.796 27.7915 222.796 23.8253Z" fill="#ffc45f"/>
<path fill-rule="evenodd" clip-rule="evenodd" d="M221.437 96.7045H231.094V72.0665C231.094 70.6438 232.237 69.5014 233.659 69.5014H237.302C238.703 69.5014 239.867 70.6438 239.867 72.0665V96.7045H248.77C251.335 96.7045 253.663 97.7391 255.344 99.4205C257.026 101.102 258.06 103.43 258.06 105.995V270.895C258.06 273.46 257.026 275.766 255.344 277.447C253.663 279.129 251.335 280.185 248.77 280.185H221.437C218.872 280.185 216.544 279.129 214.863 277.447C213.203 275.766 212.147 273.46 212.147 270.895V105.995C212.147 103.43 213.203 101.102 214.863 99.4205C216.544 97.7391 218.872 96.7045 221.437 96.7045ZM21.079 173.076H24.7435C26.1446 173.076 27.3086 174.218 27.3086 175.641V200.236H37.3103C39.8754 200.236 42.2034 201.292 43.8632 202.973C45.5445 204.654 46.6007 206.961 46.6007 209.526V270.895C46.6007 273.46 45.5445 275.766 43.8632 277.447C42.2034 279.129 39.8754 280.185 37.3103 280.185H9.95637C7.41282 280.185 5.08482 279.129 3.40349 277.447C1.72216 275.766 0.6875 273.46 0.6875 270.895V209.526C0.6875 206.961 1.72216 204.654 3.40349 202.973C5.08482 201.292 7.41282 200.236 9.95637 200.236H18.5139V175.641C18.5139 174.218 19.6779 173.076 21.079 173.076ZM98.6573 280.185V304.435C98.6573 305.858 97.4933 307 96.0922 307H92.4278C91.0266 307 89.8627 305.858 89.8627 304.435V280.185H80.5722C78.0287 280.185 75.7007 279.129 74.0193 277.447C72.338 275.745 71.3034 273.438 71.3034 270.895V150.615C71.3034 148.093 72.338 145.765 74.0193 144.083V144.062C75.7007 142.381 78.0287 141.346 80.5722 141.346H107.926C110.491 141.346 112.798 142.381 114.479 144.062V144.083C116.16 145.765 117.195 148.093 117.195 150.615V270.895C117.195 273.438 116.16 275.745 114.479 277.447C112.798 279.129 110.491 280.185 107.926 280.185H98.6573ZM162.677 136.819H166.32C167.743 136.819 168.885 137.962 168.885 139.384V163.656H177.809C180.353 163.656 182.681 164.712 184.362 166.372L184.34 166.393C186.043 168.075 187.078 170.403 187.078 172.946V270.895C187.078 273.438 186.043 275.745 184.34 277.447H184.362C182.681 279.129 180.353 280.185 177.809 280.185H150.455C147.89 280.185 145.584 279.129 143.902 277.447C142.221 275.745 141.186 273.438 141.186 270.895V172.946C141.186 170.403 142.221 168.075 143.902 166.393V166.372C145.584 164.712 147.89 163.656 150.455 163.656H160.112V139.384C160.112 137.962 161.255 136.819 162.677 136.819ZM35.8014 211.035H11.4653V269.386H35.8014V211.035ZM106.417 152.124H82.0811V269.386H106.417V152.124ZM176.3 174.434H151.964V269.386H176.3V174.434ZM247.283 107.482H222.946V269.386H247.283V107.482Z" fill="#FEFEFE"/>
</svg>
