<svg width="267" height="268" viewBox="0 0 267 268" fill="none" xmlns="http://www.w3.org/2000/svg">
<path fill-rule="evenodd" clip-rule="evenodd" d="M139.061 213.64C139.061 194.887 136.776 199.564 147.489 192.43L165.574 180.358C172.299 175.853 169.691 178.483 177.58 178.699C178.96 178.742 182.689 177.987 183.961 177.858C187.28 177.513 195.73 184.346 198.64 186.286C200.278 187.364 216.531 197.258 216.531 199.069C216.531 215.839 218.73 214.696 208.038 219.697C205.236 221.034 200.149 222.478 196.247 222.478H159.862C155.227 222.478 151.089 221.314 147.898 219.87C145.958 219.007 139.061 215.817 139.061 213.64ZM84.8054 0.995041H91.2936C101.683 1.36148 112.052 3.53859 121.752 7.37547C133.521 12.0315 135.612 14.963 144.256 20.7399C144.256 14.8768 143.264 9.2508 147.273 7.09525C151.477 4.87503 155.702 7.97903 155.702 12.9368V34.2552C155.702 37.2945 153.029 39.989 149.989 39.989H128.671C123.713 39.989 120.588 35.7641 122.829 31.5608C124.877 27.7023 129.835 28.543 135.418 28.543C130.266 24.0594 122.916 20.0932 116.708 17.6143C104.249 12.6781 98.1914 12.4195 84.9994 12.4195C67.0437 12.4195 46.6953 22.3566 34.15 34.9019C29.3215 39.7519 25.5924 45.0114 22.0573 50.8745C10.3096 70.3176 8.56359 94.9771 16.302 116.468C25.1182 141.063 39.5173 144.167 34.9044 151.582C31.2184 157.488 25.1398 152.078 22.2945 148.435C21.152 146.969 19.9665 146.301 19.4707 144.49C17.8756 145.654 18.824 144.425 17.6169 149.383L13.7585 164.752C16.3667 164.709 39.9053 158.48 43.074 157.682C51.5884 155.548 50.0148 157.38 56.4599 160.01C61.2237 161.95 64.457 163.394 69.9106 164.774C92.1559 170.335 113.022 165.55 128.498 156.281C130.783 154.901 132.055 154.169 134.168 152.573C150.895 139.92 161.802 123.797 165.272 102.586C166.738 93.7269 166.738 78.3578 164.647 69.52C163.612 65.1227 160.896 57.6214 160.896 55.5736C160.896 55.5089 162.319 50.896 166.091 50.896C171.739 50.896 172.86 56.0694 174.606 62.148C178.119 74.3484 176.891 80.9875 177.839 87.0015C178.723 92.5844 176.265 106.057 174.929 111.726C184.457 111.726 192.928 114.118 198.554 121.383C202.779 126.815 205.603 130.716 205.603 139.813C205.603 148.435 206.551 155.117 202.671 162.855C201.572 165.076 201.248 165.636 199.912 167.382C199.007 168.524 197.261 170.184 196.765 171.521C199.869 173.159 202.865 175.401 205.926 177.448C209.116 179.582 211.918 181.458 214.979 183.484C229.658 193.27 227.977 191.244 227.977 215.192C227.977 220.215 226.511 221.055 223.644 223.362C221.187 225.323 219.032 226.767 216.186 228.363C212.155 230.604 203.253 233.902 197.282 233.902H158.288C151.671 233.902 144.018 230.712 139.406 228.384C134.879 226.078 127.615 222.004 127.615 216.227V198.034C127.615 193.788 130.288 190.446 132.81 188.679L150.291 177.039C153.18 175.12 155.896 173.073 158.827 171.521C157.361 169.344 153.093 165.356 153.093 162.166C153.093 154.621 160.832 155.117 163.505 159.018C174.347 174.819 194.178 165.55 194.178 150.72V139.295C194.178 130.738 186.612 123.172 178.055 123.172C169.368 123.172 170.984 125.543 164.97 135.545C163.893 137.334 163.052 138.735 161.931 140.33C141.69 168.891 107.482 183.656 72.6481 177.104C68.4448 176.306 63.7888 174.948 59.9735 173.676C54.1535 171.736 52.3644 170.378 48.5922 168.869C46.1564 167.899 14.8578 176.414 10.0078 177.664C-3.61527 181.134 0.50183 170.486 2.52805 162.381C3.47649 158.63 4.18782 155.721 5.13627 151.97C6.06315 148.241 6.79604 145.309 7.72293 141.58C11.3227 127.203 10.87 133.906 6.32182 122.288C5.09315 119.162 4.20938 116.554 3.36871 113.299C0.350942 101.789 0.243164 98.232 0.243164 86.2471C0.243164 74.4993 4.64049 59.8416 8.56359 51.9307C9.81381 49.3872 10.87 47.3178 12.3574 44.8174C17.9187 35.4839 23.8896 28.737 31.822 21.6668C36.8013 17.2263 45.1002 12.2901 51.1788 9.29391C61.6764 4.12059 73.187 1.4046 84.8054 0.995041Z" fill="#FEFEFE"/>
<path fill-rule="evenodd" clip-rule="evenodd" d="M188.983 94.5675C188.983 102.823 196.226 100.28 206.659 104.979C207.694 105.453 208.728 106.057 209.784 106.531C219.678 110.885 228.495 117.977 235.392 126.125C236.276 127.181 236.772 127.44 237.634 128.582C238.324 129.487 238.712 130.199 239.337 131.039C247.938 142.723 255.008 159.665 255.008 174.646C255.008 196.051 251.516 207.497 240.544 223.62C235.349 231.273 228.171 234.851 231.879 240.391C233.452 242.783 235.004 242.74 236.815 242.74C242.01 242.74 244.834 234.29 248.24 233.385C248.347 237.524 252.551 249.164 252.917 253.669C250.589 253.475 246.644 252.225 244.51 251.686L218.601 245.348C215.044 245.348 200.472 255.738 181.698 255.738C166.048 255.738 159.668 254.854 145.01 248.776C138.328 245.995 128.628 239.442 123.067 234.312C113.065 225.065 106.383 214.05 102.072 201.224C99.7651 194.348 100.778 189.714 93.8374 189.714C81.3567 189.714 97.394 219.46 99.8945 223.685C102.287 227.716 105.089 231.294 108.021 234.786C109.659 236.726 110.909 238.257 112.677 240.024C123.606 250.974 141.173 261.45 156.176 264.641C162.707 266.02 168.657 266.904 174.52 267.184H182.452C188.639 266.882 194.933 265.848 201.874 263.972C228.085 256.837 205.193 253.561 250.524 264.899C254.189 265.805 266.432 270.611 266.432 261.989C266.432 258.864 264.923 254.337 264.147 251.276C263.221 247.547 262.488 244.615 261.561 240.886C260.699 237.437 256.56 222.112 256.56 219.87C256.56 218.878 266.432 201.267 266.432 181.91C266.432 165.14 265.117 157.962 259.017 142.55C257.099 137.722 254.879 134.122 252.314 130.026C244.101 117.007 231.081 103.923 216.962 97.262C212.781 95.3004 188.983 83.5311 188.983 94.5675Z" fill="#FEFEFE"/>
<path fill-rule="evenodd" clip-rule="evenodd" d="M60.5555 62.3421C75.3426 62.3421 74.9331 80.6212 64.5002 83.4449C61.7411 84.1994 59.3053 83.8545 56.7187 84.5012C44.1734 87.5405 38.7198 97.1758 38.7198 110.174C38.7198 116.058 37.7498 123.172 45.4667 123.172H77.7137C85.3013 123.172 85.3013 111.726 77.7137 111.726H50.1658C50.1658 105.712 50.1658 100.388 55.3607 97.1758C59.0251 94.8909 64.3924 95.71 68.8113 93.9856C79.0071 90.0409 83.4259 82.1732 83.4259 71.6972C83.4259 61.2859 73.0362 50.8961 62.6249 50.8961C55.6193 50.8961 49.7131 52.5128 44.82 58.0525C41.9962 61.2643 38.2671 67.8172 39.0216 73.5294C39.8838 80.2332 48.9156 80.4703 50.1873 73.8096C51.1142 68.9381 52.7525 62.3421 60.5555 62.3421Z" fill="#ffc45f"/>
<path fill-rule="evenodd" clip-rule="evenodd" d="M127.615 56.6298V116.403C127.615 123.905 134.966 124.4 137.617 121.21C138.458 120.219 139.061 118.171 139.061 116.403V56.6298C139.061 49.0207 127.615 49.0207 127.615 56.6298Z" fill="#ffc45f"/>
<path fill-rule="evenodd" clip-rule="evenodd" d="M94.3551 56.6299C94.3551 72.1283 92.3073 82.2163 103.861 91.3127C106.922 93.7269 116.277 97.068 120.049 94.2874C123.714 91.5929 122.593 86.6567 119.661 84.8676C116.967 83.2509 108.496 85.1478 106.081 75.5556C103.84 66.5454 110.392 50.8961 99.55 50.8961C96.6831 50.8961 94.3551 53.8923 94.3551 56.6299Z" fill="#ffc45f"/>
</svg>
