<svg width="275" height="272" viewBox="0 0 275 272" fill="none" xmlns="http://www.w3.org/2000/svg">
<path fill-rule="evenodd" clip-rule="evenodd" d="M270 180C270 225.287 232.168 262 185.5 262C138.832 262 101 225.287 101 180C101 134.713 138.832 98 185.5 98C232.168 98 270 134.713 270 180ZM178.919 127H194V157.243H161.796V199.923H167.878V217H144V142.134H176.653V127.073L178.919 127ZM214.997 143H203.851L204.121 157.173H208.769V168.854H174V180.159H209.221V199.996H177.272V229H193.923V212.735H214.094C225.985 212.735 226.774 203.404 226.774 203.404C226.774 203.404 227 188.315 226.774 184.766C226.661 182.978 224.595 181.912 223.048 181.114C221.524 180.328 220.505 179.801 222.352 179.102C226.097 177.691 226.887 168.831 226.887 168.831C226.887 168.831 227 168.008 227 156.327C227 144.669 214.997 143 214.997 143Z" fill="#ffc45f"/>
<path fill-rule="evenodd" clip-rule="evenodd" d="M39.7497 218.173C39.7497 210.406 46.0677 204.205 55.3169 204.205H95.6014C95.7796 212.031 104.415 225.425 107.96 232.142C94.3536 232.142 80.7472 232.142 67.1408 232.142C58.1689 232.142 47.4739 233.827 42.5225 226.139C41.2946 224.237 39.7497 221.126 39.7497 218.173ZM275 175.197V186.55C274.465 194.951 272.722 203.412 269.692 211.793C263.453 229.151 251.293 244.665 236.34 255.266C229.824 259.862 222.198 264.063 214.514 266.738C195.679 273.316 176.982 273.613 157.791 268.264C149.948 266.064 146.64 264.34 140.005 260.794L132.024 255.88C124.201 250.57 124.775 250.253 118.081 244.051C116.298 242.406 116.041 242.842 112.812 242.882H55.8516C46.6421 242.921 41.9085 240.96 36.9373 236.581C33.0753 233.193 29.0151 226.337 29.0151 219.243C29.0151 212.764 29.0547 212.051 32.0454 206.166C33.8675 202.54 35.8084 201.51 37.5909 198.835C35.4717 195.645 29.0151 190.117 29.0151 181.636C29.0151 167.41 32.6197 167.588 37.5909 160.138C35.4717 156.968 29.0151 151.439 29.0151 142.939C29.0151 128.713 32.6197 128.891 37.5909 121.441C35.4717 118.271 29.0151 112.742 29.0151 104.262C29.0151 93.7407 32.3028 86.0924 40.3043 81.1587C48.4048 76.1854 54.7029 77.394 67.1408 77.394C66.0713 72.7575 63.3777 71.7668 63.3777 64.495C63.3777 53.4784 65.7544 55.3805 67.1408 49.4363L21.5484 49.3768C9.60569 48.1285 0 38.1026 0 23.6581C0 11.2148 11.1901 0 23.628 0H157.375C169.813 0 181.003 11.2148 181.003 23.6581C181.003 34.6549 178.626 32.7726 177.24 38.697L222.832 38.7565C245.688 41.1342 252.402 72.4999 233.091 84.3488C224.991 89.342 218.693 88.1333 206.255 88.1333C206.948 91.0856 207.681 92.0763 209.642 92.8094C219.743 96.5741 224.714 97.6639 234.795 104.718C235.785 105.411 236.498 105.946 237.627 106.719C239.845 108.264 240.974 109.414 243.014 111.019C247.728 114.704 253.867 121.441 257.274 126.295C267.771 141.275 273.891 157.978 275 175.197ZM183.696 261.17C171.714 261.17 160.979 258.158 150.7 253.859C117.011 239.83 96.3936 199.449 105.266 162.813C116.06 118.251 160.029 91.9574 201.422 102.102C232.319 109.671 254.303 131.526 262.008 162.397C272.386 203.868 246.579 247.736 201.858 258.911C197.243 260.061 189.143 261.17 183.696 261.17ZM92.3929 176.802L92.9276 193.445H55.3169C34.8776 193.445 34.6399 165.508 55.3169 165.508H93.4624C93.3831 169.233 92.3929 172.224 92.3929 176.802ZM96.1361 154.768C84.5103 154.768 72.8646 154.768 61.2387 154.768C53.8315 154.768 50.9399 155.224 46.0677 152.192C44.0673 150.964 43.0176 149.696 41.9085 147.774C37.5315 140.264 40.4231 131.863 48.1473 128.237C52.9006 125.998 61.0803 126.83 67.6755 126.83C81.6385 126.83 95.6014 126.83 109.564 126.83C108.217 129.386 103.88 135.37 101.86 139.531C100.375 142.583 96.3738 151.935 96.1361 154.768ZM118.16 116.071H55.3169C34.8776 116.071 34.6399 88.1333 55.3169 88.1333H183.696C186.667 88.1333 186.885 88.6683 189.598 88.6683V89.2033C170.387 89.2033 156.266 90.8676 139.629 100.458C134.42 103.469 126.023 108.899 121.784 113.258C120.873 114.189 119.625 116.071 118.16 116.071ZM74.1322 63.4251C74.1322 55.8164 80.3313 49.4363 89.6993 49.4363H218.079C222.832 49.4363 226.239 50.8827 228.912 53.1019C237.33 60.0368 234.339 77.394 218.079 77.394H89.6993C80.5095 77.394 74.1322 71.0733 74.1322 63.4251ZM10.7346 24.728C10.7346 17.1392 16.9535 10.7591 26.3216 10.7591H154.681C175.22 10.7591 175.239 38.697 154.681 38.697H26.3216C17.1318 38.697 10.7346 32.3763 10.7346 24.728Z" fill="#FEFEFE"/>
</svg>
