<svg width="298" height="279" viewBox="0 0 298 279" fill="none" xmlns="http://www.w3.org/2000/svg">
<path fill-rule="evenodd" clip-rule="evenodd" d="M297.511 62.5829V54.2409C296.994 47.1707 295.161 40.2945 291.971 33.9572C285.526 21.1317 277.163 12.531 264.294 6.08593C257.957 2.91727 249.507 0.330612 242.372 0.330612H182.383C174.882 0.330612 167.596 2.24905 160.806 5.35305C158.521 6.40927 156.279 7.59482 154.081 8.86659C153.369 9.27615 152.658 9.70726 151.925 10.1168C151.041 10.6126 150.179 11.0437 149.123 11.0437C148.498 11.0437 147.916 10.8928 147.355 10.591L140.501 6.86193C139.337 6.27993 138.194 5.67638 137.009 5.13749C135.78 4.55549 134.508 4.05972 133.193 3.65016C127.416 1.73172 121.984 0.330612 115.863 0.330612H55.8521C28.2611 0.330612 0.713135 27.9001 0.713135 55.4696C0.713135 70.9034 2.67469 80.2153 11.4693 93.1055C13.28 95.7353 15.5002 98.2142 17.7635 100.478C20.0053 102.719 22.4195 104.961 25.0278 106.772C27.8731 108.733 30.8477 110.458 33.9302 111.988C39.3406 114.704 44.6864 116.558 50.7219 117.291C53.4595 117.614 56.2401 117.722 58.9992 117.765C62.3188 117.808 65.6168 117.743 68.9148 117.743C70.941 117.743 72.6008 119.403 72.6008 121.408C72.6008 124.253 72.6223 127.099 72.687 129.922C72.7301 131.776 72.7948 133.608 72.7948 135.441C72.8163 137.984 72.8379 140.851 70.8332 142.748C69.6477 143.847 68.2681 144.192 66.7592 144.515C65.3366 144.839 63.9355 145.205 62.5775 145.723C50.4633 150.292 41.7764 160.876 38.2413 173.163C38.112 173.594 38.0042 174.025 37.8964 174.456C37.2066 177.366 36.9911 180.362 36.9264 183.337C36.8402 186.85 36.948 190.364 36.948 193.899C36.948 195.257 36.2151 196.486 35.008 197.132C26.7306 201.508 19.1215 207.414 19.1215 217.653V256.863C19.1215 267.252 30.0071 278.138 40.4184 278.138H115.259C125.649 278.138 136.534 267.252 136.534 256.863V217.653C136.534 213.924 134.185 207.867 131.684 205.108C130.24 203.491 128.71 201.875 126.921 200.624C124.981 199.288 122.76 198.232 120.67 197.132C119.462 196.486 118.708 195.257 118.708 193.899C118.708 180.578 119.355 170.727 110.883 159.518C105.387 152.232 98.2087 146.994 89.371 144.494C87.7327 144.041 86.2239 143.912 84.8659 142.705C82.8612 140.894 82.8828 138.07 82.9043 135.57C82.9043 133.738 82.9474 131.905 82.9905 130.073C83.0336 127.185 83.0768 124.296 83.0768 121.408C83.0768 119.403 84.715 117.743 86.7412 117.743C93.5743 117.743 100.386 118.024 107.197 117.981C113.556 117.937 119.958 117.614 126.188 116.342C132.31 115.114 138.065 113.023 143.389 109.725C144.467 109.057 145.566 108.367 146.752 107.849C147.98 107.311 149.274 107.03 150.61 107.289C151.731 107.505 152.615 108.022 153.52 108.669C154.188 109.164 154.878 109.682 155.568 110.156C158.435 112.053 161.797 113.368 165.031 114.445C180.055 119.403 195.963 117.743 211.483 117.743C213.509 117.743 215.169 119.403 215.169 121.408C215.169 124.296 215.19 127.185 215.234 130.073C215.277 131.927 215.32 133.781 215.298 135.656C215.298 138.2 215.277 141.131 213.164 142.963C212.216 143.783 211.138 144.149 209.931 144.386C209.09 144.58 208.207 144.709 207.366 144.925C204.176 145.744 201.136 147.382 198.399 149.193C189.41 155.078 183.784 162.838 180.809 173.163C180.68 173.594 180.572 174.025 180.465 174.456C179.775 177.366 179.559 180.362 179.495 183.337C179.408 186.85 179.516 190.364 179.516 193.899C179.516 195.257 178.783 196.486 177.576 197.132C169.299 201.508 161.69 207.414 161.69 217.653V256.863C161.69 267.252 172.575 278.138 182.987 278.138H257.827C268.217 278.138 279.103 267.252 279.103 256.863V217.653C279.103 207.414 271.515 201.508 263.238 197.132C262.031 196.486 261.276 195.257 261.276 193.899C261.276 180.578 261.923 170.727 253.452 159.518C247.955 152.232 240.777 146.994 231.939 144.494C230.301 144.041 228.792 143.912 227.434 142.705C225.429 140.894 225.451 138.07 225.472 135.57C225.472 133.738 225.516 131.905 225.559 130.073C225.602 127.185 225.645 124.296 225.645 121.408C225.645 119.403 227.283 117.743 229.309 117.743C235.496 117.743 241.79 117.981 247.955 117.205C253.667 116.493 258.776 114.79 263.906 112.204C272.787 107.72 280.827 101.663 286.539 93.4289C292.833 84.354 296.713 73.6193 297.511 62.5829ZM172.187 253.285V221.21C172.187 212.178 177.511 206.854 186.543 206.854H254.271C263.302 206.854 268.627 212.178 268.627 221.21V253.285C268.627 262.316 263.302 267.662 254.271 267.662H186.543C177.511 267.662 172.187 262.316 172.187 253.285ZM29.6191 253.285V221.21C29.6191 212.178 34.9433 206.854 43.975 206.854H111.702C120.734 206.854 126.058 212.178 126.058 221.21V253.285C126.058 262.316 120.734 267.662 111.702 267.662H43.975C34.9433 267.662 29.6191 262.316 29.6191 253.285ZM215.169 182.604V192.692C215.169 194.718 213.509 196.378 211.483 196.378H193.678C191.652 196.378 189.992 194.718 189.992 192.692C189.992 180.88 189.949 173.745 197.644 164.002C201.244 159.475 206.396 156.393 211.936 154.862C217.626 153.289 223.77 153.31 229.417 154.991C235.582 156.845 240.842 160.574 244.549 165.812C249.119 172.279 250.8 180.147 250.8 187.95V192.692C250.8 194.718 249.162 196.378 247.136 196.378H229.309C227.283 196.378 225.645 194.718 225.645 192.692V182.604C225.645 181.634 225.386 180.793 224.675 180.082C223.619 179.004 221.873 178.573 220.407 178.573C217.885 178.573 215.169 179.716 215.169 182.604ZM108.232 192.692C108.232 194.718 106.594 196.378 104.568 196.378H86.7412C84.715 196.378 83.0768 194.718 83.0768 192.692V182.604C83.0768 181.634 82.8181 180.793 82.1283 180.082C81.0505 179.004 79.3045 178.573 77.8388 178.573C75.3168 178.573 72.6008 179.716 72.6008 182.604V192.692C72.6008 194.718 70.941 196.378 68.9148 196.378H51.1099C49.0837 196.378 47.4239 194.718 47.4239 192.692C47.4239 180.88 47.3808 173.745 55.0761 164.002C59.0424 159.001 64.9701 155.767 71.135 154.409C77.7094 152.965 84.7581 153.655 90.8583 156.543C106.227 163.829 108.232 177.301 108.232 192.692ZM186.543 46.4594H237.026C240.863 46.4594 244.657 47.5587 247.502 50.2532C249.916 52.5381 251.296 55.7067 251.296 59.0478C251.296 62.3889 249.916 65.536 247.502 67.8425C244.657 70.5154 240.863 71.6147 237.026 71.6147H186.543C182.706 71.6147 178.913 70.5154 176.089 67.8425C173.653 65.536 172.295 62.3889 172.295 59.0478C172.295 55.7067 173.653 52.5381 176.089 50.2532C178.913 47.5587 182.706 46.4594 186.543 46.4594ZM61.1979 46.4594H111.702C115.539 46.4594 119.312 47.5587 122.157 50.2532C124.571 52.5381 125.951 55.7067 125.951 59.0478C125.951 62.3889 124.571 65.536 122.157 67.8425C119.312 70.5154 115.539 71.6147 111.702 71.6147H61.1979C57.361 71.6147 53.5673 70.5154 50.7435 67.8425C48.3077 65.536 46.9497 62.3889 46.9497 59.0478C46.9497 55.7067 48.3077 52.5381 50.7435 50.2532C53.5673 47.5587 57.361 46.4594 61.1979 46.4594ZM171.411 79.1376C173.588 79.3316 175.442 80.1938 177.468 80.9482C179.301 81.638 181.003 82.1122 182.987 82.1122H240.604C250.994 82.1122 261.88 71.2267 261.88 60.8154V57.2587C261.88 46.869 250.994 35.9834 240.604 35.9834H182.987C172.963 35.9834 164.815 44.4116 162.272 53.5943C161.991 54.5427 161.862 55.4696 161.797 56.4396C161.733 58.0132 161.711 59.5652 161.517 61.1171C159.405 77.7149 154.555 89.1178 140.393 98.7962C130.952 105.241 121.208 107.267 109.913 107.267H62.987C55.7875 107.267 48.4586 106.405 41.7548 103.689C30.4382 99.1411 21.0184 90.4973 15.8882 79.3962C10.6933 68.1442 9.89578 55.2541 13.8836 43.5063C17.0738 34.0865 23.1309 26.0032 31.2573 20.2695C40.5693 13.695 51.6704 10.8281 62.987 10.8281H108.728C116.402 10.8281 123.774 11.5826 130.995 14.3632C133.107 15.1608 135.176 16.1308 137.181 17.187C138.108 17.6828 138.755 18.5019 139.013 19.5366C139.272 20.5497 139.1 21.6059 138.496 22.4681C136.944 24.7961 135.349 27.1026 133.905 29.4952C132.762 31.349 131.21 34.0003 130.714 36.1128C130.305 37.8803 128.645 39.0874 126.834 38.9365C125.002 38.7856 123.493 38.2036 121.812 37.5139C121.424 37.363 120.993 37.1905 120.583 37.0396C118.73 36.4361 117.242 35.9834 115.259 35.9834H57.6412C47.2299 35.9834 36.366 46.869 36.366 57.2587V60.8154C36.366 71.2267 47.2299 82.1122 57.6412 82.1122H115.259C125.261 82.1122 133.409 73.684 135.974 64.5014C136.233 63.5314 136.362 62.5183 136.47 61.5267C136.642 60.0609 136.75 58.5952 136.879 57.1294C137.246 53.2494 137.742 49.391 138.733 45.5972C141.686 34.3237 148.282 25.8308 157.853 19.2995C167.294 12.8328 177.037 10.8281 188.332 10.8281H235.259C242.458 10.8281 249.766 11.6904 256.491 14.3848C270.782 20.1617 282.163 32.6208 285.526 47.7958C289.428 65.4498 284.578 81.0991 271.86 93.86C262.117 103.668 248.752 107.267 235.259 107.267H189.518C181.823 107.267 174.472 106.491 167.251 103.732C165.139 102.913 163.069 101.965 161.065 100.909C160.138 100.413 159.469 99.5722 159.211 98.5591C158.974 97.5244 159.146 96.4897 159.728 95.606C161.28 93.2995 162.875 90.9931 164.341 88.6004C165.462 86.7251 167.035 84.0953 167.531 81.9829C167.941 80.1938 169.579 78.9867 171.411 79.1376Z" fill="#FEFEFE"/>
<path fill-rule="evenodd" clip-rule="evenodd" d="M70.359 143.136C69.2813 143.933 68.0741 144.235 66.7593 144.515C65.3366 144.839 63.9355 145.205 62.5775 145.723C50.4633 150.292 41.7764 160.876 38.2413 173.163C38.112 173.594 38.0042 174.025 37.8964 174.456C37.2067 177.366 36.9911 180.362 36.9264 183.337C36.8402 186.85 36.948 190.364 36.948 193.878C36.948 195.257 36.2151 196.486 35.008 197.132C26.7307 201.508 19.1216 207.414 19.1216 217.653V256.863C19.1216 267.252 30.0071 278.138 40.4184 278.138H115.259C125.649 278.138 136.534 267.252 136.534 256.863V217.653C136.534 213.924 134.185 207.867 131.684 205.108C130.24 203.491 128.71 201.875 126.921 200.624C124.981 199.288 122.76 198.232 120.67 197.132C119.462 196.486 118.708 195.257 118.708 193.878C118.708 180.578 119.355 170.727 110.883 159.518C105.387 152.232 98.2087 146.994 89.371 144.494C87.9699 144.106 86.655 143.955 85.4479 143.136H70.359ZM29.6191 253.285V221.21C29.6191 212.178 34.9433 206.854 43.9751 206.854H111.702C120.734 206.854 126.058 212.178 126.058 221.21V253.285C126.058 262.316 120.734 267.662 111.702 267.662H43.9751C34.9433 267.662 29.6191 262.316 29.6191 253.285ZM108.232 192.692C108.232 194.718 106.594 196.378 104.568 196.378H86.7412C84.715 196.378 83.0768 194.718 83.0768 192.692V182.604C83.0768 181.634 82.8181 180.793 82.1283 180.082C81.0506 179.004 79.3046 178.573 77.8388 178.573C75.3168 178.573 72.6008 179.716 72.6008 182.604V192.692C72.6008 194.718 70.941 196.378 68.9148 196.378H51.11C49.0837 196.378 47.424 194.718 47.424 192.692C47.424 180.88 47.3809 173.745 55.0762 164.023C59.0424 159.001 64.9702 155.767 71.135 154.409C77.7095 152.965 84.7581 153.655 90.8583 156.543C106.227 163.829 108.232 177.301 108.232 192.692Z" fill="#ffc45f"/>
<path fill-rule="evenodd" clip-rule="evenodd" d="M72.4072 237.571C72.4072 241.084 73.5497 244.705 77.2357 245.762C78.4212 246.107 79.7145 246.128 80.9217 245.891C83.8101 245.331 86.8494 243.175 86.8494 239.942C86.8494 236.428 85.707 232.807 82.021 231.751C80.8354 231.406 79.5421 231.384 78.335 231.621C75.4466 232.182 72.4072 234.337 72.4072 237.571Z" fill="#FEFEFE"/>
<path fill-rule="evenodd" clip-rule="evenodd" d="M214.501 237.571C214.501 241.084 215.643 244.705 219.351 245.762C220.537 246.107 221.808 246.128 223.015 245.891C225.925 245.331 228.965 243.175 228.965 239.942C228.965 236.428 227.822 232.807 224.115 231.751C222.929 231.406 221.657 231.384 220.45 231.621C217.54 232.182 214.501 234.337 214.501 237.571Z" fill="#FEFEFE"/>
</svg>
