<svg width="140" height="130" viewBox="0 0 140 130" fill="none" xmlns="http://www.w3.org/2000/svg">
<path fill-rule="evenodd" clip-rule="evenodd" d="M54.4583 57.5434L61.2577 56.2194C65.2302 55.1878 62.6712 55.5918 68.0017 56.6751C69.5815 56.9932 71.2721 57.423 72.8242 57.5434C72.8242 62.504 73.3692 67.456 71.5308 71.3935C69.6369 75.4514 67.2534 77.059 63.7798 79.2255C53.6084 74.222 54.4583 66.4845 54.4583 57.5434ZM49.525 57.2855C49.525 63.4669 48.8968 69.2614 52.1764 74.712L53.9132 77.188H35.8245V56.271C35.8245 51.8692 30.882 52.7462 30.882 55.5059V77.188C24.9971 77.188 21.5697 78.1079 21.5697 74.3767V59.0737C21.5697 52.6688 23.7684 47.691 27.2513 44.467C35.2979 37.0219 46.3839 35.9386 55.3636 42.163C57.0173 43.315 58.2275 44.4928 59.4378 46.0231C61.3409 48.439 61.1561 48.7399 62.4033 51.1643C57.0358 53.5629 49.525 51.7059 49.525 57.2855ZM43.2244 33.5658C27.1589 33.5658 23.482 15.0302 36.9146 8.82303C42.0696 6.43301 48.5457 7.77417 52.472 11.4366C61.461 19.8103 54.5599 33.5658 43.2244 33.5658ZM23.7592 20.5582C23.7592 22.0455 24.2396 24.1948 24.5721 25.407C25.2927 27.9518 27.2605 30.9264 29.1729 32.8694C29.5978 33.2993 31.9074 35.1305 32.8035 35.354C32.7481 35.3884 32.6557 35.3712 32.628 35.4486L32.0922 35.7065C27.9626 37.5979 24.7477 39.773 21.9115 43.3322C19.3987 46.496 16.9043 51.3878 16.9043 56.7782V75.6577C16.9043 79.2255 20.2763 81.2545 24.101 81.7101C28.4153 82.226 56.7956 81.435 58.7818 81.8305C61.4794 82.3635 62.237 86.3956 69.4244 81.1599C70.9118 80.0767 72.3253 78.6667 73.4524 77.2568C78.7275 70.6627 77.7575 65.4012 77.7575 57.0362C77.7575 52.8837 72.9997 53.0986 67.6137 51.9294C67.3366 48.7828 64.2325 44.3295 62.1723 41.9481C60.3801 39.8675 55.6777 36.2911 52.5367 35.6119L55.6223 33.1187C68.5653 21.0225 57.6732 3.21765 44.0466 3.21765C37.3119 3.21765 33.8382 4.20633 29.0343 8.63389C25.9302 11.5054 23.7592 16.2682 23.7592 20.5582Z" fill="#153540"/>
<path fill-rule="evenodd" clip-rule="evenodd" d="M69.9327 112.765V103.583C71.5309 103.583 73.1107 103.076 74.5703 102.801C80.8709 101.588 76.6397 101.236 83.6332 102.818C84.8249 103.093 86.9313 103.583 88.2893 103.583C88.2893 112.249 89.3887 116.797 82.7463 122.909C79.1618 126.211 78.6167 125.36 75.8729 123.305C72.7781 120.992 69.9327 116.479 69.9327 112.765ZM79.2911 129.856H79.1064C77.7114 129.83 75.8822 129.177 73.3047 127.225C64.0016 120.201 64.9994 112.765 64.9994 103.076C64.9994 101.339 65.9602 100.213 67.3644 99.6626C68.6208 99.1811 70.7364 98.9146 72.2792 98.6309C77.1201 97.754 73.7112 98.4589 77.4804 92.2432C80.0949 87.9532 85.4254 82.6831 90.2109 81.6428L89.2778 80.9808C88.7974 80.6627 88.9268 80.7573 88.5018 80.4306C86.1553 78.6424 87.4024 79.7858 85.4901 77.6279C82.0442 73.742 81.4437 70.2601 81.4437 65.3253C81.4437 60.9493 84.6402 56.2381 87.1253 54.0286C94.479 47.4947 106.092 47.6151 113.584 54.5444C115.155 56.006 116.411 57.7512 117.344 59.7113C119.229 63.6403 119.395 67.5692 118.055 71.8506C117.03 75.1605 114.591 78.4361 111.672 80.4478L110.092 81.5311C110.073 81.4881 109.999 81.6084 109.944 81.6428C111.967 82.0813 114.489 83.8093 116.06 84.8926C121.28 88.5034 125.843 95.7852 125.843 102.56V121.689C125.843 123.623 124.578 125.093 123.451 126.099C122.268 127.165 120.624 127.775 118.453 127.827L84.206 127.836C82.7186 128.076 81.5915 129.813 79.2911 129.856ZM100.077 84.1962C112.355 84.1962 121.187 93.1975 121.187 105.371V120.416C121.187 124.147 117.75 123.219 111.866 123.219V101.545C111.866 98.6997 106.932 98.0893 106.932 102.31V123.219H89.1115C89.5088 121.869 93.2226 118.387 93.2226 111.234V103.325C93.2226 98.9576 88.4464 99.2929 84.3445 98.33C83.1066 98.0377 81.4899 97.4875 80.3443 97.4617C82.1181 90.3776 91.3103 84.1962 100.077 84.1962ZM86.0998 67.1049C86.0998 59.8833 92.2895 53.8481 98.9781 53.8481H100.9C113.972 53.8481 119.774 71.6615 106.572 78.2555C100.207 81.4279 90.8206 79.1926 87.4671 72.2117C86.8943 70.9995 86.0998 68.8158 86.0998 67.1049Z" fill="#153540"/>
<path fill-rule="evenodd" clip-rule="evenodd" d="M77.8776 111.234C77.2032 110.933 76.4734 110.796 75.6234 111.165C72.5563 112.498 75.411 116.848 78.6998 116.848C79.9193 116.848 81.0648 114.828 81.6561 113.985C82.2104 113.212 83.744 111.234 83.8179 110.435C83.9564 109.016 82.3767 107.641 80.8062 108.071C79.4574 108.44 78.4689 110.194 77.8776 111.234Z" fill="#153540"/>
<path fill-rule="evenodd" clip-rule="evenodd" d="M62.6806 64.937C61.0823 64.937 60.565 64.6791 59.6966 65.4786C59.0499 66.0804 58.7358 66.9831 59.0499 67.7827C59.4286 68.7714 61.6459 70.8089 62.9577 70.8089C65.0179 70.8089 68.4361 64.7908 68.4361 64.1718C68.4361 62.8565 65.9047 59.28 62.6806 64.937Z" fill="#153540"/>
<ellipse cx="38.9738" cy="107.461" rx="22.0695" ry="22.5391" fill="#ffc45f"/>
<ellipse cx="38.9738" cy="107.461" rx="13.6174" ry="14.0869" fill="#97FBEE"/>
<path fill-rule="evenodd" clip-rule="evenodd" d="M38.1164 100.887H40.3824V104.99H35.5435V110.779H36.4573V113.096H32.8694V102.94H37.7758V100.897L38.1164 100.887Z" fill="white"/>
<path fill-rule="evenodd" clip-rule="evenodd" d="M41.383 101.826H43.1641C43.1641 101.826 45.0784 102.06 45.0784 103.718C45.0784 105.376 45.0604 105.493 45.0604 105.493C45.0604 105.493 44.9345 106.751 44.3372 106.951C43.7399 107.151 45.0064 107.252 45.0424 107.755C45.0784 108.259 45.0424 110.401 45.0424 110.401C45.0424 110.401 44.9165 111.726 43.0202 111.726C41.124 111.726 39.8034 111.726 39.8034 111.726V114.035H37.148V109.917H42.243V107.101H36.6262V105.493H42.171V103.838H41.4298L41.383 101.826Z" fill="white"/>
<ellipse cx="100.017" cy="22.9393" rx="22.0695" ry="22.5391" fill="#ffc45f"/>
<ellipse cx="100.017" cy="22.9393" rx="13.6174" ry="14.0869" fill="#97FBEE"/>
<path fill-rule="evenodd" clip-rule="evenodd" d="M99.1601 16.3654H101.426V20.4679H96.5872V26.2576H97.501V28.5741H93.9131V18.4183H98.8195V16.3753L99.1601 16.3654Z" fill="white"/>
<path fill-rule="evenodd" clip-rule="evenodd" d="M102.426 17.3044H104.207C104.207 17.3044 106.121 17.538 106.121 19.1963C106.121 20.8546 106.103 20.9714 106.103 20.9714C106.103 20.9714 105.977 22.2293 105.38 22.4295C104.783 22.6297 106.049 22.7298 106.085 23.2336C106.121 23.7374 106.085 25.8795 106.085 25.8795C106.085 25.8795 105.959 27.2042 104.063 27.2042C102.167 27.2042 100.846 27.2042 100.846 27.2042V29.5131H98.1909V25.3957H103.286V22.5796H97.6692V20.9714H103.214V19.3164H102.473L102.426 17.3044Z" fill="white"/>
<rect y="8.74396" width="11.7999" height="11.7999" transform="rotate(-45 0 8.74396)" fill="#153540"/>
<rect x="12.0461" y="21.1152" width="6.71729" height="6.71729" transform="rotate(-45 12.0461 21.1152)" fill="#153540"/>
<rect x="64.7998" y="34.263" width="6.71729" height="6.71729" transform="rotate(-45 64.7998 34.263)" fill="#153540"/>
<rect x="129.6" y="121.602" width="6.71729" height="6.71729" transform="rotate(-45 129.6 121.602)" fill="#153540"/>
<rect x="122.087" y="78.4021" width="6.71729" height="6.71729" transform="rotate(-45 122.087 78.4021)" fill="#153540"/>
</svg>
