<svg width="75" height="89" viewBox="0 0 75 89" fill="none" xmlns="http://www.w3.org/2000/svg">
<path fill-rule="evenodd" clip-rule="evenodd" d="M3.48513 37.6157C3.48513 33.4194 10.1408 33.438 10.1408 37.6157C10.1408 40.928 6.39894 42.0549 4.46886 40.1248C3.87738 39.5271 3.48513 38.7676 3.48513 37.6157ZM67.1842 0.533203H68.3671C69.2388 0.60169 70.0731 0.838281 70.7828 1.23052C78.7584 5.65727 72.5199 17.5802 64.3077 13.1721L53.2502 24.1487C55.2737 27.9653 53.8292 31.9562 50.5107 33.6061C45.8349 35.9347 41.0595 32.6909 40.5926 28.2455C40.3871 26.278 41.1218 26.7388 40.3933 26.3901C40.3871 26.3839 39.4906 26.1411 39.3972 26.1162L32.81 24.3044C32.2994 26.2096 28.5264 28.5008 24.8157 27.2244C23.9627 26.9318 23.6701 26.5271 22.979 26.3652C22.512 26.6765 22.126 27.0314 21.6466 27.405L15.3707 32.3858C14.8415 32.803 13.4593 34.1229 12.8367 34.291C12.8927 34.9447 15.1902 39.0042 11.6164 42.5779C9.74234 44.452 6.67911 45.1431 4.01435 43.9103C-0.375035 41.8681 -1.30272 36.3643 1.91616 33.0396C4.20736 30.6674 7.87452 30.2876 10.3027 31.9126C10.8444 31.6262 11.1868 31.3149 11.6787 30.9102C12.7184 30.0697 20.252 23.8499 20.9182 23.6693C18.8449 19.3422 22.1136 14.0064 27.1007 14.0064C30.9172 14.0064 33.9182 17.1133 33.9182 20.9796L42.1553 23.3518C43.1266 21.9073 45.1189 20.8178 46.912 20.8178C49.8507 20.8178 48.9666 21.1415 50.9154 21.6521L61.811 10.8311C61.3441 9.94704 60.8585 8.69559 60.8585 7.34453C60.8585 5.23389 61.7675 3.60889 62.857 2.52555L63.2679 2.14576C64.3264 1.18072 65.7522 0.645273 67.1842 0.533203ZM44.0605 27.4735C44.0605 23.2771 50.7162 23.2958 50.7162 27.4735C50.7162 28.5941 50.3737 29.2852 49.8134 29.8954C47.9518 31.9189 44.0605 30.8729 44.0605 27.4735ZM23.7759 20.9796C23.7759 16.3288 30.4316 16.3288 30.4316 20.9796C30.4316 25.1324 23.7759 25.1324 23.7759 20.9796ZM64.3451 7.18888C64.3451 2.99873 71.0007 2.99873 71.0007 7.18888C71.0007 10.5012 67.2589 11.6219 65.3288 9.69177C64.7373 9.10029 64.3451 8.33448 64.3451 7.18888Z" fill="#ffc45f"/>
<path fill-rule="evenodd" clip-rule="evenodd" d="M63.9527 28.2394H66.742V21.123C66.742 20.7121 67.072 20.3821 67.4829 20.3821H68.5351C68.9398 20.3821 69.276 20.7121 69.276 21.123V28.2394H71.8474C72.5883 28.2394 73.2607 28.5382 73.7463 29.0239C74.2319 29.5095 74.5308 30.1819 74.5308 30.9228V78.5523C74.5308 79.2932 74.2319 79.9594 73.7463 80.4451C73.2607 80.9307 72.5883 81.2358 71.8474 81.2358H63.9527C63.2118 81.2358 62.5394 80.9307 62.0537 80.4451C61.5743 79.9594 61.2693 79.2932 61.2693 78.5523V30.9228C61.2693 30.1819 61.5743 29.5095 62.0537 29.0239C62.5394 28.5382 63.2118 28.2394 63.9527 28.2394ZM6.08128 50.2984H7.13971C7.54441 50.2984 7.88062 50.6284 7.88062 51.0393V58.1433H10.7695C11.5104 58.1433 12.1828 58.4483 12.6622 58.934C13.1479 59.4196 13.453 60.0858 13.453 60.8267V78.5523C13.453 79.2932 13.1479 79.9594 12.6622 80.4451C12.1828 80.9307 11.5104 81.2358 10.7695 81.2358H2.86862C2.13394 81.2358 1.46153 80.9307 0.975892 80.4451C0.490258 79.9594 0.191406 79.2932 0.191406 78.5523V60.8267C0.191406 60.0858 0.490258 59.4196 0.975892 58.934C1.46153 58.4483 2.13394 58.1433 2.86862 58.1433H5.34037V51.0393C5.34037 50.6284 5.67658 50.2984 6.08128 50.2984ZM28.4889 81.2358V88.2401C28.4889 88.651 28.1527 88.981 27.748 88.981H26.6896C26.2849 88.981 25.9487 88.651 25.9487 88.2401V81.2358H23.2653C22.5306 81.2358 21.8582 80.9307 21.3725 80.4451C20.8869 79.9532 20.588 79.287 20.588 78.5523V43.8108C20.588 43.0824 20.8869 42.4099 21.3725 41.9243V41.9181C21.8582 41.4325 22.5306 41.1336 23.2653 41.1336H31.1662C31.9071 41.1336 32.5732 41.4325 33.0589 41.9181V41.9243C33.5445 42.4099 33.8434 43.0824 33.8434 43.8108V78.5523C33.8434 79.287 33.5445 79.9532 33.0589 80.4451C32.5732 80.9307 31.9071 81.2358 31.1662 81.2358H28.4889ZM46.9804 39.8261H48.0326C48.4435 39.8261 48.7735 40.1561 48.7735 40.567V47.5776H51.3511C52.0858 47.5776 52.7582 47.8827 53.2438 48.3621L53.2376 48.3683C53.7295 48.8539 54.0283 49.5264 54.0283 50.261V78.5523C54.0283 79.287 53.7295 79.9532 53.2376 80.4451H53.2438C52.7582 80.9307 52.0858 81.2358 51.3511 81.2358H43.4502C42.7093 81.2358 42.0431 80.9307 41.5575 80.4451C41.0718 79.9532 40.773 79.287 40.773 78.5523V50.261C40.773 49.5264 41.0718 48.8539 41.5575 48.3683V48.3621C42.0431 47.8827 42.7093 47.5776 43.4502 47.5776H46.2395V40.567C46.2395 40.1561 46.5695 39.8261 46.9804 39.8261ZM10.3337 61.2625H3.30445V78.1165H10.3337V61.2625ZM30.7303 44.2466H23.7011V78.1165H30.7303V44.2466ZM50.9153 50.6906H43.886V78.1165H50.9153V50.6906ZM71.4178 31.3524H64.3885V78.1165H71.4178V31.3524Z" fill="#153540"/>
</svg>
