<svg width="264" height="280" viewBox="0 0 264 280" fill="none" xmlns="http://www.w3.org/2000/svg">
<path fill-rule="evenodd" clip-rule="evenodd" d="M91.0772 136.23L107.548 132.91C117.171 130.323 110.972 131.337 123.885 134.053C127.712 134.85 131.807 135.928 135.567 136.23C135.567 148.667 136.887 161.083 132.434 170.956C127.846 181.13 122.072 185.161 113.658 190.593C89.0183 178.047 91.0772 158.647 91.0772 136.23ZM79.1268 135.583C79.1268 151.081 77.605 165.61 85.5496 179.276L89.7568 185.484H45.9387V133.039C45.9387 122.003 33.9659 124.202 33.9659 131.121V185.484C19.7105 185.484 11.4079 187.79 11.4079 178.435V140.067C11.4079 124.008 16.7341 111.527 25.171 103.444C44.6631 84.7766 71.5179 82.0606 93.2703 97.6668C97.2762 100.555 100.208 103.508 103.139 107.345C107.75 113.402 107.302 114.157 110.323 120.235C97.3209 126.249 79.1268 121.593 79.1268 135.583ZM63.8643 76.1113C24.9472 76.1113 16.0403 29.6376 48.5794 14.0746C61.0669 8.08213 76.7546 11.4448 86.2657 20.6274C108.04 41.6225 91.3233 76.1113 63.8643 76.1113ZM16.7117 43.4978C16.7117 47.2269 17.8754 52.6158 18.681 55.6551C20.4266 62.0356 25.1933 69.4938 29.8258 74.3653C30.8552 75.4431 36.45 80.0344 38.6207 80.5949C38.4865 80.6811 38.2627 80.638 38.1955 80.832L36.8976 81.4786C26.8941 86.2209 19.1062 91.6744 12.2359 100.598C6.14878 108.531 0.106445 120.796 0.106445 134.311V181.647C0.106445 190.593 8.27479 195.68 17.5397 196.822C27.9907 198.116 96.7391 196.132 101.551 197.124C108.085 198.46 109.92 208.57 127.331 195.443C130.934 192.727 134.358 189.192 137.088 185.656C149.867 169.123 147.517 155.931 147.517 134.958C147.517 124.547 135.992 125.085 122.945 122.154C122.274 114.265 114.754 103.099 109.764 97.1279C105.422 91.9115 94.0312 82.9444 86.4223 81.2415L93.8969 74.9904C125.25 44.6618 98.8651 0.0203705 65.856 0.0203705C49.5417 0.0203705 41.1272 2.49925 29.4901 13.6003C21.9707 20.7999 16.7117 32.7416 16.7117 43.4978Z" fill="#ffc45f"/>
<path fill-rule="evenodd" clip-rule="evenodd" d="M128.562 236.915V213.894C132.433 213.894 136.26 212.622 139.796 211.933C155.059 208.893 144.809 208.01 161.75 211.976C164.637 212.666 169.739 213.894 173.029 213.894C173.029 235.622 175.692 247.025 159.602 262.351C150.919 270.628 149.598 268.494 142.952 263.343C135.455 257.544 128.562 246.227 128.562 236.915ZM151.232 279.768H150.784C147.405 279.703 142.974 278.065 136.73 273.172C114.195 255.561 116.612 236.915 116.612 212.622C116.612 208.268 118.939 205.444 122.341 204.065C125.384 202.858 130.509 202.19 134.246 201.478C145.973 199.28 137.715 201.047 146.846 185.462C153.179 174.706 166.092 161.493 177.684 158.885L175.424 157.225C174.26 156.427 174.573 156.664 173.544 155.845C167.859 151.362 170.881 154.229 166.248 148.818C157.901 139.075 156.446 130.345 156.446 117.972C156.446 107 164.189 95.188 170.209 89.6482C188.023 73.2661 216.153 73.5678 234.303 90.9416C238.107 94.606 241.151 98.9818 243.411 103.896C247.976 113.747 248.379 123.598 245.134 134.333C242.65 142.632 236.742 150.844 229.67 155.888L225.844 158.604C225.799 158.497 225.62 158.798 225.485 158.885C230.386 159.984 236.496 164.317 240.3 167.033C252.945 176.086 264 194.343 264 211.329V259.29C264 264.14 260.934 267.826 258.204 270.348C255.339 273.021 251.356 274.551 246.097 274.681L163.138 274.702C159.534 275.306 156.804 279.66 151.232 279.768ZM201.585 165.287C231.326 165.287 252.721 187.855 252.721 218.378V256.1C252.721 265.455 244.396 263.127 230.14 263.127V208.786C230.14 201.651 218.19 200.12 218.19 210.704V263.127H175.021C175.983 259.743 184.979 251.013 184.979 233.079V213.248C184.979 202.297 173.409 203.138 163.473 200.724C160.474 199.991 156.558 198.611 153.783 198.547C158.08 180.785 180.347 165.287 201.585 165.287ZM167.725 122.434C167.725 104.328 182.719 89.1956 198.922 89.1956H203.576C235.243 89.1956 249.297 133.859 217.317 150.392C201.898 158.346 179.161 152.741 171.037 135.238C169.65 132.199 167.725 126.724 167.725 122.434Z" fill="#FEFEFE"/>
<path fill-rule="evenodd" clip-rule="evenodd" d="M60.3281 223.402V230.171H8.92346C4.80572 230.171 0.419434 234.396 0.419434 238.362V258.322C0.419434 260.93 2.12024 263.151 3.64201 264.465C5.49947 266.039 7.80451 266.858 11.139 266.858H60.3281C60.3281 270.997 59.1867 278.972 66.9746 278.972C69.5259 278.972 70.7567 277.442 72.3232 276.278C73.375 275.459 73.5317 275.308 74.4716 274.424L91.8377 259.465C92.7553 258.581 93.1581 258.473 94.0533 257.697L98.3277 253.968C100.498 251.899 101.371 251.467 101.371 247.997C101.371 244.16 95.8883 241.099 92.3972 237.737L87.3172 233.382C86.243 232.585 85.8402 232.024 84.8107 231.162C83.7142 230.214 83.1547 229.934 82.0581 228.834C81.0063 227.821 80.514 227.584 79.4621 226.7L71.6966 219.932C66.7061 215.362 60.3281 219.501 60.3281 223.402Z" fill="#FEFEFE"/>
<path fill-rule="evenodd" clip-rule="evenodd" d="M147.808 233.079C146.175 232.324 144.407 231.979 142.348 232.906C134.918 236.247 141.833 247.154 149.8 247.154C152.754 247.154 155.529 242.089 156.961 239.976C158.304 238.036 162.019 233.079 162.198 231.074C162.534 227.517 158.707 224.068 154.903 225.146C151.635 226.073 149.241 230.47 147.808 233.079Z" fill="#FEFEFE"/>
<path fill-rule="evenodd" clip-rule="evenodd" d="M110.995 154.767C107.123 154.767 105.87 154.121 103.767 156.125C102.2 157.634 101.439 159.898 102.2 161.902C103.118 164.381 108.488 169.49 111.666 169.49C116.657 169.49 124.937 154.401 124.937 152.849C124.937 149.551 118.805 140.584 110.995 154.767Z" fill="#FEFEFE"/>
<path fill-rule="evenodd" clip-rule="evenodd" d="M193.035 6.05679V12.8252H244.44C248.58 12.8252 252.944 17.0501 252.944 21.0163V40.9767C252.944 43.5849 251.243 45.8051 249.721 47.12C247.864 48.6936 245.581 49.5127 242.224 49.5127H193.035C193.035 53.6514 194.199 61.6269 186.389 61.6269C183.838 61.6269 182.607 60.0964 181.063 58.9325C179.988 58.1133 179.832 57.9625 178.914 57.0787L161.526 42.1192C160.608 41.2354 160.228 41.1276 159.31 40.3516L155.036 36.6225C152.887 34.5532 151.992 34.1221 151.992 30.6301C151.992 26.8147 157.475 23.7539 160.966 20.3912L166.046 16.037C167.143 15.2394 167.546 14.679 168.553 13.8168C169.672 12.8683 170.209 12.5881 171.328 11.4888C172.357 10.4541 172.872 10.2386 173.901 9.35478L181.667 2.58635C186.657 -1.98342 193.035 2.13368 193.035 6.05679Z" fill="#ffc45f"/>
</svg>
