<svg width="92" height="89" viewBox="0 0 92 89" fill="none" xmlns="http://www.w3.org/2000/svg">
<path fill-rule="evenodd" clip-rule="evenodd" d="M42.468 20.3294C50.0004 19.0452 56.7479 22.3884 61.2021 25.6857C61.7933 26.124 62.2061 26.6642 62.782 27.1993C66.5431 30.7005 69.0964 36.0822 69.8506 41.413C70.7833 48.0485 68.5918 55.2394 64.4791 60.2797L62.9706 61.8647C62.6138 62.2214 62.4864 62.2775 62.1297 62.6699C61.829 63.0012 61.7627 63.1184 61.4111 63.4038C52.0746 70.9566 39.0279 71.0075 29.8851 63.5618L27.4949 61.2123C27.1636 60.9117 27.0464 60.8403 26.7661 60.4887C25.9456 59.4796 25.12 58.231 24.3454 56.8957C22.8776 54.3425 21.7156 51.2031 21.2417 47.8293C20.2326 40.7148 22.5565 34.2272 26.6897 29.0544C30.7005 24.0345 35.8529 21.4557 42.468 20.3294ZM80.1249 24.7378L86.8521 16.7008C88.0293 15.1668 90.0577 13.7297 88.9467 11.9663L83.9777 6.00361C83.3152 5.24935 82.8973 4.74481 82.3163 4.02113C80.4103 1.64623 80.0994 0.841007 78.1628 0.800237C68.4186 0.596383 58.4144 0.805333 48.6396 0.805333C38.8496 0.805333 29.0544 0.805333 19.2592 0.805333L19.2745 4.31672H77.7907C78.2851 4.43903 82.0564 9.16844 82.5507 9.80039C82.8871 10.2285 83.1317 10.4833 83.4579 10.9012L85.2161 13.1079L79.7274 19.7739C79.4318 20.1562 79.2738 20.2989 78.9731 20.6607C77.8876 21.9705 78.5654 21.8532 75.6044 21.8481H63.3987C61.8596 21.8634 61.9564 22.0112 60.8913 21.257C57.9456 19.1675 53.8736 17.608 50.0462 16.9709C42.7483 15.7631 35.6796 17.6437 30.5068 21.0225C29.7424 21.5271 29.3958 21.8532 28.2492 21.8583L7.01268 21.8481L7.10441 25.3595H25.1506C23.8867 27.4134 22.2966 27.9638 19.8555 33.5137C16.6906 40.7199 16.7671 48.66 19.9115 55.8612C20.7422 57.757 22.4291 60.7078 23.693 62.1042C24.2332 62.6954 24.7684 63.2662 25.1506 63.8879C22.6585 63.8879 20.1663 63.8879 17.6691 63.8879C15.8141 63.8879 12.1243 63.4394 10.9674 64.5148L4.22497 72.5313C3.64909 73.2805 3.09868 73.8666 2.48202 74.6157C0.948023 76.4708 2.39539 77.5206 2.97127 78.2698C3.29234 78.6826 3.486 78.8457 3.80707 79.2534L7.10951 83.2387C7.6854 83.8809 8.22051 84.5587 8.75563 85.2416C10.4323 87.3821 11.0592 88.4115 12.9295 88.4472C22.6839 88.6358 32.6626 88.437 42.4476 88.437C52.2377 88.437 62.0328 88.437 71.8331 88.437L71.9605 84.9256H13.2965C12.9448 84.839 6.10043 76.5829 5.8711 76.1395L12.0988 68.5664C12.374 68.2555 12.4505 68.0414 12.7512 67.7611C13.4901 67.0629 20.2581 67.3993 21.4965 67.3993C30.9145 67.3993 27.6631 66.7215 31.9899 69.1066C41.2347 74.2029 52.2275 73.6882 60.5855 68.2198C61.3499 67.7204 61.6965 67.3891 62.8432 67.3891L84.0796 67.3993L84.1 63.8879H65.9366L68.8619 60.1064C75.4566 50.5355 75.0132 36.0211 67.4044 27.1331C66.8387 26.4705 66.3749 26.0985 65.9366 25.3595C68.4288 25.3595 70.926 25.3595 73.4181 25.3595C75.2375 25.3595 79.019 25.7978 80.1249 24.7378Z" fill="#153540"/>
<path fill-rule="evenodd" clip-rule="evenodd" d="M28.1014 46.2647C27.4032 36.3829 34.3292 27.9943 43.946 27.1942C54.2253 26.338 62.196 33.957 62.9808 43.0183C63.8574 53.2161 56.2536 61.2633 47.172 62.0481C37.071 62.9247 28.7436 55.2852 28.1014 46.2647ZM24.6359 46.81C25.7469 57.6245 35.3382 66.7062 47.6969 65.534C58.5572 64.4994 67.6134 54.7144 66.4463 42.473C65.4169 31.6892 55.6676 22.4801 43.3956 23.7185C32.7085 24.7938 23.3669 34.3953 24.6359 46.81Z" fill="#ffc45f"/>
<path fill-rule="evenodd" clip-rule="evenodd" d="M68.3164 74.4066L86.8977 74.4117L87.5857 74.3608L87.6061 70.8953H68.347L68.3164 71.5833V74.4066Z" fill="#153540"/>
<path fill-rule="evenodd" clip-rule="evenodd" d="M64.7644 81.4094H84.0796L84.0745 77.9031H64.8103L64.7644 81.4094Z" fill="#153540"/>
<path fill-rule="evenodd" clip-rule="evenodd" d="M3.50122 18.3471H22.7705L22.7807 17.6591L22.7756 14.8408L3.50122 14.8459V18.3471Z" fill="#153540"/>
<path fill-rule="evenodd" clip-rule="evenodd" d="M7.00244 11.3446H26.231L26.2717 7.83325H7.01263L7.00244 11.3446Z" fill="#153540"/>
<path fill-rule="evenodd" clip-rule="evenodd" d="M0 25.3137H3.46552V21.8481H0V25.3137Z" fill="#153540"/>
<path fill-rule="evenodd" clip-rule="evenodd" d="M87.6265 67.3942L91.092 67.3993V63.9287H87.6265V67.3942Z" fill="#153540"/>
<path fill-rule="evenodd" clip-rule="evenodd" d="M78.7181 84.8645L75.4564 84.89L75.3953 88.3045H78.7792L78.7181 84.8645Z" fill="#153540"/>
<path fill-rule="evenodd" clip-rule="evenodd" d="M12.3688 4.38312L15.6305 4.35764L15.6916 0.937988H12.3127L12.3688 4.38312Z" fill="#153540"/>
<path fill-rule="evenodd" clip-rule="evenodd" d="M48.724 49.5695H43.1644V46.2327C48.2288 46.2327 50.277 45.5354 50.277 48.0098C50.277 49.0521 49.7593 49.5695 48.724 49.5695ZM48.724 42.4611H43.1644V39.1318C48.2288 39.1318 50.277 38.427 50.277 40.9014C50.277 41.9437 49.7593 42.4611 48.724 42.4611ZM43.6145 34.2429V35.3527C37.6573 35.3527 37.6123 34.7453 37.6123 37.5722C37.6123 38.8544 38.3101 39.1318 39.6156 39.1318V49.5695C37.7549 49.5695 37.6123 50.1693 37.6123 51.564C37.6123 53.941 38.2275 53.3411 43.6145 53.3411C43.6145 56.2954 43.562 55.7855 47.1709 55.7855L47.3885 53.3411H48.949C51.7176 53.3411 56.3618 49.6669 52.723 44.2382C55.3114 42.3411 54.2985 35.3527 48.4989 35.3527H47.3885C47.3885 32.6158 47.606 32.9082 44.4999 32.9082C43.8171 32.9082 43.6145 33.5606 43.6145 34.2429Z" fill="#ffc45f"/>
</svg>
