<svg width="114" height="93" viewBox="0 0 114 93" fill="none" xmlns="http://www.w3.org/2000/svg">
<path fill-rule="evenodd" clip-rule="evenodd" d="M35.533 67.7396C36.3821 67.1717 37.6452 65.7229 38.4572 64.9109C40.3253 63.0428 45.8818 56.945 47.2404 56.0375L69.1639 77.8655C68.5006 78.0565 67.6408 78.5236 66.9509 78.8208C66.1654 79.1551 65.38 79.7017 64.7007 79.4629C59.3777 77.5842 61.7712 76.751 57.5733 78.4599C57.0479 78.6722 55.4717 79.4841 55.0418 79.5372C54.198 79.6381 50.8757 77.5258 49.9258 77.5258C49.204 77.5258 47.1342 78.5713 46.4655 78.8685C44.5232 79.723 45.1229 79.7707 43.1539 78.9269C42.4481 78.6191 40.3359 77.5736 39.7574 77.5683C39.3381 77.563 36.3184 78.4864 35.9151 78.6775C36.1963 77.4834 37.2578 73.8693 37.2578 73.1156C37.2578 72.6221 35.7718 68.2437 35.533 67.7396ZM73.7227 77.7222L61.9941 66.2271C61.9675 66.2005 61.9251 66.1581 61.8986 66.1315C61.872 66.0997 61.8349 66.0625 61.803 66.0307L61.4262 65.6433C61.3944 65.6167 61.3519 65.5796 61.3254 65.5531C61.2988 65.5265 61.2564 65.4841 61.2246 65.4575C60.7841 65.0542 60.4869 64.7782 60.0464 64.3377L50.9341 55.2202C48.1267 52.418 47.6384 51.0594 45.6536 53.1079C44.1357 54.6735 42.6922 56.0746 41.1425 57.619C40.0227 58.7388 37.5868 61.4401 36.4935 62.1777C36.5678 61.2755 36.934 60.7767 37.1516 59.9435C37.5178 58.5318 35.9416 55.1352 35.3684 53.1186C34.6148 50.4862 37.9424 46.7501 37.003 44.0116C34.9545 38.0358 34.79 38.9752 36.0849 35.0957C37.8787 29.709 37.2418 31.593 35.9151 25.9091C37.1092 26.0047 37.9424 26.5141 39.0993 26.7689C41.0629 27.1988 43.4724 24.6991 44.8416 24.8849C46.232 25.0706 48.8856 27.48 50.828 26.6203C51.8204 26.1851 52.8712 25.7818 53.7734 25.3413C54.6597 24.9061 55.4982 23.9137 54.5854 22.7833C53.7097 21.7006 52.3883 22.4861 51.4861 22.8629C49.3208 23.7651 50.7271 24.0251 45.765 21.8121C43.7536 20.9152 42.0341 22.9372 39.8211 23.4679C38.834 23.7067 34.5193 21.759 33.4632 21.9076C31.1068 22.2419 32.5185 25.4846 33.1501 27.7135C34.4715 32.3891 33.9355 31.1791 32.1364 37.1018C31.5845 38.9115 32.8635 41.6287 33.495 43.4915C34.0947 45.2588 34.1531 44.951 33.5428 46.7501C32.9006 48.6341 31.5898 51.675 32.0409 53.1875C32.3434 54.1906 34.0098 58.7547 33.9196 59.4181L31.9241 65.6804C31.7384 66.7525 33.2297 70.961 33.6383 72.1285C34.1372 73.5296 33.9355 73.7578 33.4897 75.2916C33.0386 76.8359 31.6429 80.8852 32.3646 81.8458C33.1607 82.9019 34.169 82.3977 35.2729 82.0634C36.4033 81.7237 37.3161 81.4955 38.3882 81.1453C39.8848 80.657 40.4951 81.1347 42.7612 82.1961C45.0963 83.2999 44.7832 83.1248 47.4261 81.9413C47.8985 81.729 48.201 81.5698 48.7476 81.3363C49.9629 80.8162 49.4853 80.6411 51.5869 81.6229C55.5778 83.491 54.527 83.2575 59.0593 81.2779C60.1207 80.8109 59.6537 80.6358 61.7553 81.6229C65.2845 83.2734 64.8387 83.4379 69.2436 81.2992C70.8038 80.5403 70.8728 80.9807 73.8289 81.8299C75.819 82.403 78.6636 83.6502 77.4058 79.2135C77.0237 77.8602 75.7076 73.8799 76.0313 72.7548C76.3444 71.6562 76.6788 70.6744 77.0556 69.5387C78.2656 65.9086 78.4036 66.8798 77.1989 63.3028C76.8486 62.268 76.5726 61.2012 76.233 60.23C75.9676 59.4658 75.8403 59.4181 76.0366 58.7441C76.1852 58.2452 76.509 57.7888 76.4028 57.0193C76.2648 56.0375 75.0336 55.2361 73.9775 55.8995C73.3247 56.3028 72.7781 58.0541 72.6348 58.8077C72.4543 59.7365 74.1208 64.083 74.4657 65.0807C75.007 66.6251 74.7629 66.4446 74.2216 68.0527C71.3611 76.5599 73.3035 72.7176 73.7227 77.7222Z" fill="#153540"/>
<path fill-rule="evenodd" clip-rule="evenodd" d="M57.9824 16.505V38.7629C57.9824 40.1322 58.6405 41.6341 59.219 42.5204C60.5192 44.5105 62.8119 45.5189 65.0196 46.697C65.5928 46.9995 66.0704 47.2914 66.6117 47.5992L71.5473 50.343C74.2752 51.7971 79.4814 55.268 81.9704 55.268C85.3988 55.268 86.5982 54.1429 89.7135 52.4552C92.0114 51.2028 91.4754 49.1277 89.4587 49.1277C87.7127 49.1277 84.7036 52.7949 81.2487 51.967C80.1926 51.7122 78.5261 50.5765 77.4329 50.0193C76.1167 49.3559 74.9863 48.6288 73.7179 47.976C73.0811 47.647 72.5875 47.3392 71.8658 46.9518L66.3199 43.8631C63.7247 42.3187 61.0552 41.6978 61.0552 37.6113V17.6567C61.0552 13.825 63.5442 12.8962 67.4503 10.8105L79.0569 4.37834C79.8901 3.86886 81.2115 3.13649 82.3738 3.09934C83.5573 3.06749 84.7991 3.78926 85.6217 4.21913C86.5929 4.72861 87.5429 5.33893 88.5618 5.88556L97.1965 10.6832C98.242 11.2404 99.1866 11.7233 100.168 12.3177C101.129 12.9068 102.116 13.2146 102.843 14.0585C103.517 14.8492 104.043 16.0645 104.043 17.4656V37.6113C104.043 42.1542 100.513 42.6318 96.5225 45.0625C95.6786 45.5719 93.6779 46.2831 93.6779 47.3976C93.6779 48.183 94.2245 49.1277 95.2116 49.1277C96.0554 49.1277 99.5475 46.9995 100.715 46.3786C103.581 44.8449 107.11 42.9449 107.11 38.7629V16.505C107.11 12.1267 103.347 10.317 100.073 8.57094C98.9107 7.95001 97.8917 7.30786 96.7507 6.71877C95.6839 6.16683 94.6756 5.49283 93.5505 4.92497C90.7377 3.49737 85.7491 0 83.1221 0C79.6884 0 79.561 0.615622 76.536 2.23959L68.3472 6.71346C67.2857 7.2654 66.2721 7.94471 65.1523 8.51256C64.0166 9.08042 63.0082 9.62705 61.9309 10.2798C59.7762 11.5748 57.9824 13.8143 57.9824 16.505Z" fill="#153540"/>
<path fill-rule="evenodd" clip-rule="evenodd" d="M25.7461 18.0388V86.3569C25.7461 88.4691 27.853 90.576 29.9652 90.576H39.5604C41.3012 90.576 42.3467 87.4767 38.8015 87.4979L31.1062 87.5191C29.7423 87.5191 28.8136 87.0786 28.8136 85.7784V18.6119C28.8136 16.2821 32.035 16.8871 34.3807 16.8871L52.8122 16.8977C53.9214 16.9031 55.1049 16.7067 55.1049 15.3534C55.1049 14.5945 54.4787 13.8143 53.5711 13.8143H29.9652C27.853 13.8143 25.7461 15.9266 25.7461 18.0388Z" fill="#153540"/>
<path fill-rule="evenodd" clip-rule="evenodd" d="M44.168 89.0422C44.168 89.9709 44.773 90.5759 45.7017 90.5759H79.8634C81.9703 90.5759 84.0826 88.469 84.0826 86.3568V59.8744C84.0826 58.9457 83.4775 58.3407 82.5488 58.3407C81.0204 58.3407 80.9991 59.4711 81.0098 61.0208L81.0151 82.7108C81.0151 87.3492 81.4874 87.5084 77.1727 87.5084H47.0444C45.4311 87.4978 44.168 87.4341 44.168 89.0422Z" fill="#153540"/>
<path fill-rule="evenodd" clip-rule="evenodd" d="M64.127 21.4937V33.7743C64.127 34.703 64.732 35.3081 65.6607 35.3081C67.5182 35.3081 67.1944 33.4877 67.1944 31.6621C67.1944 29.8736 67.1944 28.0798 67.1944 26.2913C67.7888 26.7265 72.4591 33.2967 73.4887 34.581C74.6031 35.9661 76.4075 35.2762 76.4075 33.7743V21.4937C76.4075 20.565 75.7972 19.96 74.8738 19.96C73.011 19.96 73.3347 21.7803 73.3347 23.6059C73.3347 25.3944 73.3347 27.1882 73.3347 28.9767L69.7418 24.3171C68.5637 22.7409 66.9609 19.96 65.6607 19.96C64.732 19.96 64.127 20.565 64.127 21.4937Z" fill="#ffc45f"/>
<path fill-rule="evenodd" clip-rule="evenodd" d="M44.1685 41.6448C44.004 40.5621 45.076 38.5667 47.0821 38.4287C50.935 38.1633 51.4498 44.2028 47.3952 44.4734C45.6067 44.5955 44.4126 43.2369 44.1685 41.6448ZM41.0957 41.0663C41.0957 49.7911 53.3816 49.7911 53.3816 41.0663C53.3816 37.9086 50.7174 35.3081 46.8539 35.3081C43.8925 35.3081 41.0957 38.1049 41.0957 41.0663Z" fill="#153540"/>
<path fill-rule="evenodd" clip-rule="evenodd" d="M79.4766 21.4937V33.7743C79.4766 35.8335 82.5494 35.8335 82.5494 33.7743V29.1678C85.8185 29.1678 88.6897 29.7834 88.6897 27.634C88.6897 25.4846 85.8185 26.1003 82.5494 26.1003V23.0275C85.8185 23.0275 88.6897 23.6431 88.6897 21.4937C88.6897 20.565 88.0847 19.96 87.1559 19.96H81.0156C80.0869 19.96 79.4766 20.565 79.4766 21.4937Z" fill="#ffc45f"/>
<path fill-rule="evenodd" clip-rule="evenodd" d="M91.7617 21.4937C91.7617 23.3193 93.5661 23.0275 94.8292 23.0275V33.7743C94.8292 35.8335 97.902 35.8335 97.902 33.7743V23.0275C99.1598 23.0275 100.97 23.3193 100.97 21.4937C100.97 20.565 100.365 19.96 99.4358 19.96H93.2955C92.3667 19.96 91.7617 20.565 91.7617 21.4937Z" fill="#ffc45f"/>
<path fill-rule="evenodd" clip-rule="evenodd" d="M15 13.8144H21.1403V7.67407H15V13.8144Z" fill="#ffc45f"/>
<path fill-rule="evenodd" clip-rule="evenodd" d="M90.2227 92.115H96.363V85.9747H90.2227V92.115Z" fill="#ffc45f"/>
<rect x="6.39258" y="30.9099" width="8.35784" height="8.35784" transform="rotate(-45 6.39258 30.9099)" fill="#153540"/>
<rect x="12" y="85.9099" width="8.35784" height="8.35784" transform="rotate(-45 12 85.9099)" fill="#153540"/>
<rect y="43.8484" width="6.42766" height="6.42766" transform="rotate(-45 0 43.8484)" fill="#153540"/>
<rect x="96" y="69.8484" width="6.42766" height="6.42766" transform="rotate(-45 96 69.8484)" fill="#153540"/>
<rect x="12" y="54.8259" width="3.56738" height="3.56738" transform="rotate(-45 12 54.8259)" fill="#153540"/>
<rect x="108" y="80.8259" width="3.56738" height="3.56738" transform="rotate(-45 108 80.8259)" fill="#153540"/>
</svg>
