<svg width="252" height="286" viewBox="0 0 252 286" fill="none" xmlns="http://www.w3.org/2000/svg">
<path fill-rule="evenodd" clip-rule="evenodd" d="M139.849 276.184C129.9 276.184 111.801 270.197 101.897 267.419C95.6821 265.666 89.7856 264.004 83.6615 262.297C73.1662 259.337 65.4029 255.808 55.5223 259.724C53.0863 260.68 50.2178 262.251 48.055 263.389C48.055 259.496 48.0778 255.603 48.055 251.71C48.0322 247.112 48.6469 244.767 48.6242 240.031C48.5786 231.312 49.1705 224.55 49.1705 216.127C58.2315 210.048 66.9966 207.771 79.2221 207.771C89.5807 207.771 96.7976 211.255 103.878 214.829C107.225 216.514 111.027 218.244 115.147 219.132C117.469 219.633 119.518 219.974 122.045 220.02C125.506 220.065 126.417 220.589 129.809 220.589C135.318 220.589 156.65 220.566 160.68 221.431C169.422 223.298 175.182 228.899 177.117 237.254C171.972 237.254 168.261 236.707 162.661 236.707C160.065 236.707 157.424 236.753 154.852 236.73C151.687 236.685 151.004 236.138 147.658 236.115C143.104 236.115 136.411 236.548 132.131 236.07C127.623 235.546 122.045 235.114 122.045 240.6C122.045 246.246 128.01 245.609 133.725 245.609C139.894 245.586 143.901 246.155 149.866 246.155C161.112 246.133 171.061 246.702 182.672 246.702C188.364 246.702 187.43 239.826 186.565 236.138L207.533 226.508C211.563 224.505 225.7 217.219 229.411 217.219C233.6 217.219 237.357 217.197 239.975 221.112C237.448 221.795 230.732 226.758 228.296 228.352C226.383 229.627 224.585 230.629 222.513 232.018L169.103 266.508C166.963 267.897 165.552 268.899 163.435 270.31C158.198 273.816 146.861 276.184 139.849 276.184ZM144.106 285.655H137.322C131.334 285.291 125.233 284.016 118.403 282.081C112.711 280.441 69.8423 267.852 65.8582 267.852C55.363 267.852 53.8604 273.042 47.5086 274.522C47.5086 279.849 47.2582 282.468 42.9326 283.31L4.77628 282.194C-1.73488 280.874 1.3841 269.081 1.33857 260.635C1.27027 243.856 2.49965 225.666 2.43135 208.864L3.00051 196.07C3.59243 188.648 12.6079 191.653 23.5812 191.63L35.8067 192.222C49.7852 192.381 49.7397 190.765 49.7397 204.425C51.0146 204.129 57.0477 201.237 62.3978 199.872C91.0378 192.472 105.54 206.906 116.9 209.57L140.964 211.118C147.202 211.095 159.496 210.936 164.664 212.438C172.177 214.624 181.784 221.021 183.241 227.237L194.92 221.682C196.81 220.725 198.608 220.134 200.68 219.086C208.193 215.307 223.447 207.225 231.073 207.225C237.562 207.225 244.687 210.913 248.717 215.717C255.775 224.095 250.22 225.415 243.64 229.809L180.122 270.857C175.979 273.407 168.011 279.303 164.026 280.897C156.81 283.765 150.412 285.268 144.106 285.655ZM38.0606 273.407L10.7866 272.86C10.7866 260.111 11.3102 249.297 11.333 236.685C11.333 233.156 11.9249 232.063 11.9249 228.375C11.9021 225.21 11.9249 222.046 11.9021 218.904C11.8794 212.894 12.4713 207.703 12.4713 201.101L39.7225 201.647C39.7225 225.916 38.0606 249.161 38.0606 273.407Z" fill="white"/>
<path fill-rule="evenodd" clip-rule="evenodd" d="M131.492 188.853C109.432 188.853 93.9734 180.884 81.3381 163.924C77.3084 158.505 74.1212 150.491 72.5275 143.821C67.5872 123.286 75.1001 102.455 87.4167 90.2518C111.253 66.6659 147.383 66.6432 170.855 89.9786C178.3 97.3777 183.536 107.235 186.04 117.64C190.594 136.65 184.606 157.822 171.128 171.209C160.997 181.271 147.315 188.853 131.492 188.853ZM61.4176 129.342C61.4176 136.923 61.668 140.656 63.5121 147.828C64.1495 150.309 64.6959 151.766 65.5155 154.18C66.3351 156.638 67.1547 157.982 67.997 160.03C69.9322 164.72 74.4627 171.323 77.9687 175.102C82.6585 180.156 80.6096 178.676 86.3694 183.389C94.2921 189.854 104.264 194.931 114.395 197.071C125.323 199.393 133.2 199.462 144.082 196.98C152.187 195.136 160.861 191.721 167.44 186.963C169.125 185.734 170.65 184.641 172.198 183.389C176.774 179.655 181.214 175.033 184.583 170.184C200.884 146.576 201.749 114.247 184.743 91.6633L178.937 84.6968C152.005 56.0568 108.521 55.7836 81.8617 82.4657C69.4313 94.8961 61.4176 110.354 61.4176 129.342Z" fill="white"/>
<path fill-rule="evenodd" clip-rule="evenodd" d="M189.74 130.763C189.74 162.997 162.813 189.128 129.597 189.128C96.3803 189.128 69.453 162.997 69.453 130.763C69.453 98.5295 96.3803 72.3989 129.597 72.3989C162.813 72.3989 189.74 98.5295 189.74 130.763ZM124.913 93.0399H135.647V114.566H112.725V144.944H117.054V157.098H100.059V103.811H123.3V93.0918L124.913 93.0399ZM150.591 104.428H142.658L142.851 114.516H146.159V122.83H121.412V130.877H146.48V144.996H123.74V165.639H135.592V154.063H149.949C158.412 154.063 158.974 147.422 158.974 147.422C158.974 147.422 159.135 136.682 158.974 134.155C158.893 132.883 157.423 132.124 156.322 131.556C155.237 130.996 154.512 130.622 155.827 130.124C158.492 129.12 159.054 122.813 159.054 122.813C159.054 122.813 159.135 122.228 159.135 113.913C159.135 105.616 150.591 104.428 150.591 104.428Z" fill="#ffc45f"/>
<path fill-rule="evenodd" clip-rule="evenodd" d="M124.276 6.94992V49.2269C124.276 56.5577 134.293 56.5577 134.293 49.2269V6.94992C134.293 3.37562 132.426 1.34941 130.309 0.848557H128.237C126.12 1.34941 124.276 3.37562 124.276 6.94992Z" fill="#ffc45f"/>
<path fill-rule="evenodd" clip-rule="evenodd" d="M159.312 30.331C159.312 35.5217 158.401 50.4108 160.541 53.0062C163.364 56.4439 169.329 54.6226 169.329 49.227V30.331C169.329 21.9985 159.312 21.9985 159.312 30.331Z" fill="#ffc45f"/>
<path fill-rule="evenodd" clip-rule="evenodd" d="M89.2151 30.331V49.227C89.2151 56.5577 99.2323 56.5577 99.2323 49.227V30.331C99.2323 21.9985 89.2151 21.9985 89.2151 30.331Z" fill="#ffc45f"/>
</svg>
