<svg width="301" height="329" viewBox="0 0 301 329" fill="none" xmlns="http://www.w3.org/2000/svg">
<path fill-rule="evenodd" clip-rule="evenodd" d="M118.185 249.689C114.71 247.188 116.199 245.381 116.199 239.761C116.199 221.563 111.384 225.277 109.895 221.142C109.374 219.681 97.8335 212.427 93.9619 203.241C88.4026 190.044 75.77 191.01 75.77 165.607C75.77 156.273 77.6562 156.347 89.4201 153.426C92.7209 152.609 145.832 149.687 148.264 150.653C151.491 151.94 170.204 153.327 180.106 156.719C193.434 161.324 208.027 160.408 215.051 172.663C217.086 176.204 223.241 181.527 219.841 189.524C214.678 201.681 204.9 212.699 195.667 222.677C187.874 231.07 189.835 244.539 186.162 248.798C184.598 250.605 187.726 252.289 177.103 253.205C166.68 254.121 126.573 256.3 119.723 250.902L118.185 249.689Z" fill="#FFFCD9"/>
<path fill-rule="evenodd" clip-rule="evenodd" d="M126.722 308.516H173.977C173.406 315.573 163.851 320.946 154.941 320.946C147.198 320.946 139.802 321.763 133.374 317.578C130.495 315.672 127.244 312.577 126.722 308.516ZM119.5 291.482H181.199C187.875 291.482 187.875 300.643 181.199 300.643H119.5C112.824 300.643 112.824 291.482 119.5 291.482ZM110.963 279.028C110.963 277.271 111.261 277.221 111.608 275.76C113.196 274.993 114.487 274.448 116.87 274.448H183.83C186.212 274.448 187.503 274.993 189.091 275.76C189.662 278.211 191.201 283.609 185.145 283.609H115.554C112.477 283.609 110.963 282.099 110.963 279.028ZM107.662 263.306C107.662 260.979 107.116 257.414 112.278 257.414H188.421C194.799 257.414 194.799 266.575 188.421 266.575H112.278C110.069 266.575 107.662 265.436 107.662 263.306ZM131.959 186.033C145.088 186.033 144.244 174.867 149.332 173.951C155.115 172.936 154.221 186.033 168.07 186.033C167.971 190.317 154.296 244.539 154.296 249.565H146.403C146.329 246.025 140.571 222.949 139.305 217.997L131.959 186.033ZM97.1638 80.5598L97.8339 84.4965C103.84 87.3685 105.751 81.4016 120.369 74.89C144.468 64.1445 171.346 68.0565 193.161 81.7482C210.385 92.5679 222.372 112.598 225.872 132.95C229.694 155.258 222.571 179.126 207.63 196.011C204.727 199.304 201.451 201.929 198.448 205.172C187.403 217.057 182.514 231.986 182.514 249.565H162.163L167.176 228.347C168.715 221.563 177.426 178.333 179.983 175.635C182.514 173.01 187.13 174.174 187.13 169.643C187.13 167.142 185.17 165.706 182.514 165.706C172.463 165.706 171.793 177.516 166.109 177.516C161.592 177.516 160.575 165.706 149.704 165.706C139.057 165.706 139.678 177.516 132.629 177.516C129.254 177.516 126.921 165.706 117.515 165.706C114.462 165.706 112.923 167.241 112.923 170.311C112.923 173.877 117.614 173.084 120.046 175.635C122.677 178.408 131.016 219.062 133.15 228.074C134.118 232.234 137.866 246.247 137.866 249.565H118.185C118.185 233.546 115.107 222.157 105.801 209.505C98.4544 199.502 92.7958 198.487 84.0597 183.384C78.0041 172.886 74.7777 161.943 73.5368 146.666C72.1469 129.558 82.7196 111.459 82.7196 106.755C82.7196 105.245 80.9823 103.487 79.4435 103.487C70.6827 103.487 65.6445 135.475 65.6445 141.492C65.6445 164.642 71.2535 183.582 86.1693 200.27C92.0264 206.856 98.8267 213.095 102.822 219.681C105.081 223.444 106.868 227.95 108.084 232.779C109.672 239.191 109.647 241.766 109.647 249.565C96.7171 250.63 97.0646 269.868 104.386 271.824C101.383 284.698 103.319 283.015 107.662 289.501C106.496 294.577 103.939 302.252 112.377 307.08C115.132 308.69 116.82 307.749 118.111 309.878C119.153 311.636 124.34 328.819 141.812 328.819C158.589 328.819 169.807 331.221 179.784 316.266C181.521 313.642 181.298 312.651 182.39 310.349C184.301 306.288 194.352 309.16 194.352 295.394C194.352 292.596 193.583 291.854 193.037 289.501C197.405 283.015 199.316 284.698 196.313 271.824C203.734 269.843 203.783 250.605 191.052 249.565C191.052 232.828 195.147 220.151 205.67 209.753C216.317 199.255 222.223 191.951 228.478 178.16C240.415 151.792 235.898 121.016 219.94 96.9255C203.262 71.7456 169.013 56.1721 138.337 61.3715C128.435 63.0551 123 64.9616 114.983 68.205C111.757 69.5173 97.1638 77.3659 97.1638 80.5598Z" fill="#153540"/>
<path fill-rule="evenodd" clip-rule="evenodd" d="M84.0352 129.038C84.0352 131.687 85.4746 133.619 87.9813 133.619C92.2252 133.619 92.1756 129.112 93.3172 125.844C97.1144 115.123 101.607 109.256 109.474 101.357C114.065 96.7523 119.228 93.4098 125.581 90.5625C128.758 89.1512 131.736 87.9876 135.235 87.0962C143.723 84.9422 145.585 86.2792 143.798 78.6039C132.257 75.8556 113.073 86.2792 104.212 94.7963C98.9013 99.9214 96.1217 103.19 92.0267 109.503C90.0908 112.524 84.0352 124.903 84.0352 129.038Z" fill="#ffc45f"/>
<path fill-rule="evenodd" clip-rule="evenodd" d="M38.0713 41.2672C38.0713 44.783 41.794 47.2589 43.8291 49.2892C46.5343 51.9879 63.5845 70.0868 65.6444 70.0868C69.0694 70.0868 70.2606 68.9231 70.2606 65.5064C70.2606 63.4266 52.7389 47.0609 50.0585 44.3869C48.3461 42.6785 44.6481 37.999 42.0174 37.999C40.6028 37.999 38.0713 40.6235 38.0713 41.2672Z" fill="#ffc45f"/>
<path fill-rule="evenodd" clip-rule="evenodd" d="M230.462 65.5063C230.462 68.9231 231.629 70.0867 235.054 70.0867C237.139 70.0867 253.543 52.6316 256.224 49.9329C258.606 47.556 261.783 45.501 262.627 41.911C259.847 36.6868 257.787 37.1325 253.916 41.0939C251.161 43.9165 248.828 46.1943 246.048 48.9673C243.815 51.1956 230.462 63.5504 230.462 65.5063Z" fill="#ffc45f"/>
<path fill-rule="evenodd" clip-rule="evenodd" d="M146.404 3.28676V35.3745C146.404 39.7569 154.296 39.7569 154.296 35.3745V3.28676C154.296 -1.09559 146.404 -1.09559 146.404 3.28676Z" fill="#ffc45f"/>
<path fill-rule="evenodd" clip-rule="evenodd" d="M0 149.34C0 151.371 0.670095 153.921 3.27602 153.921H35.4406C39.8334 153.921 39.8334 146.072 35.4406 146.072H3.27602C1.73728 146.072 0 147.805 0 149.34Z" fill="#ffc45f"/>
<path fill-rule="evenodd" clip-rule="evenodd" d="M261.957 149.34C261.957 151.371 262.652 153.921 265.258 153.921H297.422C301.815 153.921 301.815 146.072 297.422 146.072H265.258C263.719 146.072 261.957 147.805 261.957 149.34Z" fill="#ffc45f"/>
<path fill-rule="evenodd" clip-rule="evenodd" d="M82.0742 142.779C82.0742 153.302 89.9416 148.87 89.9416 146.072C89.9416 143.176 90.8103 138.199 85.9955 138.199C83.4889 138.199 82.0742 140.155 82.0742 142.779Z" fill="#153540"/>
</svg>
