<svg width="297" height="297" viewBox="0 0 297 297" fill="none" xmlns="http://www.w3.org/2000/svg">
<path fill-rule="evenodd" clip-rule="evenodd" d="M107.455 180.003C88.1734 184.392 65.0319 177.299 51.0412 169.05C38.0499 161.388 25.4308 148.71 17.8672 134.034C4.81706 108.737 5.30693 77.0716 20.3753 51.6179C41.8513 15.3675 91.6809 -4.18808 135.26 19.0906C160.576 32.6306 187.715 65.0992 180.524 108.325L165.475 112.754C166.847 95.0596 167.924 82.8325 161.301 67.333C146.056 31.6704 101.596 12.4871 64.8164 30.2596C52.0406 36.432 43.9675 43.7212 37.2857 52.6957C19.3956 76.6993 29.7417 83.2832 34.4052 76.7385C37.0113 73.0547 39.3627 64.8836 43.0465 59.6714C82.8044 3.31674 173.607 43.2706 156.011 111.656C153.169 122.708 146.821 119.612 131.302 135.719C126.638 140.559 124.365 144.517 120.113 150.121C111.726 161.192 60.3488 164.641 38.6573 122.943C26.7632 100.076 37.9715 86.242 25.47 88.3974C17.0246 101.33 29.8984 149.67 74.8097 163.504C92.2687 168.873 97.814 164.327 112.393 165.033L107.455 180.003ZM189.89 106.013C191.144 80.3243 187.382 63.4532 176.174 45.1125C145.958 -4.38402 73.6928 -18.0024 26.9004 28.888C-17.3251 73.2114 -4.43169 148.397 46.6716 177.084C76.3577 193.739 85.6065 187.371 106.279 190.447C103.497 239.336 129.616 278.8 172.941 291.987C247.793 314.757 313.71 243.255 292.234 173.85C289.726 165.738 288.961 157.606 280.457 159.429C278.948 164.308 286.688 183.55 287.237 193.837C289.138 229.539 272.11 260.107 242.678 276.331C173.979 314.208 94.9532 247.919 118.82 174.419C140.08 108.952 226.552 97.4698 264.625 143.106C267.681 146.77 271.169 151.924 274.736 153.433C280.516 151.14 279.713 147.789 276.519 143.459C274.912 141.303 269.367 135.072 267.936 133.681C262.861 128.763 254.847 122.669 247.656 118.613C218.93 102.369 207.035 108.874 189.89 106.013Z" fill="#153540"/>
<path fill-rule="evenodd" clip-rule="evenodd" d="M191.594 139.638C227.923 133.191 259.393 161.349 263.409 191.701C268.367 229.108 242.365 257.618 210.797 262.674C174.488 268.474 142.882 241.531 138.728 210.747C133.555 172.4 159.851 145.301 191.594 139.638ZM271.58 214.588C276.264 193.249 268.347 171.323 258.158 158.077C220.536 109.05 142.705 126.882 130.4 187.077C121.347 231.302 152.797 264.32 187.695 271.315C230.98 279.976 263.997 249.192 271.58 214.588Z" fill="#153540"/>
<path fill-rule="evenodd" clip-rule="evenodd" d="M230.314 11.7229C246.186 19.2473 260.725 32.5522 268.348 46.7584C274.109 57.4768 273.325 49.1294 285.865 53.5774C288.922 61.9248 280.732 73.7797 276.989 81.598C273.305 89.2596 268.406 101.781 263.704 105.817C254.847 106.287 254.259 100.86 250.262 95.334L230.922 65.8438C225.709 54.8315 235.84 55.8896 240.21 53.4403C243.227 41.9577 220.066 34.2765 214.344 30.1224C204.86 23.2055 211.072 2.61132 230.314 11.7229ZM227.022 47.699C224.024 56.1443 212.914 55.4977 228.629 77.9534C242.345 97.607 250.477 121.728 267.505 113.557C274.148 110.383 276.225 102.878 279.497 96.2941C291.881 71.4675 310.261 44.8969 275.833 43.055C270.542 29.8285 242.385 1.72955 223.476 0.122775C210.425 -0.994129 198.629 11.7033 202.058 25.2825C206.056 41.1151 218.596 37.1766 227.022 47.699Z" fill="#153540"/>
<path fill-rule="evenodd" clip-rule="evenodd" d="M9.59848 239.865C7.81535 231.831 16.829 218.389 20.2189 211.041C25.8426 198.853 29.2521 187.371 36.7765 189.213C40.9698 190.232 51.1199 207.553 54.1375 212.256C61.3092 223.484 67.6579 228.461 65.3849 238.023C61.2308 239.806 59.095 239.179 55.4503 242.608C54.8821 251.818 70.8714 259.362 79.2384 263.908C91.9751 270.825 85.5872 288.872 70.264 285.286C62.3085 283.424 47.9259 272.04 43.2428 268.199C36.7765 262.889 30.2906 251.661 24.6865 243.04C17.6323 241.531 14.8499 243.294 9.59848 239.865ZM68.9708 246.273C80.7864 229.421 76.2012 231.145 60.9565 206.652C51.9821 192.211 43.9286 175.457 28.7034 181.727C21.9236 184.51 19.533 193.092 16.2215 199.735C10.0492 212.099 -2.62869 231.929 0.839596 241.198C3.66125 248.8 10.2255 250.917 19.8662 251.387C26.2541 262.674 32.8575 269.414 41.4204 277.37C73.0857 306.86 100.205 291.223 94.1109 268.63C90.0352 253.562 75.1627 255.933 68.9708 246.273Z" fill="#153540"/>
<path fill-rule="evenodd" clip-rule="evenodd" d="M195.782 162.362H209.105V187.045H180.655V221.879H186.028V235.816H164.934V174.714H193.78V162.422L195.782 162.362Z" fill="#ffc45f"/>
<path fill-rule="evenodd" clip-rule="evenodd" d="M218.007 174.852H227.821C227.821 174.852 238.368 176.24 238.368 186.093C238.368 195.947 238.269 196.641 238.269 196.641C238.269 196.641 237.575 204.115 234.284 205.305C230.993 206.494 237.971 207.089 238.17 210.083C238.368 213.076 238.17 225.804 238.17 225.804C238.17 225.804 237.476 233.675 227.028 233.675C216.579 233.675 209.303 233.675 209.303 233.675V247.395H194.672V222.93H222.745V206.197H191.797V196.641H222.349V186.807H218.265L218.007 174.852Z" fill="#ffc45f"/>
<path fill-rule="evenodd" clip-rule="evenodd" d="M64.6269 123.362L65.1248 123.057C65.2059 123.023 65.2985 122.966 65.3796 122.921L66.7344 122.163C67.0124 121.959 67.9735 120.952 68.2051 120.579C69.1894 119.085 68.9694 117.173 68.9694 115.261C69.0157 102.339 82.6107 105.258 94.874 105.258C100.849 105.258 113.379 103.991 117.154 107.318C119.597 109.479 120.559 111.425 120.535 115.94C120.501 122.004 122.319 121.586 124.994 123.362C131.386 123.362 132.637 119.006 131.617 112.409C130.923 107.872 129.788 104.738 126.904 101.502C125.202 99.6122 126.441 100.45 123.384 98.1979C122.562 97.5869 121.543 97.0098 120.616 96.512C118.879 95.5728 115.683 94.6224 113.472 94.3848L76.5891 94.3621C71.3433 94.7582 66.9776 97.1343 64.0594 99.9969C60.8865 103.109 58.3042 107.193 57.9452 111.9L57.9336 112.081V118.712C58.4547 121.518 60.1338 123.362 64.6269 123.362Z" fill="#ffc45f"/>
<path fill-rule="evenodd" clip-rule="evenodd" d="M101.52 70.1238C100.593 73.2858 96.8693 76.2392 92.4966 75.0347C89.0866 74.0965 86.1173 70.2628 87.4395 65.7573C90.1073 56.7115 104.339 60.5684 101.52 70.1238ZM75.9336 67.3672C75.9336 78.0808 84.5631 86.3621 92.8794 86.3621H95.6399C104.49 86.3621 112.934 77.9302 112.934 69.093C112.934 60.719 109.895 54.9394 102.216 51.1289C90.6176 45.3725 75.9336 54.4414 75.9336 67.3672Z" fill="#ffc45f"/>
</svg>
