<svg width="274" height="274" viewBox="0 0 274 274" fill="none" xmlns="http://www.w3.org/2000/svg">
<path fill-rule="evenodd" clip-rule="evenodd" d="M223.314 256.731V253.202H246.828C246.828 263.135 247.74 261.43 227.418 261.43C224.623 261.43 223.314 259.447 223.314 256.731ZM46.3701 261.43C26.0686 261.43 26.9806 263.135 26.9806 253.202H50.4938C50.4938 256.553 51.1283 261.43 46.3701 261.43ZM0.533081 166.802V236.747C0.533081 242.913 4.28014 248.345 9.13744 251.061C10.7433 251.953 13.3603 252.766 15.2239 253.202C15.2239 276.477 29.776 273.186 47.5596 273.186C57.5518 273.186 62.2505 263.967 62.2505 253.202C67.425 253.202 76.3466 254.61 76.3466 247.909C76.3466 240.613 68.4559 241.445 64.5899 241.445L17.5237 241.485C14.1335 241.307 12.2897 238.967 12.2897 237.341V203.241H55.7873C58.1862 203.241 60.8032 199.395 60.1688 196.54C59.4154 193.071 56.7389 191.485 52.8333 191.485H12.2897V166.207C12.2897 158.415 20.0614 150.921 28.7451 150.921H245.063C249.802 150.921 253.886 153.023 256.404 155.461C258.783 157.761 261.519 161.825 261.519 166.207V191.485H220.955C217.149 191.485 214.67 192.932 213.758 196.084C212.628 199.93 216.177 203.241 218.021 203.241H261.519V237.341C261.519 242.913 250.952 241.445 247.423 241.445C241.217 241.445 204.302 240.652 201.11 242.179C194.825 245.173 197.482 253.202 202.735 253.202H211.558C211.558 259.606 211.835 262.917 215.384 267.596C221.173 275.169 232.058 273.186 243.299 273.186C255.036 273.186 258.584 263.611 258.584 253.202C266.772 251.299 273.275 245.787 273.275 236.747V166.802C273.275 151.952 260.071 139.165 245.063 139.165H28.7451C13.737 139.165 0.533081 151.952 0.533081 166.802Z" fill="#FEFEFE"/>
<path fill-rule="evenodd" clip-rule="evenodd" d="M82.8296 70.3893C88.2619 70.5082 88.8963 72.3916 97.5205 70.3893C100.296 75.6232 100.137 71.8762 100.455 75.6827C93.8924 77.4274 94.3682 85.4766 85.5854 78.7954C83.7218 77.3679 82.3142 76.337 80.4704 75.0879C80.9462 73.0062 81.9375 72.0744 82.8296 70.3893ZM71.073 35.7141C71.073 25.5435 78.1309 12.2008 89.8678 12.2008C102.754 12.2008 109.852 24.1954 109.852 33.3548C109.852 40.8291 109.218 47.4311 103.845 53.2004C89.6695 68.4463 71.073 54.1124 71.073 35.7141ZM72.8375 64.5208C66.9889 73.2442 64.7684 71.7572 54.5978 76.8524C44.2885 82.0269 31.6793 88.2126 31.6793 105.659V123.304C31.6793 128.36 34.1377 129.767 38.1425 129.767C50.4344 129.767 35.7634 101.654 50.5137 92.1579L71.073 82.1459C72.6987 83.2363 73.5314 84.4457 75.1769 85.6947C76.644 86.8248 77.893 87.6773 79.6377 88.847C94.8242 98.9581 99.3841 89.5409 110.447 82.1459C130.273 92.6337 138.084 89.4219 138.084 113.887C138.084 125.445 136.557 129.767 145.122 129.767C146.411 129.767 148.274 128.201 148.849 127.011C150.336 123.958 149.84 114.303 149.84 110.358C149.84 84.862 135.982 81.6899 120.835 74.1165C118.08 72.7287 116.553 72.0546 113.619 70.7461C110.784 69.4971 109.634 67.3757 108.107 65.0958C114.412 60.8729 121.609 48.6999 121.609 38.0535C121.609 26.515 120.023 20.0915 113.143 11.2492C98.5514 -7.50593 67.8612 -1.65734 60.724 25.9599C56.6994 41.5825 63.5392 58.2758 72.8375 64.5208Z" fill="#FEFEFE"/>
<path fill-rule="evenodd" clip-rule="evenodd" d="M172.759 69.2195V19.8337C172.759 15.9677 174.821 12.2008 178.647 12.2008H255.65C258.604 12.2008 261.519 15.1152 261.519 18.0692V69.7945C261.519 83.0777 236.875 73.5614 223.275 77.4076C220.539 78.1808 218.199 79.8659 216.376 81.6899L201.566 102.13C201.566 93.2483 203.865 83.9302 194.508 78.6169C186.577 74.1165 172.759 81.3529 172.759 69.2195ZM161.002 19.8337V68.6248C161.002 80.3814 169.329 88.1729 179.222 88.6289C187.608 89.0056 189.452 86.9635 189.869 90.9089C190.8 99.7709 188.104 107.8 193.179 112.876C195.4 115.096 199.246 116.306 202.339 115.85C206.443 115.235 208.029 113.352 210.051 110.616L220.499 95.786C226.586 86.6662 224.98 88.6091 239.175 88.6091C251.864 88.6091 262.827 90.6313 269.766 80.996C271.174 79.0333 273.275 74.8897 273.275 71.559V18.0692C273.275 8.83045 264.354 0.444183 256.82 0.444183H178.647C169.032 0.444183 161.002 8.94941 161.002 19.8337Z" fill="#ffc45f"/>
<path fill-rule="evenodd" clip-rule="evenodd" d="M92.227 217.357C92.227 204.094 98.5712 192.476 105.292 185.735C129.043 162.004 167.168 173.304 177.398 198.602C184.734 216.782 181.859 235.141 169.091 247.77C154.5 262.203 136.458 265.296 117.584 257.246C115.582 256.394 112.766 254.649 110.942 253.301C104.876 248.821 99.2651 242.318 96.1723 235.161C94.2889 230.819 92.227 223.245 92.227 217.357ZM80.4703 216.762C80.4703 224.276 82.8296 233.852 85.169 239.106C89.2729 248.246 95.3793 256.315 103.31 262.124C120.399 274.653 142.842 276.973 161.795 267.516C173.949 261.45 183.068 251.517 188.639 239.106C204.222 204.252 178.687 160.913 136.319 160.913C105.193 160.913 80.4703 187.936 80.4703 216.762Z" fill="#ffc45f"/>
<path fill-rule="evenodd" clip-rule="evenodd" d="M145.717 230.858H132.79V223.226H146.886C148.572 223.226 149.84 225.248 149.84 226.755C149.84 229.491 148.473 230.858 145.717 230.858ZM145.122 211.469H132.79V203.241C142.188 203.241 149.84 201.556 149.84 207.94C149.84 209.843 147.283 211.469 145.122 211.469ZM130.431 191.485C122.719 191.485 112.211 189.78 112.211 197.948C112.211 203.578 118.278 203.241 121.034 203.241V230.858C117.227 230.858 112.211 231.394 112.211 236.747C112.211 244.459 123.254 242.615 130.431 242.615C130.431 255.879 142.188 252.052 142.188 246.144V242.615H145.717C155.867 242.615 164.472 232.762 160.645 221.818C159.932 219.796 158.782 218.943 158.484 217.595C158.128 215.87 159.218 215.692 160.17 213.59C164.67 203.697 158.98 191.485 142.188 191.485C142.188 188.114 142.783 182.662 136.319 182.662C131.878 182.662 130.431 186.885 130.431 191.485Z" fill="#ffc45f"/>
<path fill-rule="evenodd" clip-rule="evenodd" d="M208.624 56.8682C206.066 55.1632 203.984 52.5264 201.705 50.2662C198.394 46.9355 197.501 44.5168 192.743 44.5168C189.809 44.5168 187.45 47.3915 187.45 49.8102C187.45 53.4185 191.157 56.1545 193.179 58.1965C200.832 65.8294 207.613 74.7708 219.647 62.5978L240.801 41.4438C243.576 38.6682 246.828 36.6658 246.828 32.1852C246.828 29.0329 244.429 26.8917 240.94 26.8917C237.43 26.8917 227.22 38.5691 224.345 41.4438C219.131 46.6381 214.036 52.1695 208.624 56.8682Z" fill="#ffc45f"/>
</svg>
