<svg width="285" height="266" viewBox="0 0 285 266" fill="none" xmlns="http://www.w3.org/2000/svg">
<path fill-rule="evenodd" clip-rule="evenodd" d="M153.76 216.314L138.709 215.399C133.713 214.623 128.546 213.708 123.767 212.047C110.221 207.361 97.9634 200.177 87.9244 189.874C77.9939 179.696 71.1047 167.391 66.636 153.939C65.7981 151.441 65.2706 148.943 64.6654 146.382C64.0758 143.869 63.7345 141.34 63.3621 138.795C63.2069 137.6 63.2379 136.452 63.2069 135.257C63.1604 134.326 63.0362 133.519 62.8656 132.619C62.7725 132.154 62.7104 131.688 62.6949 131.207C62.6794 130.757 62.7104 130.338 62.7725 129.889C62.8811 129.066 62.9586 128.352 62.9431 127.53C62.9276 126.335 62.7725 125.141 62.8345 123.946C63.8276 104.985 71.3374 84.5344 84.4332 70.5387C91.85 62.6099 99.7788 55.5189 109.445 50.4141C116.754 46.5505 124.527 44.0834 132.549 42.206L147.491 40.2819C147.879 40.2664 148.236 40.2975 148.624 40.3285C149.477 40.4216 150.253 40.4992 151.122 40.4837C152.332 40.4371 153.527 40.313 154.738 40.344C158.368 40.4526 162.17 40.9647 165.754 41.6008C169.602 42.268 173.652 43.1369 177.36 44.3627C187.803 47.7918 199.611 53.657 207.695 61.2289C213.156 66.3338 218.696 71.6559 223.009 77.7848C226.857 83.2465 229.712 89.3134 232.397 95.4113C233.405 97.6922 234.181 100.221 234.879 102.642C235.593 105.125 236.229 107.638 236.819 110.152C237.61 113.534 238.107 116.855 238.308 120.33C238.494 123.217 238.494 126.103 238.541 128.989C238.556 130.199 238.712 131.394 238.65 132.588C237.641 151.518 230.131 172 217.051 185.995C211.931 191.457 206.608 196.857 200.402 201.093C195.157 204.662 189.385 207.361 183.598 209.922C181.301 210.93 178.772 211.706 176.367 212.404C173.885 213.118 171.371 213.754 168.857 214.344C166.344 214.918 163.815 215.275 161.27 215.632C160.091 215.802 158.927 215.756 157.732 215.802C156.817 215.833 155.994 215.973 155.094 216.144C154.644 216.221 154.21 216.283 153.76 216.314ZM201.442 74.0454C194.397 67.451 183.986 61.1669 174.816 58.1722C170.487 56.7602 166.018 55.5965 161.503 54.9759C158.058 54.5104 154.644 54.1845 151.169 54.1845C148.081 54.1845 144.993 54.4173 141.906 54.6966C139.578 54.8983 137.266 55.2396 134.985 55.7051C122.945 58.1567 111.711 64.115 102.463 72.1524C96.3497 77.4745 91.0121 83.7586 86.8382 90.7099C80.1041 101.944 76.8923 114.31 76.8457 127.344C76.8302 129.842 76.8147 132.356 76.9854 134.838C77.1871 137.771 77.6991 140.641 78.2577 143.512C80.7248 156.235 86.6986 167.981 95.3567 177.617C109.244 193.055 129.043 202.07 149.819 202.163C152.317 202.179 154.831 202.194 157.313 202.024C160.246 201.807 163.116 201.31 165.987 200.751C180.324 197.958 194.987 189.642 204.964 178.967C214.817 168.415 222.078 153.318 224.033 139.028V138.966L224.638 129.221V129.175C224.638 128.616 224.7 128.135 224.778 127.577C224.871 126.971 224.918 126.397 224.887 125.777V125.715L223.226 113.069V113.022C220.433 98.6697 212.117 84.0224 201.442 74.0454Z" fill="#153540"/>
<path fill-rule="evenodd" clip-rule="evenodd" d="M153.76 214.763L138.88 213.863C134.008 213.087 128.95 212.202 124.279 210.589C110.951 205.98 98.9101 198.92 89.0262 188.804C79.2665 178.78 72.5014 166.678 68.1103 153.458C67.2879 150.991 66.7604 148.539 66.1862 146.025C65.5966 143.558 65.2553 141.076 64.8984 138.578C64.7432 137.46 64.7898 136.328 64.7432 135.195C64.7122 134.202 64.5726 133.318 64.3864 132.34C64.3088 131.937 64.2622 131.564 64.2467 131.161C64.2312 130.788 64.2622 130.447 64.3088 130.09C64.4329 129.206 64.5105 128.414 64.495 127.514C64.4795 126.351 64.3243 125.172 64.3864 124.023C65.3639 105.435 72.7186 85.3257 85.5661 71.5938C100.151 55.9844 112.13 48.5831 132.829 43.742L147.6 41.8335C147.895 41.8335 148.174 41.849 148.469 41.8801C149.385 41.9732 150.238 42.0507 151.169 42.0352C152.333 41.9887 153.512 41.8645 154.691 41.8956C158.26 41.9887 161.984 42.5162 165.491 43.1214C169.261 43.7886 173.233 44.6264 176.879 45.8367C187.089 49.2037 198.711 54.9603 206.64 62.3771C212.008 67.3888 217.501 72.6489 221.753 78.6847C225.523 84.0533 228.331 90.0426 230.969 96.0319C231.947 98.2663 232.707 100.718 233.39 103.061C234.088 105.528 234.724 108.01 235.298 110.493C236.074 113.798 236.555 117.041 236.772 120.424C236.943 123.279 236.943 126.149 236.99 129.02C237.005 130.168 237.16 131.347 237.098 132.511C236.121 151.068 228.75 171.208 215.918 184.925C210.891 190.309 205.631 195.646 199.533 199.805C194.366 203.327 188.672 205.996 182.977 208.494C180.743 209.472 178.276 210.232 175.933 210.899C173.481 211.613 170.999 212.249 168.501 212.823C166.034 213.397 163.551 213.738 161.053 214.095C159.936 214.251 158.803 214.219 157.686 214.251C156.677 214.297 155.793 214.437 154.815 214.623C154.458 214.685 154.117 214.732 153.76 214.763ZM202.512 72.9126C195.297 66.1631 184.684 59.7548 175.297 56.6981C170.875 55.2551 166.313 54.0603 161.705 53.4397C158.198 52.9587 154.722 52.6328 151.169 52.6328C148.035 52.6328 144.9 52.8656 141.766 53.1449C139.392 53.3621 137.018 53.7035 134.675 54.1845C114.333 58.3428 96.1172 72.2454 85.504 89.9185C78.6303 101.385 75.3409 114.015 75.2943 127.344C75.2788 129.873 75.2633 132.433 75.434 134.947C75.6512 137.941 76.1632 140.874 76.7373 143.807C79.2665 156.809 85.3644 168.803 94.2087 178.656C108.375 194.421 128.593 203.622 149.819 203.715C152.348 203.73 154.908 203.746 157.422 203.56C160.417 203.358 163.349 202.831 166.282 202.272C180.945 199.417 195.887 190.93 206.097 180.022C216.182 169.253 223.568 153.846 225.57 139.229L225.585 139.121L226.19 129.268V129.19C226.19 127.995 226.485 127.002 226.438 125.73V125.575L224.763 112.821L224.747 112.712C221.892 98.049 213.405 83.1068 202.512 72.9126Z" fill="#153540"/>
<path fill-rule="evenodd" clip-rule="evenodd" d="M153.76 213.195L139.051 212.311C134.287 211.566 129.338 210.697 124.776 209.115C111.695 204.599 99.8566 197.664 90.1434 187.718C80.5388 177.865 73.8978 165.964 69.5843 152.961C68.7774 150.556 68.2654 148.151 67.6913 145.668C67.1172 143.248 66.7914 140.812 66.4345 138.36C66.2948 137.305 66.3414 136.204 66.2948 135.148C66.2638 134.062 66.1086 133.116 65.9069 132.061C65.8604 131.735 65.7983 131.44 65.7983 131.114C65.7828 130.819 65.8138 130.571 65.8449 130.292C65.969 129.33 66.0621 128.461 66.0466 127.483C66.0311 126.366 65.8759 125.202 65.938 124.101C66.9 105.885 74.0995 86.117 86.6988 72.6643C101.067 57.2877 112.751 50.0416 133.108 45.2626L147.724 43.3851C148.826 43.3696 150.005 43.6178 151.2 43.5713C152.348 43.5403 153.512 43.4161 154.645 43.4472C161.068 43.6334 170.301 45.2936 176.398 47.3107C186.391 50.6002 197.826 56.2481 205.585 63.5097C210.86 68.4439 216.291 73.6419 220.48 79.5846C224.189 84.8446 226.966 90.7718 229.557 96.6525C231.419 100.888 232.738 106.319 233.793 110.85C235.298 117.289 235.345 122.503 235.438 129.035C235.453 130.152 235.609 131.316 235.547 132.418C234.585 150.634 227.369 170.417 214.786 183.87C209.836 189.161 204.669 194.436 198.649 198.532C193.575 201.977 187.958 204.615 182.357 207.066C178.121 208.944 172.675 210.263 168.144 211.318C165.723 211.876 163.287 212.218 160.836 212.559C159.78 212.714 158.679 212.668 157.624 212.699C156.538 212.745 155.591 212.901 154.536 213.087C154.272 213.133 154.024 213.18 153.76 213.195ZM203.567 71.7799C196.182 64.8752 185.382 58.3583 175.778 55.224C171.278 53.75 166.623 52.5397 161.922 51.9035C154.52 50.895 149.012 50.957 141.626 51.5932C117.98 53.6879 96.2568 69.0025 84.1851 89.1116C77.1562 100.826 73.7892 113.736 73.7427 127.328C73.7271 129.904 73.7116 132.495 73.8978 135.055C74.115 138.112 74.6271 141.107 75.2167 144.101C77.7924 157.383 84.0144 169.641 93.0604 179.696C107.522 195.786 128.143 205.173 149.819 205.267C152.379 205.282 154.97 205.298 157.531 205.111C160.587 204.894 163.582 204.367 166.577 203.792C181.565 200.875 196.802 192.233 207.229 181.092C217.532 170.076 225.073 154.373 227.106 139.446L227.121 139.276L227.742 129.33V129.19C227.742 128.011 228.037 126.987 227.99 125.683V125.451L226.299 112.557L226.268 112.417C223.351 97.4438 214.708 82.2069 203.567 71.7799Z" fill="#153540"/>
<path fill-rule="evenodd" clip-rule="evenodd" d="M153.744 211.644L139.206 210.775C134.566 210.046 129.725 209.192 125.288 207.656C98.2426 198.3 80.073 179.587 71.0581 152.48C70.2668 150.106 69.7702 147.748 69.1961 145.327C68.6531 142.953 68.3117 140.548 67.9703 138.143C67.8307 137.166 67.8928 136.079 67.8462 135.086C67.8152 133.938 67.6445 132.914 67.4428 131.781C67.3962 131.533 67.3497 131.3 67.3497 131.052C67.3342 130.866 67.3652 130.695 67.3807 130.494C67.5204 129.454 67.6135 128.508 67.5979 127.468C67.5824 126.397 67.4273 125.234 67.4893 124.178C68.4203 106.335 75.4802 86.9083 87.8312 73.7195C101.967 58.6066 113.387 51.5002 133.387 46.7987L147.833 44.9368C148.903 44.9368 150.067 45.1695 151.246 45.123C152.348 45.0919 153.496 44.9678 154.598 44.9988C160.866 45.1695 169.943 46.8142 175.902 48.7848C185.677 51.9967 196.926 57.536 204.514 64.6425C216.973 76.2797 221.271 81.6949 228.129 97.2732C229.945 101.416 231.248 106.769 232.272 111.207C233.746 117.522 233.808 122.642 233.886 129.051C233.902 130.137 234.057 131.285 233.995 132.34C233.064 150.184 225.973 169.626 213.653 182.815C202.435 194.793 196.647 199.091 181.72 205.654C177.577 207.47 172.224 208.773 167.802 209.797C165.428 210.356 163.023 210.682 160.618 211.023C159.641 211.163 158.554 211.116 157.561 211.147C156.413 211.194 155.389 211.349 154.256 211.566C154.086 211.597 153.915 211.628 153.744 211.644ZM204.622 70.6473C197.081 63.5873 186.08 56.9464 176.274 53.75C171.666 52.2449 166.918 51.0192 162.123 50.3675C154.613 49.3434 148.996 49.3899 141.502 50.0571C117.343 52.1829 95.1859 67.7767 82.8505 88.3203C75.6819 100.268 72.2528 113.441 72.1908 127.328C72.1753 129.935 72.1597 132.573 72.3459 135.18C72.5632 138.283 73.0907 141.339 73.6959 144.396C76.3181 157.957 82.6798 170.464 91.8965 180.72C106.652 197.152 127.708 206.725 149.803 206.818C152.41 206.834 155.048 206.849 157.654 206.663C160.758 206.446 163.814 205.903 166.871 205.313C182.186 202.334 197.702 193.536 208.362 182.147C218.882 170.898 226.562 154.901 228.642 139.648L228.673 139.415L229.293 129.376V129.206C229.293 128.011 229.588 126.971 229.541 125.621V125.327L227.819 112.308L227.788 112.122C224.809 96.8232 216.011 81.2914 204.622 70.6473Z" fill="#153540"/>
<path fill-rule="evenodd" clip-rule="evenodd" d="M153.776 210.092L139.376 209.223C134.861 208.509 130.113 207.687 125.8 206.182C99.2048 196.981 81.3921 178.641 72.5323 151.984C71.7565 149.672 71.26 147.344 70.7169 144.97C70.1738 142.643 69.848 140.284 69.5066 137.926C69.3825 137.01 69.429 135.955 69.398 135.04C69.3515 133.612 68.9325 132.216 68.9015 131.006C68.8549 130.013 69.1653 128.647 69.1498 127.437C69.1342 126.413 68.9791 125.28 69.0256 124.272C69.9566 106.785 76.8769 87.6997 88.9641 74.7746C102.867 59.91 114.007 52.9587 133.651 48.3193L147.926 46.4884C148.966 46.4884 150.145 46.7056 151.293 46.6746C152.364 46.6591 153.496 46.5194 154.551 46.5505C160.68 46.7211 169.602 48.3348 175.421 50.2589C184.979 53.3932 196.042 58.8394 203.459 65.7752C215.763 77.2727 219.937 82.5172 226.702 97.9094C228.487 101.944 229.759 107.235 230.767 111.564C232.21 117.755 232.257 122.782 232.335 129.082C232.35 130.106 232.505 131.254 232.443 132.262C231.528 149.734 224.592 168.834 212.52 181.744C201.457 193.583 195.84 197.757 181.1 204.227C177.05 206.011 171.774 207.284 167.445 208.292C165.118 208.835 162.76 209.161 160.401 209.487C159.486 209.627 158.43 209.565 157.515 209.596C156.212 209.642 154.908 209.999 153.776 210.092ZM205.678 69.5146C197.981 62.2995 186.779 55.5499 176.755 52.276C172.054 50.7399 167.228 49.4986 162.341 48.8314C154.722 47.7918 148.966 47.8383 141.363 48.5055C116.707 50.6778 94.1155 66.551 81.5162 87.5135C74.2081 99.7093 70.7014 113.162 70.6393 127.328C70.6083 133.861 70.9031 138.221 72.1599 144.691C74.8597 158.532 81.33 171.301 90.7484 181.759C105.799 198.501 127.258 208.277 149.803 208.37C156.336 208.401 160.696 208.091 167.166 206.834C182.807 203.808 198.618 194.84 209.495 183.202C220.232 171.72 228.052 155.444 230.178 139.85L230.209 139.571L230.845 129.423V129.206C230.845 128.026 231.14 126.94 231.093 125.575L231.078 125.203L229.355 112.06L229.309 111.827C226.283 96.2026 217.315 80.3915 205.678 69.5146Z" fill="#153540"/>
<path fill-rule="evenodd" clip-rule="evenodd" d="M58.5984 39.6613C76.7679 21.5227 100.648 7.7908 126.048 3.29107C127.615 3.01178 129.166 2.59284 130.749 2.39113C132.363 2.1739 133.977 1.95667 135.575 1.70841C137.064 1.46015 138.43 1.46015 139.904 1.33602C141.502 1.18086 142.976 0.855015 144.59 0.808467C147.677 0.715369 150.951 0.327462 154.024 0.606755C156.382 0.839499 158.709 0.932597 161.083 1.02569C162.744 1.08776 164.404 1.16534 166.064 1.3205C168.454 1.55325 170.828 1.89461 173.202 2.29803C176.383 2.8411 179.548 3.39969 182.698 4.15999C185.832 4.90477 188.935 5.82023 192.038 6.73569C208.905 11.7164 224.669 20.6848 238.029 32.0738L247.199 40.6388C253.374 46.9849 258.945 53.9362 263.755 61.3685C281.567 88.91 288.426 122.379 283.042 154.684C282.359 158.733 281.536 162.752 280.497 166.724C278.138 175.786 274.802 184.366 270.722 192.792C268.968 196.391 266.842 199.945 264.686 203.327C261.924 207.656 258.945 211.877 255.779 215.926C255.267 216.578 254.755 217.23 254.228 217.881L243.459 229.394C242.87 229.906 242.265 230.434 241.644 230.931C238.572 233.382 235.546 235.865 232.474 238.332C230.224 240.147 227.928 241.947 225.554 243.623C219.083 248.138 211.822 251.567 204.669 254.857C187.322 262.848 167.771 265.904 148.764 265.423L139.19 264.865C132.301 264.104 125.489 263.018 118.755 261.296C109.228 258.86 100.337 255.245 91.5705 250.791C89.2586 249.628 86.9311 248.2 84.7278 246.85C81.2521 244.725 77.823 242.506 74.487 240.163C72.2992 238.642 70.127 237.06 68.0478 235.399L61.5309 229.301C60.9879 228.634 60.2896 227.672 60.0724 226.85C59.7466 225.624 59.7 224.057 60.0103 222.816C60.7396 219.821 63.4239 218.052 66.4186 217.943C69.0874 217.866 72.2372 220.379 74.1922 221.962C75.899 223.359 77.5438 224.802 79.235 226.214C81.159 227.796 83.1141 229.317 85.1778 230.698C88.4362 232.855 91.6791 234.918 95.1082 236.827C123.612 252.715 161.083 256.362 191.744 244.864C198.354 242.382 204.87 239.79 210.953 236.144C239.363 219.076 256.943 196.686 266.501 164.924C267.37 162.054 268.068 159.106 268.642 156.173C269.325 152.697 269.868 149.16 270.179 145.622C270.442 142.488 270.613 139.291 270.737 136.142C270.815 134.202 270.877 132.247 270.877 130.292C270.877 128.926 270.877 127.375 270.675 126.009C270.318 123.527 270.101 121.106 269.884 118.608C269.744 117.041 269.573 115.505 269.325 113.953C268.953 111.657 268.456 109.376 267.913 107.095C267.199 104.085 266.47 101.075 265.57 98.0956C264.562 94.7441 263.351 91.4857 262.079 88.2272C257.269 75.7987 249.976 65.5114 241.706 55.1931C240.294 53.4552 238.541 52.1674 237.113 50.4916C231.496 43.9438 223.94 38.2027 216.678 33.5944C212.008 30.6308 207.136 27.9309 202.14 25.557C197.811 23.5088 193.264 21.6313 188.656 20.2814C185.397 19.3349 182.124 18.3884 178.803 17.6281C175.591 16.8989 172.333 16.3403 169.09 15.8127C150.874 12.8336 128.794 15.4714 111.524 21.8951C108.235 23.1209 105.101 24.4398 101.92 25.9293C73.1526 39.3975 51.8333 63.3081 40.7546 92.9597C40.2891 94.2321 39.8702 95.5509 39.4668 96.8543C38.8927 98.6852 38.3496 100.532 37.8531 102.378C37.279 104.457 36.7359 106.568 36.3015 108.678C36.0377 109.888 35.6187 111.983 35.8515 113.193L36.4101 116.203L38.5048 113.969C39.8081 112.572 41.0184 111.114 42.3683 109.779C45.2699 106.924 48.3421 105 52.3298 107.142C53.6952 107.855 54.8589 108.926 55.4486 110.369C56.845 113.86 54.3779 117.755 52.066 120.206C51.073 121.277 50.0179 122.254 48.9317 123.248C47.4111 124.613 45.9526 125.963 44.5561 127.452L28.9157 143.124C27.1158 144.35 25.0521 145.141 22.9109 144.334C20.3197 143.357 18.2715 140.315 16.9061 138.004L16.8906 137.988L2.04149 114.434C0.939832 112.526 0.350213 110.322 0.893283 108.135C1.32774 106.412 2.41388 104.938 3.91896 104.007C7.0998 102.083 10.622 103.2 12.996 105.823C14.0045 106.94 14.6717 108.181 15.401 109.469C16.301 111.114 17.1699 112.541 18.5198 113.876L20.4748 115.769L25.7814 94.139C27.7054 87.6531 30.2346 81.3846 33.1361 75.2867C38.1013 64.8752 44.6182 55.1931 52.1901 46.5039L58.5984 39.6613Z" fill="#153540"/>
<path fill-rule="evenodd" clip-rule="evenodd" d="M59.7156 40.7319C77.6525 22.8416 101.237 9.26484 126.312 4.81166C127.863 4.54788 129.384 4.12894 130.951 3.92723C132.58 3.71 134.209 3.49278 135.823 3.229C137.266 3.01177 138.616 3.01177 140.043 2.87212C141.595 2.73248 143.069 2.40664 144.636 2.36009C147.646 2.26699 150.889 1.87908 153.868 2.15838C156.273 2.3756 158.632 2.48422 161.037 2.57732C165.133 2.73248 168.888 3.15142 172.938 3.83413C176.088 4.36169 179.222 4.92028 182.341 5.66506C185.444 6.40984 188.532 7.30978 191.604 8.20973C208.253 13.1284 223.816 21.9882 237.005 33.222L246.113 41.7559C252.211 48.009 257.703 54.8672 262.451 62.2064C280.047 89.422 286.828 122.503 281.505 154.435C279.271 167.872 275.299 179.82 269.325 192.109C267.603 195.662 265.493 199.169 263.382 202.489C260.636 206.772 257.688 210.961 254.554 214.964C254.057 215.6 253.561 216.237 253.049 216.857L242.389 228.277C241.83 228.758 241.256 229.239 240.667 229.705C237.61 232.172 234.569 234.654 231.512 237.122C229.278 238.921 227.012 240.706 224.654 242.351C218.277 246.819 211.077 250.202 204.017 253.445C186.887 261.327 167.585 264.337 148.826 263.872L139.33 263.313C132.518 262.568 125.784 261.482 119.143 259.791C109.725 257.386 100.942 253.817 92.2688 249.41C90.0034 248.262 87.707 246.85 85.5347 245.531C82.0901 243.421 78.6921 241.202 75.3716 238.89C73.2303 237.401 71.1046 235.849 69.0564 234.22L62.6637 228.246C62.2913 227.765 61.7017 226.974 61.5621 226.462C61.3138 225.484 61.2673 224.165 61.5155 223.188C62.0741 220.86 64.1688 219.573 66.4652 219.495C68.591 219.433 71.6632 221.9 73.2148 223.172C76.9232 226.183 80.3058 229.332 84.3245 231.986C87.6139 234.173 90.8879 236.253 94.348 238.177C123.255 254.298 161.208 257.975 192.287 246.307C198.99 243.794 205.584 241.171 211.744 237.478C240.496 220.209 258.324 197.508 267.991 165.374C269.853 159.168 271.156 152.201 271.715 145.762C271.994 142.596 272.165 139.384 272.289 136.204C272.366 134.249 272.428 132.262 272.428 130.307C272.428 128.849 272.428 127.22 272.211 125.792C271.854 123.325 271.653 120.936 271.435 118.468C271.079 114.434 270.365 110.695 269.434 106.738C268.705 103.697 267.96 100.656 267.06 97.6456C266.036 94.2631 264.81 90.9581 263.538 87.6687C258.65 75.0849 251.295 64.6735 242.916 54.2155C241.489 52.4467 239.736 51.1588 238.293 49.4831C227.261 36.6201 205.274 23.5398 189.09 18.8074C185.801 17.8298 182.496 16.8833 179.145 16.123C175.902 15.3783 172.628 14.8197 169.338 14.2766C150.858 11.2509 128.499 13.9197 110.981 20.4366C107.645 21.6779 104.48 23.0123 101.268 24.5174C72.1287 38.1562 50.5145 62.3926 39.2962 92.4166C38.1635 95.4733 37.217 98.8249 36.3481 101.975C35.6344 104.581 33.8345 110.912 34.331 113.488L35.4637 119.493L39.6376 115.024C40.9254 113.658 42.1202 112.215 43.4546 110.897C45.8441 108.538 48.2801 106.738 51.6006 108.507C56.4417 111.083 53.835 116.063 50.9489 119.151C48.5594 121.68 45.8286 123.806 43.4391 126.382L27.9228 141.929C26.6039 142.814 25.0367 143.481 23.4696 142.891C21.2818 142.053 19.3888 139.152 18.2406 137.212L18.2096 137.181L3.376 113.643C1.7623 110.819 1.66921 107.204 4.72592 105.342C7.25507 103.806 9.97042 104.799 11.8479 106.862C12.7634 107.871 13.384 109.05 14.0357 110.229C15.0132 111.998 15.9752 113.534 17.4493 114.977L21.3283 118.779L27.2711 94.5424C29.1796 88.1497 31.6777 81.9742 34.5482 75.9539C39.4359 65.6821 45.8751 56.124 53.354 47.5435L59.7156 40.7319Z" fill="#153540"/>
<path fill-rule="evenodd" clip-rule="evenodd" d="M60.8327 41.818C78.5368 24.1449 101.827 10.7388 126.591 6.34774C128.111 6.06844 129.616 5.66502 131.152 5.46331C132.797 5.24608 134.426 5.02885 136.071 4.76507C137.468 4.54785 138.787 4.54785 140.198 4.42372C141.704 4.28407 143.162 3.94271 144.683 3.91168C147.615 3.81858 150.827 3.43067 153.729 3.69445C156.149 3.92719 158.539 4.03581 160.975 4.12891C165.009 4.26855 168.702 4.68749 172.69 5.35469C175.793 5.88225 178.896 6.44083 181.968 7.1701C185.056 7.91488 188.113 8.79931 191.154 9.69925C207.586 14.5559 222.947 23.307 235.965 34.3857L245.027 42.8576C251.047 49.033 256.462 55.8137 261.148 63.0443C278.542 89.9495 285.229 122.627 279.985 154.187C277.766 167.484 273.825 179.277 267.929 191.426C266.237 194.933 264.158 198.377 262.063 201.651C259.348 205.903 256.431 210.046 253.328 214.018C252.862 214.623 252.366 215.244 251.885 215.849L241.303 227.16C240.775 227.61 240.248 228.06 239.704 228.494C234.491 232.684 229.231 237.246 223.769 241.078C217.47 245.485 210.348 248.836 203.365 252.033C186.468 259.806 167.399 262.77 148.903 262.32L139.454 261.777C122.029 259.837 108.716 256.02 92.9824 248.029C90.7481 246.897 88.4827 245.516 86.357 244.197C82.9279 242.102 79.5453 239.914 76.2559 237.618C74.1612 236.159 72.082 234.639 70.0649 233.041L63.8118 227.191C63.5325 226.85 63.1756 226.353 63.067 226.058C62.8808 225.345 62.8343 224.29 63.0205 223.545C63.4239 221.931 64.929 221.109 66.5116 221.047C68.0633 221 71.1045 223.452 72.2371 224.367C75.9921 227.424 79.4057 230.589 83.4709 233.289C86.7914 235.477 90.1119 237.603 93.5876 239.542C122.898 255.865 161.316 259.589 192.83 247.766C199.626 245.205 206.298 242.552 212.551 238.797C241.613 221.341 259.689 198.315 269.465 165.824C271.373 159.525 272.692 152.449 273.266 145.901C273.546 142.705 273.701 139.462 273.84 136.266C273.964 133.054 274.213 128.725 273.747 125.559C273.39 123.139 273.189 120.765 272.971 118.344C272.615 114.217 271.901 110.415 270.939 106.381C270.21 103.309 269.449 100.237 268.534 97.1956C267.51 93.782 266.268 90.4305 264.981 87.0945C260.031 74.3711 252.614 63.8356 244.127 53.2535C242.668 51.4381 240.915 50.1657 239.472 48.4745C228.253 35.3787 206.003 22.1433 189.525 17.3178C186.204 16.3402 182.868 15.3782 179.501 14.6024C176.227 13.8576 172.907 13.299 169.586 12.756C150.843 9.68374 128.22 12.3836 110.438 18.978C107.071 20.2348 103.859 21.5847 100.601 23.1053C71.1045 36.9303 49.211 61.4616 37.853 91.8735C36.2704 96.1095 32.05 109.779 32.7947 113.767L34.5015 122.797L40.7701 116.079C42.0424 114.729 43.2217 113.302 44.5561 111.998C46.4025 110.167 48.2645 108.491 50.8712 109.872C54.6417 111.89 51.9108 115.846 49.8161 118.081C47.4266 120.61 44.7112 122.735 42.3217 125.296L26.9296 140.719C26.0917 141.277 24.99 141.805 24.0125 141.433C22.2747 140.781 20.4903 137.972 19.5749 136.421L19.5438 136.374L4.71025 112.836C1.74664 107.607 6.99115 103.806 10.684 107.902C11.5064 108.817 12.096 109.919 12.6856 110.974C13.7407 112.898 14.7803 114.543 16.363 116.094L22.1971 121.789L28.776 94.9457C30.6535 88.6461 33.1206 82.5482 35.9445 76.621C40.7701 66.4734 47.1163 57.0395 54.502 48.5831L60.8327 41.818Z" fill="#153540"/>
<path fill-rule="evenodd" clip-rule="evenodd" d="M61.9497 42.8886C79.421 25.4638 102.432 12.1974 126.854 7.86832C128.344 7.60455 129.849 7.20112 131.354 6.99941C133.014 6.78218 134.659 6.56496 136.319 6.30118C137.669 6.08395 138.973 6.08395 140.338 5.95982C141.812 5.82017 143.255 5.49433 144.729 5.4633C147.569 5.38572 150.765 4.98229 153.589 5.24607C156.04 5.47882 158.461 5.58743 160.913 5.68053C164.885 5.82017 168.5 6.2236 172.426 6.8908C178.927 7.97694 184.42 9.32685 190.719 11.1888C206.934 15.9833 222.078 24.6104 234.925 35.5494L243.94 43.9747C249.883 50.0726 255.221 56.7446 259.844 63.8976C277.021 90.4615 283.631 122.751 278.448 153.923C276.261 167.081 272.366 178.734 266.532 190.759C262.591 198.889 256.4 207.765 250.705 214.825L240.216 226.043C239.735 226.462 239.239 226.881 238.727 227.284C233.544 231.443 228.315 236.004 222.885 239.806C216.663 244.15 209.603 247.471 202.729 250.636C186.049 258.301 167.228 261.218 148.965 260.768L139.593 260.225C122.37 258.301 109.243 254.546 93.6805 246.649C91.4772 245.531 89.2584 244.166 87.1637 242.878C83.7656 240.799 80.4141 238.627 77.1402 236.346C75.092 234.918 73.0439 233.429 71.0888 231.861L64.9599 226.136C64.8047 225.934 64.634 225.717 64.5409 225.531C64.4478 225.05 64.4168 224.352 64.5254 223.917C64.7582 223.002 65.7046 222.629 66.558 222.598C67.6131 222.645 70.6854 225.112 71.4922 225.764C75.1851 228.805 78.5832 231.908 82.6174 234.577C85.9689 236.796 89.3204 238.937 92.8426 240.892C122.541 257.448 161.44 261.203 193.373 249.209C200.262 246.633 207.011 243.933 213.342 240.132C242.745 222.459 261.07 199.138 270.954 166.259C272.878 159.866 274.228 152.682 274.802 146.041C275.097 142.813 275.252 139.555 275.392 136.328C275.516 132.992 275.764 128.601 275.283 125.342C274.942 122.937 274.725 120.61 274.523 118.205C274.15 114 273.421 110.136 272.444 106.024C270.783 99.0265 269.03 93.2545 266.423 86.5359C261.427 73.6419 253.933 62.9822 245.337 52.2759C243.863 50.445 242.094 49.1572 240.651 47.4659C229.231 34.1374 206.732 20.7313 189.959 15.8282C186.608 14.8351 183.256 13.8731 179.842 13.0973C176.537 12.337 173.186 11.7629 169.834 11.2198C150.827 8.10107 127.925 10.8319 109.911 17.535C106.497 18.7918 103.239 20.1572 99.9491 21.7089C70.0802 35.7045 47.8919 60.5461 36.3944 91.3304C34.6721 95.9388 30.4516 109.655 31.274 114.062L33.5394 126.087L41.9027 117.15C43.1595 115.8 44.3387 114.388 45.6421 113.1C46.9299 111.827 48.2954 110.26 50.1418 111.238C50.4676 111.409 50.9797 111.75 51.1348 112.107C51.6624 113.441 49.4591 116.203 48.6833 117.025C46.3093 119.539 43.5939 121.665 41.2044 124.225L25.9674 139.493C25.5175 139.772 24.8813 140.098 24.5554 139.99C23.2986 139.509 21.5763 136.762 20.9091 135.645L20.8626 135.552L6.04452 112.045C4.04291 108.476 7.05307 106.18 9.53568 108.941C10.2649 109.748 10.808 110.788 11.3201 111.734C12.4527 113.783 13.5699 115.536 15.2767 117.196L23.0504 124.799L30.2654 95.3647C32.1274 89.1426 34.5635 83.1378 37.3409 77.2882C42.1044 67.2802 48.373 57.9704 55.6501 49.6227L61.9497 42.8886Z" fill="#153540"/>
<path fill-rule="evenodd" clip-rule="evenodd" d="M63.0672 43.9748C80.3058 26.7827 103.022 13.6714 127.118 9.40446C128.592 9.14069 130.082 8.73726 131.541 8.53555C133.216 8.31832 134.892 8.10109 136.568 7.83732C137.871 7.62009 139.159 7.63561 140.478 7.51148C141.905 7.37183 143.348 7.04599 144.776 7.01495C147.538 6.93737 150.719 6.53395 153.434 6.78221C155.917 7.03047 158.368 7.13908 160.851 7.23218C164.761 7.37183 168.314 7.77525 172.178 8.42694C178.601 9.49756 184.032 10.832 190.285 12.6784C206.267 17.3954 221.225 25.9138 233.902 36.6976L242.854 45.0764C248.704 51.0967 253.98 57.6912 258.541 64.7356C275.516 90.9736 282.049 122.875 276.913 153.675C274.756 166.678 270.908 178.191 265.136 190.076C261.257 198.083 255.143 206.849 249.542 213.801L239.146 224.926C238.696 225.314 238.231 225.702 237.765 226.074C232.598 230.217 227.4 234.748 221.985 238.534C215.856 242.832 208.858 246.105 202.078 249.224C185.63 256.781 167.042 259.651 149.027 259.217L139.718 258.674C122.696 256.781 109.771 253.072 94.3791 245.252C88.9794 242.521 82.9901 238.534 78.0404 235.073C76.0233 233.677 74.0217 232.218 72.0977 230.698L66.1084 225.096C66.0773 225.05 66.0463 225.003 66.0153 224.972C65.9998 224.74 65.9998 224.476 66.0308 224.305C66.1394 224.243 66.3101 224.196 66.4497 224.165C67.66 224.584 70.3443 226.834 71.2132 227.548C74.6734 230.45 77.9628 233.367 81.7488 235.865C85.1469 238.115 88.5294 240.271 92.0826 242.242C122.184 259.031 161.549 262.817 193.932 250.667C200.898 248.045 207.726 245.314 214.149 241.466C243.879 223.591 262.452 199.96 272.444 166.709C274.399 160.207 275.764 152.93 276.354 146.165C276.633 142.938 276.804 139.633 276.944 136.39C277.068 132.945 277.316 128.492 276.82 125.109C276.478 122.751 276.277 120.439 276.059 118.065C275.687 113.798 274.942 109.841 273.965 105.668C272.289 98.6076 270.504 92.7735 267.867 85.9774C262.808 72.9282 255.236 62.1443 246.547 51.314C245.042 49.452 243.289 48.1642 241.83 46.4574C230.209 32.9116 207.462 19.3349 190.409 14.3386C183.318 12.2595 177.376 10.8785 170.083 9.68376C150.812 6.53395 127.646 9.28033 109.368 16.0765C105.908 17.3488 102.618 18.7453 99.2822 20.2969C69.0565 34.4633 46.5889 59.6152 34.9362 90.7874C33.0742 95.8147 28.8383 109.485 29.7537 114.341L32.5932 129.376L43.0357 118.205C43.9356 117.243 47.644 112.836 49.0094 112.433C49.1491 112.479 49.3198 112.557 49.4129 112.619C49.4749 112.634 49.5525 112.681 49.6301 112.743C49.4439 113.72 48.0784 115.396 47.5509 115.955C45.1924 118.468 42.4771 120.594 40.0876 123.139L25.0057 138.267C24.9592 138.298 24.8971 138.314 24.8506 138.345C23.9506 137.616 22.6938 135.598 22.2438 134.854L22.1973 134.745L7.37922 111.253C6.49479 109.655 6.96028 108.414 8.38778 109.981C9.00843 110.679 9.52047 111.672 9.95493 112.479C11.1807 114.667 12.3755 116.544 14.1909 118.313L23.9041 127.809L31.7708 95.7681C33.6018 89.6392 36.0068 83.712 38.7532 77.9554C43.4391 68.0871 49.6301 58.9014 56.7986 50.6623L63.0672 43.9748Z" fill="#153540"/>
<path fill-rule="evenodd" clip-rule="evenodd" d="M28.4502 115.815L31.119 129.935L24.9435 136.126C24.385 135.397 23.8419 134.512 23.5936 134.062L23.516 133.938L16.363 122.611L24.7729 130.819L28.4502 115.815Z" fill="#153540"/>
<path fill-rule="evenodd" clip-rule="evenodd" d="M28.2485 123.139L29.4433 129.423L25.8125 133.054L28.2485 123.139ZM25.3315 133.535L25.1763 133.69C25.0832 133.535 24.9901 133.395 24.928 133.271L24.8349 133.131L24.7263 132.945L25.3315 133.535Z" fill="#153540"/>
<path d="M150.672 202.179C191.48 202.179 224.561 169.098 224.561 128.29C224.561 87.4827 191.48 54.4017 150.672 54.4017C109.865 54.4017 76.7837 87.4827 76.7837 128.29C76.7837 169.098 109.865 202.179 150.672 202.179Z" fill="#ffc45f"/>
<path fill-rule="evenodd" clip-rule="evenodd" d="M152.55 146.941C152.379 145.762 152.643 133.318 153.45 132.045C158.198 135.304 158.973 139.509 155.513 144.303C154.179 146.165 154.256 145.374 152.55 146.941ZM144.574 117.506C143.628 116.948 143.736 117.243 143.224 116.684C141.052 114.341 142.495 110.167 144.854 107.902L144.574 117.506ZM145.536 98.0646C131.866 101.649 130.641 116.203 135.916 121.944C145.552 132.449 144.466 119.958 143.504 142.503C143.442 144.132 143.829 146.103 142.914 147.546L137.468 144.707C131.789 141.293 124.17 149.129 137.033 155.04C139.237 156.049 140.959 156.158 143.038 156.654C141.642 162.364 146.048 167.003 150.874 162.566C152.472 161.092 151.712 158.314 152.146 156.545C166.002 154.404 173.605 132.914 158.073 124.334C156.491 123.465 154.815 123.015 153.605 122.192C153.325 120.346 153.713 116.948 153.791 114.869C153.869 113.177 153.729 108.523 154.505 107.297C157.701 110.26 159.997 111.952 163.287 108.941C164.373 107.948 164.668 106.397 164.451 105.202C163.644 100.873 157.36 98.9024 154.644 97.9404C154.256 95.3802 155.622 94.7751 153.124 92.0597C150.626 89.3444 144.45 91.0667 145.536 98.0646Z" fill="#FEFEFE"/>
</svg>
