<svg width="116" height="99" viewBox="0 0 116 99" fill="none" xmlns="http://www.w3.org/2000/svg">
<path fill-rule="evenodd" clip-rule="evenodd" d="M21.9676 87.3683V86.2485H69.7472C69.7472 92.1924 66.8336 92.2189 62.2802 92.2189C62.2802 90.993 62.5614 89.2364 60.7889 89.2364C59.011 89.2364 59.2976 90.993 59.2976 92.2189H32.4172C32.4172 90.993 32.6985 89.2364 30.9259 89.2364C29.148 89.2364 29.4293 90.993 29.4293 92.2189C26.5316 92.2189 21.9676 92.5374 21.9676 87.3683ZM23.4588 51.9063V83.2606C18.4171 83.2606 18.9797 82.7458 18.9797 88.3023C18.9797 91.7466 22.4399 95.2068 25.8842 95.2068H65.8253C69.2696 95.2068 72.7351 91.7466 72.7351 88.3023C72.7351 82.7458 73.2977 83.2606 68.2559 83.2606V68.3318C68.2559 66.6813 65.2681 66.6813 65.2681 68.3318V83.2606H26.4467V53.3976H38.9502C40.9138 53.3976 40.9138 50.415 38.9502 50.415H24.9501C24.0479 50.415 23.4588 51.0041 23.4588 51.9063Z" fill="#153540"/>
<path fill-rule="evenodd" clip-rule="evenodd" d="M48.8411 71.5054C49.5151 71.1445 50.6402 70.2635 51.4521 70.1945C51.6963 71.2453 54.44 75.0187 54.44 75.7935C54.44 77.2954 52.5613 78.0862 51.5264 76.2871L48.8411 71.5054ZM34.4695 67.7692C34.825 68.4432 35.706 69.5683 35.775 70.3856C35.0267 70.582 34.8038 71.1286 33.9122 71.1286C32.9092 71.1286 32.2617 70.3325 32.5112 69.3719C32.7287 68.4963 33.7795 68.1354 34.4695 67.7692ZM32.9782 63.1043L33.1639 64.9724C31.4285 65.8852 29.4277 67.005 29.4277 69.6373C29.4277 71.0331 29.9903 72.1051 30.6855 72.8587C32.7871 75.1407 35.4725 74.2651 37.6431 72.8109C38.3118 73.2567 38.28 73.4213 39.1928 73.8724C42.0533 75.2947 44.0063 74.1749 46.23 72.9967C46.3467 73.5009 49.2656 78.739 50.2209 79.4607C53.6121 82.0187 57.6137 79.1954 57.6137 75.9846C57.6137 74.212 55.3157 70.8951 54.2543 68.889L72.2241 62.2233C73.2802 61.8147 74.1505 61.5175 75.212 61.1035C78.2582 59.92 78.3697 59.8351 75.6578 55.3241L70.2711 45.9677C68.6683 43.4097 67.1346 45.0018 67.1346 46.3074C67.1346 46.9973 68.3074 48.7964 68.6842 49.4226L73.8533 58.4394C73.105 58.503 70.7115 59.522 69.8518 59.851L51.6644 66.6706C51.3885 66.7715 50.9851 66.9201 50.7038 67.0209C50.343 67.1536 49.929 67.2491 49.5893 67.3977C46.8774 68.5653 44.399 71.3143 41.374 71.3143C39.6704 71.3143 38.8743 69.1703 38.1685 67.9921C36.5551 65.312 35.032 63.4705 36.7568 61.4697C37.2557 60.8859 41.9684 58.1262 42.6795 58.0625L45.9115 63.7942C47.5196 66.5698 49.3346 64.5319 49.1064 63.3962C48.926 62.4887 45.6993 57.3143 45.1102 56.1998C46.7766 55.08 58.5849 44.9912 61.3711 42.7835C62.2202 42.1095 62.8783 41.4938 63.7752 40.8941C64.2794 41.653 64.4439 42.5712 65.638 42.5712C66.7737 42.5712 67.8245 41.6 66.7525 39.7796C65.9299 38.3733 64.9427 35.8312 62.9738 37.4817C62.5864 37.8054 62.337 38.0071 61.9496 38.3255L48.236 49.6243C44.7334 52.4795 43.7303 53.7001 40.0578 55.8177L36.7462 57.7282C35.0586 58.7365 32.9782 60.1164 32.9782 63.1043Z" fill="#ffc45f"/>
<path fill-rule="evenodd" clip-rule="evenodd" d="M81.6923 9.72536C81.6923 12.2091 81.1935 14.576 83.1836 14.576C86.3891 14.576 82.9289 8.60556 86.3573 8.60556H103.902C104.826 8.60556 105.58 9.35917 105.58 10.2826V27.8278C105.58 28.7513 104.826 29.5102 103.902 29.5102H86.3573C84.0858 29.5102 84.6749 26.3578 84.6749 23.7201C84.6749 22.4783 84.6696 21.2311 84.6802 19.984C84.7174 16.1841 81.6923 17.4312 81.6923 19.0552V28.3904C81.6923 30.4389 83.7462 32.4928 85.7947 32.4928H104.46C106.514 32.4928 108.567 30.4389 108.567 28.3904V9.72536C108.567 7.67152 106.514 5.61768 104.46 5.61768H85.7947C83.7462 5.61768 81.6923 7.67152 81.6923 9.72536Z" fill="#153540"/>
<path fill-rule="evenodd" clip-rule="evenodd" d="M81.6934 56.0139V74.6736C81.6934 76.7275 83.7472 78.7813 85.7957 78.7813H104.461C106.515 78.7813 108.568 76.7275 108.568 74.6736C108.568 72.1899 109.062 69.823 107.077 69.823C103.872 69.823 107.332 75.7934 103.904 75.7934H86.3583C85.4349 75.7934 84.6759 75.0398 84.6759 74.1164V56.5712C84.6759 55.6477 85.4349 54.8941 86.3583 54.8941H103.904C106.175 54.8941 105.581 58.0412 105.581 60.6789C105.581 61.926 105.591 63.1679 105.575 64.415C105.543 68.2202 108.568 66.9678 108.568 65.3438V56.0139C108.568 53.9601 106.515 51.9062 104.461 51.9062H85.7957C83.7472 51.9062 81.6934 53.9601 81.6934 56.0139Z" fill="#153540"/>
<path fill-rule="evenodd" clip-rule="evenodd" d="M21.9664 22.0431H36.8952V42.9477H21.9664V22.0431ZM18.9785 20.5465V44.439C18.9785 45.3412 19.5676 45.9303 20.4698 45.9303H38.3918C39.294 45.9303 39.8831 45.3412 39.8831 44.439V20.5465C39.8831 19.6443 39.294 19.0552 38.3918 19.0552H20.4698C19.5676 19.0552 18.9785 19.6443 18.9785 20.5465Z" fill="#153540"/>
<path fill-rule="evenodd" clip-rule="evenodd" d="M56.3086 28.0138C52.4504 28.0138 48.5921 25.5248 46.9204 22.0964C41.9052 11.8007 55.2472 1.89764 63.6324 10.2351C68.8652 15.436 67.1457 24.06 60.5543 27.032C59.5778 27.4725 57.6195 28.0138 56.3086 28.0138ZM42.8711 16.6301C42.8711 20.8545 43.3965 23.0039 45.981 26.2094C46.2782 26.5756 46.4056 26.8038 46.7347 27.1381C48.7407 29.1442 52.4079 31.0017 55.3746 31.0017C59.8219 31.0017 61.7378 30.4232 65.0547 27.8068C67.7932 25.6415 69.7462 21.6453 69.7462 18.1214C69.7462 15.3246 69.6135 14.3109 68.5202 11.8803C67.8038 10.2881 66.5407 8.47311 65.1608 7.40108C64.7257 7.06674 64.6938 6.98713 64.2268 6.65809C57.2321 1.77557 48.141 4.0417 44.1873 11.599C43.6194 12.6816 42.8711 15.0061 42.8711 16.6301Z" fill="#153540"/>
<path fill-rule="evenodd" clip-rule="evenodd" d="M92.1427 65.5293C91.9835 64.4838 93.029 62.5361 94.9767 62.4034C98.7288 62.1487 99.2277 68.0183 95.2792 68.2836C93.5438 68.4004 92.3869 67.0842 92.1427 65.5293ZM89.1602 64.972C89.1602 73.458 101.101 73.458 101.101 64.972C101.101 61.8939 98.5165 59.373 94.7591 59.373C91.8774 59.373 89.1602 62.0903 89.1602 64.972Z" fill="#ffc45f"/>
<path fill-rule="evenodd" clip-rule="evenodd" d="M54.8127 19.618V15.5104C55.6671 15.9615 57.8059 17.2988 58.7346 17.3784V17.7499C58.0606 17.8083 58.2623 17.8136 57.7528 18.0737C57.4291 18.2435 57.7475 18.1055 57.2645 18.3337L54.8127 19.618ZM51.8301 13.085V22.0434C51.8301 24.1238 53.7619 23.4975 54.8392 22.9986L61.7013 19.5915C66.8014 17.2882 61.5792 15.4414 58.984 14.1411L54.8392 12.1297C53.7619 11.6309 51.8301 10.9993 51.8301 13.085Z" fill="#ffc45f"/>
<path fill-rule="evenodd" clip-rule="evenodd" d="M92.1427 15.6961V17.5642C90.9168 17.5642 89.1602 17.2829 89.1602 19.0555C89.1602 20.8334 90.9168 20.5468 92.1427 20.5468C92.1427 23.731 91.5483 26.5226 93.6393 26.5226C95.725 26.5226 95.1306 23.731 95.1306 20.5468C96.3566 20.5468 98.1185 20.8334 98.1185 19.0555C98.1185 17.2829 96.3566 17.5642 95.1306 17.5642V16.2587C95.1306 12.8303 101.101 16.2852 101.101 13.085C101.101 11.0949 98.7341 11.5884 96.2504 11.5884C94.1966 11.5884 92.1427 13.6423 92.1427 15.6961Z" fill="#ffc45f"/>
<path fill-rule="evenodd" clip-rule="evenodd" d="M78.5195 47.4271C78.5195 50.1019 83.0412 48.4832 85.1269 48.0639C88.3695 47.4165 89.1602 47.6341 89.1602 45.559C89.1602 43.2982 83.4923 45.1238 82.5901 45.3361C80.5468 45.8243 78.5195 45.7076 78.5195 47.4271Z" fill="#ffc45f"/>
<path fill-rule="evenodd" clip-rule="evenodd" d="M69.7461 35.4807C69.7461 36.3829 70.3352 36.972 71.2374 36.972C72.4421 36.972 73.4929 35.0243 74.5702 33.5861C75.1805 32.7794 77.2132 30.4231 77.2132 29.5103C77.2132 28.6028 76.6188 28.0137 75.7166 28.0137C74.6658 28.0137 74.3102 28.8257 73.8272 29.4784C73.3231 30.1577 72.8932 30.7256 72.3837 31.3996C71.8795 32.0789 71.4709 32.6202 70.9455 33.3208C70.5209 33.8886 69.7461 34.6847 69.7461 35.4807Z" fill="#ffc45f"/>
<path fill-rule="evenodd" clip-rule="evenodd" d="M74.2246 41.4514C74.2246 42.3589 74.8137 42.948 75.7159 42.948C76.5173 42.948 77.3133 42.1732 77.8759 41.7486L81.7182 38.8669C82.371 38.3839 83.183 38.0284 83.183 36.9722C83.183 36.07 82.5939 35.481 81.6917 35.481C80.7736 35.481 78.4172 37.5136 77.6105 38.1186C76.9365 38.6281 76.3687 39.0579 75.6894 39.5621C75.0366 40.0451 74.2246 40.4006 74.2246 41.4514Z" fill="#ffc45f"/>
<path fill-rule="evenodd" clip-rule="evenodd" d="M24.9492 32.4928C24.9492 33.395 25.5436 33.9894 26.4458 33.9894H32.4163C34.4224 33.9894 34.4224 31.0015 32.4163 31.0015H26.4458C25.5436 31.0015 24.9492 31.5906 24.9492 32.4928Z" fill="#ffc45f"/>
<path fill-rule="evenodd" clip-rule="evenodd" d="M24.9492 38.4688C24.9492 39.371 25.5436 39.9601 26.4458 39.9601H32.4163C34.4224 39.9601 34.4224 36.9722 32.4163 36.9722H26.4458C25.5436 36.9722 24.9492 37.5666 24.9492 38.4688Z" fill="#ffc45f"/>
<path fill-rule="evenodd" clip-rule="evenodd" d="M27.9375 26.5223C27.9375 28.4753 30.1771 28.0136 32.4167 28.0136C34.4228 28.0136 34.4228 25.031 32.4167 25.031C30.1771 25.031 27.9375 24.5693 27.9375 26.5223Z" fill="#ffc45f"/>
<rect width="9.24275" height="9.24275" transform="matrix(0.707103 -0.70711 0.707103 0.70711 3.03906 6.53564)" fill="#153540"/>
<rect width="5.18467" height="5.18467" transform="matrix(-0.707121 0.707092 0.707121 0.707092 3.66602 18.9375)" fill="#153540"/>
<rect width="5.18467" height="5.18467" transform="matrix(-0.707121 0.707092 0.707121 0.707092 86.8418 91.6445)" fill="#153540"/>
<rect width="5.18467" height="5.18467" transform="matrix(-0.70708 0.707133 0.70708 0.707133 112.314 40.1655)" fill="#153540"/>
<rect width="5.18467" height="5.18467" transform="matrix(-0.707121 0.707092 0.707121 0.707092 16.2559 61.394)" fill="#153540"/>
<rect width="5.18467" height="5.18467" transform="matrix(-0.70708 0.707133 0.70708 0.707133 110.189 87.9292)" fill="#153540"/>
</svg>
