<svg width="104" height="131" viewBox="0 0 104 131" fill="none" xmlns="http://www.w3.org/2000/svg">
<path fill-rule="evenodd" clip-rule="evenodd" d="M14.9706 36.4653V69.901C14.9706 72.3524 17.7679 75.1497 20.2193 75.1497C24.1061 75.1497 26.2483 75.8122 26.2483 72.8161C26.2483 72.2935 25.4754 71.5132 24.9895 71.3512C23.1639 70.7476 18.8574 72.5217 18.8574 68.7379V37.6357C18.8574 35.9721 19.7261 35.1034 21.3898 35.1034H97.5882C99.2445 35.1034 100.113 35.9721 100.113 37.6357V68.7379C100.113 71.7266 97.5735 71.2629 94.6731 71.2629C92.0156 71.2629 89.3581 71.2702 86.7006 71.2629C83.6898 71.2555 84.3891 71.1451 81.5034 74.0308C80.4802 75.054 78.3822 77.3876 77.3736 78.0649L71.7789 72.5732C70.9913 71.7782 70.8735 71.2776 69.4159 71.2481C64.4616 71.1672 59.397 71.2629 54.4353 71.2629C53.7728 68.4213 50.5559 65.6534 47.6039 64.6744C41.6264 62.6941 42.819 63.2315 40.132 70.1807C37.1875 77.7851 37.4304 81.2082 30.1278 85.441C29.0678 86.0594 27.912 86.6262 26.8299 87.2004C25.7109 86.4496 24.7981 85.257 22.3615 85.257H9.72186C7.21897 85.257 4.47314 87.8335 4.47314 90.3143V125.686C4.47314 128.137 7.0791 130.743 9.53046 130.743H22.943C24.1724 130.743 26.4913 129.683 26.8299 128.41C28.4641 128.447 31.9976 130.743 37.3273 130.743H65.1242C67.2001 130.743 69.7472 128.955 70.7631 126.864C71.5802 125.186 71.536 124.876 71.536 123.161C71.536 121.659 71.0133 121.137 70.7631 120.055C72.0071 119.392 73.0157 119.076 74.0463 117.699C75.9602 115.13 76.1443 112.377 74.6499 109.557C76.8142 109.049 79.3171 106.09 79.3171 103.337C79.3171 100.878 79.1477 100.201 77.7343 98.3015C76.5786 96.7482 75.5112 96.5495 74.2597 95.9458C77.1528 90.4763 73.0525 85.2496 67.6565 85.2496C62.5992 85.2496 57.5419 85.257 52.4919 85.257C53.1103 83.9687 55.2083 77.4907 55.2083 76.1214V75.1497H68.4295C69.4601 75.1497 75.6584 82.9234 76.9835 82.9234C78.8091 82.9234 78.9343 82.2314 80.3329 80.8328C81.1942 79.9788 81.9083 79.2648 82.7622 78.4035C84.6762 76.4895 85.4492 75.1644 86.8773 75.135C90.0133 75.0687 97.0287 75.481 99.2961 75.1055C100.467 74.9142 101.644 74.1265 102.403 73.3609C103.095 72.6542 104 71.204 104 69.901V36.4653C104 34.0139 101.203 31.2166 98.7513 31.2166H20.2193C17.7679 31.2166 14.9706 34.0139 14.9706 36.4653ZM18.055 89.2616H22.6707C22.6707 89.2616 24.0104 89.2616 24.0104 92.2945C24.0104 95.3348 24.0104 123.64 24.0104 123.64C24.0104 123.64 24.3712 126.43 22.3026 126.555C20.2414 126.673 10.642 126.555 10.642 126.555C10.642 126.555 8.21276 127.644 8.21276 124.486C8.21276 121.328 8.21276 91.0799 8.21276 91.0799C8.21276 91.0799 8.09498 89.1365 9.79548 89.1365C11.496 89.1365 14.1682 89.1365 14.1682 89.1365V112.465C14.1682 112.465 14.043 114.894 16.1116 114.894C16.1116 114.894 18.1728 115.38 18.1728 112.583C18.1728 109.793 18.055 89.2616 18.055 89.2616ZM28.1402 90.9621C28.1402 90.9621 37.7322 86.8323 40.6473 79.4194C43.5625 72.0137 44.6593 68.8557 44.6593 68.8557C44.6593 68.8557 45.02 67.5159 46.8457 68.7305C48.664 69.9452 52.7937 71.7708 50.3645 79.4194C47.9352 87.0753 48.3032 85.2496 48.3032 85.2496C48.3032 85.2496 47.3315 89.5046 50.1215 89.3794C52.9189 89.2616 67.8626 89.3794 67.8626 89.3794C67.8626 89.3794 70.8956 89.0187 70.7778 92.9055C70.7778 92.9055 70.7778 95.5778 68.1056 95.5778C65.4334 95.5778 57.6597 95.5778 57.6597 95.5778C57.6597 95.5778 55.2304 96.1814 55.4733 97.639C55.7162 99.1039 56.3199 99.7075 58.0204 99.5898C59.7209 99.4646 71.9924 99.5898 71.9924 99.5898C71.9924 99.5898 75.3934 99.9505 75.2683 102.991C75.1505 106.024 72.9641 105.906 72.9641 105.906H57.7774C57.7774 105.906 55.1052 105.906 55.3482 108.21C55.5911 110.522 59.9638 109.911 59.9638 109.911H68.5914C68.5914 109.911 71.5066 109.668 71.6243 113.437C71.7495 117.198 67.0087 116.352 67.0087 116.352H57.5345C57.5345 116.352 55.2304 116.109 55.7162 118.538C56.2021 120.967 59.4779 120.239 59.4779 120.239H64.5794C64.5794 120.239 67.4946 120.599 67.4946 123.757C67.4946 126.915 64.8224 126.673 64.0936 126.673C63.3648 126.673 37.7322 126.673 37.7322 126.673C37.7322 126.673 28.1402 126.069 28.1402 124.611V90.9621Z" fill="#153540"/>
<path fill-rule="evenodd" clip-rule="evenodd" d="M16.3327 118.111C13.7047 118.111 13.5427 122.013 16.1634 122.131C18.9313 122.256 18.6957 118.111 16.3327 118.111Z" fill="#153540"/>
<path fill-rule="evenodd" clip-rule="evenodd" d="M32.4688 75.1497H32.6602C35.0969 75.1497 35.0969 71.2629 32.6602 71.2629H32.4688C30.0322 71.2629 30.0322 75.1497 32.4688 75.1497Z" fill="#153540"/>
<ellipse cx="58.8649" cy="33.5133" rx="32.0263" ry="32.7077" fill="#ffc45f"/>
<ellipse cx="58.8652" cy="33.5132" rx="19.7609" ry="20.4423" fill="#97FBEE"/>
<path fill-rule="evenodd" clip-rule="evenodd" d="M57.6213 23.9735H60.9097V29.9269H53.8876V38.3286H55.2137V41.6902H50.0071V26.9526H57.127V23.9879L57.6213 23.9735Z" fill="white"/>
<path fill-rule="evenodd" clip-rule="evenodd" d="M62.3609 25.3363H64.9455C64.9455 25.3363 67.7234 25.6752 67.7234 28.0817C67.7234 30.4881 67.6973 30.6576 67.6973 30.6576C67.6973 30.6576 67.5145 32.483 66.6478 32.7735C65.781 33.0641 67.619 33.2093 67.6712 33.9404C67.7234 34.6716 67.6712 37.7801 67.6712 37.7801C67.6712 37.7801 67.4884 39.7024 64.7367 39.7024C61.9849 39.7024 60.0686 39.7024 60.0686 39.7024V43.053H56.2151V37.078H63.6088V32.9914H55.458V30.6576H63.5044V28.256H62.4288L62.3609 25.3363Z" fill="white"/>
<rect width="9.44606" height="9.44606" transform="matrix(0.724494 -0.689282 0.724494 0.689282 0.850342 25.4265)" fill="#153540"/>
<rect width="5.20765" height="5.20765" transform="matrix(0.724494 -0.689282 0.724494 0.689282 0 40.6312)" fill="#153540"/>
<rect width="5.20765" height="5.20765" transform="matrix(0.724494 -0.689282 0.724494 0.689282 87.2258 100.785)" fill="#153540"/>
<rect width="5.20765" height="5.20765" transform="matrix(0.724494 -0.689282 0.724494 0.689282 87.2258 115.322)" fill="#153540"/>
<rect width="5.20765" height="5.20765" transform="matrix(0.724494 -0.689282 0.724494 0.689282 96.1721 108.613)" fill="#153540"/>
</svg>
