<svg width="108" height="90" viewBox="0 0 108 90" fill="none" xmlns="http://www.w3.org/2000/svg">
<path fill-rule="evenodd" clip-rule="evenodd" d="M30.359 70.6411C30.405 68.5413 31.734 64.1057 32.6545 62.2705C32.9536 61.6779 33.2068 61.1256 33.6152 60.6078C33.759 60.4237 34.0409 60.0671 34.2078 59.8887C34.4954 59.5838 34.7025 59.4687 34.9902 59.1926C35.7323 58.4965 37.3087 57.4379 38.396 57.1848L43.8499 62.5581C43.4184 64.2092 41.8881 66.1595 40.5706 67.2353C38.5341 68.9037 32.758 70.5836 30.359 70.6411ZM59.8893 70.4743C61.1493 68.0925 62.156 63.3693 60.712 60.6309C63.1398 60.0671 69.8651 55.246 71.8672 53.9056C77.3326 64.2323 63.8704 70.1464 59.8893 70.4743ZM41.3531 46.1965L54.8439 59.6068L51.6683 60.7747C47.785 62.0806 47.9288 61.8793 46.3122 60.2627C45.7254 59.6759 45.2594 59.2099 44.6726 58.623C43.5104 57.4609 42.4691 56.4196 41.307 55.2575C38.8793 52.8297 38.8217 53.5776 40.4268 48.7163C40.6915 47.9224 41.0366 46.8523 41.3531 46.1965ZM40.3635 40.2881C37.6596 38.8556 32.8788 39.8624 30.5201 41.105C30.7042 38.8901 32.8788 34.3222 34.2711 32.5503C37.8495 27.9996 41.9629 26.4175 47.0946 29.133C45.3572 31.7218 44.4655 32.8034 42.6935 35.726C42.3771 36.2437 42.1872 36.6867 41.8766 37.2045C41.5026 37.8143 40.5246 39.615 40.3635 40.2881ZM58.2497 58.1686L42.7856 42.7907C45.2191 38.2861 45.1846 37.8086 48.274 33.2637C48.5616 32.8379 48.74 32.6423 49.0276 32.2166C52.537 27.0676 58.2842 21.585 63.6116 18.4151C66.4248 16.7352 69.3416 15.3142 72.4022 14.083C72.9027 13.8817 73.4147 13.7493 73.8347 13.548L87.4119 27.2057L86.4454 29.7658C85.4213 32.2856 84.0233 34.932 82.6254 37.262C80.0768 41.502 75.9518 46.3691 72.0973 49.3837C65.6136 54.4578 66.0163 54.0609 58.2497 58.1686ZM88.7638 23.5525C87.9181 23.3282 80.0192 15.0553 78.7996 13.8299C78.3048 13.3409 77.6317 12.9439 77.4419 12.2305L84.1844 10.6024C86.4166 10.1422 89.1435 9.64167 91.5541 9.44607C91.2894 12.6505 90.1158 18.6164 89.1896 21.8439C88.994 22.5227 88.7811 22.7874 88.7638 23.5525ZM49.2232 26.5038C44.5633 24.0358 40.2772 23.3684 35.6403 26.5383C34.6047 27.2402 34.133 27.7407 33.27 28.5979C31.2392 30.6173 29.2372 33.931 28.2822 36.7385C27.3099 39.6093 26.7461 41.479 26.7461 44.879C26.7461 45.8513 27.7931 46.5877 28.6273 46.4266C30.3763 46.0929 30.0023 43.878 36.3364 42.9748C37.1418 42.8597 38.9368 42.8194 38.6319 43.9355C38.1544 45.6787 34.9557 51.6676 36.2616 54.3946C33.5289 55.8443 34.3976 55.4013 32.1597 57.1848C31.0781 58.042 29.9505 60.0095 29.3752 61.2925C28.0635 64.215 26.7461 69.433 26.7461 72.7698C26.7461 73.6557 27.4192 74.2483 28.3915 74.2483C31.6304 74.2483 36.7219 72.9078 39.5926 71.6709C40.6397 71.2222 41.9629 70.5146 42.7856 69.7782C43.9304 68.7541 44.2929 68.432 45.2881 67.0282C45.8577 66.2286 46.1281 65.6187 46.5998 64.7328C48.6249 65.705 52.163 64.1977 54.2111 63.4844C55.1603 63.1507 55.914 62.8228 56.823 62.4603C57.4443 62.2187 57.6572 62.1209 57.8815 62.794C58.5489 64.7846 57.381 68.3399 56.1844 70.0543C55.7529 70.6699 54.7806 71.5961 54.6023 72.252C54.3722 73.0747 55.0395 74.2483 56.1154 74.2483C65.4583 74.2483 79.6855 66.8211 75.9288 54.9238C75.762 54.3946 75.5203 53.8595 75.2672 53.29C74.9968 52.6859 74.7782 52.312 74.4906 51.7712C75.3478 51.2016 77.9079 48.6013 78.6327 47.8764C80.048 46.4611 81.1871 45.2012 82.3895 43.5904C85.8413 38.9707 88.8732 33.3845 90.7947 27.8846C92.7967 22.1545 95.0001 13.5768 95.0001 7.47278C95.0001 6.21862 93.9588 6 93.0326 6C90.6163 6 87.9987 6.4775 85.8355 6.83994C74.1856 8.79598 61.5405 13.9449 53.1238 22.3616C52.3414 23.1441 49.8273 25.6121 49.2232 26.5038Z" fill="#153540"/>
<path fill-rule="evenodd" clip-rule="evenodd" d="M65.3035 30.9337C65.3035 24.565 74.9859 24.0243 74.9859 31.2616C74.9859 32.4064 74.399 33.4305 73.6569 34.2014C73.6339 34.2302 73.5994 34.2647 73.5764 34.2877C70.5503 37.2965 65.3035 35.1794 65.3035 30.9337ZM61.8574 30.7726C61.8574 33.2464 62.9965 35.283 64.2795 36.5544C67.691 39.9487 72.5005 39.9372 75.8948 36.7672C78.7196 34.1266 79.2661 29.5242 77.0224 26.2737C76.7923 25.9343 76.8153 25.9976 76.5852 25.7214C76.3608 25.4453 76.3091 25.3187 76.0847 25.0771C73.3865 22.1027 68.0822 21.5332 64.3945 24.9448C62.9505 26.2795 61.8574 28.7705 61.8574 30.7726Z" fill="#ffc45f"/>
<path fill-rule="evenodd" clip-rule="evenodd" d="M11.8164 88.1937C11.8164 89.4709 12.3457 90.0002 13.6229 90.0002C14.5318 90.0002 16.0967 88.0959 17.0287 87.1697L23.3455 80.8529C23.9898 80.2085 26.2565 78.2928 26.2565 77.3665C26.2565 76.3655 25.5719 75.5601 24.4501 75.5601C23.5411 75.5601 21.9763 77.4643 21.0443 78.3906L13.1741 86.2665C12.6736 86.7612 11.8164 87.325 11.8164 88.1937Z" fill="#ffc45f"/>
<path fill-rule="evenodd" clip-rule="evenodd" d="M24.9453 88.1937C24.9453 89.4709 25.4688 90.0002 26.746 90.0002C27.6607 90.0002 29.2256 88.0959 30.1518 87.1697L36.4686 80.8529C37.113 80.2085 39.3797 78.2928 39.3797 77.3665C39.3797 76.3655 38.6951 75.5601 37.579 75.5601C36.7333 75.5601 36.2098 76.3482 35.7323 76.8315L26.2973 86.2665C25.8025 86.7612 24.9453 87.325 24.9453 88.1937Z" fill="#ffc45f"/>
<path fill-rule="evenodd" clip-rule="evenodd" d="M11 74.2483C11 75.5255 11.5235 76.0547 12.8007 76.0547C13.6464 76.0547 14.1699 75.2666 14.6474 74.7833C15.2055 74.2195 15.6485 73.7823 16.2065 73.2243L24.163 65.2678C24.721 64.7098 25.4344 64.2898 25.4344 63.2542C25.4344 62.3222 24.5714 61.6146 23.6337 61.6146C22.7074 61.6146 20.8665 63.8065 20.2279 64.4451L12.352 72.321C11.8572 72.8158 11 73.3796 11 74.2483Z" fill="#ffc45f"/>
<path fill-rule="evenodd" clip-rule="evenodd" d="M19.6934 56.3679C19.6934 57.1388 20.4182 58.0075 21.4998 58.0075C22.6677 58.0075 24.2555 55.9882 24.9862 55.2576C25.9354 54.3083 27.7361 53.0139 27.7361 51.6101C27.7361 50.5055 26.5107 49.8209 25.596 50.1086C24.9344 50.3214 22.1614 53.3245 21.4595 54.0264C20.9073 54.5787 19.6934 55.4301 19.6934 56.3679Z" fill="#ffc45f"/>
<path fill-rule="evenodd" clip-rule="evenodd" d="M42.9922 79.5008C42.9922 80.5766 43.8551 81.3015 44.6318 81.3015C45.5926 81.3015 48.1757 78.333 48.9351 77.5736C49.4759 77.0328 50.592 76.1353 50.8393 75.5197C51.196 74.6625 50.6955 73.2645 49.2227 73.2645C48.0951 73.2645 46.4498 75.3011 45.7364 76.0145C45.0115 76.7394 42.9922 78.333 42.9922 79.5008Z" fill="#ffc45f"/>
<path fill-rule="evenodd" clip-rule="evenodd" d="M56.9375 42.2557C56.9375 43.5329 57.461 44.0621 58.7382 44.0621C59.6414 44.0621 60.3893 42.9863 60.9128 42.4628C61.8391 41.5366 62.5122 41.2834 62.5122 39.9602C62.5122 38.9074 61.7125 38.4817 60.7115 38.4817C59.8083 38.4817 56.9375 41.3582 56.9375 42.2557Z" fill="#ffc45f"/>
<path fill-rule="evenodd" clip-rule="evenodd" d="M52.1816 46.8523C52.1816 49.4814 55.6277 49.1938 55.6277 47.1802C55.6277 45.6787 53.9881 44.81 52.803 45.834C52.6419 45.9663 52.1816 46.6797 52.1816 46.8523Z" fill="#ffc45f"/>
<rect x="99" y="11.787" width="6.0695" height="6.0695" transform="rotate(-45 99 11.787)" fill="#153540"/>
<rect y="70.2917" width="6.0695" height="6.0695" transform="rotate(-45 0 70.2917)" fill="#153540"/>
<rect x="7" y="40.2917" width="4.74345" height="4.74345" transform="rotate(-45 7 40.2917)" fill="#153540"/>
<rect x="42.0723" y="6.36475" width="8.69158" height="8.69158" transform="rotate(-45 42.0723 6.36475)" fill="#153540"/>
<rect x="82" y="48.2917" width="6.0695" height="6.0695" transform="rotate(-45 82 48.2917)" fill="#153540"/>
</svg>
