<svg width="285" height="266" viewBox="0 0 285 266" fill="none" xmlns="http://www.w3.org/2000/svg">
<path d="M149.021 209.859C193.308 209.859 229.209 173.958 229.209 129.671C229.209 85.3845 193.308 49.483 149.021 49.483C104.734 49.483 68.833 85.3845 68.833 129.671C68.833 173.958 104.734 209.859 149.021 209.859Z" fill="#ffc45f"/>
<path fill-rule="evenodd" clip-rule="evenodd" d="M104.707 147.701C104.707 145.932 105.622 144.815 106.553 143.884C107.36 143.077 108.57 141.681 109.424 141.107L145.266 176.856C144.801 177.539 141.884 180.487 140.999 180.984C137.524 182.954 135.212 179.991 133.583 178.361C132.124 176.903 130.805 175.584 129.347 174.125L108.151 152.93C106.77 151.549 104.707 149.982 104.707 147.701ZM139.774 187.268H137.834C135.429 187.05 133.071 185.98 131.224 184.118L107.019 159.897C103.791 156.67 99.0588 153.07 99.0588 148.461C99.0588 143.512 100.16 142.177 103.434 138.903L142.908 99.43C143.916 98.4214 144.987 96.8388 146.539 96.8388L153.428 97.4749C161.822 98.6386 171.504 99.3679 180.225 100.454C182.242 100.702 181.668 100.609 184.554 97.7232C185.795 96.4819 190.884 90.8029 192.327 90.8029C194.143 90.8029 195.524 91.7184 195.524 93.2545C195.524 95.6285 194.174 96.2026 192.172 98.2042L186.617 103.759C185.345 104.985 185.733 104.519 185.904 106.443L189.255 136.452C189.845 141.122 189.643 140.672 186.803 143.512L165.515 164.8C163.172 167.143 146.368 184.459 144.01 185.871C142.691 186.663 141.248 187.128 139.774 187.268ZM172.544 110.586C172.544 112.836 173.49 113.798 175.74 113.798C177.37 113.798 179.216 110.85 180.457 110.028C180.814 111.61 180.876 113.767 181.124 115.567C181.885 121.168 182.226 126.878 183.002 132.526L183.654 138.112C183.623 138.95 181.745 140.471 180.783 141.448C178.518 143.713 150.278 172.139 149.363 172.76L113.52 137.01C114.203 136.033 143.28 107.157 146.306 104.131C148.214 102.223 147.221 102.611 150.899 103.014L176.299 105.885C175.477 107.111 172.544 108.957 172.544 110.586Z" fill="#FEFEFE"/>
<path fill-rule="evenodd" clip-rule="evenodd" d="M122.613 136.591C122.613 138.888 123.621 139.198 125.483 141.06L145.267 160.843C147.129 162.721 147.439 163.714 149.735 163.714C151.271 163.714 152.187 162.349 152.187 160.518C152.187 159.09 147.206 154.683 146.027 153.504L129.533 137.01C127.671 135.148 127.361 134.14 125.064 134.14C123.901 134.14 122.613 135.428 122.613 136.591Z" fill="#FEFEFE"/>
<path fill-rule="evenodd" clip-rule="evenodd" d="M153.196 216.314L138.145 215.399C133.148 214.623 127.982 213.708 123.203 212.047C109.657 207.361 97.3989 200.177 87.3599 189.874C77.4295 179.696 70.5402 167.391 66.0716 153.939C65.2337 151.441 64.7061 148.943 64.101 146.382C63.5114 143.869 63.17 141.34 62.7976 138.795C62.6425 137.6 62.6735 136.452 62.6425 135.257C62.5959 134.326 62.4718 133.519 62.3011 132.619C62.208 132.154 62.1459 131.688 62.1304 131.207C62.1149 130.757 62.1459 130.338 62.208 129.889C62.3166 129.066 62.3942 128.352 62.3787 127.53C62.3632 126.335 62.208 125.141 62.2701 123.946C63.2631 104.985 70.773 84.5344 83.8687 70.5387C91.2855 62.6099 99.2144 55.5189 108.881 50.4141C116.189 46.5505 123.963 44.0834 131.985 42.206L146.927 40.2819C147.315 40.2664 147.672 40.2975 148.06 40.3285C148.913 40.4216 149.689 40.4992 150.558 40.4837C151.768 40.4371 152.963 40.313 154.173 40.344C157.804 40.4526 161.605 40.9647 165.19 41.6008C169.038 42.268 173.087 43.1369 176.796 44.3627C187.238 47.7918 199.046 53.657 207.13 61.2289C212.592 66.3338 218.131 71.6559 222.445 77.7848C226.293 83.2465 229.148 89.3134 231.832 95.4113C232.841 97.6922 233.616 100.221 234.315 102.642C235.028 105.125 235.665 107.638 236.254 110.152C237.046 113.534 237.542 116.855 237.744 120.33C237.93 123.217 237.93 126.103 237.977 128.989C237.992 130.199 238.147 131.394 238.085 132.588C237.092 151.518 229.567 172 216.486 185.995C211.382 191.457 206.044 196.857 199.837 201.093C194.593 204.662 188.821 207.361 183.033 209.922C180.737 210.93 178.208 211.706 175.803 212.404C173.32 213.118 170.807 213.754 168.293 214.344C165.779 214.918 163.25 215.275 160.705 215.632C159.526 215.802 158.362 215.756 157.168 215.802C156.252 215.833 155.445 215.973 154.53 216.144C154.08 216.221 153.645 216.283 153.196 216.314ZM200.877 74.0454C193.833 67.451 183.421 61.1669 174.251 58.1722C169.922 56.7602 165.453 55.5965 160.938 54.9759C157.494 54.5104 154.08 54.1845 150.604 54.1845C147.517 54.1845 144.429 54.4173 141.341 54.6966C139.014 54.8983 136.702 55.2396 134.421 55.7051C122.38 58.1567 111.146 64.115 101.899 72.1524C95.7853 77.4745 90.4476 83.7586 86.2738 90.7099C79.5397 101.944 76.3278 114.31 76.2813 127.344C76.2658 129.842 76.2502 132.356 76.4209 134.838C76.6226 137.771 77.1347 140.641 77.6933 143.512C80.1603 156.235 86.1341 167.981 94.7922 177.617C108.679 193.055 128.478 202.07 149.254 202.163C151.753 202.179 154.266 202.194 156.749 202.024C159.681 201.807 162.552 201.31 165.422 200.751C179.759 197.958 194.422 189.642 204.399 178.967C214.252 168.415 221.514 153.318 223.469 139.028V138.966L224.074 129.221V129.175C224.074 128.616 224.136 128.135 224.214 127.577C224.307 126.971 224.353 126.397 224.322 125.777V125.715L222.662 113.069V113.022C219.869 98.6697 211.552 84.0224 200.877 74.0454Z" fill="#153540"/>
<path fill-rule="evenodd" clip-rule="evenodd" d="M153.195 214.763L138.315 213.863C133.443 213.087 128.385 212.202 123.715 210.589C110.386 205.98 98.3454 198.92 88.4615 188.804C78.7018 178.78 71.9367 166.678 67.5456 153.458C66.7232 150.991 66.1957 148.539 65.6216 146.025C65.0319 143.558 64.6906 141.076 64.3337 138.578C64.1785 137.46 64.2251 136.328 64.1785 135.195C64.1475 134.202 64.0079 133.318 63.8217 132.34C63.7441 131.937 63.6975 131.564 63.682 131.161C63.6665 130.788 63.6975 130.447 63.7441 130.09C63.8682 129.206 63.9458 128.414 63.9303 127.514C63.9148 126.351 63.7596 125.172 63.8217 124.023C64.7992 105.435 72.1539 85.3257 85.0014 71.5938C99.5867 55.9844 111.565 48.5831 132.264 43.742L147.036 41.8335C147.33 41.8335 147.61 41.849 147.904 41.8801C148.82 41.9732 149.673 42.0507 150.604 42.0352C151.768 41.9887 152.947 41.8645 154.126 41.8956C157.695 41.9887 161.419 42.5162 164.926 43.1214C168.696 43.7886 172.684 44.6264 176.315 45.8367C186.524 49.2037 198.146 54.9603 206.075 62.3771C211.444 67.3888 216.936 72.6489 221.188 78.6847C224.958 84.0533 227.767 90.0426 230.405 96.0319C231.382 98.2663 232.142 100.718 232.825 103.061C233.523 105.528 234.159 108.01 234.734 110.493C235.509 113.798 235.99 117.041 236.208 120.424C236.378 123.279 236.378 126.149 236.425 129.02C236.44 130.168 236.596 131.347 236.533 132.511C235.556 151.068 228.186 171.208 215.354 184.925C210.326 190.309 205.066 195.646 198.969 199.805C193.802 203.327 188.107 205.996 182.413 208.494C180.178 209.472 177.711 210.232 175.368 210.899C172.917 211.613 170.434 212.249 167.936 212.823C165.469 213.397 162.986 213.738 160.488 214.095C159.371 214.251 158.238 214.219 157.121 214.251C156.113 214.297 155.228 214.437 154.251 214.623C153.894 214.685 153.552 214.732 153.195 214.763ZM201.948 72.9126C194.733 66.1631 184.119 59.7548 174.732 56.6981C170.31 55.2551 165.748 54.0603 161.14 53.4397C157.633 52.9587 154.158 52.6328 150.604 52.6328C147.47 52.6328 144.336 52.8656 141.201 53.1449C138.827 53.3621 136.453 53.7035 134.11 54.1845C113.769 58.3428 95.5525 72.2454 84.9393 89.9185C78.0656 101.385 74.7762 114.015 74.7296 127.344C74.7141 129.873 74.6986 132.433 74.8693 134.947C75.0865 137.941 75.5985 140.874 76.1726 143.807C78.7018 156.809 84.7997 168.803 93.644 178.656C107.81 194.421 128.028 203.622 149.254 203.715C151.784 203.73 154.344 203.746 156.857 203.56C159.852 203.358 162.785 202.831 165.717 202.272C180.38 199.417 195.322 190.93 205.532 180.022C215.618 169.253 223.003 153.846 225.005 139.229L225.02 139.121L225.626 129.268V129.19C225.626 127.995 225.92 127.002 225.874 125.73V125.575L224.198 112.821L224.183 112.712C221.328 98.049 212.84 83.1068 201.948 72.9126Z" fill="#153540"/>
<path fill-rule="evenodd" clip-rule="evenodd" d="M153.196 213.195L138.486 212.311C133.723 211.566 128.773 210.697 124.211 209.115C111.131 204.599 99.2921 197.664 89.5789 187.718C79.9743 177.865 73.3489 165.964 69.0198 152.961C68.213 150.556 67.701 148.151 67.1269 145.668C66.5527 143.248 66.2269 140.812 65.87 138.36C65.7304 137.305 65.7769 136.204 65.7304 135.148C65.6994 134.062 65.5442 133.116 65.3425 132.061C65.2959 131.735 65.2339 131.44 65.2339 131.114C65.2183 130.819 65.2494 130.571 65.2804 130.292C65.4045 129.33 65.4976 128.461 65.4821 127.483C65.4666 126.366 65.3114 125.202 65.3735 124.101C66.3355 105.885 73.5351 86.117 86.1343 72.6643C100.502 57.2877 112.202 50.0416 132.544 45.2626L147.16 43.3851C148.262 43.3696 149.441 43.6178 150.636 43.5713C151.784 43.5403 152.947 43.4161 154.08 43.4472C160.504 43.6334 169.736 45.2936 175.834 47.3107C185.826 50.6002 197.262 56.2481 205.02 63.5097C210.296 68.4439 215.726 73.6419 219.916 79.5846C223.624 84.8446 226.402 90.7718 228.993 96.6525C230.855 100.888 232.174 106.319 233.229 110.85C234.734 117.289 234.78 122.503 234.873 129.035C234.889 130.152 235.044 131.316 234.982 132.418C234.02 150.634 226.805 170.417 214.221 183.87C209.272 189.161 204.105 194.436 198.084 198.532C193.011 201.977 187.394 204.615 181.792 207.066C177.556 208.944 172.11 210.263 167.579 211.318C165.159 211.876 162.723 212.218 160.271 212.559C159.216 212.714 158.114 212.668 157.059 212.699C155.973 212.745 155.027 212.901 153.972 213.087C153.708 213.133 153.459 213.18 153.196 213.195ZM203.003 71.7799C195.617 64.8752 184.818 58.3583 175.229 55.224C170.714 53.75 166.059 52.5397 161.357 51.9035C153.956 50.895 148.448 50.957 141.062 51.5932C117.415 53.6879 95.6923 69.0025 83.6207 89.1116C76.5918 100.826 73.2403 113.736 73.1782 127.328C73.1627 129.904 73.1472 132.495 73.3334 135.055C73.5506 138.112 74.0626 141.107 74.6523 144.101C77.228 157.383 83.45 169.641 92.496 179.696C106.957 195.786 127.578 205.173 149.255 205.267C151.815 205.282 154.406 205.298 156.982 205.111C160.023 204.894 163.018 204.367 166.012 203.792C181.001 200.875 196.238 192.233 206.665 181.092C216.968 170.076 224.509 154.373 226.541 139.446L226.557 139.276L227.177 129.33V129.19C227.177 128.011 227.472 126.987 227.426 125.683V125.451L225.734 112.557L225.703 112.417C222.786 97.4438 214.144 82.2069 203.003 71.7799Z" fill="#153540"/>
<path fill-rule="evenodd" clip-rule="evenodd" d="M153.18 211.644L138.641 210.775C134.002 210.046 129.161 209.192 124.723 207.656C97.6782 198.3 79.5086 179.587 70.4936 152.48C69.7023 150.106 69.2058 147.748 68.6317 145.327C68.0886 142.953 67.7472 140.548 67.4059 138.143C67.2662 137.166 67.3283 136.079 67.2818 135.086C67.2507 133.938 67.08 132.914 66.8783 131.781C66.8318 131.533 66.7852 131.3 66.7852 131.052C66.7697 130.866 66.8008 130.695 66.8163 130.494C66.9559 129.454 67.049 128.508 67.0335 127.468C67.018 126.397 66.8628 125.234 66.9249 124.178C67.8559 106.335 74.9313 86.9083 87.2667 73.7195C101.402 58.6066 112.822 51.5002 132.823 46.7987L147.268 44.9368C148.339 44.9368 149.503 45.1695 150.682 45.123C151.799 45.0919 152.932 44.9678 154.033 44.9988C160.302 45.1695 169.379 46.8142 175.337 48.7848C185.112 51.9967 196.362 57.536 203.949 64.6425C216.409 76.2797 220.707 81.6949 227.565 97.2732C229.38 101.416 230.684 106.769 231.708 111.207C233.182 117.522 233.244 122.642 233.322 129.051C233.337 130.137 233.492 131.285 233.43 132.34C232.499 150.184 225.408 169.626 213.088 182.815C201.87 194.793 196.082 199.091 181.156 205.654C177.013 207.47 171.66 208.773 167.238 209.797C164.864 210.356 162.459 210.682 160.054 211.023C159.076 211.163 157.99 211.116 156.997 211.147C155.849 211.194 154.825 211.349 153.692 211.566C153.521 211.597 153.351 211.628 153.18 211.644ZM204.058 70.6473C196.517 63.5873 185.516 56.9464 175.71 53.75C171.101 52.2449 166.353 51.0192 161.559 50.3675C154.049 49.3434 148.432 49.3899 140.938 50.0571C116.779 52.1829 94.6215 67.7767 82.286 88.3203C75.1175 100.268 71.6884 113.441 71.6263 127.328C71.6108 129.935 71.5953 132.573 71.7815 135.18C71.9987 138.283 72.5263 141.339 73.1314 144.396C75.7537 157.957 82.1153 170.464 91.332 180.72C106.088 197.152 127.144 206.725 149.239 206.818C151.846 206.834 154.483 206.849 157.09 206.663C160.193 206.446 163.25 205.903 166.307 205.313C181.621 202.334 197.138 193.536 207.797 182.147C218.317 170.898 225.998 154.901 228.077 139.648L228.108 139.415L228.729 129.376V129.206C228.729 128.011 229.024 126.971 228.977 125.621V125.327L227.255 112.308L227.224 112.122C224.245 96.8232 215.447 81.2914 204.058 70.6473Z" fill="#153540"/>
<path fill-rule="evenodd" clip-rule="evenodd" d="M153.211 210.092L138.812 209.223C134.297 208.509 129.549 207.687 125.235 206.182C98.6403 196.981 80.8277 178.641 71.9679 151.984C71.192 149.672 70.6955 147.344 70.1524 144.97C69.6094 142.643 69.2835 140.284 68.9422 137.926C68.818 137.01 68.8646 135.955 68.8336 135.04C68.787 133.612 68.3681 132.216 68.337 131.006C68.2905 130.013 68.6008 128.647 68.5853 127.437C68.5698 126.413 68.4146 125.28 68.4612 124.272C69.3921 106.785 76.3124 87.6997 88.3996 74.7746C102.302 59.91 113.443 52.9587 133.087 48.3193L147.361 46.4884C148.401 46.4884 149.58 46.7056 150.729 46.6746C151.799 46.6591 152.932 46.5194 153.987 46.5505C160.116 46.7211 169.038 48.3348 174.856 50.2589C184.414 53.3932 195.478 58.8394 202.894 65.7752C215.199 77.2727 219.373 82.5172 226.138 97.9094C227.922 101.944 229.194 107.235 230.203 111.564C231.646 117.755 231.693 122.782 231.77 129.082C231.786 130.106 231.941 131.254 231.879 132.262C230.963 149.734 224.027 168.834 211.956 181.744C200.893 193.583 195.276 197.757 180.535 204.227C176.486 206.011 171.21 207.284 166.881 208.292C164.554 208.835 162.195 209.161 159.837 209.487C158.921 209.627 157.866 209.565 156.951 209.596C155.647 209.642 154.344 209.999 153.211 210.092ZM205.113 69.5146C197.417 62.2995 186.214 55.5499 176.191 52.276C171.489 50.7399 166.664 49.4986 161.776 48.8314C154.158 47.7918 148.401 47.8383 140.798 48.5055C116.143 50.6778 93.551 66.551 80.9518 87.5135C73.6436 99.7093 70.1369 113.162 70.0749 127.328C70.0438 133.861 70.3386 138.221 71.5955 144.691C74.2953 158.532 80.7811 171.301 90.184 181.759C105.235 198.501 126.694 208.277 149.239 208.37C155.771 208.401 160.131 208.091 166.602 206.834C182.242 203.808 198.053 194.84 208.93 183.202C219.667 171.72 227.488 155.444 229.613 139.85L229.644 139.571L230.281 129.423V129.206C230.281 128.026 230.575 126.94 230.529 125.575L230.513 125.203L228.791 112.06L228.744 111.827C225.719 96.2026 216.75 80.3915 205.113 69.5146Z" fill="#153540"/>
<path fill-rule="evenodd" clip-rule="evenodd" d="M58.0497 39.6613C76.2037 21.5227 100.083 7.7908 125.483 3.29107C127.051 3.01178 128.602 2.59284 130.185 2.39113C131.799 2.1739 133.412 1.95667 135.01 1.70841C136.5 1.46015 137.865 1.46015 139.34 1.33602C140.938 1.18086 142.412 0.855015 144.025 0.808467C147.129 0.715369 150.387 0.327462 153.459 0.606755C155.818 0.839499 158.161 0.932597 160.519 1.02569C162.195 1.08776 163.84 1.16534 165.5 1.3205C167.889 1.55325 170.263 1.89461 172.637 2.29803C175.818 2.8411 178.984 3.39969 182.133 4.15999C185.268 4.90477 188.371 5.82023 191.474 6.73569C208.34 11.7164 224.105 20.6848 237.465 32.0738L246.635 40.6388C252.81 46.9849 258.38 53.9362 263.191 61.3685C281.003 88.91 287.861 122.379 282.477 154.684C281.81 158.733 280.972 162.752 279.933 166.724C277.59 175.786 274.238 184.366 270.157 192.792C268.404 196.391 266.278 199.945 264.122 203.327C261.36 207.656 258.38 211.877 255.215 215.926C254.703 216.578 254.191 217.23 253.664 217.881L242.895 229.394C242.306 229.906 241.7 230.434 241.08 230.931C238.008 233.382 234.982 235.865 231.925 238.332C229.66 240.147 227.363 241.947 224.989 243.623C218.519 248.138 211.258 251.567 204.105 254.857C186.757 262.848 167.207 265.904 148.199 265.423L138.626 264.865C131.737 264.104 124.925 263.018 118.191 261.296C108.664 258.86 99.773 255.245 91.0063 250.791C88.6943 249.628 86.3824 248.2 84.1636 246.85C80.6879 244.725 77.2588 242.506 73.9228 240.163C71.735 238.642 69.5628 237.06 67.4836 235.399L60.9667 229.301C60.4237 228.634 59.7254 227.672 59.5082 226.85C59.1824 225.624 59.1358 224.057 59.4461 222.816C60.1754 219.821 62.8597 218.052 65.8544 217.943C68.5232 217.866 71.673 220.379 73.628 221.962C75.3348 223.359 76.9795 224.802 78.6708 226.214C80.5948 227.796 82.5499 229.317 84.6136 230.698C87.872 232.855 91.1149 234.918 94.544 236.827C123.047 252.715 160.519 256.362 191.179 244.864C197.789 242.382 204.306 239.79 210.389 236.144C238.799 219.076 256.379 196.686 265.937 164.924C266.806 162.054 267.504 159.106 268.078 156.173C268.761 152.697 269.304 149.16 269.614 145.622C269.878 142.488 270.049 139.291 270.173 136.142C270.25 134.202 270.313 132.247 270.313 130.292C270.313 128.926 270.313 127.375 270.111 126.009C269.754 123.527 269.537 121.106 269.319 118.608C269.18 117.041 269.009 115.505 268.761 113.953C268.389 111.657 267.892 109.376 267.349 107.095C266.635 104.085 265.906 101.075 265.006 98.0956C263.997 94.7441 262.787 91.4857 261.515 88.2272C256.705 75.7987 249.428 65.5114 241.142 55.1931C239.73 53.4552 237.977 52.1674 236.549 50.4916C230.932 43.9438 223.376 38.2027 216.114 33.5944C211.444 30.6308 206.572 27.9309 201.575 25.557C197.246 23.5088 192.7 21.6313 188.092 20.2814C184.833 19.3349 181.559 18.3884 178.239 17.6281C175.027 16.8989 171.769 16.3403 168.526 15.8127C150.31 12.8336 128.23 15.4714 110.96 21.8951C107.671 23.1209 104.536 24.4398 101.356 25.9293C72.5884 39.3975 51.2691 63.3081 40.1904 92.9597C39.7249 94.2321 39.306 95.5509 38.9026 96.8543C38.3285 98.6852 37.7854 100.532 37.2889 102.378C36.7148 104.457 36.1717 106.568 35.7372 108.678C35.4735 109.888 35.0545 111.983 35.2873 113.193L35.8459 116.203L37.9406 113.969C39.2439 112.572 40.4542 111.114 41.8041 109.779C44.7057 106.924 47.7779 105 51.7656 107.142C53.131 107.855 54.2947 108.926 54.8844 110.369C56.2808 113.86 53.8137 117.755 51.5018 120.206C50.5088 121.277 49.4536 122.254 48.3675 123.248C46.8469 124.613 45.3884 125.963 43.9919 127.452L28.3515 143.124C26.5516 144.35 24.4879 145.141 22.3467 144.334C19.7555 143.357 17.7073 140.315 16.3419 138.004L16.3264 137.988L1.47728 114.434C0.375623 112.526 -0.213996 110.322 0.329074 108.135C0.76353 106.412 1.84967 104.938 3.35475 104.007C6.53559 102.083 10.0578 103.2 12.4318 105.823C13.4403 106.94 14.1075 108.181 14.8368 109.469C15.7367 111.114 16.6057 112.541 17.9711 113.876L19.9106 115.769L25.2172 94.139C27.1412 87.6531 29.6704 81.3846 32.5719 75.2867C37.5371 64.8752 44.054 55.1931 51.6259 46.5039L58.0497 39.6613Z" fill="#153540"/>
<path fill-rule="evenodd" clip-rule="evenodd" d="M59.1517 40.7319C77.0885 22.8416 100.673 9.26484 125.748 4.81166C127.299 4.54788 128.82 4.12894 130.387 3.92723C132.016 3.71 133.645 3.49278 135.259 3.229C136.702 3.01177 138.052 3.01177 139.479 2.87212C141.047 2.73248 142.505 2.40664 144.072 2.36009C147.082 2.26699 150.325 1.87908 153.305 2.15838C155.71 2.3756 158.068 2.48422 160.473 2.57732C164.569 2.73248 168.324 3.15142 172.374 3.83413C175.524 4.36169 178.658 4.92028 181.777 5.66506C184.88 6.40984 187.968 7.30978 191.04 8.20973C207.689 13.1284 223.252 21.9882 236.441 33.222L245.549 41.7559C251.647 48.009 257.14 54.8672 261.887 62.2064C279.483 89.422 286.264 122.503 280.941 154.435C278.707 167.872 274.735 179.82 268.761 192.109C267.039 195.662 264.929 199.169 262.818 202.489C260.072 206.772 257.124 210.961 253.99 214.964C253.493 215.6 252.997 216.237 252.5 216.857L241.825 228.277C241.266 228.758 240.692 229.239 240.103 229.705C237.046 232.172 234.005 234.654 230.948 237.122C228.714 238.921 226.448 240.706 224.09 242.351C217.713 246.819 210.513 250.202 203.453 253.445C186.323 261.327 167.021 264.337 148.262 263.872L138.766 263.313C131.954 262.568 125.22 261.482 118.579 259.791C109.161 257.386 100.378 253.817 91.7049 249.41C89.4395 248.262 87.1431 246.85 84.9708 245.531C81.5262 243.421 78.1281 241.202 74.8076 238.89C72.6664 237.401 70.5406 235.849 68.4925 234.22L62.1153 228.246C61.7274 227.765 61.1378 226.974 61.0136 226.462C60.7499 225.484 60.7033 224.165 60.9516 223.188C61.5102 220.86 63.6049 219.573 65.9013 219.495C68.027 219.433 71.0992 221.9 72.6508 223.172C76.3592 226.183 79.7418 229.332 83.7605 231.986C87.05 234.173 90.3394 236.253 93.784 238.177C122.691 254.298 160.644 257.975 191.723 246.307C198.426 243.794 205.02 241.171 211.18 237.478C239.932 220.209 257.76 197.508 267.427 165.374C269.289 159.168 270.592 152.201 271.151 145.762C271.43 142.596 271.601 139.384 271.725 136.204C271.802 134.249 271.864 132.262 271.864 130.307C271.864 128.849 271.864 127.22 271.647 125.792C271.29 123.325 271.089 120.936 270.871 118.468C270.515 114.434 269.801 110.695 268.87 106.738C268.141 103.697 267.396 100.656 266.496 97.6456C265.472 94.2631 264.246 90.9581 262.974 87.6687C258.086 75.0849 250.731 64.6735 242.352 54.2155C240.925 52.4467 239.172 51.1588 237.729 49.4831C226.697 36.6201 204.71 23.5398 188.526 18.8074C185.237 17.8298 181.932 16.8833 178.596 16.123C175.338 15.3783 172.064 14.8197 168.774 14.2766C150.294 11.2509 127.935 13.9197 110.417 20.4366C107.097 21.6779 103.916 23.0123 100.704 24.5174C71.5647 38.1562 49.9505 62.3926 38.7478 92.4166C37.5996 95.4733 36.6531 98.8249 35.7841 101.975C35.0704 104.581 33.2705 110.912 33.767 113.488L34.8997 119.493L39.0736 115.024C40.3615 113.658 41.5562 112.215 42.8906 110.897C45.2801 108.538 47.7162 106.738 51.0367 108.507C55.8777 111.083 53.271 116.063 50.385 119.151C47.9955 121.68 45.2646 123.806 42.8751 126.382L27.3588 141.929C26.0399 142.814 24.4728 143.481 22.9056 142.891C20.7178 142.053 18.8248 139.152 17.6766 137.212L17.6456 137.181L2.81203 113.643C1.19834 110.819 1.10524 107.204 4.16195 105.342C6.69111 103.806 9.40646 104.799 11.2839 106.862C12.1994 107.871 12.82 109.05 13.4717 110.229C14.4493 111.998 15.4113 113.534 16.8853 114.977L20.7644 118.779L26.7071 94.5424C28.6156 88.1497 31.1137 81.9742 33.9843 75.9539C38.8719 65.6821 45.3111 56.124 52.79 47.5435L59.1517 40.7319Z" fill="#153540"/>
<path fill-rule="evenodd" clip-rule="evenodd" d="M60.2688 41.818C77.9729 24.1449 101.263 10.7388 126.027 6.34774C127.547 6.06844 129.053 5.66502 130.589 5.46331C132.233 5.24608 133.863 5.02885 135.507 4.76507C136.904 4.54785 138.238 4.54785 139.635 4.42372C141.14 4.28407 142.598 3.94271 144.119 3.91168C147.051 3.81858 150.263 3.43067 153.165 3.69445C155.585 3.92719 157.975 4.03581 160.411 4.12891C164.445 4.26855 168.138 4.68749 172.126 5.35469C175.229 5.88225 178.332 6.44083 181.404 7.1701C184.492 7.91488 187.549 8.79931 190.59 9.69925C207.022 14.5559 222.383 23.307 235.401 34.3857L244.463 42.8576C250.483 49.033 255.898 55.8137 260.584 63.0443C277.978 89.9495 284.665 122.627 279.421 154.187C277.202 167.484 273.261 179.277 267.365 191.426C265.673 194.933 263.594 198.377 261.5 201.651C258.784 205.903 255.867 210.046 252.764 214.018C252.298 214.623 251.802 215.244 251.321 215.849L240.739 227.16C240.211 227.61 239.684 228.06 239.141 228.494C233.927 232.684 228.667 237.246 223.205 241.078C216.906 245.485 209.784 248.836 202.801 252.033C185.904 259.806 166.835 262.77 148.339 262.32L138.89 261.777C121.465 259.837 108.152 256.02 92.4186 248.029C90.1842 246.897 87.9188 245.516 85.7931 244.197C82.364 242.102 78.9815 239.914 75.692 237.618C73.5973 236.159 71.5181 234.639 69.501 233.041L63.2479 227.191C62.9686 226.85 62.6118 226.353 62.5032 226.058C62.317 225.345 62.2704 224.29 62.4566 223.545C62.86 221.931 64.3651 221.109 65.9633 221.047C67.4994 221 70.5406 223.452 71.6733 224.367C75.4282 227.424 78.8418 230.589 82.9071 233.289C86.2276 235.477 89.548 237.603 93.0237 239.542C122.334 255.865 160.752 259.589 192.266 247.766C199.062 245.205 205.734 242.552 211.987 238.797C241.065 221.341 259.126 198.315 268.901 165.824C270.809 159.525 272.128 152.449 272.702 145.901C272.982 142.705 273.152 139.462 273.276 136.266C273.401 133.054 273.649 128.725 273.183 125.559C272.826 123.139 272.625 120.765 272.408 118.344C272.051 114.217 271.337 110.415 270.375 106.381C269.646 103.309 268.885 100.237 267.97 97.1956C266.946 93.782 265.704 90.4305 264.417 87.0945C259.467 74.3711 252.05 63.8356 243.563 53.2535C242.104 51.4381 240.351 50.1657 238.908 48.4745C227.69 35.3787 205.439 22.1433 188.961 17.3178C185.64 16.3402 182.304 15.3782 178.937 14.6024C175.663 13.8576 172.343 13.299 169.022 12.756C150.279 9.68374 127.656 12.3836 109.874 18.978C106.507 20.2348 103.295 21.5847 100.037 23.1053C70.5406 36.9303 48.6471 61.4616 37.2892 91.8735C35.7065 96.1095 31.4861 109.779 32.2309 113.767L33.9377 122.797L40.2063 116.079C41.4786 114.729 42.6578 113.302 43.9922 111.998C45.8387 110.167 47.7006 108.491 50.3074 109.872C54.0778 111.89 51.3469 115.846 49.2522 118.081C46.8627 120.61 44.1474 122.735 41.7579 125.296L26.3812 140.719C25.5278 141.277 24.4262 141.805 23.4487 141.433C21.7108 140.781 19.9265 137.972 19.011 136.421L18.98 136.374L4.1464 112.836C1.18278 107.607 6.42729 103.806 10.1357 107.902C10.9425 108.817 11.5321 109.919 12.1218 110.974C13.1769 112.898 14.2165 114.543 15.7991 116.094L21.6333 121.789L28.2122 94.9457C30.0896 88.6461 32.5567 82.5482 35.3807 76.621C40.2063 66.4734 46.5524 57.0395 53.9382 48.5831L60.2688 41.818Z" fill="#153540"/>
<path fill-rule="evenodd" clip-rule="evenodd" d="M61.3857 42.8886C78.8571 25.4638 101.868 12.1974 126.29 7.86832C127.78 7.60455 129.285 7.20112 130.79 6.99941C132.45 6.78218 134.095 6.56496 135.755 6.30118C137.105 6.08395 138.409 6.08395 139.774 5.95982C141.248 5.82017 142.691 5.49433 144.165 5.4633C147.005 5.38572 150.201 4.98229 153.025 5.24607C155.477 5.47882 157.897 5.58743 160.349 5.68053C164.321 5.82017 167.936 6.2236 171.862 6.8908C178.363 7.97694 183.856 9.32685 190.155 11.1888C206.37 15.9833 221.514 24.6104 234.361 35.5494L243.376 43.9747C249.319 50.0726 254.657 56.7446 259.28 63.8976C276.457 90.4615 283.067 122.751 277.885 153.923C275.697 167.081 271.802 178.734 265.968 190.759C262.027 198.889 255.836 207.765 250.141 214.825L239.652 226.043C239.171 226.462 238.675 226.881 238.163 227.284C232.98 231.443 227.751 236.004 222.321 239.806C216.099 244.15 209.039 247.471 202.165 250.636C185.485 258.301 166.664 261.218 148.401 260.768L139.029 260.225C121.806 258.301 108.679 254.546 93.1166 246.649C90.9132 245.531 88.6944 244.166 86.5997 242.878C83.2016 240.799 79.8501 238.627 76.5917 236.346C74.528 234.918 72.4954 233.429 70.5248 231.861L64.3959 226.136C64.2407 225.934 64.0701 225.717 63.977 225.531C63.8839 225.05 63.8528 224.352 63.9614 223.917C64.1942 223.002 65.1407 222.629 65.9941 222.598C67.0492 222.645 70.1214 225.112 70.9283 225.764C74.6211 228.805 78.0192 231.908 82.0534 234.577C85.405 236.796 88.7565 238.937 92.2787 240.892C121.977 257.448 160.876 261.203 192.809 249.209C199.698 246.633 206.448 243.933 212.778 240.132C242.182 222.459 260.506 199.138 270.39 166.259C272.314 159.866 273.664 152.682 274.238 146.041C274.533 142.813 274.688 139.555 274.828 136.328C274.952 132.992 275.2 128.601 274.719 125.342C274.378 122.937 274.161 120.61 273.959 118.205C273.587 114 272.857 110.136 271.88 106.024C270.219 99.0265 268.466 93.2545 265.859 86.5359C260.863 73.6419 253.369 62.9822 244.773 52.2759C243.299 50.445 241.53 49.1572 240.087 47.4659C228.667 34.1374 206.168 20.7313 189.395 15.8282C186.044 14.8351 182.692 13.8731 179.278 13.0973C175.974 12.337 172.622 11.7629 169.27 11.2198C150.263 8.10107 127.361 10.8319 109.347 17.535C105.933 18.7918 102.675 20.1572 99.3851 21.7089C69.5163 35.7045 47.328 60.5461 35.8304 91.3304C34.1081 95.9388 29.8877 109.655 30.71 114.062L32.9754 126.087L41.3387 117.15C42.5955 115.8 43.7748 114.388 45.0781 113.1C46.366 111.827 47.7314 110.26 49.5778 111.238C49.9037 111.409 50.4157 111.75 50.5709 112.107C51.0984 113.441 48.8951 116.203 48.1193 117.025C45.7453 119.539 43.03 121.665 40.6405 124.225L25.4035 139.493C24.9535 139.772 24.3173 140.098 23.9915 139.99C22.7347 139.509 21.0124 136.762 20.3452 135.645L20.2986 135.552L5.48055 112.045C3.47895 108.476 6.48911 106.18 8.97172 108.941C9.70098 109.748 10.2441 110.788 10.7561 111.734C11.8888 113.783 13.006 115.536 14.7127 117.196L22.4864 124.799L29.7015 95.3647C31.5634 89.1426 33.9995 83.1378 36.7769 77.2882C41.5404 67.2802 47.809 57.9704 55.0861 49.6227L61.3857 42.8886Z" fill="#153540"/>
<path fill-rule="evenodd" clip-rule="evenodd" d="M62.503 43.9748C79.7416 26.7827 102.457 13.6714 126.554 9.40446C128.028 9.14069 129.518 8.73726 130.976 8.53555C132.652 8.31832 134.328 8.10109 136.004 7.83732C137.307 7.62009 138.595 7.63561 139.914 7.51148C141.341 7.37183 142.784 7.04599 144.212 7.01495C146.974 6.93737 150.154 6.53395 152.87 6.78221C155.352 7.03047 157.804 7.13908 160.287 7.23218C164.197 7.37183 167.75 7.77525 171.614 8.42694C178.037 9.49756 183.468 10.832 189.721 12.6784C205.703 17.3954 220.661 25.9138 233.337 36.6976L242.29 45.0764C248.14 51.0967 253.415 57.6912 257.977 64.7356C274.952 90.9736 281.484 122.875 276.348 153.675C274.192 166.678 270.344 178.191 264.572 190.076C260.693 198.083 254.579 206.849 248.978 213.801L238.582 224.926C238.132 225.314 237.666 225.702 237.201 226.074C232.034 230.217 226.836 234.748 221.421 238.534C215.292 242.832 208.294 246.105 201.513 249.224C185.066 256.781 166.478 259.651 148.463 259.217L139.153 258.674C122.132 256.781 109.207 253.072 93.8148 245.252C88.4307 242.521 82.4259 238.534 77.4762 235.073C75.4591 233.677 73.4575 232.218 71.5335 230.698L65.5442 225.096C65.5131 225.05 65.4821 225.003 65.4511 224.972C65.4356 224.74 65.4356 224.476 65.4666 224.305C65.5752 224.243 65.7459 224.196 65.8855 224.165C67.0958 224.584 69.7801 226.834 70.649 227.548C74.1092 230.45 77.3986 233.367 81.1846 235.865C84.5827 238.115 87.9652 240.271 91.5184 242.242C121.62 259.031 160.985 262.817 193.367 250.667C200.35 248.045 207.161 245.314 213.585 241.466C243.314 223.591 261.887 199.96 271.88 166.709C273.835 160.207 275.2 152.93 275.79 146.165C276.069 142.938 276.24 139.633 276.38 136.39C276.504 132.945 276.752 128.492 276.255 125.109C275.914 122.751 275.712 120.439 275.495 118.065C275.123 113.798 274.378 109.841 273.4 105.668C271.725 98.6076 269.94 92.7735 267.302 85.9774C262.244 72.9282 254.672 62.1443 245.983 51.314C244.478 49.452 242.725 48.1642 241.266 46.4574C229.644 32.9116 206.898 19.3349 189.845 14.3386C182.754 12.2595 176.811 10.8785 169.519 9.68376C150.248 6.53395 127.082 9.28033 108.804 16.0765C105.343 17.3488 102.054 18.7453 98.718 20.2969C68.4923 34.4633 46.0247 59.6152 34.3719 90.7874C32.51 95.8147 28.274 109.485 29.1895 114.341L32.029 129.376L42.4714 118.205C43.3714 117.243 47.0798 112.836 48.4452 112.433C48.5849 112.479 48.7555 112.557 48.8486 112.619C48.9107 112.634 48.9883 112.681 49.0659 112.743C48.8797 113.72 47.5142 115.396 46.9867 115.955C44.6282 118.468 41.9284 120.594 39.5234 123.139L24.4415 138.267C24.395 138.298 24.3329 138.314 24.2864 138.345C23.3864 137.616 22.1296 135.598 21.6796 134.854L21.6331 134.745L6.81501 111.253C5.93059 109.655 6.39607 108.414 7.82357 109.981C8.44422 110.679 8.95626 111.672 9.40623 112.479C10.6165 114.667 11.8113 116.544 13.6267 118.313L23.3399 127.809L31.2066 95.7681C33.0375 89.6392 35.4426 83.712 38.189 77.9554C42.8749 68.0871 49.0659 58.9014 56.2344 50.6623L62.503 43.9748Z" fill="#153540"/>
<path fill-rule="evenodd" clip-rule="evenodd" d="M27.8863 115.815L30.5551 129.935L24.3796 136.126C23.821 135.397 23.2779 134.512 23.0297 134.062L22.9521 133.938L15.7991 122.611L24.2089 130.819L27.8863 115.815Z" fill="#153540"/>
<path fill-rule="evenodd" clip-rule="evenodd" d="M27.6843 123.139L28.8791 129.423L25.2482 133.054L27.6843 123.139ZM24.7672 133.535L24.6121 133.69C24.519 133.535 24.4259 133.395 24.3638 133.271L24.2707 133.131L24.1621 132.945L24.7672 133.535Z" fill="#153540"/>
<path fill-rule="evenodd" clip-rule="evenodd" d="M132.497 126.692C132.497 128.989 133.505 129.299 135.367 131.176L155.151 150.96C157.028 152.822 157.338 153.83 159.635 153.83C161.171 153.83 162.086 152.449 162.086 150.618C162.086 149.206 157.106 144.8 155.911 143.605L139.433 127.127C137.555 125.249 137.245 124.256 134.948 124.256C133.8 124.256 132.497 125.544 132.497 126.692Z" fill="#FEFEFE"/>
</svg>
