<svg width="269" height="269" viewBox="0 0 269 269" fill="none" xmlns="http://www.w3.org/2000/svg">
<path fill-rule="evenodd" clip-rule="evenodd" d="M28.9976 14.2168V104.265C28.9976 110.867 36.5314 118.401 43.1333 118.401C53.6013 118.401 59.3706 120.185 59.3706 112.116C59.3706 110.708 57.2889 108.607 55.9804 108.171C51.0636 106.545 39.4656 111.323 39.4656 101.133V17.369C39.4656 12.8884 41.805 10.549 46.2856 10.549H251.501C255.962 10.549 258.302 12.8884 258.302 17.369V101.133C258.302 109.182 251.462 107.933 243.65 107.933C236.493 107.933 229.336 107.953 222.179 107.933C214.071 107.913 215.954 107.616 208.182 115.387C205.427 118.143 199.776 124.428 197.06 126.252L181.993 111.462C179.871 109.321 179.554 107.972 175.628 107.893C162.286 107.675 148.646 107.933 135.283 107.933C133.499 100.28 124.835 92.8257 116.885 90.1888C100.786 84.8557 103.998 86.303 96.7618 105.018C88.8316 125.498 89.4858 134.717 69.8187 146.117C66.9638 147.783 63.8512 149.309 60.9368 150.855C57.9233 148.833 55.4649 145.622 48.9026 145.622H14.8619C8.12112 145.622 0.726135 152.561 0.726135 159.242V254.504C0.726135 261.106 7.74443 268.125 14.3464 268.125H50.4688C53.7797 268.125 60.0248 265.27 60.9368 261.84C65.3381 261.939 74.8544 268.125 89.2082 268.125H164.07C169.661 268.125 176.521 263.307 179.257 257.676C181.457 253.156 181.338 252.323 181.338 247.704C181.338 243.66 179.931 242.252 179.257 239.338C182.607 237.553 185.323 236.701 188.099 232.993C193.254 226.074 193.749 218.659 189.725 211.066C195.553 209.698 202.294 201.728 202.294 194.313C202.294 187.692 201.838 185.868 198.032 180.753C194.919 176.569 192.044 176.034 188.674 174.408C196.465 159.678 185.422 145.602 170.89 145.602C157.27 145.602 143.65 145.622 130.049 145.622C131.715 142.152 137.365 124.705 137.365 121.018V118.401H172.972C175.747 118.401 192.441 139.337 196.009 139.337C200.926 139.337 201.263 137.473 205.03 133.706C207.35 131.406 209.273 129.483 211.572 127.164C216.727 122.009 218.809 118.44 222.655 118.361C231.101 118.183 249.995 119.293 256.101 118.282C259.253 117.766 262.425 115.645 264.467 113.583C266.331 111.68 268.77 107.774 268.77 104.265V14.2168C268.77 7.61479 261.236 0.0810242 254.634 0.0810242H43.1333C36.5314 0.0810242 28.9976 7.61479 28.9976 14.2168ZM37.3046 156.407H49.7353C49.7353 156.407 53.3435 156.407 53.3435 164.575C53.3435 172.763 53.3435 248.993 53.3435 248.993C53.3435 248.993 54.315 256.507 48.744 256.844C43.1928 257.161 17.3401 256.844 17.3401 256.844C17.3401 256.844 10.7976 259.778 10.7976 251.273C10.7976 242.767 10.7976 161.304 10.7976 161.304C10.7976 161.304 10.4804 156.07 15.0601 156.07C19.6399 156.07 26.8366 156.07 26.8366 156.07V218.897C26.8366 218.897 26.4995 225.44 32.0706 225.44C32.0706 225.44 37.6218 226.748 37.6218 219.215C37.6218 211.701 37.3046 156.407 37.3046 156.407ZM64.4658 160.986C64.4658 160.986 90.2987 149.864 98.1496 129.9C106.001 109.955 108.955 101.45 108.955 101.45C108.955 101.45 109.926 97.8416 114.843 101.113C119.74 104.384 130.862 109.301 124.32 129.9C117.777 150.518 118.768 145.602 118.768 145.602C118.768 145.602 116.151 157.061 123.665 156.724C131.199 156.407 171.445 156.724 171.445 156.724C171.445 156.724 179.613 155.752 179.296 166.22C179.296 166.22 179.296 173.417 172.1 173.417C164.903 173.417 143.967 173.417 143.967 173.417C143.967 173.417 137.424 175.043 138.079 178.968C138.733 182.914 140.359 184.539 144.938 184.222C149.518 183.885 182.567 184.222 182.567 184.222C182.567 184.222 191.727 185.194 191.39 193.382C191.073 201.55 185.184 201.233 185.184 201.233H144.284C144.284 201.233 137.087 201.233 137.742 207.438C138.396 213.663 150.172 212.018 150.172 212.018H173.408C173.408 212.018 181.259 211.364 181.576 221.514C181.913 231.645 169.145 229.365 169.145 229.365H143.63C143.63 229.365 137.424 228.711 138.733 235.254C140.041 241.796 148.864 239.833 148.864 239.833H162.603C162.603 239.833 170.454 240.805 170.454 249.31C170.454 257.815 163.257 257.161 161.295 257.161C159.332 257.161 90.2987 257.161 90.2987 257.161C90.2987 257.161 64.4658 255.535 64.4658 251.61V160.986Z" fill="#FEFEFE"/>
<path fill-rule="evenodd" clip-rule="evenodd" d="M131.615 66.0412C130.307 71.632 128.285 78.6701 132.428 82.5163C139.625 89.1579 147.357 80.1769 150.569 79.9985C151.798 79.9191 167.738 92.1913 171.049 78.2141C171.762 75.161 169.82 70.3235 169.82 66.0412C169.82 64.2767 178.721 59.7564 178.721 53.4915C178.721 45.0061 170.256 44.7682 165.061 44.1338C161.572 43.6976 162.048 43.2813 160.739 40.585C159.114 37.1948 157.448 32.8331 154.137 31.4651C142.46 26.6277 141.885 42.5874 137.682 43.8562C134.391 44.8673 129.058 43.9355 125.212 47.0878C122.099 49.6651 121.484 54.5224 123.824 58.1307C124.934 59.8357 130.01 64.9904 131.615 66.0412ZM150.212 44.2131C150.212 44.2131 147.595 52.5399 143.332 53.5311C139.09 54.5026 135.323 54.8396 135.323 54.8396C135.323 54.8396 142.202 60.3908 142.024 65.9619C141.865 71.5131 141.052 73.1586 141.052 73.1586C141.052 73.1586 148.745 67.1117 152.829 69.2331C156.913 71.3544 159.867 73 159.867 73C159.867 73 157.567 65.149 159.708 61.8778C161.83 58.6065 165.26 54.9982 165.26 54.9982C165.26 54.9982 157.29 54.8595 153.483 50.2599L150.212 44.2131Z" fill="#ffc45f"/>
<path fill-rule="evenodd" clip-rule="evenodd" d="M55.7028 54.007C55.7028 57.7937 60.4411 61.6795 62.6418 63.8207C67.1224 68.1427 63.5537 65.5059 63.5537 78.0952C63.5537 81.981 68.6886 84.8954 69.8385 84.8954C79.0971 84.8954 80.3065 80.1769 83.9742 80.1769C87.3842 80.1769 89.3668 84.8954 97.5945 84.8954C100.667 84.8954 104.395 81.7828 104.395 76.529C104.395 73.4361 103.879 71.3743 103.463 69.015C102.789 65.2481 102.908 66.1403 105.307 63.8207C107.825 61.3821 112.246 58.0117 112.246 53.4915C112.246 47.405 107.131 45.2638 102.273 44.6096C101.183 44.451 97.079 44.0545 96.3454 43.7372C93.3121 42.4089 92.9354 30.6721 83.9742 30.6919C74.8147 30.7118 74.9337 42.0521 71.5831 43.6976C68.3714 45.2638 55.7028 42.9442 55.7028 54.007ZM83.4389 44.2131C83.4389 44.2131 80.8219 52.5399 76.5594 53.5311C72.3167 54.5026 68.5498 54.8396 68.5498 54.8396C68.5498 54.8396 75.4293 60.3908 75.2509 65.9619C75.0923 71.5131 74.2794 73.1586 74.2794 73.1586C74.2794 73.1586 81.9718 67.1117 86.0559 69.2331C90.14 71.3544 93.094 73 93.094 73C93.094 73 90.7942 65.149 92.9354 61.8778C95.0568 58.6065 98.4866 54.9982 98.4866 54.9982C98.4866 54.9982 90.5167 54.8595 86.7102 50.2599L83.4389 44.2131Z" fill="#ffc45f"/>
<path fill-rule="evenodd" clip-rule="evenodd" d="M189.189 51.9054C189.189 55.9697 189.17 57.4368 192.718 60.9658C194.76 62.988 196.386 63.4836 198.091 66.0411C197.794 69.6891 196.525 72.9801 196.525 77.0444C196.525 81.069 199.875 84.8954 205.427 84.8954C210.403 84.8954 214.309 80.1967 217.044 79.9984C219.463 79.82 229.019 89.3363 235.423 82.437C240.34 77.1039 236.315 72.0285 236.315 66.0411C236.315 63.5035 245.217 61.2631 245.217 52.4407C245.217 43.876 231.696 44.6889 229.416 43.6183C227.968 42.9442 228.98 43.9553 227.889 42.0124C225.47 37.6507 224.122 30.8505 217.401 30.6126C214.011 30.5135 211.414 32.5159 209.828 34.8553C208.599 36.6793 206.557 42.0719 205.506 43.1028C204.039 44.5104 197.873 44.5897 195.157 45.3233C193.492 45.7595 192.143 46.5723 191.192 47.6231C190.339 48.5747 189.189 50.2599 189.189 51.9054ZM217.124 44.213C217.124 44.213 214.507 52.5398 210.244 53.5311C206.002 54.5026 202.235 54.8396 202.235 54.8396C202.235 54.8396 209.094 60.3908 208.936 65.9618C208.777 71.513 207.964 73.1586 207.964 73.1586C207.964 73.1586 215.637 67.1117 219.741 69.2331C223.825 71.3544 226.759 73 226.759 73C226.759 73 224.479 65.149 226.6 61.8777C228.722 58.6065 232.171 54.9982 232.171 54.9982C232.171 54.9982 224.182 54.8594 220.395 50.2599L217.124 44.213Z" fill="#ffc45f"/>
<path fill-rule="evenodd" clip-rule="evenodd" d="M32.6654 234.104C25.5876 234.104 25.1515 244.611 32.2094 244.928C39.6639 245.265 39.0294 234.104 32.6654 234.104Z" fill="#FEFEFE"/>
<path fill-rule="evenodd" clip-rule="evenodd" d="M76.1233 118.401H76.6387C83.201 118.401 83.201 107.933 76.6387 107.933H76.1233C69.561 107.933 69.561 118.401 76.1233 118.401Z" fill="#FEFEFE"/>
</svg>
