<svg width="277" height="265" viewBox="0 0 277 265" fill="none" xmlns="http://www.w3.org/2000/svg">
<path fill-rule="evenodd" clip-rule="evenodd" d="M96.7439 86.1481C96.7439 72.6023 102.811 63.4322 113.253 58.1722C123.215 53.1449 135.426 54.9138 143.634 61.6944C146.132 63.7425 145.248 62.6409 147.358 65.3097C147.948 66.0545 148.305 66.4579 148.91 67.2492C156.032 76.6676 154.371 88.9875 154.371 100.454H96.7439V86.1481ZM84.3774 82.2845V100.454C76.8675 100.454 71.0489 99.9886 65.5251 105.574C63.7718 107.343 62.608 108.429 61.5064 110.85C60.5444 112.96 59.6289 115.024 59.6289 118.251V190.169C59.6289 193.366 60.3582 194.995 61.3822 197.307C64.0666 203.296 70.661 207.966 78.5743 207.966H152.447C160.237 207.966 161.245 196.174 152.401 195.243L90.1805 195.197C80.7466 195.197 71.9954 197.4 71.9954 188.245V120.175C71.9954 118.127 72.3988 116.591 73.4229 115.412C74.2763 114.45 75.7814 113.224 77.4106 113.224H173.317C179.803 113.224 179.12 120.005 179.12 123.279C179.12 126.552 178.639 144.039 179.647 146.351C182.301 152.449 191.89 151.472 191.89 142.612V121.727C191.89 112.852 188.616 105.885 181.385 102.456C176.156 99.9886 172.805 100.454 167.141 100.454C167.141 85.9153 168.383 74.4798 160.64 62.0978C153.875 51.283 140.624 42.8266 128.071 42.8266C119.972 42.8266 115.022 43.23 107.962 46.6901C94.7268 53.1759 84.3774 67.1406 84.3774 82.2845Z" fill="#153540"/>
<path d="M265.639 137.693H130.802C126.44 137.693 122.904 142.153 122.904 147.655V170.65C122.904 176.151 126.44 180.611 130.802 180.611H265.639C270 180.611 273.536 176.151 273.536 170.65V147.655C273.536 142.153 270 137.693 265.639 137.693Z" fill="#ffc45f"/>
<path d="M159.178 169.797L154.754 166.369C156.16 164.787 157.625 163.273 159.148 161.828C159.754 161.242 160.135 160.871 160.291 160.715C159.803 160.637 158.406 160.314 156.102 159.748C154.441 159.338 153.348 159.035 152.82 158.84L154.549 153.684C157.107 154.719 159.393 155.861 161.404 157.111C160.936 153.928 160.701 151.33 160.701 149.318H165.916C165.916 150.744 165.652 153.361 165.125 157.17C165.516 157.014 166.355 156.633 167.645 156.027C169.402 155.227 171.023 154.543 172.508 153.977L174.061 159.279C171.893 159.768 169.383 160.246 166.531 160.715L170.047 164.67C170.75 165.471 171.307 166.125 171.717 166.633L167.234 169.592L163.279 163.059C162.088 165.168 160.721 167.414 159.178 169.797ZM182.557 169.797L178.133 166.369C179.539 164.787 181.004 163.273 182.527 161.828C183.133 161.242 183.514 160.871 183.67 160.715C183.182 160.637 181.785 160.314 179.48 159.748C177.82 159.338 176.727 159.035 176.199 158.84L177.928 153.684C180.486 154.719 182.771 155.861 184.783 157.111C184.314 153.928 184.08 151.33 184.08 149.318H189.295C189.295 150.744 189.031 153.361 188.504 157.17C188.895 157.014 189.734 156.633 191.023 156.027C192.781 155.227 194.402 154.543 195.887 153.977L197.439 159.279C195.271 159.768 192.762 160.246 189.91 160.715L193.426 164.67C194.129 165.471 194.686 166.125 195.096 166.633L190.613 169.592L186.658 163.059C185.467 165.168 184.1 167.414 182.557 169.797ZM205.936 169.797L201.512 166.369C202.918 164.787 204.383 163.273 205.906 161.828C206.512 161.242 206.893 160.871 207.049 160.715C206.561 160.637 205.164 160.314 202.859 159.748C201.199 159.338 200.105 159.035 199.578 158.84L201.307 153.684C203.865 154.719 206.15 155.861 208.162 157.111C207.693 153.928 207.459 151.33 207.459 149.318H212.674C212.674 150.744 212.41 153.361 211.883 157.17C212.273 157.014 213.113 156.633 214.402 156.027C216.16 155.227 217.781 154.543 219.266 153.977L220.818 159.279C218.65 159.768 216.141 160.246 213.289 160.715L216.805 164.67C217.508 165.471 218.064 166.125 218.475 166.633L213.992 169.592L210.037 163.059C208.846 165.168 207.479 167.414 205.936 169.797ZM229.314 169.797L224.891 166.369C226.297 164.787 227.762 163.273 229.285 161.828C229.891 161.242 230.271 160.871 230.428 160.715C229.939 160.637 228.543 160.314 226.238 159.748C224.578 159.338 223.484 159.035 222.957 158.84L224.686 153.684C227.244 154.719 229.529 155.861 231.541 157.111C231.072 153.928 230.838 151.33 230.838 149.318H236.053C236.053 150.744 235.789 153.361 235.262 157.17C235.652 157.014 236.492 156.633 237.781 156.027C239.539 155.227 241.16 154.543 242.645 153.977L244.197 159.279C242.029 159.768 239.52 160.246 236.668 160.715L240.184 164.67C240.887 165.471 241.443 166.125 241.854 166.633L237.371 169.592L233.416 163.059C232.225 165.168 230.857 167.414 229.314 169.797Z" fill="#FEFEFE"/>
<path fill-rule="evenodd" clip-rule="evenodd" d="M128.723 0.141251C103.168 1.02568 76.8986 9.06312 56.324 24.4863C55.0517 25.4328 53.7018 26.2707 52.476 27.2948C51.2036 28.3343 49.9313 29.3739 48.6434 30.3825C47.4642 31.2824 46.5332 32.2755 45.4471 33.253C44.2523 34.3081 43.011 35.1615 41.8783 36.2942C39.7371 38.4665 37.2079 40.5767 35.346 42.9972C33.8875 44.8902 32.3513 46.6901 30.7687 48.5055C28.0533 51.6243 25.7724 54.6965 23.476 58.1722C21.6917 60.8565 19.9538 63.5563 18.3556 66.3493C16.7575 69.1577 15.2989 72.0437 13.8559 74.9298C5.98917 90.6012 1.79977 108.181 0.99292 125.653V138.221C1.39634 147.034 2.65316 155.816 4.79441 164.366C12.7388 196.112 32.4444 223.902 59.6445 241.994C71.0955 249.612 82.6396 254.919 95.7974 258.984C99.5989 260.163 103.649 261.032 107.559 261.746C112.602 262.692 117.722 263.391 122.827 263.856C123.649 263.934 124.456 263.996 125.278 264.058H141.027C141.788 263.98 142.564 263.887 143.324 263.779C147.218 263.22 151.129 262.708 155.039 262.149C157.909 261.73 160.764 261.296 163.604 260.691C171.3 259.062 178.748 256.113 186.025 253.134C202.472 246.416 217.088 235.384 229.207 222.443C234.234 216.795 229.036 203.265 211.797 222.443C204.613 228.805 196.7 234.22 188.275 238.394C181.866 241.575 175.458 244.6 168.553 246.555C136.342 255.757 107.652 253.274 77.6124 238.394C71.8248 235.539 65.8665 231.737 60.7927 227.765C58.2946 225.81 55.8275 223.731 53.4225 221.652C51.9329 220.364 50.4589 219.061 49.0158 217.711C47.9762 216.749 46.8125 215.647 45.9126 214.545C44.3609 212.59 42.7317 210.775 41.0715 208.913C38.3717 205.903 36.1373 202.862 33.903 199.495C32.1651 196.872 30.4584 194.25 28.8912 191.55C27.1068 188.493 25.5397 185.344 24.0036 182.163C18.1539 170.029 15.5782 157.554 13.6852 144.303C13.3594 142.053 13.6232 139.896 13.3749 137.693C11.5285 120.92 16.9902 95.9543 24.5466 80.9501C26.0983 77.8934 27.6499 74.8212 29.3722 71.8575C31.0635 68.987 32.8944 66.2096 34.7408 63.4477C45.1212 47.9159 62.3288 33.4392 79.0088 25.107C82.1897 23.5243 85.324 22.1278 88.6134 20.8089C118.436 8.86141 150.834 9.6217 180.377 21.9261C184.008 23.4467 196.933 29.7463 198.95 32.4927L201.789 36.3718H196.979C195.086 36.3718 193.209 36.2632 191.3 36.3408C187.623 36.4804 184.411 37.1941 183.34 41.1663C182.999 42.4697 182.952 43.8506 183.527 45.0919C184.954 48.1331 189.283 48.8469 192.262 48.8469C193.705 48.8469 195.133 48.7383 196.576 48.6141C198.639 48.4435 200.641 48.3038 202.72 48.3038L224.831 47.5901C226.646 47.1711 228.4 46.3643 229.144 44.5489C230.106 42.2059 229.284 38.7458 228.586 36.3873L228.57 36.3408L221.495 9.32689C220.921 7.43391 219.835 5.66505 218.066 4.67201C216.731 3.92723 215.133 3.74103 213.644 4.15997C210.463 5.0444 209.128 8.00801 209.392 11.1268C209.501 12.5543 209.935 13.8421 210.385 15.1921C210.99 17.0695 211.456 18.7608 211.487 20.7624L211.596 25.0294L190.773 13.3456C184.752 10.3355 178.453 7.91491 172.044 5.86676C161.09 2.39111 149.608 0.544674 138.126 0.141251H128.723Z" fill="#153540"/>
</svg>
