<svg width="310" height="300" viewBox="0 0 310 300" fill="none" xmlns="http://www.w3.org/2000/svg">
<path fill-rule="evenodd" clip-rule="evenodd" d="M144.524 67.2232C170.158 62.8527 193.121 74.2301 208.279 85.4514C210.291 86.9429 211.696 88.7814 213.656 90.6024C226.456 102.518 235.145 120.832 237.712 138.974C240.885 161.555 233.428 186.027 219.431 203.18L214.298 208.574C213.084 209.788 212.65 209.979 211.436 211.314C210.413 212.441 210.187 212.84 208.99 213.812C177.217 239.515 132.817 239.688 101.703 214.349L93.5686 206.354C92.4413 205.331 92.0424 205.088 91.0885 203.891C88.2962 200.457 85.4865 196.208 82.8503 191.664C77.8553 182.975 73.901 172.291 72.288 160.809C68.854 136.598 76.7627 114.519 90.8283 96.9155C104.478 79.8321 122.012 71.0562 144.524 67.2232ZM272.676 82.2255L295.57 54.8746C299.576 49.6542 306.479 44.7632 302.698 38.7624L285.788 18.4703C283.533 15.9035 282.111 14.1864 280.134 11.7236C273.648 3.64151 272.59 0.901219 265.999 0.76247C232.838 0.0687253 198.792 0.779814 165.527 0.779814C132.21 0.779814 98.8758 0.779814 65.5413 0.779814L65.5934 12.7296H264.733C266.415 13.1458 279.25 29.2407 280.932 31.3913C282.077 32.8482 282.909 33.7154 284.019 35.1375L290.003 42.6473L271.323 65.3328C270.318 66.6336 269.78 67.1192 268.757 68.3506C265.062 72.8079 267.369 72.409 257.292 72.3916H215.754C210.517 72.4437 210.846 72.9466 207.221 70.3798C197.197 63.2689 183.339 57.9617 170.314 55.7938C145.478 51.6834 121.423 58.0832 103.819 69.582C101.217 71.299 100.038 72.409 96.1355 72.4263L23.8646 72.3916L24.1768 84.3414H85.5906C81.2893 91.3309 75.8781 93.204 67.5705 112.091C56.8001 136.615 57.0603 163.636 67.7613 188.143C70.5883 194.595 76.3291 204.637 80.6303 209.389C82.4687 211.401 84.2898 213.343 85.5906 215.459C77.1095 215.459 68.6285 215.459 60.1301 215.459C53.817 215.459 41.2603 213.933 37.3233 217.592L14.3776 244.874C12.4178 247.424 10.5447 249.418 8.44611 251.968C3.22568 258.281 8.15127 261.853 10.1111 264.403C11.2037 265.808 11.8628 266.363 12.9555 267.75L24.1941 281.313C26.154 283.498 27.975 285.805 29.7961 288.129C35.5022 295.413 37.6354 298.917 44.0005 299.038C77.1962 299.68 111.155 299.003 144.455 299.003C177.772 299.003 211.106 299.003 244.458 299.003L244.892 287.054H45.2493C44.0526 286.759 20.7601 258.662 19.9796 257.153L41.1735 231.381C42.1101 230.323 42.3702 229.594 43.3935 228.64C45.9083 226.264 68.9407 227.409 73.1552 227.409C105.206 227.409 94.141 225.102 108.866 233.219C140.327 250.563 177.737 248.811 206.181 230.201C208.782 228.502 209.962 227.374 213.864 227.374L286.135 227.409L286.204 215.459H224.392L234.347 202.59C256.79 170.019 255.281 120.624 229.387 90.377C227.461 88.1223 225.883 86.8562 224.392 84.3414C232.873 84.3414 241.371 84.3414 249.852 84.3414C256.044 84.3414 268.913 85.8329 272.676 82.2255Z" fill="white"/>
<path fill-rule="evenodd" clip-rule="evenodd" d="M95.6329 155.485C93.2568 121.856 116.827 93.3082 149.554 90.5852C184.536 87.6715 211.662 113.6 214.333 144.437C217.316 179.142 191.439 206.527 160.533 209.198C126.158 212.181 97.8182 186.183 95.6329 155.485ZM83.8392 157.341C87.6201 194.144 120.261 225.05 162.319 221.061C199.278 217.541 230.098 184.241 226.126 142.581C222.623 105.882 189.445 74.5424 147.681 78.7569C111.312 82.4164 79.5206 115.092 83.8392 157.341Z" fill="#ffc45f"/>
<path fill-rule="evenodd" clip-rule="evenodd" d="M232.491 251.256L295.726 251.274L298.067 251.1L298.137 239.307H232.595L232.491 241.648V251.256Z" fill="white"/>
<path fill-rule="evenodd" clip-rule="evenodd" d="M220.403 275.087H286.135L286.118 263.154H220.559L220.403 275.087Z" fill="white"/>
<path fill-rule="evenodd" clip-rule="evenodd" d="M11.915 60.4766H77.4913L77.526 58.1352L77.5086 48.5442L11.915 48.5615V60.4766Z" fill="white"/>
<path fill-rule="evenodd" clip-rule="evenodd" d="M23.8306 36.6464H89.2681L89.4068 24.6967H23.8653L23.8306 36.6464Z" fill="white"/>
<path fill-rule="evenodd" clip-rule="evenodd" d="M0 84.1853H11.7937V72.3917H0V84.1853Z" fill="white"/>
<path fill-rule="evenodd" clip-rule="evenodd" d="M298.206 227.392L310 227.409V215.598H298.206V227.392Z" fill="white"/>
<path fill-rule="evenodd" clip-rule="evenodd" d="M267.89 286.846L256.79 286.932L256.582 298.553H268.098L267.89 286.846Z" fill="white"/>
<path fill-rule="evenodd" clip-rule="evenodd" d="M42.0931 12.9551L53.193 12.8684L53.4012 1.2308H41.9023L42.0931 12.9551Z" fill="white"/>
<path fill-rule="evenodd" clip-rule="evenodd" d="M165.815 166.731H146.895V155.376C164.129 155.376 171.1 153.003 171.1 161.424C171.1 164.971 169.338 166.731 165.815 166.731ZM165.815 142.541H146.895V131.211C164.129 131.211 171.1 128.812 171.1 137.233C171.1 140.78 169.338 142.541 165.815 142.541ZM148.427 114.573V118.35C128.153 118.35 128 116.283 128 125.903C128 130.266 130.375 131.211 134.817 131.211V166.731C128.485 166.731 128 168.773 128 173.519C128 181.608 130.094 179.567 148.427 179.567C148.427 189.621 148.248 187.886 160.529 187.886L161.27 179.567H166.581C176.002 179.567 191.807 167.063 179.424 148.588C188.233 142.132 184.786 118.35 165.049 118.35H161.27C161.27 109.036 162.01 110.031 151.439 110.031C149.116 110.031 148.427 112.251 148.427 114.573Z" fill="#ffc45f"/>
</svg>
