<svg width="238" height="220" viewBox="0 0 238 220" fill="none" xmlns="http://www.w3.org/2000/svg">
<path fill-rule="evenodd" clip-rule="evenodd" d="M59.4849 62.6567H178.881V205.677H59.4849V62.6567ZM201.234 205.677H191.642V62.6567C201.083 62.6567 212.076 61.1693 219.233 70.2011C222.703 74.5769 224.859 79.858 224.859 87.5533V180.134C224.859 194.9 215.719 205.677 201.234 205.677ZM13.507 177.569V89.4717C13.507 78.9958 16.6541 70.352 24.7805 65.6098C31.6351 61.6005 37.5414 62.6567 46.0773 62.6567V205.677C34.6745 205.677 27.5611 206.626 19.4132 197.853C14.9512 193.068 13.507 186.601 13.507 177.569ZM81.1913 29.4396C81.1913 20.5372 87.507 13.4886 95.2455 13.4886H143.12C150.32 13.4886 157.174 20.063 157.174 28.8145V49.2491H81.1913V29.4396ZM68.4304 26.2494V49.2491H36.5067C17.6456 49.2491 0.746094 65.0709 0.746094 83.7164V183.324C0.746094 195.46 6.39364 203.565 12.7094 209.665C20.3832 217.123 31.2471 219.085 42.2405 219.085H195.479C206.515 219.085 216.883 217.555 225.01 210.29C231.153 204.815 237.62 195.891 237.62 184.596V83.0697C237.62 71.8609 230.743 61.7298 222.315 55.608C220.655 54.4009 218.521 53.3231 216.538 52.4394C212.4 50.564 207.873 49.2491 201.859 49.2491H169.935C169.935 37.1134 171.574 23.8352 166.961 15.1699C162.348 6.48301 152.82 0.0810242 141.848 0.0810242H97.789C81.6439 0.0810242 68.4304 12.3677 68.4304 26.2494Z" fill="#FEFEFE"/>
<path fill-rule="evenodd" clip-rule="evenodd" d="M79.2726 134.156C79.2726 128.983 81.0832 121.676 82.8939 117.968C102.617 77.2282 159.093 93.7398 159.093 133.51C159.093 178.733 98.5001 187.506 82.9155 150.323C81.2557 146.357 79.2726 139.394 79.2726 134.156ZM66.5117 130.319C66.5117 140.989 66.8782 147.564 71.5988 157.156C85.459 185.329 121.198 195.934 147.862 178.474L155.105 172.956C163.706 165.002 171.854 150.754 171.854 137.993C171.854 124.284 170.69 114.562 162.11 103.052C161.076 101.651 160.429 100.745 159.244 99.5166C158.575 98.8053 158.338 98.5466 157.713 97.8569L156.463 96.542C156.377 96.4558 156.226 96.3264 156.14 96.2402C149.651 90.2478 149.306 90.0322 141.417 86.0444C122.448 76.4522 97.1852 81.3238 82.6352 96.0031C77.5913 101.069 75.5004 103.375 72.0299 110.316C69.4864 115.425 66.5117 123.077 66.5117 130.319Z" fill="#ffc45f"/>
<path fill-rule="evenodd" clip-rule="evenodd" d="M128.441 148.211H112.468V138.618C127.018 138.618 132.903 136.614 132.903 143.727C132.903 146.723 131.415 148.211 128.441 148.211ZM128.441 127.776H112.468V118.205C127.018 118.205 132.903 116.179 132.903 123.292C132.903 126.289 131.415 127.776 128.441 127.776ZM113.762 104.151V107.341C96.6464 107.341 96.5171 105.595 96.5171 113.722C96.5171 117.408 98.5218 118.205 102.272 118.205V148.211C96.9266 148.211 96.5171 149.935 96.5171 153.944C96.5171 160.777 98.2846 159.053 113.762 159.053C113.762 167.546 113.611 166.08 123.979 166.08L124.604 159.053H129.087C137.041 159.053 150.384 148.491 139.93 132.885C147.367 127.431 144.457 107.341 127.794 107.341H124.604C124.604 99.4735 125.229 100.314 116.305 100.314C114.343 100.314 113.762 102.19 113.762 104.151Z" fill="#ffc45f"/>
</svg>
