<svg width="193" height="238" viewBox="0 0 193 238" fill="none" xmlns="http://www.w3.org/2000/svg">
<path d="M20.4477 122.498H142.763C148.147 122.498 153.019 124.671 156.541 128.208C160.048 131.715 162.22 136.587 162.22 141.971H162.251V218.42C162.251 223.804 160.063 228.676 156.541 232.199C153.019 235.721 148.147 237.909 142.763 237.909V237.893H20.4477C15.0635 237.893 10.1914 235.705 6.66922 232.199C3.14703 228.676 0.959229 223.804 0.959229 218.42H0.974745V141.971H0.959229C0.959229 136.603 3.14703 131.731 6.66922 128.208C10.1914 124.671 15.0635 122.498 20.4477 122.498ZM142.763 130.877H20.4477C17.3755 130.877 14.6136 132.119 12.5964 134.12C10.5948 136.137 9.35354 138.915 9.35354 141.971H9.33802V218.42H9.35354C9.35354 221.492 10.5948 224.27 12.5964 226.271C14.6136 228.288 17.391 229.545 20.4477 229.545H142.763V229.514C145.835 229.514 148.597 228.273 150.614 226.271C152.615 224.27 153.857 221.492 153.857 218.42V141.971H153.872C153.872 138.915 152.631 136.153 150.614 134.12C148.597 132.119 145.835 130.877 142.763 130.877Z" fill="#153540"/>
<path d="M24.6371 126.688C24.6371 129 22.7596 130.877 20.4477 130.877C18.1358 130.877 16.2583 129 16.2583 126.688V65.5226C16.2583 47.4771 23.5665 31.154 35.4054 19.3151C47.2288 7.49164 63.5675 0.183472 81.5974 0.183472C99.6428 0.183472 115.981 7.49164 127.805 19.3151C139.644 31.154 146.952 47.4771 146.952 65.5226C146.952 67.8345 145.075 69.712 142.763 69.712H112.18C109.868 69.712 107.991 67.8345 107.991 65.5226C107.991 58.2454 105.043 51.651 100.263 46.872C95.4845 42.093 88.8901 39.1449 81.5974 39.1449C74.3203 39.1449 67.7258 42.093 62.9468 46.872C58.1678 51.651 55.2197 58.2454 55.2197 65.5226V126.688C55.2197 129 53.3422 130.877 51.0303 130.877C48.7184 130.877 46.8409 129 46.8409 126.688V65.5226C46.8409 55.9335 50.72 47.2289 57.0196 40.9448C63.3192 34.6452 72.0083 30.7506 81.5974 30.7506C91.202 30.7506 99.8911 34.6452 106.191 40.9448C111.559 46.2979 115.175 53.4043 116.121 61.3332H138.418C137.394 47.2754 131.265 34.6296 121.878 25.2423C111.575 14.9395 97.3309 8.56227 81.5974 8.56227C65.8794 8.56227 51.6354 14.9395 41.3171 25.2423C31.0143 35.5606 24.6371 49.8046 24.6371 65.5226V126.688Z" fill="#153540"/>
<path d="M158.046 92.6451C155.734 92.6451 153.857 90.7831 153.857 88.4557C153.857 86.1437 155.734 84.2663 158.046 84.2663H188.629C190.941 84.2663 192.818 86.1437 192.818 88.4557C192.818 90.7831 190.941 92.6451 188.629 92.6451H158.046Z" fill="#ffc45f"/>
<path d="M168.659 68.4862C167.03 70.1309 164.377 70.1309 162.732 68.4862C161.103 66.857 161.103 64.2037 162.732 62.559L185.665 39.6259C187.31 37.9967 189.963 37.9967 191.592 39.6259C193.237 41.2706 193.237 43.9239 191.592 45.5531L168.659 68.4862Z" fill="#ffc45f"/>
<path d="M162.732 114.352C161.103 112.723 161.103 110.07 162.732 108.425C164.377 106.796 167.03 106.796 168.659 108.425L191.592 131.374C193.237 133.003 193.237 135.656 191.592 137.301C189.963 138.93 187.31 138.93 185.665 137.301L162.732 114.352Z" fill="#ffc45f"/>
<path fill-rule="evenodd" clip-rule="evenodd" d="M65.212 202.438L65.5534 202.221C65.5999 202.206 65.662 202.159 65.7241 202.128L66.6395 201.616C66.8257 201.461 67.4619 200.763 67.617 200.514C68.2842 199.475 68.1291 198.156 68.1446 196.837C68.1756 187.931 77.3302 189.948 85.6004 189.948C89.6347 189.948 98.0755 189.079 100.62 191.36C102.265 192.849 102.917 194.199 102.901 197.318C102.886 201.492 104.111 201.213 105.896 202.438C110.209 202.438 111.063 199.428 110.38 194.882C109.899 191.748 109.139 189.591 107.184 187.356C106.051 186.053 106.873 186.627 104.825 185.076C104.267 184.657 103.584 184.253 102.963 183.912C101.784 183.26 99.6271 182.608 98.1376 182.453L73.2805 182.422C69.7428 182.702 66.7947 184.331 64.8241 186.317C62.6829 188.458 60.945 191.282 60.7123 194.525L60.6968 194.649V199.226C61.0537 201.166 62.1863 202.438 65.212 202.438Z" fill="#ffc45f"/>
<path fill-rule="evenodd" clip-rule="evenodd" d="M90.2553 166.596C89.6347 168.721 87.121 170.708 84.1884 169.901C81.892 169.265 79.8904 166.673 80.7749 163.648C82.5747 157.55 92.1483 160.156 90.2553 166.596ZM73.0322 164.734C73.0322 171.949 78.8508 177.535 84.4367 177.535H86.2987C92.2569 177.535 97.9359 171.856 97.9359 165.897C97.9359 160.25 95.8877 156.355 90.7208 153.795C82.9161 149.916 73.0322 156.014 73.0322 164.734Z" fill="#ffc45f"/>
</svg>
