<svg width="119" height="131" viewBox="0 0 119 131" fill="none" xmlns="http://www.w3.org/2000/svg">
<path fill-rule="evenodd" clip-rule="evenodd" d="M57.9573 82.7897C57.9573 83.8602 58.0652 84.5988 58.7622 85.2875C59.1273 85.6527 60.1397 86.2916 60.8451 86.2916H86.1882C89.7482 86.2916 90.603 79.9019 85.3667 79.9019H61.6666C60.5713 79.9019 59.758 80.1177 59.1356 80.6654C58.6128 81.1218 57.9573 81.9184 57.9573 82.7897Z" fill="#ffc45f"/>
<path fill-rule="evenodd" clip-rule="evenodd" d="M57.9573 100.515C57.9573 102.623 59.0029 104.017 61.0526 104.017H85.9891C90.0055 104.017 90.5532 97.6272 85.1592 97.6272H61.8741C59.9489 97.6272 57.9573 98.7143 57.9573 100.515Z" fill="#ffc45f"/>
<path fill-rule="evenodd" clip-rule="evenodd" d="M43.3272 81.9683C41.7007 80.8812 42.3314 80.1094 39.6179 80.1094C37.9416 80.1094 36.9375 81.6114 36.9375 83.6113C36.9375 84.9889 38.6636 86.2668 39.4602 87.0635C41.3107 88.914 41.3771 89.5862 43.7421 89.5862C45.1529 89.5862 47.5926 86.6651 48.9452 85.3125C50.5302 83.7192 53.2189 81.5948 53.2189 79.902C53.2189 78.3087 51.9575 76.6075 50.1236 76.6075C48.2481 76.6075 47.4598 77.9353 46.4723 78.9228C45.5927 79.7941 44.24 81.3542 43.3272 81.9683Z" fill="#ffc45f"/>
<path fill-rule="evenodd" clip-rule="evenodd" d="M43.3272 99.6853C42.2069 98.9384 41.9746 97.8347 40.0245 97.8347C37.6678 97.8347 36.9375 99.4446 36.9375 101.337C36.9375 102.756 41.4933 107.311 42.9123 107.311C45.0118 107.311 44.9703 107.013 46.5719 105.403L51.3102 100.664C52.0986 99.8761 53.2189 99.0878 53.2189 97.6273C53.2189 95.8763 51.7998 94.3328 50.1236 94.3328C47.5428 94.3328 45.7088 98.092 43.3272 99.6853Z" fill="#ffc45f"/>
<path d="M53.6912 9.98761H71.4496C76.3456 9.98761 80.7687 12.3194 83.9469 16.0869C84.7104 16.9914 85.3991 17.9789 86.0049 19.0328H94.6186C97.3487 19.0328 99.8217 20.1448 101.614 21.9372C103.407 23.7297 104.527 26.2109 104.527 28.9327V110.29C104.527 113.012 103.407 115.484 101.614 117.285C99.8217 119.078 97.3487 120.19 94.6186 120.19H31.9993C29.2691 120.19 26.7962 119.078 25.0038 117.285C23.203 115.484 22.0911 113.012 22.0911 110.29V28.9327C22.0911 26.2109 23.203 23.7297 25.0038 21.9372C26.7962 20.1448 29.2691 19.0328 31.9993 19.0328H39.1359C39.7416 17.9789 40.4387 16.9914 41.2022 16.0869C44.3721 12.3194 48.7951 9.98761 53.6912 9.98761ZM88.1874 24.4101C88.6604 26.2358 88.9176 28.161 88.9176 30.1526C88.9176 30.833 88.9093 29.9119 88.901 30.3434L88.8678 33.2313H36.2729L36.2397 30.3351C36.2314 29.887 36.2231 30.8662 36.2231 30.1526C36.2231 28.2855 36.4472 26.4681 36.8704 24.7421H31.9993C30.8458 24.7421 29.8002 25.2151 29.0368 25.9702C28.2733 26.7337 27.8003 27.7793 27.8003 28.9327V110.29C27.8003 111.435 28.2733 112.48 29.0368 113.244C29.8002 114.007 30.8458 114.48 31.9993 114.48H94.6186C95.7721 114.48 96.8177 114.007 97.5811 113.244C98.3445 112.48 98.8176 111.435 98.8176 110.29V28.9327C98.8176 27.7793 98.3445 26.7337 97.5811 25.9702C96.8177 25.2151 95.7721 24.7421 94.6186 24.7421L88.1874 24.4101ZM71.4496 15.6886H53.6912C50.5544 15.6886 47.6666 17.2487 45.5422 19.7631C43.8078 21.821 42.588 24.5097 42.1316 27.522H83.0092C82.5528 24.5097 81.3329 21.821 79.5986 19.7631C77.4742 17.2487 74.5864 15.6886 71.4496 15.6886Z" fill="#153540"/>
<ellipse cx="63.0912" cy="37.7059" rx="30.2206" ry="31.568" fill="#ffc45f"/>
<ellipse cx="63.0912" cy="37.7059" rx="19.0563" ry="19.6338" fill="#97FBEE"/>
<path fill-rule="evenodd" clip-rule="evenodd" d="M61.4196 27.6965H64.4386V33.3885H57.9918V41.4213H59.2093V44.6354H54.4292V30.5448H60.9658V27.7102L61.4196 27.6965Z" fill="white"/>
<path fill-rule="evenodd" clip-rule="evenodd" d="M66.6554 30.7764H68.9269C68.9269 30.7764 71.3682 31.0931 71.3682 33.3416C71.3682 35.5901 71.3452 35.7484 71.3452 35.7484C71.3452 35.7484 71.1846 37.454 70.4229 37.7255C69.6611 37.9969 71.2764 38.1327 71.3223 38.8158C71.3682 39.499 71.3223 42.4035 71.3223 42.4035C71.3223 42.4035 71.1617 44.1996 68.7433 44.1996C66.325 44.1996 64.6409 44.1996 64.6409 44.1996V47.3303H61.2543V41.7475H67.7521V37.9291H60.5889V35.7484H67.6604V33.5044H66.715L66.6554 30.7764Z" fill="white"/>
<rect x="110.408" y="124.635" width="8.14439" height="8.14439" transform="rotate(131.578 110.408 124.635)" fill="#153540"/>
<rect x="119" y="113.588" width="8.14439" height="8.14439" transform="rotate(131.578 119 113.588)" fill="#153540"/>
<rect x="98.6489" y="5.40491" width="8.14439" height="8.14439" transform="rotate(131.578 98.6489 5.40491)" fill="#153540"/>
<rect x="18.8623" y="15.2252" width="13.9841" height="12.8093" transform="rotate(131.578 18.8623 15.2252)" fill="#153540"/>
<rect x="27.0986" y="10.7859" width="6.43961" height="5.89864" transform="rotate(131.578 27.0986 10.7859)" fill="#153540"/>
</svg>
