<svg width="284" height="327" viewBox="0 0 284 327" fill="none" xmlns="http://www.w3.org/2000/svg">
<path fill-rule="evenodd" clip-rule="evenodd" d="M275 203C275 265.96 224.184 317 161.5 317C98.8157 317 20 260 48 203C76 146 126 111.5 161.5 89.0001C197 66.5001 275 140.04 275 203ZM149.582 142H168V175.615H128.71V223.027H136.113V242H107V158.808H146.829V142.079L149.582 142ZM193.5 159H180.032L180.37 175.293H185.971V188.745H144V201.784H186.528V224.586H147.953V258H168.055V239.261H192.407C206.768 239.261 207.722 228.531 207.722 228.531C207.722 228.531 208 211.153 207.722 207.07C207.582 205.028 205.095 203.808 203.227 202.892C201.378 201.985 200.135 201.375 202.379 200.561C206.908 198.923 207.861 188.745 207.861 188.745C207.861 188.745 208 187.799 208 174.346C208 160.913 193.5 159 193.5 159Z" fill="#ffc45f"/>
<path d="M97 179.098C97 197.269 84.9956 212 70.1873 212C55.3791 212 36.76 195.549 43.3746 179.098C49.9892 162.647 61.801 152.69 70.1873 146.196C78.5737 139.702 97 160.927 97 179.098Z" fill="#ffc45f"/>
<path d="M160.51 80C194.606 80 225.488 93.8236 247.842 116.175C270.195 138.527 284 169.407 284 203.5C284 237.613 270.195 268.473 247.842 290.825C225.488 313.176 194.606 327 160.51 327C126.394 327 95.5318 313.176 73.1783 290.825C50.8247 268.473 37 237.613 37 203.5C37 179.086 44.1008 156.317 56.3189 137.159C59.4329 139.618 62.8048 141.74 66.4147 143.466C55.3272 160.8 48.9007 181.406 48.9007 203.5C48.9007 234.32 61.3965 262.225 81.5881 282.415C101.78 302.605 129.687 315.1 160.51 315.1C191.333 315.1 219.22 302.605 239.412 282.415C259.623 262.225 272.099 234.32 272.099 203.5C272.099 172.68 259.623 144.794 239.412 124.585C219.22 104.395 191.333 91.8998 160.51 91.8998C154.599 91.8998 148.788 92.3758 143.115 93.2484C142.976 89.2025 142.401 85.2557 141.409 81.4875C147.637 80.5157 154.004 80 160.51 80Z" fill="#FEFEFE"/>
<path fill-rule="evenodd" clip-rule="evenodd" d="M77.9856 0C34.9232 0 0 34.9232 0 77.9856C0 121.077 34.9232 156 77.9856 156C121.077 156 156 121.077 156 77.9856C156 34.9232 121.077 0 77.9856 0ZM92.9362 44.9673H94.1484C93.8598 48.7193 93.6289 51.8076 93.4846 54.2031C93.3402 56.6276 93.2537 58.6191 93.2537 60.2642V123.819H99.4879V134.844H55.3288V123.819H61.563V64.2183L55.3288 65.2574V55.271L92.9362 44.9673ZM80.5832 17.3462C84.8259 17.3462 88.2316 18.3275 90.8292 20.319C93.398 22.2816 94.6679 24.8215 94.6679 27.852C94.6679 32.037 92.5321 35.6159 88.2894 38.5599C84.0178 41.5038 78.938 43.0046 72.9347 43.0046C69.2981 43.0046 66.383 42.081 64.1606 40.205C61.9671 38.3578 60.8703 35.9045 60.8703 32.8163C60.8703 28.8333 62.8329 25.2544 66.8448 22.1084C70.8566 18.9336 75.4168 17.3462 80.5832 17.3462Z" fill="#FEFEFE"/>
</svg>
