<svg width="114" height="131" viewBox="0 0 114 131" fill="none" xmlns="http://www.w3.org/2000/svg">
<path d="M24.9798 63.1663H88.1461C90.9266 63.1663 93.4427 64.2881 95.2616 66.1151C97.0725 67.926 98.1943 70.4421 98.1943 73.2226H98.2104V112.703C98.2104 115.483 97.0805 117.999 95.2616 119.818C93.4427 121.637 90.9266 122.767 88.1461 122.767V122.759H24.9798C22.1993 122.759 19.6832 121.629 17.8643 119.818C16.0454 117.999 14.9155 115.483 14.9155 112.703H14.9235V73.2226H14.9155C14.9155 70.4501 16.0454 67.934 17.8643 66.1151C19.6832 64.2881 22.1993 63.1663 24.9798 63.1663ZM88.1461 67.4933H24.9798C23.3933 67.4933 21.9669 68.1344 20.9253 69.168C19.8916 70.2097 19.2505 71.644 19.2505 73.2226H19.2425V112.703H19.2505C19.2505 114.289 19.8916 115.723 20.9253 116.757C21.9669 117.799 23.4013 118.448 24.9798 118.448H88.1461V118.432C89.7326 118.432 91.159 117.791 92.2006 116.757C93.2343 115.723 93.8754 114.289 93.8754 112.703V73.2226H93.8834C93.8834 71.644 93.2423 70.2177 92.2006 69.168C91.159 68.1344 89.7326 67.4933 88.1461 67.4933Z" fill="#153540"/>
<path d="M27.1437 65.3298C27.1437 66.5237 26.1741 67.4933 24.9802 67.4933C23.7862 67.4933 22.8167 66.5237 22.8167 65.3298V33.7426C22.8167 24.4235 26.5908 15.9939 32.7047 9.88C38.8105 3.77411 47.2482 0 56.5593 0C65.8784 0 74.316 3.77411 80.4219 9.88C86.5358 15.9939 90.3099 24.4235 90.3099 33.7426C90.3099 34.9366 89.3404 35.9061 88.1464 35.9061H72.3528C71.1589 35.9061 70.1893 34.9366 70.1893 33.7426C70.1893 29.9845 68.6669 26.579 66.1989 24.111C63.7309 21.643 60.3254 20.1206 56.5593 20.1206C52.8012 20.1206 49.3957 21.643 46.9277 24.111C44.4597 26.579 42.9372 29.9845 42.9372 33.7426V65.3298C42.9372 66.5237 41.9677 67.4933 40.7737 67.4933C39.5798 67.4933 38.6102 66.5237 38.6102 65.3298V33.7426C38.6102 28.7906 40.6135 24.2953 43.8667 21.0501C47.12 17.7968 51.6073 15.7856 56.5593 15.7856C61.5193 15.7856 66.0066 17.7968 69.2598 21.0501C72.0323 23.8146 73.8994 27.4845 74.3881 31.5791H85.9028C85.3739 24.3194 82.2088 17.7888 77.361 12.941C72.0403 7.62034 64.6844 4.32701 56.5593 4.32701C48.4421 4.32701 41.0862 7.62034 35.7576 12.941C30.437 18.2696 27.1437 25.6255 27.1437 33.7426V65.3298Z" fill="#153540"/>
<path d="M96.0387 47.7493C94.8448 47.7493 93.8752 46.7878 93.8752 45.5858C93.8752 44.3919 94.8448 43.4223 96.0387 43.4223H111.832C113.026 43.4223 113.996 44.3919 113.996 45.5858C113.996 46.7878 113.026 47.7493 111.832 47.7493H96.0387Z" fill="#ffc45f"/>
<path d="M101.52 35.2731C100.678 36.1225 99.308 36.1225 98.4587 35.2731C97.6173 34.4318 97.6173 33.0615 98.4587 32.2122L110.302 20.369C111.151 19.5276 112.521 19.5276 113.363 20.369C114.212 21.2184 114.212 22.5886 113.363 23.43L101.52 35.2731Z" fill="#ffc45f"/>
<path d="M98.4587 58.9595C97.6173 58.1181 97.6173 56.7479 98.4587 55.8985C99.308 55.0572 100.678 55.0572 101.52 55.8985L113.363 67.7497C114.212 68.5911 114.212 69.9613 113.363 70.8107C112.521 71.652 111.151 71.652 110.302 70.8107L98.4587 58.9595Z" fill="#ffc45f"/>
<ellipse cx="56.9999" cy="92.6011" rx="20.7757" ry="21.2178" fill="#ffc45f"/>
<ellipse cx="56.9997" cy="92.601" rx="12.8191" ry="13.2611" fill="#97FBEE"/>
<path fill-rule="evenodd" clip-rule="evenodd" d="M56.1928 86.4126H58.326V90.2746H53.7707V95.7249H54.631V97.9056H51.2534V88.3452H55.8722V86.4219L56.1928 86.4126Z" fill="white"/>
<path fill-rule="evenodd" clip-rule="evenodd" d="M59.2675 87.2966H60.9442C60.9442 87.2966 62.7462 87.5165 62.7462 89.0776C62.7462 90.6387 62.7293 90.7486 62.7293 90.7486C62.7293 90.7486 62.6107 91.9328 62.0484 92.1212C61.4862 92.3097 62.6785 92.4039 62.7123 92.8782C62.7462 93.3525 62.7123 95.369 62.7123 95.369C62.7123 95.369 62.5938 96.616 60.8087 96.616C59.0236 96.616 57.7805 96.616 57.7805 96.616V98.7896H55.2807V94.9136H60.0771V92.2626H54.7896V90.7486H60.0093V89.1907H59.3115L59.2675 87.2966Z" fill="white"/>
<rect x="4.26147" y="11.5615" width="10.3234" height="10.3234" transform="rotate(-45 4.26147 11.5615)" fill="#153540"/>
<rect x="3.35425" y="28.6082" width="5.69135" height="5.69135" transform="rotate(-45 3.35425 28.6082)" fill="#153540"/>
<rect x="105.784" y="117.971" width="5.69135" height="5.69135" transform="rotate(-45 105.784 117.971)" fill="#153540"/>
<rect x="95.1296" y="126.494" width="5.69135" height="5.69135" transform="rotate(-45 95.1296 126.494)" fill="#153540"/>
<rect y="103.109" width="5.69135" height="5.69135" transform="rotate(-45 0 103.109)" fill="#153540"/>
</svg>
