<svg width="274" height="274" viewBox="0 0 274 274" fill="none" xmlns="http://www.w3.org/2000/svg">
<path fill-rule="evenodd" clip-rule="evenodd" d="M63.6141 210.366C63.7637 203.543 68.0818 189.13 71.0728 183.167C72.0448 181.242 72.8673 179.447 74.1946 177.765C74.6619 177.167 75.5779 176.008 76.12 175.428C77.0546 174.437 77.7276 174.063 78.6623 173.166C81.0737 170.904 86.1957 167.465 89.7287 166.642L107.45 184.102C106.048 189.467 101.076 195.804 96.7948 199.299C90.1774 204.721 71.4092 210.179 63.6141 210.366ZM159.567 209.824C163.661 202.085 166.932 186.738 162.24 177.84C170.129 176.008 191.981 160.343 198.487 155.987C216.245 189.542 172.503 208.758 159.567 209.824ZM99.3371 130.938L143.173 174.512L132.854 178.307C120.236 182.55 120.704 181.896 115.451 176.643C113.544 174.736 112.03 173.222 110.123 171.316C106.347 167.539 102.964 164.156 99.1876 160.38C91.299 152.491 91.112 154.921 96.3275 139.126C97.1874 136.546 98.309 133.069 99.3371 130.938ZM96.1219 111.74C87.336 107.085 71.8018 110.357 64.1375 114.394C64.7357 107.197 71.8018 92.3548 76.3256 86.5973C87.9529 71.8108 101.319 66.6701 117.993 75.4934C112.348 83.9054 109.45 87.4198 103.693 96.916C102.665 98.5984 102.048 100.038 101.038 101.72C99.8231 103.702 96.6453 109.553 96.1219 111.74ZM154.24 169.839L103.992 119.871C111.899 105.235 111.787 103.683 121.825 88.9152C122.76 87.5319 123.339 86.8963 124.274 85.513C135.677 68.7825 154.352 50.9677 171.662 40.6677C180.803 35.2092 190.28 30.592 200.225 26.5916C201.851 25.9373 203.515 25.5074 204.88 24.8531L248.996 69.2311L245.856 77.5497C242.528 85.7374 237.986 94.3363 233.443 101.907C225.162 115.684 211.759 131.499 199.234 141.294C178.167 157.782 179.476 156.492 154.24 169.839ZM253.389 57.3608C250.641 56.6318 224.975 29.7508 221.012 25.7691C219.405 24.1801 217.217 22.8903 216.601 20.5723L238.509 15.2821C245.762 13.7866 254.623 12.1603 262.455 11.5247C261.595 21.9369 257.782 41.3219 254.772 51.8089C254.137 54.0147 253.445 54.8746 253.389 57.3608ZM124.91 66.9505C109.768 58.9311 95.8415 56.7627 80.7746 67.0627C77.4098 69.3433 75.877 70.9696 73.073 73.7549C66.4742 80.3163 59.9689 91.0837 56.8658 100.206C53.7066 109.534 51.8747 115.609 51.8747 126.657C51.8747 129.816 55.2769 132.209 57.9874 131.686C63.6702 130.601 62.4551 123.404 83.0365 120.47C85.6536 120.096 91.4859 119.965 90.4952 123.591C88.9436 129.255 78.5501 148.715 82.7935 157.576C73.9142 162.287 76.7369 160.847 69.4651 166.642C65.9508 169.428 62.2869 175.821 60.4176 179.989C56.1555 189.485 51.8747 206.44 51.8747 217.282C51.8747 220.161 54.0618 222.087 57.221 222.087C67.7454 222.087 84.289 217.731 93.617 213.712C97.0191 212.254 101.319 209.955 103.992 207.562C107.712 204.235 108.889 203.188 112.123 198.627C113.974 196.028 114.853 194.047 116.385 191.168C122.966 194.327 134.462 189.429 141.117 187.111C144.201 186.027 146.65 184.962 149.604 183.784C151.622 182.999 152.314 182.681 153.043 184.868C155.212 191.336 151.417 202.889 147.529 208.459C146.127 210.459 142.967 213.469 142.388 215.6C141.64 218.273 143.809 222.087 147.304 222.087C177.662 222.087 223.891 197.954 211.684 159.296C211.142 157.576 210.357 155.837 209.534 153.987C208.656 152.024 207.946 150.809 207.011 149.052C209.796 147.201 218.115 138.752 220.47 136.396C225.069 131.798 228.77 127.704 232.677 122.47C243.893 107.459 253.744 89.3078 259.988 71.4369C266.493 52.8184 273.653 24.9466 273.653 5.11292C273.653 1.03777 270.269 0.327423 267.26 0.327423C259.408 0.327423 250.903 1.87897 243.874 3.05665C206.02 9.41239 164.932 26.1429 137.584 53.4913C135.041 56.0336 126.872 64.0531 124.91 66.9505Z" fill="white"/>
<path fill-rule="evenodd" clip-rule="evenodd" d="M177.158 81.3444C177.158 60.6508 208.619 58.8937 208.619 82.4099C208.619 86.1299 206.712 89.4573 204.3 91.9622C204.226 92.0557 204.113 92.1678 204.039 92.2426C194.206 102.019 177.158 95.1401 177.158 81.3444ZM165.96 80.821C165.96 88.8591 169.662 95.4766 173.83 99.6078C184.915 110.637 200.543 110.599 211.572 100.299C220.751 91.7192 222.526 76.7645 215.236 66.2028C214.488 65.0999 214.563 65.3055 213.815 64.4082C213.086 63.5109 212.918 63.0997 212.189 62.3145C203.422 52.6501 186.187 50.7994 174.204 61.8846C169.512 66.2215 165.96 74.3157 165.96 80.821Z" fill="#ffc45f"/>
<path fill-rule="evenodd" clip-rule="evenodd" d="M3.36554 267.399C3.36554 271.549 5.08533 273.269 9.23525 273.269C12.1888 273.269 17.2734 267.082 20.3017 264.072L40.827 243.547C42.9207 241.453 50.2859 235.228 50.2859 232.218C50.2859 228.966 48.0613 226.349 44.4161 226.349C41.4626 226.349 36.378 232.536 33.3497 235.546L7.77717 261.137C6.15085 262.745 3.36554 264.577 3.36554 267.399Z" fill="#ffc45f"/>
<path fill-rule="evenodd" clip-rule="evenodd" d="M46.0239 267.399C46.0239 271.549 47.725 273.269 51.8749 273.269C54.8472 273.269 59.9318 267.082 62.9414 264.072L83.4667 243.547C85.5603 241.453 92.9255 235.228 92.9255 232.218C92.9255 228.966 90.701 226.349 87.0745 226.349C84.3266 226.349 82.6255 228.91 81.0739 230.48L50.4168 261.137C48.8092 262.745 46.0239 264.577 46.0239 267.399Z" fill="#ffc45f"/>
<path fill-rule="evenodd" clip-rule="evenodd" d="M0.711243 222.087C0.711243 226.237 2.41234 227.956 6.56226 227.956C9.31019 227.956 11.0113 225.395 12.5628 223.825C14.3761 221.993 15.8155 220.573 17.6287 218.759L43.4816 192.906C45.2949 191.093 47.6129 189.729 47.6129 186.364C47.6129 183.335 44.8089 181.036 41.7618 181.036C38.7522 181.036 32.7703 188.158 30.6954 190.233L5.10418 215.824C3.49655 217.432 0.711243 219.264 0.711243 222.087Z" fill="#ffc45f"/>
<path fill-rule="evenodd" clip-rule="evenodd" d="M28.9566 163.988C28.9566 166.493 31.312 169.315 34.8263 169.315C38.6211 169.315 43.7805 162.754 46.1545 160.38C49.2389 157.296 55.0899 153.09 55.0899 148.528C55.0899 144.939 51.1083 142.715 48.136 143.649C45.9863 144.341 36.9761 154.099 34.6955 156.38C32.9009 158.174 28.9566 160.941 28.9566 163.988Z" fill="#ffc45f"/>
<path fill-rule="evenodd" clip-rule="evenodd" d="M104.665 239.154C104.665 242.649 107.469 245.005 109.992 245.005C113.114 245.005 121.507 235.359 123.975 232.891C125.732 231.134 129.359 228.218 130.162 226.218C131.321 223.433 129.695 218.89 124.91 218.89C121.246 218.89 115.899 225.508 113.581 227.826C111.226 230.181 104.665 235.359 104.665 239.154Z" fill="#ffc45f"/>
<path fill-rule="evenodd" clip-rule="evenodd" d="M149.977 118.133C149.977 122.283 151.678 124.003 155.828 124.003C158.763 124.003 161.193 120.507 162.894 118.806C165.904 115.796 168.091 114.974 168.091 110.674C168.091 107.253 165.493 105.87 162.24 105.87C159.305 105.87 149.977 115.217 149.977 118.133Z" fill="#ffc45f"/>
<path fill-rule="evenodd" clip-rule="evenodd" d="M134.518 133.069C134.518 141.612 145.715 140.677 145.715 134.134C145.715 129.256 140.388 126.433 136.537 129.76C136.013 130.19 134.518 132.508 134.518 133.069Z" fill="#ffc45f"/>
</svg>
