<svg width="121" height="105" viewBox="0 0 121 105" fill="none" xmlns="http://www.w3.org/2000/svg">
<path fill-rule="evenodd" clip-rule="evenodd" d="M112.603 75.6611C111.998 81.4087 110.475 85.4102 107.168 89.6878C106.133 91.0304 105.157 91.922 104.048 93.0312C102.35 94.7189 98.9689 96.8152 96.0128 97.9456C88.9491 100.647 81.2698 100.111 74.6624 96.6931C71.8391 95.2337 69.021 92.9941 67.3917 91.0358C62.9232 85.6597 60.1263 79.3602 60.8163 71.6224C62.1006 57.1925 74.5032 46.6102 88.8377 47.783C103.443 48.9771 114.014 62.2714 112.603 75.6611ZM27.1216 17.6759C28.8941 16.779 30.8843 15.171 32.8108 14.1202C34.5197 14.8154 38.1815 18.0846 40.0815 18.0952C41.4507 18.1005 42.9367 16.9011 43.9556 16.2324L47.3522 14.1202C49.2574 14.9481 52.7017 18.0952 54.6282 18.0899C56.0558 18.0899 58.7677 16.0626 60.2166 15.1232C60.6305 14.8526 61.4584 14.29 61.8989 14.1255C63.9315 15.2347 67.5563 18.1376 69.1696 18.1217C70.4327 18.1111 72.062 16.8374 72.9483 16.2855C73.8823 15.7017 75.6761 14.4015 76.4403 14.1255C77.0772 14.497 82.0393 17.5167 82.1295 17.8882L82.1136 44.9543C81.6943 45.1879 78.871 45.7398 78.0271 46.0051C70.0506 48.5154 63.0399 54.5655 59.8398 62.6906C55.1483 74.5997 58.6191 85.6013 65.0672 92.9941C64.6321 93.3868 63.3849 94.1404 62.817 94.4907C61.347 95.3876 61.7025 94.9152 58.1627 92.7181C56.4167 91.6301 55.0528 90.3299 52.9724 91.5134C45.7176 95.6529 48.9549 96.0138 43.7911 92.8295C42.1353 91.8106 40.6228 90.1972 38.3567 91.5718L33.835 94.4588C32.5613 95.2867 32.7312 95.0585 31.4893 94.2306C30.6826 93.6946 29.8866 93.2117 29.1807 92.7499C28.512 92.3148 27.1057 91.6408 27.1057 91.1472L27.1216 17.6759ZM54.6282 94.1351C56.0558 94.825 59.2401 97.2291 60.5881 97.85C62.9656 98.9539 64.5843 96.6082 67.2856 95.2973L69.8118 97.2344C70.8148 97.9774 71.5949 98.4232 72.6139 99.0176C79.131 102.817 87.6011 103.587 94.8028 101.549C113.988 96.1199 122.235 72.7528 109.907 56.2C107.45 52.9043 104.149 50.0385 100.126 47.9316C98.1941 46.9233 95.8696 46.0211 93.6087 45.4691C89.2463 44.3918 88.6307 44.9066 85.197 44.6731C85.0113 35.789 85.4199 26.751 85.1864 17.8829C85.128 15.6964 83.8543 15.1763 82.2887 14.1998C80.877 13.3188 79.6458 12.4909 78.1651 11.5887C76.106 10.3309 74.9543 11.3817 73.3675 12.3901L69.1696 15.0012C68.5115 14.773 68.0445 14.3643 67.4236 13.9716C66.8292 13.5948 66.3038 13.287 65.6935 12.8836C61.1718 9.91166 61.5964 10.6971 56.4432 13.9185C54.193 15.3249 55.2491 15.5319 51.3219 12.9738C47.6016 10.5432 47.5061 10.3468 44.0512 12.5599C39.2907 15.6062 40.8298 15.5106 37.2846 13.2817C32.3119 10.1611 33.4795 9.98596 26.7182 14.359C23.3217 16.5508 24.07 16.6517 24.07 22.4682V86.9705C24.07 92.4793 23.3695 92.7393 26.8774 94.9312C29.3824 96.4914 31.9616 98.8319 34.1269 97.8554L39.0837 94.7242C39.9594 94.1829 39.8904 93.8963 40.7555 94.5013C41.9018 95.3026 42.9898 95.8864 44.0459 96.5976C45.0542 97.2716 46.2855 98.3224 47.867 98.0942C49.4697 97.866 52.8344 94.8675 54.6282 94.1351Z" fill="#153540"/>
<path fill-rule="evenodd" clip-rule="evenodd" d="M42.3905 43.4896C43.9667 43.6329 45.4739 45.8406 45.4473 47.783C45.4208 49.6405 43.9242 51.7368 42.3958 51.9278L42.3905 43.4896ZM39.3017 39.7109C37.7892 39.3766 36.3085 37.4926 36.2873 35.5289C36.2608 33.5494 37.7468 31.5486 39.3336 31.2567L39.3017 39.7109ZM42.4117 31.2567C43.8234 31.416 45.2085 33.2894 45.4049 34.8868C45.5376 35.9588 45.6596 36.808 46.7157 36.9672C47.7506 37.1211 48.4511 36.4577 48.4883 35.4016C48.5679 33.4008 47.5755 31.5486 46.6202 30.4713C45.458 29.1657 44.5504 28.6616 42.4064 27.961C42.3798 27.2923 42.5072 26.2415 42.2631 25.679C42.0296 25.1377 41.4299 24.7556 40.7612 24.798C39.1797 24.8989 39.3654 26.4379 39.3177 28.0247C34.3449 28.6722 30.8688 35.6988 35.1675 40.576C36.4359 42.0142 37.4071 42.2689 38.8082 42.8209C39.392 43.0491 39.0841 42.7307 39.3283 43.203L39.3336 51.9119C37.6778 51.5935 36.4943 49.7679 36.3032 48.0377C36.1918 47.0029 35.9317 46.2386 34.8279 46.1856C31.6012 46.037 33.2357 53.8543 39.2911 55.1652C39.4397 56.6936 39.1107 58.4131 40.8886 58.3919C42.5921 58.3653 42.2896 56.6936 42.4223 55.2288C43.3192 54.8255 43.9454 54.7937 44.8954 54.2046C47.0819 52.8407 48.5148 50.4472 48.4989 47.6503C48.4883 45.6389 47.6975 43.9778 46.652 42.6988C45.6066 41.4198 44.4231 40.8466 42.3905 40.1886L42.4117 31.2567Z" fill="#ffc45f"/>
<path fill-rule="evenodd" clip-rule="evenodd" d="M79.1004 66.0607C80.2095 65.928 93.7797 66.0235 96.1043 66.0288C98.9011 66.0341 98.917 65.8006 98.9488 63.0993C99.5273 63.2692 101.438 64.8666 102.016 65.3018C102.51 65.6733 104.712 67.2335 104.951 67.5785L98.9435 72.063C98.9648 69.3458 98.8321 69.0857 96.1043 69.091C93.1854 69.0963 80.0875 69.2768 79.0632 69.0114L79.1004 66.0607ZM95.8495 62.9879C91.9966 62.9295 88.1118 62.9826 84.2535 62.9826C80.4749 62.9826 76.0169 62.0485 76.0169 66.3685C76.0169 68.5497 75.6348 71.6172 78.5007 72.0948C79.5249 72.27 94.3317 72.1691 95.8548 72.1426C96.0989 73.6976 96.9693 74.9129 98.5243 75.1517C100.461 75.4489 101.539 74.2071 102.584 73.3845C103.63 72.5566 104.665 71.7499 105.758 70.9007C106.745 70.1365 108.162 69.3511 108.098 67.4405C108.04 65.7051 106.634 64.9197 105.689 64.1873C104.532 63.2904 103.545 62.4996 102.441 61.6505C101.47 60.8969 100.403 59.6816 98.5614 59.9735C97.0011 60.2176 96.1414 61.3639 95.8495 62.9879Z" fill="#ffc45f"/>
<path fill-rule="evenodd" clip-rule="evenodd" d="M75.6659 78.1767C79.0041 78.4792 93.0678 77.9167 94.4211 78.3094L94.3522 81.3026C93.5136 81.5308 77.9373 81.4299 75.7933 81.3981C74.4294 81.5042 74.5196 82.8522 74.509 84.2533C74.1746 84.179 68.9524 80.2942 68.5173 79.8325C68.6924 79.4982 74.1056 75.4489 74.4877 75.3162C74.5939 76.7226 74.2277 77.8636 75.6659 78.1767ZM77.6083 84.386C81.6576 84.4231 85.7228 84.3913 89.7721 84.3913C95.1323 84.3913 97.4303 85.2086 97.4303 79.8325C97.4303 77.5823 97.3082 76.3139 95.6948 75.5232C94.0974 74.7483 80.4211 75.5656 77.5977 75.1782C77.1519 73.5224 76.6212 72.5247 74.9282 72.2169C73.0867 71.8825 71.9722 73.1456 71.0169 73.8727C69.9183 74.7112 68.9206 75.5019 67.8433 76.3564C66.819 77.1737 65.3967 77.8795 65.3436 79.6945C65.2853 81.5255 66.6333 82.3375 67.6469 83.107C68.7826 83.972 69.8016 84.7681 70.8948 85.6491C71.866 86.4292 73.0124 87.6499 74.8327 87.3951C75.5863 87.289 76.3611 86.8219 76.7167 86.4398C77.2686 85.8454 77.3483 85.2298 77.6083 84.386Z" fill="#ffc45f"/>
<path fill-rule="evenodd" clip-rule="evenodd" d="M54.1771 40.1674C53.3173 40.4434 52.7654 41.3244 53.3067 42.3539C53.7737 43.2508 54.7608 43.1129 55.9708 43.1129C59.2453 43.1022 75.6495 43.288 76.5252 43.0173C77.2363 42.7997 77.8891 41.8551 77.3478 40.8308C76.8967 39.9604 75.899 40.0507 74.6889 40.056C71.4145 40.0613 55.058 39.8808 54.1771 40.1674Z" fill="#153540"/>
<path fill-rule="evenodd" clip-rule="evenodd" d="M54.3207 32.488C53.4079 32.7056 52.7763 33.5813 53.2487 34.6055C53.6679 35.513 54.6763 35.4865 55.8385 35.4865C58.2798 35.4759 75.5384 35.6139 76.3557 35.4281C77.1995 35.2318 77.8099 34.3296 77.4224 33.3531C77.0191 32.3394 76.0638 32.4137 74.8273 32.419C72.3436 32.4243 55.1911 32.281 54.3207 32.488Z" fill="#153540"/>
<path fill-rule="evenodd" clip-rule="evenodd" d="M55.0307 27.839H75.6328C78.1749 27.839 78.2545 24.7821 75.6328 24.7821H55.0307C52.3772 24.7821 52.4568 27.839 55.0307 27.839Z" fill="#153540"/>
<path fill-rule="evenodd" clip-rule="evenodd" d="M52.9355 74.3132C53.3972 73.4004 52.8081 72.5035 52.097 72.2594C51.354 72.0099 38.7284 72.1532 36.9877 72.1532C34.971 72.1532 32.3918 71.7658 31.8398 73.0714C31.4365 74.016 32.0521 74.8545 32.689 75.104C33.3205 75.3428 46.1106 75.2154 47.7558 75.2154C50.2076 75.2154 52.2774 75.6294 52.9355 74.3132Z" fill="#153540"/>
<path fill-rule="evenodd" clip-rule="evenodd" d="M31.7493 66.3684C32.0359 68.1197 35.0503 67.5784 36.7168 67.5784H48.8328C50.6054 67.5784 53.4872 68.0242 53.0467 65.7103C52.7176 63.9802 49.7191 64.5162 48.0262 64.5162H35.9101C34.1694 64.5162 31.3725 64.0757 31.7493 66.3684Z" fill="#153540"/>
<path fill-rule="evenodd" clip-rule="evenodd" d="M31.761 81.7219C32.1112 83.3724 35.2583 82.8523 36.7178 82.8523H48.8339C50.1978 82.8523 53.5943 83.3989 53.0371 80.9312C52.6603 79.2647 49.6565 79.7954 48.0272 79.7954H35.9111C34.2288 79.7954 31.2515 79.3337 31.761 81.7219Z" fill="#153540"/>
<path fill-rule="evenodd" clip-rule="evenodd" d="M55.0307 50.7656H63.3788C66.0005 50.7656 66.0111 47.7194 63.3788 47.7194H55.0307C52.3772 47.7194 52.4568 50.7656 55.0307 50.7656Z" fill="#153540"/>
<path fill-rule="evenodd" clip-rule="evenodd" d="M53.1364 57.2085C53.4336 58.6201 55.0363 58.4026 56.5117 58.4079C57.8968 58.4079 59.4412 58.3389 59.1652 56.5663C58.9317 55.0856 57.1698 55.3457 55.8377 55.3404C55.0257 55.3404 52.7171 55.2024 53.1364 57.2085Z" fill="#153540"/>
<path fill-rule="evenodd" clip-rule="evenodd" d="M75.7934 81.3981C77.9374 81.4299 93.5137 81.5308 94.3523 81.3025L94.4213 78.3094C93.0679 77.9166 79.0042 78.4792 75.666 78.1767C75.9154 78.6543 79.4181 78.4261 80.0762 78.4261C84.4068 78.4261 90.2233 78.5747 94.2196 78.4102L94.262 81.2282L76.1755 81.2176C75.475 81.2654 76.0057 81.207 75.7934 81.3981Z" fill="#ffc45f"/>
<rect x="6.39258" y="6.60657" width="8.35784" height="8.35784" transform="rotate(-45 6.39258 6.60657)" fill="#153540"/>
<rect y="19.545" width="6.42766" height="6.42766" transform="rotate(-45 0 19.545)" fill="#153540"/>
<rect x="111" y="99.545" width="6.42766" height="6.42766" transform="rotate(-45 111 99.545)" fill="#153540"/>
<rect x="91" y="34.5563" width="3.56738" height="3.56738" transform="rotate(-45 91 34.5563)" fill="#153540"/>
<rect x="103" y="22" width="3.56738" height="3.56738" transform="rotate(-45 103 22)" fill="#153540"/>
<rect x="12" y="30.5226" width="3.56738" height="3.56738" transform="rotate(-45 12 30.5226)" fill="#153540"/>
<rect x="91" y="21.5226" width="3.56738" height="3.56738" transform="rotate(-45 91 21.5226)" fill="#153540"/>
</svg>
