<svg width="142" height="127" viewBox="0 0 142 127" fill="none" xmlns="http://www.w3.org/2000/svg">
<path fill-rule="evenodd" clip-rule="evenodd" d="M73.7637 103.365L67.4886 102.972C65.4055 102.64 63.2513 102.247 61.2588 101.536C55.6112 99.5266 50.5005 96.4466 46.315 92.0296C42.1747 87.6658 39.3024 82.3907 37.4393 76.6233C37.0899 75.5523 36.87 74.4813 36.6177 73.3837C36.3718 72.3061 36.2295 71.2218 36.0743 70.1308C36.0096 69.6186 36.0225 69.1264 36.0096 68.6141C35.9902 68.215 35.9384 67.8691 35.8672 67.4833C35.8284 67.2837 35.8026 67.0842 35.7961 66.8779C35.7896 66.685 35.8026 66.5054 35.8284 66.3125C35.8737 65.96 35.9061 65.654 35.8996 65.3014C35.8931 64.7892 35.8284 64.277 35.8543 63.7647C36.2683 55.6359 39.3994 46.8683 44.8594 40.8681C47.9517 37.4689 51.2574 34.4289 55.2877 32.2403C58.3347 30.5839 61.5758 29.5263 64.9203 28.7213L71.1502 27.8965C71.3119 27.8898 71.4607 27.9031 71.6224 27.9164C71.9782 27.9564 72.3017 27.9896 72.6639 27.983C73.1685 27.963 73.6667 27.9098 74.1713 27.9231C75.6851 27.9697 77.27 28.1892 78.7644 28.4619C80.3687 28.748 82.0572 29.1205 83.6033 29.646C87.9571 31.1161 92.8801 33.6306 96.2506 36.8769C98.5277 39.0654 100.837 41.3471 102.636 43.9747C104.24 46.3162 105.43 48.9172 106.55 51.5315C106.97 52.5093 107.293 53.5936 107.585 54.6314C107.882 55.6957 108.147 56.7734 108.393 57.851C108.723 59.3012 108.93 60.7247 109.014 62.2148C109.092 63.4521 109.092 64.6894 109.111 65.9267C109.118 66.4456 109.182 66.9578 109.157 67.47C108.736 75.5856 105.605 84.3664 100.152 90.3666C98.0167 92.7081 95.7977 95.0231 93.2101 96.8391C91.0235 98.3691 88.617 99.5266 86.2039 100.624C85.2465 101.057 84.192 101.389 83.1893 101.689C82.1542 101.995 81.1062 102.267 80.0582 102.52C79.0102 102.766 77.9557 102.919 76.8948 103.072C76.4031 103.145 75.9179 103.125 75.4198 103.145C75.0381 103.159 74.6953 103.219 74.3201 103.292C74.1325 103.325 73.9513 103.352 73.7637 103.365ZM93.6435 42.3715C90.7065 39.5444 86.3657 36.8502 82.5424 35.5664C80.7375 34.961 78.8744 34.4621 76.9918 34.196C75.5557 33.9965 74.1325 33.8568 72.6834 33.8568C71.396 33.8568 70.1086 33.9566 68.8213 34.0763C67.8509 34.1628 66.887 34.3091 65.936 34.5087C60.9159 35.5597 56.2322 38.1141 52.3766 41.5599C49.8277 43.8416 47.6023 46.5357 45.8621 49.5159C43.0545 54.332 41.7154 59.6338 41.696 65.2216C41.6895 66.2926 41.683 67.3702 41.7542 68.4345C41.8383 69.6918 42.0518 70.9224 42.2847 72.1531C43.3133 77.6078 45.8039 82.6435 49.4137 86.7744C55.2036 93.3933 63.4583 97.2582 72.1205 97.2981C73.1621 97.3048 74.2101 97.3114 75.2452 97.2382C76.4678 97.1451 77.6646 96.9322 78.8614 96.6928C84.8389 95.4954 90.9523 91.9298 95.112 87.3532C99.2199 82.8297 102.248 76.3572 103.063 70.2306V70.204L103.315 66.0265V66.0065C103.315 65.767 103.341 65.5608 103.373 65.3213C103.412 65.0619 103.431 64.8158 103.418 64.5497V64.5231L102.726 59.1016V59.0817C101.562 52.9284 98.0943 46.6488 93.6435 42.3715Z" fill="#153540"/>
<path fill-rule="evenodd" clip-rule="evenodd" d="M73.7638 102.7L67.5599 102.314C65.5285 101.981 63.4196 101.602 61.4724 100.91C55.9153 98.9345 50.8952 95.9078 46.7744 91.5706C42.7053 87.2733 39.8847 82.0847 38.0539 76.417C37.711 75.3594 37.4911 74.3083 37.2517 73.2307C37.0059 72.173 36.8636 71.1086 36.7148 70.0377C36.6501 69.5587 36.6695 69.0731 36.6501 68.5875C36.6372 68.1618 36.5789 67.7826 36.5013 67.3635C36.469 67.1905 36.4496 67.0309 36.4431 66.8579C36.4366 66.6983 36.4496 66.5519 36.469 66.3989C36.5207 66.0198 36.5531 65.6805 36.5466 65.2947C36.5401 64.7958 36.4754 64.2902 36.5013 63.798C36.9089 55.8287 39.9753 47.2076 45.3317 41.3204C51.4128 34.6284 56.407 31.4553 65.0369 29.3799L71.1955 28.5616C71.3184 28.5616 71.4349 28.5683 71.5578 28.5816C71.9395 28.6215 72.2953 28.6548 72.6834 28.6481C73.1686 28.6282 73.6603 28.5749 74.152 28.5883C75.6399 28.6282 77.1925 28.8543 78.6545 29.1138C80.2265 29.3998 81.8826 29.759 83.4029 30.2779C87.6596 31.7214 92.505 34.1893 95.8108 37.3691C98.0491 39.5177 100.339 41.7728 102.112 44.3604C103.684 46.6621 104.855 49.2298 105.954 51.7975C106.362 52.7554 106.679 53.8065 106.964 54.8109C107.255 55.8686 107.52 56.933 107.759 57.9973C108.083 59.4142 108.283 60.8045 108.374 62.2547C108.445 63.4787 108.445 64.7093 108.464 65.9399C108.471 66.4322 108.536 66.9378 108.51 67.4367C108.102 75.3926 105.029 84.0271 99.6793 89.9076C97.5833 92.2158 95.3903 94.5042 92.8479 96.2869C90.6936 97.797 88.3195 98.9411 85.9453 100.012C85.0137 100.431 83.9851 100.757 83.0083 101.043C81.9861 101.349 80.9511 101.622 79.9095 101.868C78.8809 102.114 77.8459 102.261 76.8043 102.414C76.3385 102.48 75.8663 102.467 75.4005 102.48C74.98 102.5 74.6113 102.56 74.2037 102.64C74.0549 102.666 73.9126 102.686 73.7638 102.7ZM94.09 41.8859C91.0818 38.9922 86.6569 36.2449 82.743 34.9344C80.8993 34.3157 78.9974 33.8035 77.076 33.5374C75.614 33.3312 74.1649 33.1915 72.6834 33.1915C71.3767 33.1915 70.0699 33.2913 68.7631 33.411C67.7733 33.5042 66.7836 33.6505 65.8067 33.8567C57.3256 35.6395 49.7308 41.5998 45.3059 49.1766C42.44 54.0925 41.0686 59.5073 41.0491 65.2215C41.0427 66.3058 41.0362 67.4034 41.1074 68.4811C41.1979 69.7649 41.4114 71.0222 41.6508 72.2794C42.7053 77.8539 45.2476 82.996 48.9351 87.2201C54.8414 93.9787 63.2708 97.9234 72.1206 97.9633C73.1751 97.9699 74.2425 97.9766 75.2905 97.8968C76.5391 97.8103 77.7618 97.5841 78.9844 97.3446C85.0978 96.1206 91.3276 92.4819 95.5843 87.8055C99.7893 83.1889 102.869 76.5833 103.703 70.317L103.71 70.2705L103.962 66.0464V66.0131C103.962 65.5009 104.085 65.0752 104.065 64.5297V64.4632L103.367 58.9951L103.36 58.9486C102.17 52.6623 98.6313 46.2563 94.09 41.8859Z" fill="#153540"/>
<path fill-rule="evenodd" clip-rule="evenodd" d="M73.7639 102.028L67.6311 101.649C65.6451 101.329 63.5814 100.957 61.6795 100.278C56.2259 98.3424 51.29 95.3689 47.2402 91.1049C43.2358 86.8808 40.467 81.7786 38.6686 76.2041C38.3322 75.173 38.1187 74.142 37.8793 73.0776C37.64 72.0399 37.5041 70.9955 37.3553 69.9445C37.2971 69.4921 37.3165 69.0198 37.2971 68.5675C37.2842 68.1018 37.2195 67.696 37.1354 67.2437C37.116 67.104 37.0901 66.9776 37.0901 66.8379C37.0836 66.7115 37.0966 66.6051 37.1095 66.4854C37.1613 66.0729 37.2001 65.7004 37.1936 65.2813C37.1871 64.8024 37.1224 64.3035 37.1483 63.8312C37.5494 56.0216 40.5511 47.5468 45.8041 41.7794C51.7945 35.1871 56.6658 32.0806 65.1534 30.0317L71.2474 29.2268C71.7067 29.2201 72.1983 29.3266 72.6965 29.3066C73.1752 29.2933 73.6604 29.2401 74.1326 29.2534C76.8109 29.3332 80.66 30.045 83.2024 30.9098C87.3686 32.32 92.1364 34.7414 95.371 37.8546C97.5705 39.97 99.8347 42.1984 101.581 44.7462C103.127 47.0013 104.285 49.5424 105.366 52.0636C106.142 53.8796 106.692 56.2078 107.132 58.1502C107.759 60.9109 107.779 63.146 107.818 65.9465C107.824 66.4255 107.889 66.9244 107.863 67.3967C107.462 75.2063 104.454 83.6878 99.2072 89.4552C97.1435 91.7235 94.9893 93.9853 92.4792 95.7414C90.3638 97.2182 88.022 98.349 85.6866 99.4001C83.9205 100.205 81.6498 100.77 79.7608 101.223C78.7516 101.462 77.736 101.609 76.7138 101.755C76.2739 101.821 75.8146 101.802 75.3747 101.815C74.9219 101.835 74.5273 101.901 74.0873 101.981C73.9774 102.001 73.8739 102.021 73.7639 102.028ZM94.53 41.4002C91.4506 38.44 86.9481 35.6461 82.9437 34.3024C81.0676 33.6704 79.1268 33.1516 77.1667 32.8788C74.0809 32.4464 71.7843 32.473 68.705 32.7458C58.846 33.6438 49.7891 40.2095 44.7561 48.8306C41.8255 53.853 40.4217 59.3875 40.4023 65.2148C40.3959 66.3191 40.3894 67.43 40.467 68.5276C40.5576 69.838 40.7711 71.1219 41.0169 72.4058C42.0908 78.1 44.6849 83.3552 48.4565 87.6657C54.4857 94.564 63.0833 98.5885 72.1207 98.6284C73.1881 98.6351 74.2685 98.6417 75.3359 98.5619C76.6103 98.4688 77.8589 98.2426 79.1074 97.9965C85.3567 96.7459 91.7094 93.0407 96.0567 88.2644C100.352 83.5414 103.496 76.8095 104.344 70.4101L104.35 70.3369L104.609 66.0729V66.0131C104.609 65.5075 104.732 65.0685 104.712 64.5097V64.4099L104.007 58.882L103.994 58.8221C102.778 52.4028 99.1748 45.8704 94.53 41.4002Z" fill="#153540"/>
<path fill-rule="evenodd" clip-rule="evenodd" d="M73.7575 101.362L67.6959 100.99C65.7616 100.677 63.7432 100.311 61.893 99.6529C50.6173 95.6416 43.0418 87.6192 39.2832 75.9979C38.9533 74.9801 38.7463 73.969 38.5069 72.9313C38.2805 71.9135 38.1382 70.8824 37.9959 69.8514C37.9377 69.4323 37.9635 68.9666 37.9441 68.5409C37.9312 68.0486 37.86 67.6096 37.7759 67.124C37.7565 67.0175 37.7371 66.9178 37.7371 66.8113C37.7306 66.7315 37.7436 66.6583 37.7501 66.5719C37.8083 66.1262 37.8471 65.7204 37.8406 65.2747C37.8342 64.8157 37.7695 64.3168 37.7953 63.8644C38.1835 56.2145 41.127 47.886 46.2764 42.2317C52.1699 35.7526 56.9312 32.7059 65.27 30.6903L71.2928 29.892C71.7391 29.892 72.2243 29.9918 72.716 29.9719C73.1753 29.9586 73.654 29.9053 74.1133 29.9186C76.7269 29.9918 80.5113 30.6969 82.9955 31.5418C87.0711 32.9187 91.7613 35.2936 94.9247 38.3402C100.119 43.3293 101.911 45.6509 104.771 52.3297C105.528 54.1058 106.071 56.4008 106.498 58.3033C107.113 61.0107 107.139 63.2059 107.171 65.9532C107.177 66.4189 107.242 66.9111 107.216 67.3635C106.828 75.0134 103.872 83.3485 98.735 89.0028C94.0578 94.1383 91.6448 95.9809 85.4215 98.7948C83.6942 99.573 81.4623 100.132 79.6186 100.571C78.6288 100.81 77.6261 100.95 76.6234 101.096C76.2158 101.156 75.763 101.136 75.3489 101.15C74.8702 101.17 74.4433 101.236 73.971 101.329C73.8998 101.343 73.8287 101.356 73.7575 101.362ZM94.97 40.9146C91.8259 37.8879 87.2393 35.0408 83.1508 33.6704C81.2294 33.0252 79.2499 32.4997 77.2509 32.2203C74.1198 31.7812 71.778 31.8012 68.6533 32.0872C58.5808 32.9986 49.3428 39.684 44.1998 48.4914C41.2111 53.6135 39.7814 59.2612 39.7555 65.2148C39.749 66.3324 39.7426 67.4632 39.8202 68.5808C39.9108 69.9112 40.1307 71.2217 40.383 72.5322C41.4763 78.3461 44.1287 83.7077 47.9714 88.1048C54.1236 95.1494 62.9022 99.2537 72.1143 99.2937C73.2012 99.3003 74.3009 99.307 75.3878 99.2271C76.6816 99.134 77.956 98.9012 79.2304 98.6484C85.6155 97.3712 92.0847 93.5994 96.529 88.7168C100.915 83.894 104.117 77.0356 104.984 70.4966L104.997 70.3968L105.256 66.0929V66.0197C105.256 65.5075 105.379 65.0618 105.359 64.4831V64.3567L104.641 58.7756L104.628 58.6957C103.386 52.1367 99.7183 45.478 94.97 40.9146Z" fill="#153540"/>
<path fill-rule="evenodd" clip-rule="evenodd" d="M73.7705 100.697L67.7671 100.325C65.8846 100.019 63.905 99.6662 62.1066 99.021C51.0184 95.0763 43.5918 87.2135 39.8979 75.7851C39.5744 74.7939 39.3674 73.7961 39.141 72.7784C38.9145 71.7805 38.7787 70.7694 38.6364 69.7583C38.5846 69.3658 38.604 68.9135 38.5911 68.521C38.5717 67.909 38.397 67.3103 38.3841 66.7914C38.3647 66.3657 38.494 65.7803 38.4876 65.2615C38.4811 64.8224 38.4164 64.3368 38.4358 63.9044C38.824 56.4075 41.7092 48.2254 46.7487 42.6841C52.5451 36.3114 57.19 33.3312 65.38 31.3423L71.3316 30.5573C71.765 30.5573 72.2567 30.6504 72.7354 30.6371C73.1818 30.6305 73.654 30.5706 74.0939 30.5839C76.6493 30.6571 80.3691 31.3489 82.795 32.1738C86.78 33.5175 91.3925 35.8524 94.4848 38.8259C99.6149 43.7551 101.355 46.0035 104.176 52.6025C104.92 54.332 105.45 56.6004 105.871 58.4563C106.472 61.1105 106.492 63.2658 106.524 65.9666C106.53 66.4056 106.595 66.8979 106.569 67.3303C106.188 74.8206 103.296 83.0093 98.2628 88.5439C93.6503 93.6195 91.3084 95.4089 85.1627 98.1828C83.4743 98.9478 81.2747 99.4933 79.4698 99.9257C78.4995 100.159 77.5161 100.298 76.5328 100.438C76.1511 100.498 75.7112 100.471 75.3296 100.484C74.7861 100.504 74.2427 100.657 73.7705 100.697ZM95.4099 40.4291C92.2012 37.3358 87.5304 34.4422 83.3513 33.0386C81.3912 32.38 79.3793 31.8478 77.3415 31.5618C74.1651 31.1161 71.765 31.136 68.5951 31.4221C58.3156 32.3534 48.8965 39.1585 43.6435 48.1455C40.5965 53.3741 39.1345 59.1415 39.1086 65.2149C39.0957 68.0154 39.2186 69.8847 39.7426 72.6586C40.8682 78.5923 43.5659 84.067 47.4927 88.5505C53.7678 95.7282 62.7147 99.919 72.1144 99.9589C74.8379 99.9722 76.6557 99.8392 79.3534 99.3004C85.8743 98.0032 92.4664 94.1583 97.0013 89.1692C101.478 84.2466 104.738 77.2685 105.625 70.5832L105.638 70.4634L105.903 66.1129V66.0198C105.903 65.5142 106.026 65.0486 106.006 64.4632L106 64.3035L105.282 58.6692L105.262 58.5694C104.001 51.8707 100.262 45.0922 95.4099 40.4291Z" fill="#153540"/>
<path fill-rule="evenodd" clip-rule="evenodd" d="M33.6807 27.1284C41.2231 19.5989 51.1357 13.8986 61.6796 12.0307C62.3302 11.9148 62.9743 11.7409 63.6313 11.6571C64.3011 11.5669 64.971 11.4768 65.6344 11.3737C66.2527 11.2707 66.8196 11.2707 67.4314 11.2191C68.0949 11.1547 68.7068 11.0195 69.3766 11.0001C70.6584 10.9615 72.0174 10.8005 73.2927 10.9164C74.2718 11.013 75.2379 11.0517 76.2234 11.0903C76.9126 11.1161 77.6018 11.1483 78.291 11.2127C79.2829 11.3093 80.2683 11.451 81.2538 11.6185C82.5742 11.8439 83.8882 12.0758 85.1957 12.3914C86.4968 12.7006 87.785 13.0806 89.0732 13.4606C96.0745 15.5282 102.619 19.2511 108.164 23.9787L111.971 27.5342C114.534 30.1685 116.847 33.0541 118.843 36.1393C126.238 47.5721 129.085 61.4653 126.85 74.8754C126.566 76.5565 126.225 78.2248 125.793 79.8737C124.814 83.6352 123.429 87.1971 121.735 90.6945C121.008 92.1888 120.125 93.6638 119.23 95.0679C118.083 96.865 116.847 98.6169 115.533 100.298C115.32 100.569 115.108 100.839 114.889 101.11L110.419 105.889C110.174 106.101 109.923 106.32 109.665 106.526C108.39 107.544 107.134 108.575 105.858 109.599C104.924 110.352 103.971 111.1 102.986 111.795C100.3 113.67 97.2854 115.093 94.3161 116.458C87.1151 119.776 78.9995 121.044 71.1092 120.845L67.1352 120.613C64.2754 120.297 61.4478 119.846 58.6524 119.131C54.6976 118.12 51.0069 116.619 47.3678 114.771C46.4081 114.288 45.4419 113.695 44.5273 113.135C43.0845 112.253 41.661 111.331 40.2762 110.359C39.3681 109.728 38.4663 109.071 37.6032 108.381L34.898 105.85C34.6726 105.573 34.3827 105.174 34.2926 104.832C34.1573 104.324 34.138 103.673 34.2668 103.158C34.5695 101.915 35.6838 101.18 36.9269 101.135C38.0348 101.103 39.3423 102.147 40.1539 102.804C40.8624 103.383 41.5451 103.982 42.2472 104.568C43.0459 105.225 43.8574 105.857 44.7141 106.43C46.0667 107.325 47.4128 108.182 48.8363 108.974C60.6684 115.57 76.2234 117.083 88.9508 112.31C91.6947 111.28 94.3999 110.204 96.9247 108.691C108.718 101.606 116.016 92.3112 119.983 79.1265C120.344 77.9349 120.634 76.7111 120.872 75.4938C121.156 74.051 121.381 72.5824 121.51 71.1139C121.619 69.8128 121.69 68.486 121.742 67.1785C121.774 66.3733 121.8 65.5618 121.8 64.7502C121.8 64.1834 121.8 63.5393 121.716 62.9725C121.568 61.9419 121.478 60.9371 121.388 59.9001C121.33 59.2496 121.259 58.6119 121.156 57.9678C121.001 57.0146 120.795 56.0678 120.57 55.1209C120.273 53.8714 119.971 52.6218 119.597 51.3852C119.178 49.9939 118.676 48.6413 118.148 47.2887C116.151 42.1294 113.124 37.8591 109.691 33.5758C109.105 32.8544 108.377 32.3198 107.784 31.6242C105.453 28.9061 102.316 26.5229 99.3015 24.61C97.3627 23.3797 95.3403 22.259 93.2663 21.2735C91.4692 20.4233 89.582 19.644 87.669 19.0836C86.3164 18.6907 84.9574 18.2978 83.579 17.9822C82.2457 17.6794 80.8931 17.4476 79.5469 17.2286C71.9852 15.9919 62.8197 17.0869 55.6509 19.7534C54.2854 20.2623 52.9843 20.8098 51.6639 21.4281C39.7223 27.0189 30.8724 36.9445 26.2735 49.2532C26.0803 49.7813 25.9064 50.3288 25.7389 50.8699C25.5006 51.6299 25.2752 52.3964 25.0691 53.1629C24.8307 54.026 24.6053 54.9019 24.425 55.7779C24.3155 56.2803 24.1416 57.1498 24.2382 57.6522L24.47 58.9018L25.3396 57.9743C25.8806 57.3946 26.383 56.7891 26.9434 56.2352C28.1478 55.0501 29.4232 54.2514 31.0785 55.1402C31.6453 55.4365 32.1284 55.881 32.3731 56.48C32.9528 57.9292 31.9287 59.5459 30.969 60.5636C30.5568 61.008 30.1188 61.4138 29.6679 61.826C29.0367 62.3928 28.4313 62.9532 27.8516 63.5715L21.359 70.0769C20.6119 70.5857 19.7552 70.9142 18.8664 70.5793C17.7907 70.1735 16.9405 68.9111 16.3737 67.9514L16.3673 67.9449L10.2033 58.1675C9.74594 57.3753 9.50118 56.4607 9.72662 55.5525C9.90697 54.8375 10.3578 54.2256 10.9826 53.8392C12.303 53.0405 13.7651 53.5042 14.7506 54.5928C15.1693 55.0565 15.4462 55.5718 15.7489 56.1064C16.1225 56.7891 16.4832 57.3817 17.0436 57.9356L17.8551 58.7214L20.058 49.7427C20.8566 47.0504 21.9065 44.4482 23.111 41.9169C25.1721 37.595 27.8773 33.5758 31.0205 29.9689L33.6807 27.1284Z" fill="#153540"/>
<path fill-rule="evenodd" clip-rule="evenodd" d="M34.1443 27.5728C41.5901 20.1463 51.3804 14.5104 61.7891 12.6619C62.4332 12.5524 63.0644 12.3785 63.7149 12.2947C64.3912 12.2046 65.0675 12.1144 65.7374 12.0049C66.3364 11.9147 66.8968 11.9147 67.4893 11.8567C68.1334 11.7988 68.7453 11.6635 69.3959 11.6442C70.6454 11.6055 71.9916 11.4445 73.2282 11.5605C74.2266 11.6506 75.2056 11.6957 76.204 11.7344C77.9044 11.7988 79.4631 11.9727 81.1442 12.2561C82.4517 12.4751 83.7528 12.7069 85.0475 13.0161C86.3357 13.3253 87.6174 13.6989 88.8927 14.0724C95.8039 16.1142 102.264 19.792 107.739 24.4553L111.52 27.9979C114.051 30.5936 116.331 33.4405 118.302 36.4871C125.606 47.7846 128.421 61.5168 126.212 74.7723C125.284 80.3502 123.635 85.3098 121.156 90.411C120.441 91.886 119.565 93.3417 118.689 94.7201C117.549 96.4978 116.325 98.2369 115.024 99.8986C114.818 100.163 114.612 100.427 114.399 100.684L109.974 105.425C109.742 105.625 109.504 105.824 109.259 106.018C107.99 107.042 106.728 108.072 105.459 109.096C104.531 109.844 103.591 110.584 102.612 111.267C99.9648 113.122 96.9762 114.526 94.0455 115.872C86.9347 119.144 78.9221 120.394 71.1349 120.201L67.193 119.969C64.3654 119.66 61.5701 119.209 58.8133 118.507C54.9036 117.508 51.258 116.027 47.6575 114.198C46.7171 113.721 45.7639 113.135 44.8621 112.587C43.4322 111.711 42.0217 110.79 40.6433 109.831C39.7544 109.212 38.872 108.568 38.0218 107.892L35.3681 105.412C35.2135 105.212 34.9688 104.884 34.9108 104.671C34.8077 104.266 34.7884 103.718 34.8915 103.312C35.1234 102.346 35.9929 101.812 36.9462 101.779C37.8286 101.754 39.1039 102.778 39.748 103.306C41.2874 104.555 42.6915 105.863 44.3597 106.964C45.7252 107.873 47.0843 108.736 48.5206 109.534C60.5202 116.227 76.2748 117.753 89.1761 112.909C91.9586 111.866 94.6961 110.777 97.2531 109.245C109.188 102.076 116.589 92.6525 120.602 79.3132C121.375 76.7368 121.916 73.8448 122.148 71.1718C122.263 69.8579 122.334 68.5246 122.386 67.2042C122.418 66.3926 122.444 65.5682 122.444 64.7566C122.444 64.1511 122.444 63.4748 122.354 62.8823C122.206 61.8581 122.122 60.8662 122.032 59.8421C121.883 58.1675 121.587 56.6152 121.201 54.9727C120.898 53.7103 120.589 52.4479 120.215 51.1983C119.79 49.7942 119.281 48.4222 118.753 47.0567C116.724 41.8331 113.671 37.5112 110.193 33.17C109.601 32.4357 108.873 31.9011 108.274 31.2055C103.694 25.8659 94.5672 20.4361 87.8493 18.4716C86.4838 18.0659 85.1119 17.673 83.7206 17.3573C82.3745 17.0482 81.0154 16.8163 79.6499 16.5909C71.9787 15.3349 62.6972 16.4427 55.4254 19.1479C54.0405 19.6632 52.7266 20.2171 51.3933 20.8419C39.2971 26.5035 30.3248 36.5644 25.668 49.0277C25.1978 50.2966 24.8049 51.6878 24.4442 52.9953C24.1479 54.0774 23.4008 56.7053 23.6069 57.7746L24.0771 60.2672L25.8097 58.4122C26.3443 57.8454 26.8402 57.2464 27.3942 56.6989C28.3861 55.7199 29.3973 54.9727 30.7757 55.707C32.7853 56.7762 31.7032 58.8438 30.5052 60.1255C29.5133 61.1754 28.3796 62.0578 27.3877 63.127L20.9467 69.5809C20.3993 69.948 19.7487 70.225 19.0982 69.9802C18.19 69.6324 17.4042 68.428 16.9276 67.6228L16.9147 67.6099L10.7571 57.839C10.0872 56.6667 10.0486 55.166 11.3175 54.393C12.3673 53.7554 13.4945 54.1676 14.2739 55.0243C14.6539 55.4429 14.9115 55.9324 15.1821 56.4219C15.5878 57.1562 15.9872 57.7939 16.5991 58.3929L18.2093 59.9709L20.6762 49.9101C21.4685 47.2564 22.5055 44.6929 23.697 42.1938C25.726 37.9299 28.399 33.9622 31.5035 30.4003L34.1443 27.5728Z" fill="#153540"/>
<path fill-rule="evenodd" clip-rule="evenodd" d="M34.6082 28.0236C41.9574 20.6874 51.6253 15.1223 61.9051 13.2995C62.5363 13.1836 63.1611 13.0161 63.7988 12.9324C64.4815 12.8422 65.1578 12.7521 65.8406 12.6426C66.4203 12.5524 66.9677 12.5524 67.5539 12.5009C68.1786 12.4429 68.7841 12.3012 69.4153 12.2883C70.6327 12.2497 71.9659 12.0886 73.1704 12.1981C74.1752 12.2947 75.1671 12.3398 76.1784 12.3785C77.853 12.4364 79.386 12.6104 81.0413 12.8873C82.3295 13.1063 83.6177 13.3382 84.893 13.6409C86.1748 13.9501 87.4436 14.3172 88.7061 14.6908C95.5271 16.7068 101.904 20.3395 107.308 24.9384L111.069 28.4552C113.568 31.0187 115.816 33.8334 117.761 36.8349C124.982 48.0036 127.758 61.5683 125.581 74.6693C124.66 80.1892 123.024 85.0844 120.576 90.1277C119.874 91.5833 119.011 93.0132 118.141 94.3723C117.014 96.1371 115.803 97.8569 114.515 99.5057C114.322 99.7569 114.116 100.015 113.916 100.266L109.523 104.961C109.304 105.148 109.085 105.335 108.86 105.515C106.696 107.254 104.512 109.148 102.245 110.739C99.63 112.568 96.6736 113.959 93.7751 115.286C86.7609 118.513 78.8449 119.743 71.1673 119.557L67.2447 119.331C60.0115 118.526 54.4851 116.942 47.9539 113.624C47.0264 113.154 46.086 112.581 45.2036 112.033C43.7802 111.164 42.376 110.256 41.0105 109.302C40.141 108.697 39.2779 108.066 38.4406 107.402L35.8449 104.974C35.7289 104.832 35.5808 104.626 35.5357 104.504C35.4584 104.208 35.4391 103.77 35.5164 103.461C35.6838 102.791 36.3086 102.449 36.9656 102.424C37.6097 102.404 38.8721 103.422 39.3423 103.802C40.9011 105.071 42.3181 106.385 44.0056 107.505C45.384 108.414 46.7624 109.296 48.2051 110.101C60.3722 116.877 76.3201 118.423 89.4017 113.515C92.2229 112.452 94.9925 111.351 97.5882 109.792C109.652 102.546 117.156 92.9875 121.214 79.5C122.006 76.885 122.553 73.9479 122.792 71.2298C122.908 69.903 122.972 68.5568 123.03 67.2299C123.082 65.8967 123.185 64.0996 122.991 62.7857C122.843 61.7809 122.76 60.7954 122.669 59.7906C122.521 58.0773 122.225 56.4993 121.826 54.8246C121.523 53.5493 121.207 52.274 120.827 51.0115C120.402 49.5945 119.887 48.2033 119.352 46.8184C117.298 41.5368 114.219 37.1634 110.696 32.7706C110.09 32.0171 109.362 31.4889 108.763 30.7868C104.106 25.3506 94.8701 19.8565 88.0298 17.8533C86.6514 17.4475 85.2666 17.0482 83.8689 16.7261C82.5098 16.417 81.1315 16.1851 79.7531 15.9597C71.9724 14.6844 62.5814 15.8051 55.2001 18.5425C53.8024 19.0642 52.4691 19.6246 51.1165 20.2558C38.8721 25.9947 29.7839 36.1779 25.0691 48.8023C24.4121 50.5607 22.6602 56.2352 22.9693 57.8905L23.6778 61.6392L26.28 58.8502C26.8082 58.2899 27.2977 57.6973 27.8516 57.1562C28.6181 56.3962 29.391 55.7006 30.4731 56.2738C32.0382 57.1111 30.9046 58.7536 30.0351 59.6811C29.0432 60.731 27.916 61.6134 26.9241 62.6762L20.5346 69.0785C20.1868 69.3104 19.7295 69.5294 19.3237 69.3748C18.6023 69.1043 17.8616 67.9385 17.4816 67.2944L17.4687 67.275L11.3111 57.5041C10.0809 55.3334 12.258 53.7554 13.7909 55.4558C14.1323 55.8358 14.3771 56.2931 14.6218 56.7311C15.0598 57.5298 15.4913 58.2126 16.1483 58.8567L18.5701 61.2205L21.3011 50.0776C22.0805 47.4625 23.1046 44.9312 24.2769 42.4708C26.28 38.2584 28.9144 34.3423 31.9803 30.8319L34.6082 28.0236Z" fill="#153540"/>
<path fill-rule="evenodd" clip-rule="evenodd" d="M35.0718 28.4681C42.3243 21.2348 51.8763 15.7278 62.0144 13.9307C62.6328 13.8212 63.2575 13.6538 63.8823 13.5701C64.5715 13.4799 65.2542 13.3897 65.9434 13.2802C66.5038 13.19 67.0448 13.19 67.6116 13.1385C68.2235 13.0805 68.8225 12.9453 69.4344 12.9324C70.6131 12.9002 71.94 12.7327 73.1122 12.8422C74.1299 12.9388 75.1347 12.9839 76.1524 13.0226C77.8013 13.0805 79.302 13.248 80.9316 13.525C83.6304 13.9758 85.9105 14.5362 88.5255 15.3091C95.2564 17.2994 101.543 20.8806 106.876 25.4215L110.618 28.9189C113.085 31.4502 115.301 34.2199 117.22 37.1892C124.35 48.2161 127.094 61.6198 124.943 74.5598C124.035 80.0217 122.418 84.8589 119.996 89.8507C118.36 93.2258 115.79 96.91 113.426 99.8407L109.072 104.498C108.873 104.671 108.667 104.845 108.454 105.013C106.303 106.739 104.132 108.633 101.878 110.211C99.2949 112.014 96.3642 113.393 93.5109 114.706C86.5868 117.888 78.7739 119.099 71.1928 118.912L67.3025 118.687C60.153 117.888 54.7039 116.33 48.2436 113.051C47.329 112.587 46.4079 112.021 45.5384 111.486C44.1278 110.623 42.7365 109.721 41.3775 108.774C40.5273 108.182 39.6771 107.563 38.8655 106.913L36.3213 104.536C36.2569 104.452 36.1861 104.362 36.1474 104.285C36.1088 104.085 36.0959 103.795 36.141 103.615C36.2376 103.235 36.6305 103.08 36.9847 103.068C37.4227 103.087 38.698 104.111 39.033 104.382C40.5659 105.644 41.9765 106.932 43.6512 108.04C45.0424 108.961 46.4337 109.85 47.8958 110.662C60.2238 117.534 76.3714 119.093 89.6269 114.114C92.4867 113.045 95.2886 111.924 97.9165 110.346C110.122 103.01 117.729 93.3288 121.832 79.6804C122.631 77.0267 123.191 74.0445 123.429 71.2878C123.552 69.948 123.616 68.5954 123.674 67.2557C123.726 65.8709 123.829 64.0481 123.629 62.6955C123.487 61.6971 123.397 60.731 123.313 59.7326C123.159 57.9871 122.856 56.3833 122.45 54.6764C121.761 51.7716 121.033 49.3755 119.951 46.5866C117.877 41.2341 114.766 36.8091 111.198 32.3649C110.586 31.6048 109.852 31.0702 109.253 30.3682C104.512 24.8353 95.1726 19.2703 88.2099 17.235C86.8187 16.8228 85.4274 16.4234 84.0104 16.1014C82.6385 15.7858 81.2472 15.5474 79.856 15.322C71.9658 14.0274 62.4589 15.161 54.9809 17.9435C53.5638 18.4652 52.2112 19.032 50.8458 19.6761C38.4468 25.4859 29.2362 35.7979 24.4635 48.5768C23.7485 50.4898 21.9966 56.1836 22.3379 58.0129L23.2783 63.0046L26.75 59.2946C27.2717 58.7343 27.7612 58.1481 28.3023 57.6135C28.8369 57.0854 29.4037 56.4348 30.1702 56.8406C30.3054 56.9115 30.518 57.0532 30.5824 57.2013C30.8014 57.7552 29.8868 58.9017 29.5647 59.2431C28.5793 60.2865 27.4521 61.169 26.4602 62.2317L20.1351 68.5697C19.9483 68.6856 19.6842 68.8209 19.549 68.7758C19.0273 68.5761 18.3123 67.436 18.0354 66.9723L18.016 66.9337L11.8649 57.1756C11.034 55.6941 12.2835 54.7409 13.3141 55.8874C13.6168 56.2223 13.8423 56.6538 14.0548 57.0467C14.525 57.8969 14.9888 58.6248 15.6973 59.314L18.9242 62.47L21.9193 50.2515C22.6922 47.6687 23.7034 45.176 24.8564 42.7477C26.8337 38.5933 29.4359 34.7287 32.4567 31.2634L35.0718 28.4681Z" fill="#153540"/>
<path fill-rule="evenodd" clip-rule="evenodd" d="M35.5356 28.9189C42.6916 21.7823 52.1212 16.3397 62.124 14.5684C62.7359 14.4589 63.3543 14.2915 63.9597 14.2077C64.6554 14.1175 65.351 14.0274 66.0466 13.9179C66.5877 13.8277 67.1223 13.8341 67.6697 13.7826C68.2623 13.7246 68.8613 13.5894 69.4539 13.5765C70.6004 13.5443 71.9208 13.3768 73.048 13.4799C74.0785 13.5829 75.0962 13.628 76.1268 13.6667C77.7499 13.7246 79.2249 13.8921 80.8287 14.1626C83.4952 14.6071 85.7496 15.161 88.3453 15.9275C94.9795 17.8855 101.189 21.4216 106.451 25.8981L110.167 29.3763C112.596 31.8754 114.786 34.6128 116.679 37.537C123.726 48.4287 126.437 61.6714 124.305 74.4567C123.41 79.8543 121.813 84.6335 119.417 89.5673C117.806 92.8909 115.269 96.53 112.943 99.4156L108.628 104.034C108.441 104.195 108.248 104.356 108.055 104.51C105.91 106.23 103.752 108.111 101.504 109.683C98.9601 111.467 96.0552 112.826 93.2405 114.12C86.413 117.257 78.6967 118.449 71.2187 118.268L67.3541 118.043C60.2884 117.257 54.923 115.718 48.5336 112.471C46.2921 111.338 43.8059 109.683 41.7512 108.246C40.9139 107.666 40.083 107.061 39.2843 106.43L36.7981 104.105C36.7852 104.085 36.7723 104.066 36.7594 104.053C36.753 103.956 36.753 103.847 36.7659 103.776C36.811 103.75 36.8818 103.731 36.9398 103.718C37.4422 103.892 38.5565 104.826 38.9172 105.122C40.3535 106.327 41.719 107.538 43.2906 108.575C44.7012 109.509 46.1053 110.404 47.5803 111.222C60.0758 118.191 76.4166 119.763 89.8589 114.719C92.751 113.631 95.585 112.497 98.2516 110.9C110.592 103.48 118.302 93.6702 122.45 79.8672C123.262 77.1684 123.829 74.1476 124.073 71.3393C124.189 69.9996 124.26 68.6276 124.318 67.2815C124.37 65.8516 124.473 64.003 124.267 62.5989C124.125 61.6198 124.041 60.6601 123.951 59.6747C123.797 57.9034 123.487 56.2609 123.082 54.5283C122.386 51.5977 121.645 49.1759 120.55 46.3547C118.451 40.9378 115.307 36.4613 111.7 31.9655C111.076 31.1926 110.348 30.658 109.742 29.9495C104.918 24.3265 95.4755 18.6907 88.3968 16.6167C85.4533 15.7536 82.9864 15.1803 79.9591 14.6844C71.9594 13.3768 62.343 14.5169 54.7556 17.338C53.3192 17.8662 51.9537 18.4459 50.5689 19.09C38.0219 24.9706 28.6953 35.4115 23.8581 48.3514C23.0852 50.4383 21.3268 56.1128 21.7068 58.1288L22.8855 64.3702L27.2203 59.7326C27.5939 59.3333 29.1333 57.5041 29.7001 57.3366C29.7581 57.3559 29.8289 57.3881 29.8676 57.4139C29.8933 57.4203 29.9255 57.4396 29.9577 57.4654C29.8805 57.8712 29.3136 58.5668 29.0946 58.7987C28.1156 59.8421 26.9884 60.7246 25.9965 61.7809L19.7359 68.0608C19.7166 68.0737 19.6908 68.0802 19.6715 68.093C19.2979 67.7903 18.7762 66.953 18.5894 66.6438L18.5701 66.5987L12.4189 56.8471C12.0518 56.1837 12.245 55.6684 12.8376 56.3189C13.0952 56.6088 13.3078 57.021 13.4881 57.3559C13.997 58.2641 14.4929 59.0435 15.2465 59.7777L19.2786 63.7196L22.5442 50.419C23.3042 47.8748 24.3026 45.4143 25.4426 43.0247C27.3878 38.9282 29.9577 35.1152 32.9335 31.695L35.5356 28.9189Z" fill="#153540"/>
<path fill-rule="evenodd" clip-rule="evenodd" d="M21.1657 58.7407L22.2736 64.602L19.7101 67.172C19.4782 66.8693 19.2528 66.5021 19.1497 66.3153L19.1175 66.2638L16.1482 61.5619L19.6392 64.9692L21.1657 58.7407Z" fill="#153540"/>
<path fill-rule="evenodd" clip-rule="evenodd" d="M21.082 61.7809L21.5779 64.3895L20.0707 65.8967L21.082 61.7809ZM19.8711 66.0963L19.8067 66.1608C19.768 66.0963 19.7294 66.0384 19.7036 65.9868L19.665 65.9289L19.6199 65.8516L19.8711 66.0963Z" fill="#153540"/>
<ellipse cx="72.5308" cy="65.6698" rx="30.9258" ry="31.9636" fill="#ffc45f"/>
<ellipse cx="72.531" cy="65.6699" rx="19.3027" ry="19.9254" fill="#97FBEE"/>
<path fill-rule="evenodd" clip-rule="evenodd" d="M71.5192 56.1223H74.3989V61.5625H68.2495V69.2398H69.4108V72.3117H64.8513V58.8446H71.0864V56.1354L71.5192 56.1223Z" fill="white"/>
<path fill-rule="evenodd" clip-rule="evenodd" d="M76.5036 59.0281H78.6905C78.6905 59.0281 81.0409 59.3299 81.0409 61.4725C81.0409 63.6151 81.0188 63.766 81.0188 63.766C81.0188 63.766 80.8642 65.3912 80.1308 65.6499C79.3974 65.9086 80.9525 66.0379 80.9967 66.6889C81.0409 67.3398 80.9967 70.1075 80.9967 70.1075C80.9967 70.1075 80.8421 71.819 78.5138 71.819C76.1855 71.819 74.5641 71.819 74.5641 71.819V74.8023H71.3037V69.4824H77.5595V65.8439H70.6631V63.766H77.4712V61.6277H76.5611L76.5036 59.0281Z" fill="white"/>
<rect x="17.3796" y="9.85632" width="13.939" height="13.939" transform="rotate(-45 17.3796 9.85632)" fill="#153540"/>
<rect y="33.7364" width="7.36072" height="7.36072" transform="rotate(-45 0 33.7364)" fill="#153540"/>
<rect x="119.176" y="121.406" width="7.36072" height="7.36072" transform="rotate(-45 119.176 121.406)" fill="#153540"/>
<rect x="131.59" y="114.45" width="7.36072" height="7.36072" transform="rotate(-45 131.59 114.45)" fill="#153540"/>
<rect x="119.176" y="107.001" width="7.36072" height="7.36072" transform="rotate(-45 119.176 107.001)" fill="#153540"/>
<rect x="28.2666" y="79.9761" width="4.6589" height="4.6589" transform="rotate(-45 28.2666 79.9761)" fill="#153540"/>
</svg>
