<svg width="713" height="825" viewBox="0 0 713 825" fill="none" xmlns="http://www.w3.org/2000/svg">
<path fill-rule="evenodd" clip-rule="evenodd" d="M300.063 0.362183H429.25V239.704H153.382V577.475H205.48V712.621H0.933594V120.129H280.647V0.938911L300.063 0.362183Z" fill="#ffc45f"/>
<path fill-rule="evenodd" clip-rule="evenodd" d="M515.567 121.475H610.727C610.727 121.475 713 134.932 713 230.477C713 326.021 712.039 332.75 712.039 332.75C712.039 332.75 705.31 405.225 673.398 416.76C641.486 428.294 709.155 434.062 711.078 463.09C713 492.119 711.078 615.539 711.078 615.539C711.078 615.539 704.349 691.859 603.037 691.859C501.725 691.859 431.172 691.859 431.172 691.859V824.891H289.297V587.664H561.513V425.411H261.422V332.75H557.668V237.397H518.066L515.567 121.475Z" fill="#ffc45f"/>
</svg>
